<svg width="64" height="64" viewBox="0 0 64 64" xmlns="http://www.w3.org/2000/svg">
  <!-- Pot shadow -->
  <ellipse cx="32" cy="50" rx="14" ry="3" fill="#9E5A4A"/>
  
  <!-- Pot -->
  <path d="M20 32 h24 l-3 16 a4 4 0 0 1 -4 3 h-10 a4 4 0 0 1 -4 -3 z"
        fill="#C97A5A"/>
  
  <!-- Left Leaf -->
  <path d="M26 30 
           C16 24, 18 14, 30 18
           C36 20, 34 28, 26 30Z"
        fill="#3E7F6F"/>
  
  <!-- Right Leaf -->
  <path d="M38 30
           C48 24, 46 14, 34 18
           C28 20, 30 28, 38 30Z"
        fill="#3E7F6F"/>
  
  <!-- Small Center Leaf -->
  <path d="M32 30
           C28 22, 32 16, 36 22
           C38 26, 35 30, 32 30Z"
        fill="#6FBF8F"/>
  
  <!-- Small Left Leaf -->
  <path d="M28 34
           C22 30, 24 26, 30 28
           C32 29, 31 33, 28 34Z"
        fill="#5AAE7F"/>
  
  <!-- Small Right Leaf -->
  <path d="M36 34
           C42 30, 40 26, 34 28
           C32 29, 33 33, 36 34Z"
        fill="#5AAE7F"/>
</svg>
