<svg width="40" height="40" viewBox="0 0 40 40" fill="none" xmlns="http://www.w3.org/2000/svg">
<path d="M30.2118 1.20844H28.4063C28.4063 0.541172 27.8654 0 27.1978 0H6.17954C5.51219 0 4.9711 0.541016 4.9711 1.20844V33.3255C4.9711 33.9929 5.51219 34.5339 6.17954 34.5339C29.0908 34.5339 27.3051 34.6044 27.6997 34.4237C28.0055 34.2837 28.2425 34.0202 28.3472 33.697H30.2117C30.2118 33.4651 30.2118 1.66133 30.2118 1.20844Z" fill="#60B7FF"/>
<path d="M29.7099 0H27.1978C27.8652 0 28.4063 0.541016 28.4063 1.20844V33.3255C28.4063 33.9929 27.8652 34.5339 27.1978 34.5339H29.7099C30.3773 34.5339 30.9184 33.9929 30.9184 33.3255V1.20844C30.9184 0.541016 30.3773 0 29.7099 0Z" fill="#26A6FE"/>
<path d="M30.9184 8.27817L25.3367 2.69653H8.53251C7.61001 2.69653 6.86212 3.44442 6.86212 4.36692V34.2336C6.86212 34.3363 6.87275 34.4363 6.89048 34.5338H29.7099C30.3774 34.5338 30.9184 33.9928 30.9184 33.3254V8.27817Z" fill="#26A6FE"/>
<path d="M32.8979 8.58927L30.0656 6.82083L27.6204 2.69653H10.8162C9.89367 2.69653 9.14578 3.44442 9.14578 4.36692V34.2336C9.14578 35.1561 9.89367 35.904 10.8162 35.904H32.8655C32.8764 35.904 32.887 35.9026 32.8979 35.9024V8.58927Z" fill="#EAF6FF"/>
<path d="M34.5359 9.61222L32.0238 8.0437V34.2339C32.0238 35.1564 31.2759 35.9043 30.3534 35.9043H32.8655C33.788 35.9043 34.5359 35.1564 34.5359 34.2339V9.61222H34.5359Z" fill="#D8ECFE"/>
<path d="M29.2908 9.612H34.5359L27.6204 2.69653V7.94161C27.6204 8.86411 28.3683 9.612 29.2908 9.612Z" fill="#B3DAFE"/>
<path d="M30.527 13.3974H13.1548C12.821 13.3974 12.5506 13.1269 12.5506 12.7932C12.5506 12.4595 12.821 12.189 13.1548 12.189H30.527C30.8607 12.189 31.1312 12.4595 31.1312 12.7932C31.1312 13.1269 30.8607 13.3974 30.527 13.3974Z" fill="#82AEE3"/>
<path d="M30.527 17.3952H13.1548C12.821 17.3952 12.5506 17.1247 12.5506 16.791C12.5506 16.4573 12.821 16.1868 13.1548 16.1868H30.527C30.8607 16.1868 31.1312 16.4573 31.1312 16.791C31.1312 17.1247 30.8607 17.3952 30.527 17.3952Z" fill="#82AEE3"/>
<path d="M37.1113 19.9999H35.8017C35.5213 19.5152 34.9973 19.1901 34.4063 19.1901C33.5775 19.1901 15.2877 19.1901 14.1217 19.1901L12.0006 15.6806H10.7148C10.4889 15.3787 10.1321 15.1958 9.74759 15.1958H2.67876C2.01134 15.1958 1.47032 15.7369 1.47032 16.4042V38.3886C1.47032 39.2785 2.19173 39.9999 3.08157 39.9999H34.4063C34.6724 39.9999 34.943 39.931 35.1823 39.7987H35.1854C35.3884 39.6863 35.5641 39.5308 35.7014 39.3453H37.1112L37.1113 19.9999Z" fill="#FDB441"/>
<path d="M10.8184 15.844L12.5692 19.1901H15.0813L13.3305 15.844C13.122 15.4455 12.7095 15.1958 12.2598 15.1958H9.74767C10.1974 15.1958 10.6099 15.4455 10.8184 15.844Z" fill="#FEA613"/>
<path d="M36.9184 19.1902H34.4064C35.2963 19.1902 36.0177 19.9116 36.0177 20.8014V38.3887C36.0177 39.2786 35.2963 40 34.4064 40H36.9184C37.8084 40 38.5297 39.2785 38.5297 38.3887V20.8015C38.5297 19.9116 37.8083 19.1902 36.9184 19.1902Z" fill="#FEA613"/>
</svg>
