<svg width="40" height="40" viewBox="0 0 40 40" fill="none" xmlns="http://www.w3.org/2000/svg">
<g clip-path="url(#clip0_849_9159)">
<path d="M35.493 5.34423L32.8141 0.439697H15.3526C14.394 0.439697 13.6169 1.21681 13.6169 2.1754V33.2103C13.6169 34.1689 14.394 34.946 15.3526 34.946H35.9829C36.9415 34.946 37.7186 34.1689 37.7186 33.2103V33.092H38.994V7.62564L35.493 5.34423Z" fill="#60B7FF"/>
<path d="M35.8342 12.4699H17.7827C17.4492 12.4699 17.1791 12.1996 17.1791 11.8663C17.1791 11.5329 17.4493 11.2627 17.7827 11.2627H35.8342C36.1677 11.2627 36.4378 11.5329 36.4378 11.8663C36.4378 12.1996 36.1677 12.4699 35.8342 12.4699Z" fill="#0055A3"/>
<path d="M35.8342 17.0983H17.7827C17.4492 17.0983 17.1791 16.8281 17.1791 16.4947C17.1791 16.1613 17.4493 15.8911 17.7827 15.8911H35.8342C36.1677 15.8911 36.4378 16.1613 36.4378 16.4947C36.4378 16.8281 36.1677 17.0983 35.8342 17.0983Z" fill="#0055A3"/>
<path d="M35.8342 21.727H17.7827C17.4492 21.727 17.1791 21.4567 17.1791 21.1234C17.1791 20.79 17.4493 20.5198 17.7827 20.5198H35.8342C36.1677 20.5198 36.4378 20.79 36.4378 21.1234C36.4378 21.4567 36.1677 21.727 35.8342 21.727Z" fill="#0055A3"/>
<path d="M35.8342 26.3556H17.7827C17.4492 26.3556 17.1791 26.0854 17.1791 25.752C17.1791 25.4187 17.4493 25.1484 17.7827 25.1484H35.8342C36.1677 25.1484 36.4378 25.4187 36.4378 25.752C36.4378 26.0854 36.1677 26.3556 35.8342 26.3556Z" fill="#0055A3"/>
<path d="M37.7186 6.79468V33.2105C37.7186 34.1691 36.9415 34.9462 35.9829 34.9462H38.2643C39.2229 34.9462 40 34.1691 40 33.2105V7.62577L37.7186 6.79468Z" fill="#26A6FE"/>
<path d="M34.5498 7.62564H40L32.8141 0.439697V5.88993C32.8141 6.84853 33.5912 7.62564 34.5498 7.62564Z" fill="#0055A3"/>
<path d="M22.366 39.5605C23.3246 39.5605 24.1017 38.7834 24.1017 37.8248V37.7869H25.1911V12.2401L21.6096 9.57764L19.1972 5.0542H1.7357C0.777109 5.0542 0 5.83131 0 6.7899V37.8248C0 38.7834 0.777109 39.5605 1.7357 39.5605H22.366Z" fill="#EAF6FF"/>
<path d="M24.1017 9.95874V12.2401V37.8248C24.1017 38.7834 23.3246 39.5605 22.366 39.5605H24.6474C25.606 39.5605 26.3831 38.7834 26.3831 37.8248V12.2401L24.1017 9.95874Z" fill="#D8ECFE"/>
<path d="M20.933 12.2401H26.3832L19.1973 5.0542V10.5044C19.1972 11.463 19.9743 12.2401 20.933 12.2401Z" fill="#B3DAFE"/>
<path d="M22.2174 17.0983H4.16579C3.83235 17.0983 3.56219 16.8281 3.56219 16.4947C3.56219 16.1613 3.83243 15.8911 4.16579 15.8911H22.2174C22.5508 15.8911 22.8209 16.1613 22.8209 16.4947C22.8209 16.8281 22.5508 17.0983 22.2174 17.0983Z" fill="#82AEE3"/>
<path d="M22.2174 21.727H4.16579C3.83235 21.727 3.56219 21.4567 3.56219 21.1234C3.56219 20.79 3.83243 20.5198 4.16579 20.5198H22.2174C22.5508 20.5198 22.8209 20.79 22.8209 21.1234C22.8209 21.4567 22.5508 21.727 22.2174 21.727Z" fill="#82AEE3"/>
<path d="M22.2174 26.3556H4.16579C3.83235 26.3556 3.56219 26.0854 3.56219 25.752C3.56219 25.4187 3.83243 25.1484 4.16579 25.1484H22.2174C22.5508 25.1484 22.8209 25.4187 22.8209 25.752C22.8209 26.0854 22.5508 26.3556 22.2174 26.3556Z" fill="#82AEE3"/>
<path d="M22.2174 30.9843H4.16579C3.83235 30.9843 3.56219 30.7141 3.56219 30.3807C3.56219 30.0473 3.83243 29.7771 4.16579 29.7771H22.2174C22.5508 29.7771 22.8209 30.0473 22.8209 30.3807C22.821 30.7141 22.5508 30.9843 22.2174 30.9843Z" fill="#82AEE3"/>
</g>
<defs>
<clipPath id="clip0_849_9159">
<rect width="40" height="40" fill="white"/>
</clipPath>
</defs>
</svg>
