<svg width="40" height="39" viewBox="0 0 40 39" fill="none" xmlns="http://www.w3.org/2000/svg">
<rect x="0.5" y="0.5" width="39" height="38" rx="11.5" fill="#FF5247"/>
<rect x="0.5" y="0.5" width="39" height="38" rx="11.5" stroke="#FF6D6D"/>
<g clip-path="url(#clip0_1187_155553)">
<path fill-rule="evenodd" clip-rule="evenodd" d="M27 26.7916V12.2083C27 11.7441 26.8156 11.299 26.4874 10.9708C26.1592 10.6426 25.7141 10.4583 25.25 10.4583H8.33331C7.86918 10.4583 7.42406 10.6426 7.09588 10.9708C6.76769 11.299 6.58331 11.7441 6.58331 12.2083V26.7916C6.58331 27.2557 6.76769 27.7008 7.09588 28.029C7.42406 28.3572 7.86918 28.5416 8.33331 28.5416H25.25C25.7141 28.5416 26.1592 28.3572 26.4874 28.029C26.8156 27.7008 27 27.2557 27 26.7916ZM9.39257 15.9999V23.5599H12.7992V22.4306H11.0632V15.9999H9.39257ZM13.5399 15.9999V23.5599H15.2106V15.9999H13.5399ZM17.3459 23.5599L15.9832 15.9999H17.4112L18.2232 21.1333L18.9792 15.9999H20.4912L19.1099 23.5599H17.3459ZM21.2506 15.9999V23.5599H24.6666V22.4306H22.9213V20.1719H24.2373V19.0146H22.9213V17.1386H24.648V15.9999H21.2506Z" fill="white"/>
<path d="M32.9669 13.3913C33.0919 13.3683 33.2203 13.3721 33.3437 13.4023C33.5316 13.4508 33.6981 13.5604 33.8169 13.7138C33.9357 13.8673 34.0001 14.0559 34 14.2499V24.7149C34.0026 24.8708 33.9652 25.0248 33.8912 25.1621C33.8173 25.2994 33.7094 25.4155 33.5778 25.4991C33.4356 25.5852 33.2717 25.6289 33.1056 25.6252C32.9394 25.6216 32.7776 25.5706 32.6394 25.4784L28.9447 23.0152C28.8847 22.9752 28.8356 22.9211 28.8016 22.8575C28.7677 22.794 28.7499 22.7231 28.75 22.651V16.3488C28.7499 16.2768 28.7677 16.2058 28.8016 16.1423C28.8356 16.0788 28.8847 16.0246 28.9447 15.9846L32.6186 13.5357C32.7232 13.4635 32.8419 13.4143 32.9669 13.3913Z" fill="white"/>
</g>
<defs>
<clipPath id="clip0_1187_155553">
<rect width="28" height="28" fill="white" transform="translate(6 5.5)"/>
</clipPath>
</defs>
</svg>
