<svg width="40" height="40" viewBox="0 0 40 40" fill="none" xmlns="http://www.w3.org/2000/svg">
<rect x="0.5" y="1" width="39" height="38" rx="11.5" fill="#539461"/>
<rect x="0.5" y="1" width="39" height="38" rx="11.5" stroke="#96BF9C"/>
<g clip-path="url(#clip0_3438_15720)">
<path fill-rule="evenodd" clip-rule="evenodd" d="M26.9999 27.2917V12.7083C26.9999 12.2442 26.8155 11.7991 26.4874 11.4709C26.1592 11.1427 25.7141 10.9583 25.2499 10.9583H8.33325C7.86912 10.9583 7.424 11.1427 7.09582 11.4709C6.76763 11.7991 6.58325 12.2442 6.58325 12.7083V27.2917C6.58325 27.7558 6.76763 28.2009 7.09582 28.5291C7.424 28.8573 7.86912 29.0417 8.33325 29.0417H25.2499C25.7141 29.0417 26.1592 28.8573 26.4874 28.5291C26.8155 28.2009 26.9999 27.7558 26.9999 27.2917ZM9.39251 16.5V24.06H12.7992V22.9307H11.0632V16.5H9.39251ZM13.5399 16.5V24.06H15.2105V16.5H13.5399ZM17.3458 24.06L15.9832 16.5H17.4112L18.2232 21.6333L18.9792 16.5H20.4912L19.1098 24.06H17.3458ZM21.2506 16.5V24.06H24.6666V22.9307H22.9213V20.672H24.2373V19.5147H22.9213V17.6387H24.6479V16.5H21.2506Z" fill="white"/>
<path d="M32.9668 13.8914C33.0918 13.8684 33.2202 13.8721 33.3437 13.9023C33.5316 13.9509 33.698 14.0605 33.8168 14.2139C33.9356 14.3674 34 14.5559 33.9999 14.75V25.215C34.0025 25.3709 33.9651 25.5249 33.8912 25.6622C33.8173 25.7995 33.7093 25.9156 33.5777 25.9992C33.4355 26.0853 33.2717 26.129 33.1055 26.1253C32.9393 26.1216 32.7776 26.0707 32.6393 25.9784L28.9446 23.5153C28.8847 23.4753 28.8355 23.4212 28.8016 23.3576C28.7676 23.2941 28.7499 23.2231 28.7499 23.1511V16.8489C28.7499 16.7769 28.7676 16.7059 28.8016 16.6424C28.8355 16.5788 28.8847 16.5247 28.9446 16.4847L32.6185 14.0358C32.7231 13.9636 32.8418 13.9144 32.9668 13.8914Z" fill="white"/>
</g>
<defs>
<clipPath id="clip0_3438_15720">
<rect width="28" height="28" fill="white" transform="translate(6 6)"/>
</clipPath>
</defs>
</svg>
