<svg width="40" height="40" viewBox="0 0 40 40" fill="none" xmlns="http://www.w3.org/2000/svg">
<g clip-path="url(#clip0_507_11667)">
<path d="M34.7183 0.312256H12.447C9.54211 0.312256 7.16531 2.68905 7.16531 5.59397V7.39116H27.3115C30.2164 7.39116 32.5932 9.76796 32.5932 12.6729V25.8406H34.7183C37.6232 25.8406 40 23.4638 40 20.5589V5.59397C40 2.68897 37.6232 0.312256 34.7183 0.312256Z" fill="#6C7ED6"/>
<path d="M30.9735 7.14966H8.70227C8.1682 7.14966 7.65219 7.2306 7.16531 7.37981V7.39114H27.3115C30.2164 7.39114 32.5932 9.76794 32.5932 12.6729V25.8406H34.7182C35.2523 25.8406 35.7683 25.7597 36.2552 25.6104V12.4314C36.2552 9.52646 33.8784 7.14966 30.9735 7.14966Z" fill="#4F67D2"/>
<path d="M27.553 7.14966H5.28172C2.3768 7.14966 0 9.52646 0 12.4314V27.3962C0 30.3011 2.3768 32.6779 5.28172 32.6779H18.6486C19.2216 32.6779 19.6495 33.2112 19.5184 33.769C19.1639 35.2782 18.6215 36.8741 17.8196 38.5101C17.4595 39.2449 18.2787 39.9918 18.9745 39.5612C20.9862 38.3161 23.8486 36.2323 26.2591 33.2865C26.576 32.8992 27.0526 32.6779 27.553 32.6779C30.4579 32.6779 32.8347 30.3011 32.8347 27.3961V12.4313C32.8347 9.52645 30.4579 7.14966 27.553 7.14966Z" fill="#60B8FE"/>
<path d="M22.9389 33.7691C23.0699 33.2112 22.6422 32.678 22.0691 32.678H18.6486C19.2216 32.678 19.6494 33.2112 19.5184 33.7691C19.1639 35.2782 18.6215 36.8741 17.8196 38.5102C17.4595 39.2449 18.2787 39.9919 18.9744 39.5613C19.7463 39.0835 20.6436 38.4819 21.5923 37.7559C22.2042 36.3838 22.6391 35.0453 22.9389 33.7691Z" fill="#23A8FE"/>
<path d="M3.42055 27.3962V12.4314C3.42055 9.52646 5.79734 7.14966 8.70227 7.14966H5.28172C2.3768 7.14966 0 9.52646 0 12.4314V27.3962C0 30.3011 2.3768 32.6779 5.28172 32.6779H8.70227C5.79727 32.6779 3.42055 30.3012 3.42055 27.3962Z" fill="#23A8FE"/>
<path d="M7.32141 22.0961C8.28938 22.0961 9.07407 21.3114 9.07407 20.3435C9.07407 19.3755 8.28938 18.5908 7.32141 18.5908C6.35345 18.5908 5.56876 19.3755 5.56876 20.3435C5.56876 21.3114 6.35345 22.0961 7.32141 22.0961Z" fill="#DFEBFA"/>
<path d="M12.9824 22.0961C13.9503 22.0961 14.735 21.3114 14.735 20.3435C14.735 19.3755 13.9503 18.5908 12.9824 18.5908C12.0144 18.5908 11.2297 19.3755 11.2297 20.3435C11.2297 21.3114 12.0144 22.0961 12.9824 22.0961Z" fill="#DFEBFA"/>
<path d="M18.6432 22.0961C19.6112 22.0961 20.3959 21.3114 20.3959 20.3435C20.3959 19.3755 19.6112 18.5908 18.6432 18.5908C17.6753 18.5908 16.8906 19.3755 16.8906 20.3435C16.8906 21.3114 17.6753 22.0961 18.6432 22.0961Z" fill="#DFEBFA"/>
<path d="M24.3042 22.0961C25.2721 22.0961 26.0568 21.3114 26.0568 20.3435C26.0568 19.3755 25.2721 18.5908 24.3042 18.5908C23.3362 18.5908 22.5515 19.3755 22.5515 20.3435C22.5515 21.3114 23.3362 22.0961 24.3042 22.0961Z" fill="#DFEBFA"/>
<path d="M7.32141 20.3435C7.32141 19.6949 7.67407 19.1289 8.19774 18.8259C7.93985 18.6767 7.64079 18.5908 7.32141 18.5908C6.35344 18.5908 5.56876 19.3755 5.56876 20.3435C5.56876 21.3114 6.35344 22.0961 7.32141 22.0961C7.64079 22.0961 7.93993 22.0103 8.19774 21.8611C7.67399 21.558 7.32141 20.9921 7.32141 20.3435Z" fill="#B1DBFC"/>
<path d="M12.9823 20.3435C12.9823 19.6949 13.335 19.1289 13.8587 18.8259C13.6008 18.6767 13.3017 18.5908 12.9823 18.5908C12.0144 18.5908 11.2297 19.3755 11.2297 20.3435C11.2297 21.3114 12.0144 22.0961 12.9823 22.0961C13.3017 22.0961 13.6008 22.0103 13.8587 21.8611C13.3349 21.558 12.9823 20.9921 12.9823 20.3435Z" fill="#B1DBFC"/>
<path d="M18.6432 20.3435C18.6432 19.6949 18.9959 19.1289 19.5195 18.8259C19.2616 18.6767 18.9625 18.5908 18.6432 18.5908C17.6752 18.5908 16.8905 19.3755 16.8905 20.3435C16.8905 21.3114 17.6752 22.0961 18.6432 22.0961C18.9626 22.0961 19.2617 22.0103 19.5195 21.8611C18.9959 21.558 18.6432 20.9921 18.6432 20.3435Z" fill="#B1DBFC"/>
<path d="M24.3041 20.3435C24.3041 19.6949 24.6567 19.1289 25.1805 18.8259C24.9226 18.6767 24.6234 18.5908 24.3041 18.5908C23.3362 18.5908 22.5515 19.3755 22.5515 20.3435C22.5515 21.3114 23.3362 22.0961 24.3041 22.0961C24.6235 22.0961 24.9227 22.0103 25.1805 21.8611C24.6567 21.558 24.3041 20.9921 24.3041 20.3435Z" fill="#B1DBFC"/>
</g>
<defs>
<clipPath id="clip0_507_11667">
<rect width="40" height="40" fill="white"/>
</clipPath>
</defs>
</svg>
