<svg width="40" height="40" viewBox="0 0 40 40" fill="none" xmlns="http://www.w3.org/2000/svg">
<g clip-path="url(#clip0_507_11669)">
<path d="M37.1159 7.65088H2.88382V36.9509H37.1159V7.65088Z" fill="#E9EAEB"/>
<path d="M37.1164 7.65088H32.7703V36.9509H37.1164V7.65088Z" fill="#B9BBC1"/>
<path d="M37.2356 7.65064H2.76437V2.8408C2.76437 2.4565 3.07586 2.14502 3.46016 2.14502H36.5398C36.9241 2.14502 37.2356 2.4565 37.2356 2.8408V7.65064Z" fill="#FDC74F"/>
<path d="M36.5398 2.14502H32.8895V5.76588H37.2356V2.8408C37.2356 2.45658 36.9241 2.14502 36.5398 2.14502Z" fill="#FCA629"/>
<path d="M2.88383 16.3725C1.30836 16.3725 0.0310974 15.0953 0.0310974 13.5199V11.1958H5.73649V13.5199C5.73657 15.0953 4.4593 16.3725 2.88383 16.3725Z" fill="#E60D28"/>
<path d="M8.58922 16.3725C7.01375 16.3725 5.73648 15.0953 5.73648 13.5199V11.1958H11.4419V13.5199C11.4419 15.0953 10.1647 16.3725 8.58922 16.3725Z" fill="#F2F2F2"/>
<path d="M14.2946 16.3725C12.7191 16.3725 11.4419 15.0953 11.4419 13.5199V11.1958H17.1473V13.5199C17.1473 15.0953 15.8701 16.3725 14.2946 16.3725Z" fill="#E60D28"/>
<path d="M20 16.3725C18.4245 16.3725 17.1473 15.0953 17.1473 13.5199V11.1958H22.8527V13.5199C22.8527 15.0953 21.5755 16.3725 20 16.3725Z" fill="#F2F2F2"/>
<path d="M25.7054 16.3725C24.1299 16.3725 22.8527 15.0953 22.8527 13.5199V11.1958H28.5581V13.5199C28.5581 15.0953 27.2809 16.3725 25.7054 16.3725Z" fill="#E60D28"/>
<path d="M31.4108 16.3725C29.8353 16.3725 28.558 15.0953 28.558 13.5199V11.1958H34.2634V13.5199C34.2635 15.0953 32.9862 16.3725 31.4108 16.3725Z" fill="#F2F2F2"/>
<path d="M37.1162 16.3725C35.5407 16.3725 34.2634 15.0953 34.2634 13.5199V11.1958H39.9688V13.5199C39.9689 15.0953 38.6916 16.3725 37.1162 16.3725Z" fill="#E60D28"/>
<path d="M5.73649 11.1959H0.0310974L2.76149 5.76587H7.6868L5.73649 11.1959Z" fill="#FC502A"/>
<path d="M11.4419 11.1959H5.73648L7.68679 5.76587H12.612L11.4419 11.1959Z" fill="white"/>
<path d="M17.1473 11.1959H11.4419L12.612 5.76587H17.5373L17.1473 11.1959Z" fill="#FC502A"/>
<path d="M22.8527 11.1959H17.1473L17.5374 5.76587H22.4627L22.8527 11.1959Z" fill="white"/>
<path d="M28.558 11.1959H22.8526L22.4626 5.76587H27.388L28.558 11.1959Z" fill="#FC502A"/>
<path d="M34.2634 11.1959H28.558L27.388 5.76587H32.3132L34.2634 11.1959Z" fill="white"/>
<path d="M39.9688 11.1959H34.2634L32.3132 5.76587H37.2385L39.9688 11.1959Z" fill="#FC502A"/>
<path d="M38.6971 34.2737H1.30289C0.583359 34.2737 0 34.857 0 35.5766V37.4859C0 37.6899 0.165391 37.8552 0.369297 37.8552H39.6306C39.8346 37.8552 39.9999 37.6898 39.9999 37.4859V35.5766C40 34.857 39.4166 34.2737 38.6971 34.2737Z" fill="#8B8996"/>
<path d="M38.6971 34.2737H35.6406V37.8552H39.6307C39.8347 37.8552 40 37.6899 40 37.4859V35.5766C40 34.857 39.4167 34.2737 38.6971 34.2737Z" fill="#706F7F"/>
<path d="M33.7444 30.4444H16.173C15.8863 30.4444 15.6539 30.212 15.6539 29.9253V20.2564C15.6539 19.9697 15.8863 19.7373 16.173 19.7373H33.7444C34.0311 19.7373 34.2635 19.9697 34.2635 20.2564V29.9254C34.2635 30.212 34.0311 30.4444 33.7444 30.4444Z" fill="#00C6C8"/>
<path d="M33.7444 19.7373H29.904V30.4444H33.7444C34.0311 30.4444 34.2635 30.212 34.2635 29.9253V20.2564C34.2635 19.9697 34.0311 19.7373 33.7444 19.7373Z" fill="#0FB0C0"/>
<path d="M13.186 34.2737H5.16913V20.2564C5.16913 19.9697 5.40155 19.7373 5.68827 19.7373H12.6669C12.9536 19.7373 13.186 19.9697 13.186 20.2564V34.2737Z" fill="#00C6C8"/>
<path d="M12.6669 19.7373H8.82648V34.2737H13.1859V20.2564C13.186 19.9697 12.9536 19.7373 12.6669 19.7373Z" fill="#0FB0C0"/>
<path d="M10.9457 27.948C11.2791 27.948 11.5493 27.6777 11.5493 27.3444V26.2579C11.5493 25.9245 11.2791 25.6543 10.9457 25.6543C10.6123 25.6543 10.3421 25.9245 10.3421 26.2579V27.3444C10.342 27.6777 10.6123 27.948 10.9457 27.948Z" fill="white"/>
</g>
<defs>
<clipPath id="clip0_507_11669">
<rect width="40" height="40" fill="white"/>
</clipPath>
</defs>
</svg>
