<svg width="40" height="40" viewBox="0 0 40 40" fill="none" xmlns="http://www.w3.org/2000/svg">
<g clip-path="url(#clip0_507_11666)">
<path d="M28.118 24.0043C27.5063 23.1735 26.399 22.9176 25.4849 23.3963L17.709 27.4675C17.4698 27.5928 17.347 27.865 17.4115 28.1271C17.476 28.3893 17.711 28.5735 17.9809 28.5735H24.4877C24.5851 28.5735 24.6811 28.5492 24.7667 28.5028L27.4346 27.059C27.9627 26.7732 28.3407 26.2732 28.4717 25.6873C28.6029 25.1012 28.4739 24.4878 28.118 24.0043Z" fill="#F7B081"/>
<path d="M24.4877 28.5734C24.5851 28.5734 24.6811 28.5491 24.7667 28.5027L27.4346 27.0589C27.9627 26.7731 28.3407 26.2731 28.4717 25.6872C28.5752 25.2247 28.5159 24.7454 28.3116 24.3259L20.604 28.5734H24.4877Z" fill="#DB9975"/>
<path d="M32.243 25.2994C31.6861 24.3806 30.5096 24.0614 29.5645 24.5726L24.2084 27.4714C23.9723 27.5991 23.8531 27.8708 23.9191 28.1311C23.985 28.3914 24.2191 28.5736 24.4876 28.5736H25.8233C26.3809 28.5736 26.8345 29.0272 26.8345 29.5848C26.8345 29.7902 26.942 29.9806 27.1178 30.0868C27.2109 30.143 27.3158 30.1713 27.4209 30.1713C27.5145 30.1713 27.6084 30.1489 27.694 30.1038L31.4591 28.1229C31.9479 27.8656 32.3131 27.4128 32.4609 26.8806C32.6088 26.3482 32.5294 25.7719 32.243 25.2994Z" fill="#F7B081"/>
<path d="M32.461 26.8806C32.6089 26.3482 32.5295 25.772 32.2431 25.2995C32.2186 25.2591 32.1925 25.2202 32.1656 25.1821L26.048 28.5997C26.4977 28.7022 26.8346 29.1046 26.8346 29.5849C26.8346 29.7903 26.942 29.9807 27.1179 30.0869C27.2109 30.1431 27.3159 30.1713 27.421 30.1713C27.5146 30.1713 27.6084 30.1489 27.6941 30.1038L31.4591 28.123C31.948 27.8656 32.3131 27.4128 32.461 26.8806Z" fill="#DB9975"/>
<path d="M36.5224 26.1134C35.9356 25.2934 34.8203 25.0291 33.9278 25.4986L27.1479 29.0656C26.9552 29.1669 26.8345 29.3668 26.8345 29.5846C26.8345 30.0929 26.4544 30.5241 25.9501 30.5879L16.0102 31.8446C15.7164 31.8817 15.4964 32.132 15.4973 32.4281C15.4982 32.7242 15.7196 32.9732 16.0138 33.0086L20.2352 33.5165C21.0211 33.6111 21.806 33.6581 22.587 33.6581C25.8693 33.6581 29.0808 32.8283 31.9897 31.214L35.8568 29.0679C36.3621 28.7876 36.7247 28.3036 36.8516 27.7398C36.9786 27.1761 36.8585 26.5832 36.5224 26.1134Z" fill="#F7B081"/>
<path d="M31.9897 31.2142L35.8568 29.0681C36.3621 28.7878 36.7247 28.3037 36.8516 27.7399C36.9577 27.2686 36.8905 26.7771 36.6694 26.354L26.9471 31.6356C26.9471 31.6356 25.3038 31.3521 24.8265 31.3328C24.6472 31.3255 22.6055 31.3237 20.1261 31.3242L16.0104 31.8446C15.7166 31.8817 15.4966 32.1321 15.4974 32.4281C15.4984 32.7242 15.7198 32.9733 16.0139 33.0086L20.2354 33.5166C21.0213 33.6111 21.8062 33.6581 22.5871 33.6581C25.8694 33.6582 29.0808 32.8284 31.9897 31.2142Z" fill="#DB9975"/>
<path d="M27.4294 18.9511C27.3281 18.8835 24.9257 17.3058 22.7303 18.026C21.4349 18.451 20.5557 19.5631 20.0437 20.4273C19.5318 19.5632 18.6526 18.451 17.3571 18.026C15.1619 17.3059 12.7594 18.8835 12.6581 18.9511C12.4334 19.1011 12.3401 19.3852 12.4323 19.6392C12.4737 19.7535 13.4748 22.4478 15.6702 23.1681C16.0765 23.3013 16.4898 23.356 16.8946 23.356C18.232 23.356 19.4731 22.7596 20.0437 22.4392C20.6141 22.7597 21.8552 23.356 23.1927 23.356C23.5973 23.356 24.0109 23.3013 24.4172 23.1681C26.6126 22.4478 27.6135 19.7535 27.6551 19.6392C27.7474 19.3852 27.6542 19.1011 27.4294 18.9511Z" fill="#8ACC19"/>
<path d="M27.4294 18.9512C27.4257 18.9487 27.418 18.9436 27.4082 18.9373C26.9881 19.7945 26.0223 21.3751 24.4173 21.9016C24.0112 22.0348 23.5975 22.0895 23.1929 22.0895C21.8553 22.0895 20.6142 21.4932 20.0438 21.1726C19.4734 21.4932 18.2322 22.0894 16.8948 22.0895C16.4901 22.0895 16.0767 22.0349 15.6703 21.9016C14.0654 21.3751 13.0995 19.7946 12.6794 18.9373C12.6697 18.9436 12.6619 18.9487 12.6583 18.9512C12.4335 19.1012 12.3402 19.3852 12.4324 19.6392C12.4739 19.7535 13.4749 22.4479 15.6703 23.1681C16.0766 23.3014 16.49 23.356 16.8948 23.356C18.2322 23.356 19.4733 22.7597 20.0438 22.4392C20.6142 22.7598 21.8553 23.356 23.1929 23.356C23.5974 23.356 24.0111 23.3014 24.4173 23.1681C26.6127 22.4479 27.6137 19.7535 27.6552 19.6392C27.7474 19.3852 27.6542 19.1012 27.4294 18.9512Z" fill="#79AF10"/>
<path d="M20.0484 25.1048C19.7245 25.1048 19.4622 24.8424 19.4619 24.5187L19.4573 17.0521C19.4571 16.7281 19.7196 16.4655 20.0434 16.4653C20.0435 16.4653 20.0437 16.4653 20.0437 16.4653C20.3676 16.4653 20.6299 16.7277 20.6301 17.0514L20.6348 24.518C20.635 24.8419 20.3726 25.1046 20.0487 25.1047C20.0486 25.1048 20.0484 25.1048 20.0484 25.1048Z" fill="#739B10"/>
<path d="M30.3489 31.2219C25.3799 25.1964 22.0022 23.9316 20.0435 23.9316C18.3306 23.9316 16.3441 24.8619 14.1393 26.6967C13.9566 26.8488 13.8837 27.0959 13.9547 27.3227C14.0257 27.5494 14.2265 27.7109 14.4632 27.7318C16.401 27.9018 17.7695 28.5025 17.783 28.5085C17.8584 28.5421 17.9398 28.5595 18.0223 28.5595H25.8742C26.4329 28.5595 26.8873 29.0141 26.8873 29.5727C26.8873 30.0819 26.5064 30.5139 26.0013 30.5777L16.0492 31.8359C15.7554 31.873 15.5354 32.1234 15.5362 32.4195C15.5371 32.7155 15.7586 32.9645 16.0527 32.9999L20.2795 33.5085C21.0494 33.6012 21.8229 33.6472 22.5955 33.6472C25.1714 33.6472 27.7366 33.1356 30.1231 32.1359C30.2943 32.0641 30.4214 31.9158 30.4659 31.7357C30.5103 31.5555 30.467 31.365 30.3489 31.2219Z" fill="#AA5D24"/>
<path d="M30.3489 31.2219C25.3799 25.1964 22.0022 23.9316 20.0435 23.9316C19.4682 23.9316 18.8619 24.0371 18.2269 24.246C19.775 24.7542 21.8028 25.9733 24.3427 28.5594H25.8741C26.4328 28.5594 26.8873 29.0139 26.8873 29.5725C26.8873 30.028 26.5821 30.4209 26.1562 30.5446C26.3437 30.7636 26.5333 30.9888 26.7255 31.2218C26.7968 31.3082 27.4019 32.1945 27.8607 32.9228C28.6285 32.7077 29.3844 32.4452 30.123 32.1358C30.2942 32.0641 30.4213 31.9157 30.4659 31.7356C30.5103 31.5555 30.467 31.365 30.3489 31.2219Z" fill="#8E4821"/>
<path d="M39.5466 27.8838C38.8816 27.0035 37.6899 26.7377 36.7137 27.2516C36.7098 27.2536 36.706 27.2556 36.7022 27.2578L31.4206 30.1887C28.1921 31.9803 24.5663 32.7431 20.9041 32.4083L26.0973 31.7517C27.1863 31.614 28.0074 30.6825 28.0074 29.5849C28.0074 28.3806 27.0277 27.4008 25.8234 27.4008H18.0999C17.4785 27.1469 14.622 26.0974 11.2459 26.7249C7.98977 27.3302 5.32367 29.2953 4.63219 29.8412H0.586406C0.2625 29.8412 0 30.1038 0 30.4276V38.1792C0 38.5031 0.262578 38.7656 0.586406 38.7656H4.81359L18.1062 39.9502C18.4064 39.9769 18.7059 39.9897 19.0055 39.9897C22.817 39.9896 26.568 37.9138 29.9053 36.0667C30.3108 35.8424 30.7113 35.6207 31.1061 35.4059L38.8292 31.2046C39.403 30.8924 39.8113 30.3472 39.9492 29.7086C40.0873 29.0703 39.9405 28.405 39.5466 27.8838Z" fill="#FFC89F"/>
<path d="M38.8293 28.9904L31.1062 33.1916C30.7113 33.4064 30.3108 33.6281 29.9054 33.8525C26.5679 35.6996 22.8171 37.7752 19.0055 37.7754C18.7059 37.7754 18.4065 37.7626 18.1062 37.7359L4.81359 36.5513H0.586406C0.2625 36.5513 0 36.2887 0 35.9648V38.1788C0 38.5027 0.262578 38.7652 0.586406 38.7652H4.81359L18.1062 39.9497C18.4064 39.9764 18.7059 39.9893 19.0055 39.9893C22.817 39.9891 26.568 37.9134 29.9053 36.0663C30.3108 35.8419 30.7113 35.6203 31.1061 35.4054L38.8292 31.2042C39.403 30.892 39.8113 30.3468 39.9492 29.7082C40.0663 29.1657 39.9773 28.6043 39.7066 28.1279C39.5025 28.4879 39.2009 28.7882 38.8293 28.9904Z" fill="#F7B081"/>
<path d="M20.0438 0.0102539C15.1838 0.0102539 11.2299 3.96416 11.2299 8.82408C11.2299 13.684 15.1838 17.6379 20.0438 17.6379C24.9038 17.6379 28.8576 13.684 28.8576 8.82408C28.8576 3.96416 24.9038 0.0102539 20.0438 0.0102539Z" fill="#FFD039"/>
<path d="M20.0438 0.0102539C19.7371 0.0102539 19.434 0.0261133 19.1353 0.0568945C23.5701 0.513066 27.0407 4.27088 27.0407 8.82424C27.0407 13.3776 23.5702 17.1354 19.1353 17.5916C19.434 17.6223 19.7371 17.6382 20.0438 17.6382C24.9038 17.6382 28.8576 13.6843 28.8576 8.82439C28.8576 3.96447 24.9038 0.0102539 20.0438 0.0102539Z" fill="#FFAE47"/>
<path d="M20.0438 14.7291C23.3051 14.7291 25.9489 12.0853 25.9489 8.82402C25.9489 5.56274 23.3051 2.91895 20.0438 2.91895C16.7825 2.91895 14.1387 5.56274 14.1387 8.82402C14.1387 12.0853 16.7825 14.7291 20.0438 14.7291Z" fill="#F99608"/>
<path d="M20.1668 8.235C19.7952 8.20352 19.5409 8.09234 19.4109 7.90461C19.274 7.70695 19.2654 7.42781 19.2823 7.22852C19.302 6.99656 19.3955 6.79758 19.5458 6.6682C19.7239 6.51461 19.9928 6.44836 20.3229 6.47633C20.8183 6.51828 21.008 7.19711 21.0087 7.19977C21.0887 7.51359 21.4076 7.70328 21.7218 7.62344C22.0356 7.54359 22.2253 7.22438 22.1455 6.91047C22.1359 6.87297 22.0454 6.53359 21.8127 6.18047C21.5113 5.72289 21.1055 5.43469 20.6303 5.33758V4.75438C20.6303 4.43047 20.3678 4.16797 20.0439 4.16797C19.7199 4.16797 19.4574 4.43055 19.4574 4.75438V5.40492C19.1598 5.50023 18.937 5.64461 18.7802 5.77977C18.3962 6.11078 18.1594 6.59008 18.1138 7.12953C18.0663 7.69031 18.1814 8.1893 18.4469 8.57258C18.6798 8.90891 19.1501 9.32602 20.0679 9.40383C21.0438 9.48664 21.1188 9.94312 21.0902 10.2793C21.0683 10.5388 20.9632 10.7795 20.8019 10.9396C20.6181 11.1221 20.361 11.2009 20.0377 11.1734C19.3198 11.1125 18.9475 10.3812 18.9363 10.3589C18.7975 10.0682 18.4496 9.94375 18.1578 10.0809C17.8647 10.2186 17.7386 10.5678 17.8763 10.861C17.8991 10.9098 18.387 11.9221 19.4575 12.2494V12.8944C19.4575 13.2183 19.72 13.4808 20.0439 13.4808C20.3678 13.4808 20.6303 13.2182 20.6303 12.8944V12.3047C21.0937 12.2087 21.4183 11.9802 21.6282 11.7718C21.9891 11.4134 22.213 10.9186 22.2589 10.3784C22.3388 9.43477 21.8312 8.37625 20.1668 8.235Z" fill="#FFD039"/>
</g>
<defs>
<clipPath id="clip0_507_11666">
<rect width="40" height="40" fill="white"/>
</clipPath>
</defs>
</svg>
