<svg width="22" height="22" viewBox="0 0 22 22" fill="none" xmlns="http://www.w3.org/2000/svg">
<path fill-rule="evenodd" clip-rule="evenodd" d="M11 2.42923L8.99029 3.52955L15.7405 7.22417L17.7495 6.1246L11 2.42923ZM20.9773 5.78916C20.9675 5.76512 20.9569 5.74127 20.9453 5.71764C20.9201 5.66417 20.8922 5.61179 20.8619 5.56069C20.6904 5.27218 20.4446 5.03498 20.1503 4.87385C20.1502 4.8738 20.1501 4.87375 20.15 4.8737L11.9 0.356831C11.6241 0.205845 11.3146 0.126709 11 0.126709C10.6854 0.126709 10.3759 0.205845 10.1 0.356831L6.15212 2.51829C6.12039 2.53377 6.08934 2.55076 6.05909 2.56923L1.85 4.8737C1.84991 4.87375 1.84983 4.8738 1.84974 4.87385C1.55535 5.03498 1.3096 5.27218 1.13815 5.56069C1.10778 5.61179 1.07994 5.66417 1.05468 5.71764C1.04312 5.74127 1.03246 5.76512 1.0227 5.78916C0.926109 6.01788 0.87557 6.26434 0.875003 6.51433L0.875 6.51688V15.485L0.875003 15.4876C0.875765 15.8233 0.966644 16.1526 1.13815 16.4412C1.3096 16.7297 1.55535 16.9669 1.84974 17.128C1.84983 17.1281 1.84991 17.1281 1.85 17.1282L10.0997 21.6449L10.1 21.6451C10.376 21.796 10.6855 21.8752 11 21.8752C11.3145 21.8752 11.624 21.796 11.9 21.6451L11.9003 21.6449L20.15 17.1282C20.1501 17.1281 20.1502 17.1281 20.1503 17.128C20.4453 16.9665 20.6915 16.7286 20.863 16.4392C21.0346 16.1498 21.125 15.8195 21.125 15.4831C21.125 15.483 21.125 15.483 21.125 15.4829V6.51688L21.125 6.51433C21.1244 6.26434 21.0739 6.01789 20.9773 5.78916ZM18.875 8.07356V15.2611L12.125 18.9567V11.768L14.375 10.5365V13.25C14.375 13.8713 14.8787 14.375 15.5 14.375C16.1213 14.375 16.625 13.8713 16.625 13.25V9.30504L18.875 8.07356ZM13.3974 8.50665L6.64749 4.81223L4.25048 6.1246L11 9.81878L13.3974 8.50665ZM9.875 11.768L3.125 8.07356V15.2611L9.875 18.9567V11.768ZM19.07 15.1543L19.0697 15.1545L19.07 15.1543Z" fill="#556065"/>
</svg>
