<svg width="25" height="24" viewBox="0 0 25 24" fill="none" xmlns="http://www.w3.org/2000/svg">
<path fill-rule="evenodd" clip-rule="evenodd" d="M11.782 2.01744C12.0096 1.92308 12.2536 1.87451 12.5 1.87451C12.7464 1.87451 12.9904 1.92308 13.218 2.01744C13.4454 2.11171 13.6521 2.24986 13.8261 2.42398L21.3261 9.92398C21.5002 10.0982 21.6387 10.3055 21.7328 10.5331C21.8269 10.7608 21.8752 11.0047 21.875 11.251V20.2501C21.875 20.8714 21.3713 21.3751 20.75 21.3751H14.75C14.1287 21.3751 13.625 20.8714 13.625 20.2501V15.3751H11.375V20.2501C11.375 20.8714 10.8713 21.3751 10.25 21.3751H4.25C3.62868 21.3751 3.125 20.8714 3.125 20.2501V11.2504C3.125 11.2502 3.125 11.2506 3.125 11.2504C3.12492 11.0044 3.17325 10.7605 3.26724 10.5331C3.36135 10.3055 3.49937 10.0987 3.67344 9.92442L11.1734 2.42442C11.3475 2.2503 11.5546 2.11171 11.782 2.01744ZM12.5 4.27984L5.375 11.4048V19.1251H9.125V14.2501C9.125 13.6288 9.62868 13.1251 10.25 13.1251H14.75C15.3713 13.1251 15.875 13.6288 15.875 14.2501V19.1251H19.625V11.4048L12.5 4.27984ZM5.375 11.2492C5.375 11.2495 5.375 11.2489 5.375 11.2492V11.2492Z" fill="#556065"/>
</svg>
