<svg width="25" height="24" viewBox="0 0 25 24" fill="none" xmlns="http://www.w3.org/2000/svg">
<path fill-rule="evenodd" clip-rule="evenodd" d="M6.67795 19.4131C10.5565 21.3996 14.5176 20.9107 17.4433 18.1868C20.4877 15.3522 22.207 10.2907 21.8215 3.73559C21.788 3.16627 21.3338 2.71207 20.7645 2.67858C14.2111 2.29303 9.14971 4.01239 6.31478 7.05672C3.59044 9.9823 3.10052 13.9434 5.08697 17.8221L3.4545 19.4546C3.01517 19.8939 3.01517 20.6062 3.4545 21.0456C3.89384 21.4849 4.60616 21.4849 5.0455 21.0456L6.67795 19.4131ZM8.36854 17.7225L16.2955 9.79557C16.7348 9.35623 16.7348 8.64392 16.2955 8.20458C15.8562 7.76524 15.1438 7.76524 14.7045 8.20458L6.77758 16.1315C5.56064 13.2601 6.09637 10.5928 7.96139 8.59007C10.0542 6.34271 13.9967 4.74841 19.6175 4.88254C19.7517 10.5052 18.1574 14.4477 15.9101 16.54C13.9074 18.4046 11.2401 18.9398 8.36854 17.7225Z" fill="#556065"/>
</svg>
