<svg width="25" height="24" viewBox="0 0 25 24" fill="none" xmlns="http://www.w3.org/2000/svg">
<path fill-rule="evenodd" clip-rule="evenodd" d="M12.5 3.375C11.8038 3.375 11.1361 3.65156 10.6438 4.14384C10.5583 4.22943 10.4792 4.32031 10.407 4.41572C10.4026 4.42164 10.3982 4.42751 10.3938 4.43334C10.1334 4.78341 9.96424 5.19312 9.90191 5.625H15.0981C15.0357 5.19307 14.8666 4.78331 14.6062 4.43322C14.6017 4.42743 14.5973 4.4216 14.593 4.41572C14.5208 4.32031 14.4417 4.22942 14.3562 4.14384C13.8639 3.65156 13.1962 3.375 12.5 3.375ZM16.0178 2.625C15.9945 2.60073 15.971 2.57668 15.9471 2.55285C15.0329 1.63861 13.7929 1.125 12.5 1.125C11.2071 1.125 9.96709 1.63861 9.05285 2.55285C9.02903 2.57668 9.00547 2.60073 8.98219 2.625H5.75C5.25272 2.625 4.77581 2.82254 4.42417 3.17417C4.07254 3.5258 3.875 4.00272 3.875 4.5V20.25C3.875 20.7473 4.07254 21.2242 4.42417 21.5758C4.77581 21.9275 5.25272 22.125 5.75 22.125H19.25C19.7473 22.125 20.2242 21.9275 20.5758 21.5758C20.9275 21.2242 21.125 20.7473 21.125 20.25V4.5C21.125 4.00272 20.9275 3.52581 20.5758 3.17417C20.2242 2.82254 19.7473 2.625 19.25 2.625H16.0178ZM17.2434 4.875C17.3302 5.24069 17.375 5.61803 17.375 6V6.75C17.375 7.37132 16.8713 7.875 16.25 7.875H8.75C8.12868 7.875 7.625 7.37132 7.625 6.75V6C7.625 5.61803 7.66983 5.24069 7.75657 4.875H6.125V19.875H18.875V4.875H17.2434ZM8.375 11.625C8.375 11.0037 8.87868 10.5 9.5 10.5H15.5C16.1213 10.5 16.625 11.0037 16.625 11.625C16.625 12.2463 16.1213 12.75 15.5 12.75H9.5C8.87868 12.75 8.375 12.2463 8.375 11.625ZM8.375 15.375C8.375 14.7537 8.87868 14.25 9.5 14.25H15.5C16.1213 14.25 16.625 14.7537 16.625 15.375C16.625 15.9963 16.1213 16.5 15.5 16.5H9.5C8.87868 16.5 8.375 15.9963 8.375 15.375Z" fill="#556065"/>
</svg>
