<svg width="86" height="86" viewBox="0 0 86 86" fill="none" xmlns="http://www.w3.org/2000/svg">
<g filter="url(#filter0_dd_3591_15914)">
<rect x="11" y="10" width="64" height="64" rx="32" fill="#539461"/>
<rect x="9.5" y="8.5" width="67" height="67" rx="33.5" stroke="#96BF9C" stroke-width="3"/>
<path d="M27.6449 45.9941C27.7559 45.8503 34.0659 44.9759 33.718 44.5106V41.7521C33.718 41.5852 33.5808 41.4464 33.41 41.4452C32.8301 41.3039 30.5842 42.1357 30.538 41.4305L30.432 35.9962C30.4283 35.8184 30.2724 35.682 30.0916 35.6966C29.3159 35.76 28.5328 35.8087 27.7634 35.9037C27.5314 35.9317 26.2707 35.9682 26.0849 36.1923C25.8916 36.4261 26.1572 37.5576 26.1846 37.7951C26.3604 39.3589 26.6772 40.9251 26.8879 42.4865C27.0151 42.495 26.9565 46.3071 27.6449 45.9941Z" fill="white"/>
<path d="M41.0942 45.0502C41.4035 44.9174 41.9322 44.7067 41.9908 44.3474C42.1492 43.3439 42.2353 42.4779 42.234 41.6059C42.2278 41.517 42.128 41.4683 42.0519 41.5146C40.8236 42.2624 38.8994 43.0979 37.9529 41.6388C37.9068 41.5669 37.9504 41.4732 38.0352 41.4598L43.0758 40.6523C43.7093 38.6354 42.7228 35.8294 40.4694 35.1413C31.7078 33.0708 32.3562 48.3142 41.0942 45.0502ZM37.6861 39.4527C37.7334 37.9035 40.0542 37.23 40.0355 39.2005C40.0305 39.2554 39.9856 39.298 39.9295 39.3041C39.8634 39.2602 37.5913 39.7035 37.6861 39.4527Z" fill="white"/>
<path d="M61.5656 36.4006L54.3752 35.6041C54.2455 35.5894 54.1283 35.6808 54.1133 35.8087L53.0583 45.144C53.0434 45.2731 53.1406 45.3875 53.2728 45.3997L56.4964 45.6823C57.0875 45.8881 56.893 41.6839 57.4878 41.8946C60.2949 42.0188 59.8759 42.9176 60.4857 40.0799C60.3622 39.6463 57.5065 39.9033 57.6349 39.3808C57.6649 39.1896 57.5801 38.6951 57.918 38.7304L60.8822 38.9777C60.997 38.9874 61.1017 38.9156 61.1304 38.8072C61.2626 38.1227 61.8749 36.565 61.5656 36.4006Z" fill="white"/>
<path d="M36.9964 33.4386C37.5252 33.3485 39.5741 33.4593 40.0841 33.1768C40.2599 29.6509 40.4059 26.4344 40.7874 22.7539C40.7787 22.3678 41.0194 22.095 40.679 22L36.6984 22.2131C36.5874 22.2192 36.5001 22.3081 36.5001 22.4165V33.3595C36.55 33.5117 36.6548 33.4532 36.9964 33.4386Z" fill="white"/>
<path d="M45.89 38.8991L45.8857 39.1512L49.4542 39.2096L49.4585 38.9575L45.89 38.8991Z" fill="white"/>
<path d="M46.5014 38.5782C46.9104 38.6391 48.2123 38.6525 48.6326 38.6123C48.9506 38.5819 48.9543 38.3602 48.6376 38.32C48.4979 38.3078 45.5673 38.0849 46.5014 38.5782Z" fill="white"/>
<path d="M46.9466 37.5442C47.0089 37.5332 48.4954 37.6063 48.4966 37.5235C48.5378 37.4602 48.4667 37.297 48.3994 37.2762L46.9516 37.2531C46.8281 37.2507 46.8231 37.5418 46.9466 37.5442Z" fill="white"/>
<path d="M51.9584 44.5898C51.9397 44.3146 52.0058 43.6642 51.6367 43.6873C51.603 43.6484 51.6716 43.3548 51.6167 43.2355C51.4197 42.9054 51.2376 42.9006 50.8847 42.8433C50.9471 41.9238 50.7999 40.919 49.9918 40.3503C50.0305 40.036 50.1577 39.7048 49.831 39.5209C50.0467 39.3114 50.1926 38.8936 49.9295 38.6854C49.907 38.4406 49.6738 38.3967 49.5279 38.2932C49.6402 37.6416 49.407 37.7074 49.1513 37.342C49.084 37.1057 49.2336 36.7525 49.1888 36.5723C49.0528 36.1728 48.7872 36.118 48.5066 35.9889C48.4405 35.7794 48.4779 35.5919 48.2061 35.5164C48.0988 35.4068 48.1263 35.2387 47.8183 35.2691L47.8232 34.4653C47.7933 34.3691 47.6586 34.3959 47.5751 34.3935L47.5614 35.2034C47.403 35.3386 47.2708 35.2643 47.2047 35.4993C46.9254 35.57 46.9466 35.7673 46.8892 35.9633C46.651 36.0644 46.3255 36.1339 46.1959 36.4895C46.363 37.9741 45.6596 37.1191 45.7881 38.2323C45.2743 38.3992 45.0261 39.0544 45.4426 39.449C45.1109 39.6219 45.2269 39.9581 45.2531 40.2735C44.4238 40.8045 44.2455 41.8227 44.2767 42.7349C43.9125 42.7788 43.713 42.7922 43.5172 43.1307C43.4835 43.2318 43.5272 43.5217 43.496 43.5546C43.0758 43.4986 43.1705 44.4729 43.1394 44.7384C42.7615 45.3644 51.7414 45.01 51.81 45.1622C51.9796 45.0855 51.9597 44.7518 51.9584 44.5898ZM45.626 38.9618C45.7482 38.8912 45.7357 38.7451 45.7968 38.6659C46.3218 38.4369 46.151 38.3237 46.2046 37.8523C46.853 37.3201 46.4739 37.2117 46.6336 36.5504C46.7421 36.3153 47.1748 36.3677 47.2783 36.2496C47.3332 36.185 47.277 35.9962 47.3606 35.8891C47.4017 35.8367 47.6374 35.6382 47.7035 35.6382C47.7684 35.6394 47.9966 35.8464 48.0365 35.9012C48.1163 36.0096 48.0539 36.1972 48.1076 36.2629C48.2061 36.3847 48.6413 36.3458 48.7411 36.5857C48.8782 37.2482 48.4966 37.353 49.1252 37.8998C49.1588 38.3712 48.9942 38.4844 49.5055 38.7268C49.5629 38.8072 49.5454 38.9533 49.6651 39.0288C48.9543 39.9898 50.0442 39.6305 49.4718 40.2955C49.3671 40.0799 49.2199 39.8935 49.0441 39.7401L49.2748 39.7437L49.2785 39.4953C48.3757 39.5343 47.5614 38.8754 46.661 39.4514L45.9165 39.4393L45.9128 39.6889L46.3131 39.695C46.0986 39.8741 45.9178 40.0884 45.7993 40.3076C45.7768 40.1578 45.5998 40.0312 45.6023 39.913C45.6048 39.7547 45.7581 39.7791 45.8055 39.6487C45.939 39.2834 45.6147 39.0069 45.626 38.9618ZM44.5373 43.9504L46.4739 43.9821L46.4627 44.6677L46.3979 44.7286L43.5671 44.6824L43.5796 43.9346C44.0697 43.8883 43.8614 43.5339 43.9711 43.2087C44.0659 43.0991 44.5398 43.16 44.6383 42.9529C44.7031 42.0456 44.6383 40.8983 45.7033 40.5171C45.4314 41.2491 45.697 42.1162 46.0973 42.8531L44.9825 42.8348C44.8977 42.8336 44.8939 43.0832 44.9775 43.0845L46.242 43.1052C46.3231 43.2391 46.4066 43.3658 46.4902 43.4864C46.4889 43.5789 46.4715 43.6666 46.4141 43.7312L44.4774 43.6995C44.4363 43.8079 44.4325 43.8883 44.5373 43.9504ZM48.4193 44.7627L46.7171 44.7347L46.7321 43.8116C47.5601 44.8188 47.5776 44.9138 48.433 43.9346L48.4193 44.7627ZM47.6038 44.306C46.2757 43.1685 44.8079 40.2333 47.2571 39.5489C50.5692 39.3674 49.3222 43.0747 47.6038 44.306ZM51.5269 44.8127L48.7386 44.7676L48.6762 44.7043L48.6862 44.0807L48.7523 44.0186L50.6677 44.0503C50.7513 44.0515 50.7563 43.8018 50.6715 43.8006L48.756 43.7701C48.7286 43.7324 48.7086 43.6776 48.6974 43.6167C48.8146 43.4669 48.9256 43.311 49.0266 43.1502L50.2138 43.1697C50.2961 43.1709 50.3435 42.9225 50.2188 42.92L49.175 42.903C49.5841 42.1783 49.8035 41.3709 49.5878 40.6085C50.5717 40.9811 50.4857 42.1966 50.5144 43.0491C50.6066 43.2586 51.083 43.2148 51.174 43.3268L51.2239 43.8919L51.5394 44.0649L51.5269 44.8127Z" fill="white"/>
<path d="M47.9654 36.2459C48.0103 35.9974 47.7098 36.0474 47.5339 36.0644C47.1523 36.1692 47.7921 36.4749 47.9654 36.2459Z" fill="white"/>
<path d="M48.5104 42.0687C47.5215 43.3305 45.833 41.4951 47.0476 40.5402C48.0689 39.7766 49.1563 41.1456 48.5104 42.0687Z" fill="white"/>
<path d="M40.9745 56.4206C40.6278 54.2149 40.9483 51.9582 40.9097 49.7343C40.9121 49.5041 40.9121 49.2641 40.8934 49.0376C40.8772 48.4226 40.8997 47.5956 40.4196 47.1559C40.4682 47.24 40.5505 47.3313 40.6066 47.419C40.6091 47.4336 40.6266 47.4507 40.6228 47.4689C40.4844 47.497 40.4345 47.5749 40.3023 47.6005V47.5518C40.3547 47.5347 40.4171 47.2704 40.4034 47.2546C40.2974 47.2607 40.1203 47.1584 40.0991 47.0561C40.1652 47.0561 40.2363 47.0549 40.3023 47.0561C40.3023 47.0561 40.326 47.0682 40.336 47.0731C39.5716 46.3826 37.1561 46.374 36.6847 47.4361C36.4864 47.7832 36.434 48.218 36.5001 48.615C36.5749 51.2457 36.2669 53.8179 36.5675 56.4315C36.6647 56.4206 40.881 56.4522 40.9745 56.4206ZM37.6649 50.3408C37.3331 50.5125 37.4229 50.549 37.479 50.8693C37.4678 50.8693 37.4566 50.8681 37.4454 50.8693C37.1062 50.5697 37.191 50.7208 36.8717 50.8852C36.8717 50.6842 37.0563 50.4845 36.7695 50.3907C36.7795 50.3432 36.7595 50.3298 36.7196 50.3578L36.6685 50.275C36.7021 50.3055 36.7358 50.3298 36.7533 50.275C37.1461 50.2933 36.9964 50.258 37.1922 50.0107C37.2309 50.096 37.2608 50.1922 37.3107 50.275C37.3992 50.286 37.5688 50.2701 37.6649 50.275C37.6536 50.3006 37.6536 50.3225 37.6649 50.3408ZM36.7533 52.371C37.1511 52.3942 37.0476 52.3649 37.1586 52.041C37.2159 52.0264 37.1835 52.0824 37.1972 52.1275C37.3007 52.3199 37.2621 52.4039 37.5302 52.371C37.5614 52.4051 37.605 52.4149 37.6424 52.399C37.5738 52.449 37.5015 52.4965 37.4267 52.5428C37.3282 52.583 37.4354 52.997 37.514 52.9654C37.499 52.9739 37.4791 52.9824 37.4628 52.9812L37.4653 52.941C37.4092 52.8911 37.1049 52.6292 37.1249 52.8168C37.0788 52.8375 36.9403 52.8947 36.9216 52.9325H36.8792C36.9092 52.7681 37.0189 52.5306 36.7695 52.5026C36.7982 52.4575 36.7483 52.4112 36.7021 52.4368L36.6685 52.371C36.6972 52.4064 36.7371 52.4234 36.7533 52.371ZM37.6823 54.517C37.6499 54.4853 37.6362 54.489 37.6486 54.5328C37.5638 54.556 37.5003 54.6546 37.413 54.6924C37.4466 54.8093 37.4329 54.9737 37.514 55.0614C37.4416 55.0638 37.4005 55.0188 37.3444 54.9835L37.3419 54.9822C37.2745 54.9274 37.1411 54.7983 37.1249 54.9128C37.06 54.9177 36.9752 55.0054 36.9079 54.9908C36.9154 54.8592 37.0102 54.679 36.8368 54.6327C36.8318 54.6278 36.8256 54.6205 36.8206 54.6156C36.8418 54.5669 36.7495 54.4914 36.7021 54.517C36.6223 54.4062 37.0052 54.5085 37.0401 54.4512C37.1399 54.3903 37.0837 54.0895 37.1922 54.1382C37.1972 54.1541 37.1748 54.1979 37.2259 54.1869C37.2621 54.5377 37.3444 54.4634 37.6412 54.4671C37.6923 54.4707 37.6848 54.4585 37.6823 54.517ZM37.479 48.3434C37.2159 48.3385 37.5501 48.7039 37.3955 48.6905C37.272 48.6625 37.1897 48.5005 37.0738 48.6406C37.0176 48.6564 36.9254 48.7928 36.873 48.7136C36.873 48.5906 37.0526 48.3446 36.7869 48.2947C36.7944 48.2496 36.7757 48.2606 36.7358 48.2618C36.7408 48.246 36.7346 48.2411 36.7196 48.2448C36.6984 48.2216 36.6722 48.1936 36.6685 48.1619C36.6897 48.2021 36.7608 48.2119 36.7695 48.1619C36.7795 48.2204 36.9665 48.2265 36.9728 48.1619C36.9852 48.2082 37.0401 48.2131 37.0401 48.1619C37.08 48.1534 37.0738 48.1108 37.0738 48.0803C37.1112 48.0925 37.1985 47.8794 37.1935 47.8672C37.1985 47.866 37.2022 47.866 37.2097 47.8648C37.1461 47.9025 37.2621 48.313 37.3444 48.1619C37.3469 48.2338 37.5339 48.2216 37.5476 48.1619C37.5676 48.2021 37.6349 48.2058 37.6748 48.1826C37.6786 48.1863 37.6848 48.1899 37.6998 48.1948C37.6274 48.2387 37.5526 48.3069 37.479 48.3434ZM37.8257 47.0804C37.8619 47.0938 37.8981 47.0865 37.9355 47.0561C38.13 47.2254 38.2497 46.8917 38.2772 46.7467C38.2921 46.7857 38.3133 46.8064 38.342 46.8088C38.251 46.9538 38.468 47.1864 38.6114 47.0561L38.66 47.0902C38.7036 47.0768 38.7261 47.0926 38.7298 47.1389C38.3358 47.2789 38.5939 47.3715 38.5951 47.6346C38.3096 47.5591 38.3844 47.313 38.0714 47.5846C38.0377 47.5883 38.0053 47.6005 37.9903 47.6297L37.9866 47.6346C37.9666 47.6358 37.9554 47.6382 37.9529 47.6175C38.0228 47.5676 38.0465 47.3654 38.0514 47.2997C38.0415 47.2692 37.8918 47.1486 37.8519 47.1559C37.8806 47.1121 37.8582 47.0902 37.817 47.1231C37.8295 47.106 37.832 47.0914 37.8257 47.0804ZM37.9529 49.1192C38.1674 49.1643 38.2148 49.0461 38.2572 48.872C38.4318 49.0437 38.2522 49.2215 38.655 49.1691C38.7074 49.1728 38.6987 49.1606 38.6962 49.2191C38.4655 49.3457 38.5054 49.4663 38.5951 49.6807C38.5415 49.7367 38.4742 49.66 38.4093 49.6307C38.3046 49.4383 38.1163 49.6466 38.009 49.7294H37.9866C37.9903 49.7014 38.0639 49.5577 38.0539 49.5004C38.14 49.3981 38.0315 49.2495 37.9193 49.2848C37.9143 49.2824 37.9093 49.2629 37.8856 49.252L37.8818 49.2447C37.9242 49.2179 37.8756 49.1898 37.8295 49.174C37.8332 49.1399 37.8232 49.1216 37.8008 49.1192H37.9529ZM37.9866 51.2323C38.1549 51.2664 38.1936 51.1556 38.2235 51.0179C38.2273 50.996 38.2173 50.9242 38.2235 50.9181C38.2335 50.9083 38.3208 50.9132 38.3245 50.9522C38.3495 51.2432 38.4667 51.2506 38.7298 51.2323C38.746 51.2615 38.7585 51.264 38.7635 51.2323C38.746 51.4345 38.3582 51.3115 38.5615 51.7109L38.5453 51.7743C38.5016 51.756 38.4131 51.7073 38.3582 51.6939C38.2672 51.5502 38.1113 51.7633 38.0041 51.8096L37.9691 51.7937C38.0302 51.5806 38.1387 51.4564 37.8856 51.348C37.8806 51.3102 37.8519 51.2725 37.8008 51.2323C37.8619 51.2311 37.9255 51.2347 37.9866 51.2323ZM38.6962 55.523C38.347 55.7252 38.6064 55.7678 38.5951 56.0357C38.4181 55.998 38.4492 55.8348 38.2397 55.853C38.1437 55.8762 38.0577 56.026 37.9529 56.0516C37.9529 55.9225 38.1861 55.6387 37.9018 55.5729C37.9467 55.5193 37.8482 55.4865 37.8157 55.456C37.8157 55.456 37.817 55.4475 37.817 55.4414C37.9168 55.4402 38.0552 55.445 38.1537 55.4389C38.2048 55.3147 38.1911 55.1625 38.3071 55.0784C38.4168 55.3756 38.2959 55.4779 38.6799 55.4414C38.6924 55.4706 38.7161 55.4755 38.7435 55.4694C38.7411 55.4743 38.7423 55.4804 38.7473 55.4901C38.7248 55.4962 38.7124 55.5096 38.6962 55.523ZM38.751 53.4075L38.7473 53.4111C38.7111 53.3795 38.6525 53.4197 38.6799 53.4598C38.2821 53.5646 38.751 53.9226 38.544 53.9385C38.5465 53.9287 38.544 53.9166 38.544 53.9068C38.2023 53.7436 38.3208 53.6815 38.0041 53.9385H37.9604C37.9941 53.6815 38.1973 53.5902 37.8681 53.4598C37.8769 53.4331 37.8744 53.4123 37.8619 53.3953C37.8881 53.3953 38.3171 53.4136 38.1549 53.3283C38.2111 53.2102 38.1924 53.064 38.3071 52.9812C38.3071 53.0762 38.3981 53.2552 38.4118 53.3588L38.781 53.3612C38.781 53.3612 38.7598 53.3965 38.751 53.4075ZM39.0004 48.1619C39.0665 48.207 39.1376 48.2082 39.2037 48.1619C39.2249 48.2082 39.3558 48.2058 39.3895 48.1826C39.4007 48.1741 39.4855 47.9464 39.4394 47.9317C39.4731 47.922 39.4731 47.9074 39.4394 47.8976C39.4469 47.8928 39.4743 47.8818 39.4743 47.8818C39.493 47.8976 39.5267 47.9147 39.5417 47.9317C39.488 47.9549 39.5217 48.0036 39.5554 47.9853C39.5317 48.0267 39.5466 48.1096 39.5915 48.1132C39.5978 48.1364 39.5953 48.1558 39.6265 48.1619C39.6402 48.2167 39.7387 48.2119 39.7611 48.1619C39.8123 48.2131 39.912 48.2094 39.9644 48.1619C39.9656 48.1729 39.9694 48.1778 39.9731 48.1814C39.9482 48.1948 39.9282 48.218 39.9469 48.2448C39.6227 48.2533 39.6664 48.6016 39.8285 48.7892C39.5229 48.5992 39.5479 48.52 39.2074 48.7234C39.2037 48.6795 39.2324 48.6369 39.2374 48.5919C39.2336 48.6016 39.2224 48.6223 39.2174 48.632C39.286 48.4749 39.2773 48.3239 39.0852 48.2947C39.0877 48.2508 39.0329 48.2301 39.0004 48.2119C39.0117 48.1985 39.0079 48.1863 38.9967 48.1814C38.9967 48.1814 38.9992 48.1717 39.0004 48.1619ZM39.2037 50.275C39.2586 50.2738 39.3147 50.2787 39.3696 50.2726C39.3883 50.1727 39.4431 50.0777 39.4394 49.9778C39.4494 49.973 39.4781 49.9571 39.4905 49.9608C39.5292 50.0058 39.5367 50.04 39.5753 50.0765C39.5666 50.2202 39.6202 50.3091 39.7773 50.275C39.7973 50.3262 39.9395 50.3201 39.9644 50.275C39.9656 50.3018 39.9756 50.3103 39.9931 50.3103C39.9831 50.3128 39.9532 50.3456 39.9557 50.3542C39.801 50.342 39.594 50.5661 39.7437 50.6879C39.7487 50.7366 39.7686 50.7853 39.7611 50.8365C39.7038 50.8024 39.6227 50.778 39.5753 50.7366C39.5217 50.5101 39.3484 50.8231 39.2237 50.8194L39.2199 50.817C39.195 50.7281 39.3596 50.5015 39.2199 50.4735C39.1513 50.4224 39.1376 50.4053 39.0516 50.3737C39.0528 50.3371 39.0304 50.3042 38.9842 50.275C39.0566 50.2738 39.1301 50.275 39.2037 50.275ZM39.2037 52.371C39.2598 52.3698 39.3159 52.3722 39.3721 52.3698C39.3708 52.2687 39.4319 52.1835 39.4569 52.0909H39.4743C39.4793 52.1189 39.5217 52.1201 39.5242 52.1238C39.5466 52.1445 39.5441 52.1786 39.5753 52.1896C39.5865 52.3406 39.5915 52.3942 39.7611 52.371C39.816 52.4198 39.907 52.4185 39.9644 52.371C39.9706 52.3954 39.9706 52.4234 39.9644 52.4538C39.9245 52.4185 39.8222 52.466 39.8285 52.5196C39.8098 52.5318 39.7973 52.5367 39.7773 52.5525C39.6277 52.4819 39.7262 52.8241 39.7574 52.8777C39.7536 52.913 39.7586 52.9434 39.7711 52.9678C39.7349 52.9337 39.6763 52.9337 39.6427 52.8996C39.5242 52.6585 39.3484 52.8935 39.2037 52.9812C39.2 52.6158 39.4045 52.6719 39.0341 52.4538C39.0528 52.4222 39.0142 52.3796 38.9842 52.371C39.0566 52.3698 39.1301 52.3723 39.2037 52.371ZM39.9469 54.5499C39.7686 54.6351 39.6701 54.7155 39.7773 54.9128C39.7512 54.9323 39.7462 54.9652 39.7624 55.0127C39.7137 54.9688 39.6738 54.9579 39.6427 54.9786L39.609 54.9457C39.6115 54.9286 39.6065 54.9226 39.5915 54.9299C39.4756 54.7837 39.3496 54.981 39.2374 55.0443C39.0902 55.048 39.3047 54.7679 39.2511 54.6924C39.2174 54.6522 39.0653 54.5389 39.0004 54.5328C38.9942 54.5292 38.9905 54.5206 38.9842 54.517C39.0827 54.4646 39.3184 54.5596 39.3558 54.4512C39.4007 54.4049 39.4381 54.2405 39.4394 54.1699L39.5242 54.137C39.5728 54.2356 39.5666 54.3769 39.6252 54.4646V54.4585L39.6265 54.4671C39.6452 54.4805 39.9295 54.4585 40.0143 54.4671C39.9794 54.4731 39.9195 54.5133 39.9469 54.5499ZM40.8598 51.4138C40.8062 51.5587 40.8685 51.5307 40.8598 51.661C40.8922 51.8985 40.7825 51.7353 40.674 51.6939C40.5892 51.5782 40.4794 51.6939 40.4333 51.7621C40.4059 51.7998 40.3784 51.8096 40.3522 51.7937C40.1502 51.9679 40.3398 51.5185 40.3285 51.4795C40.2924 51.4479 40.2512 51.4223 40.2051 51.404L40.2001 51.3638L40.0816 51.2652C40.1564 51.1556 40.4295 51.32 40.4707 51.1823C40.5243 51.1081 40.5792 50.7269 40.6266 50.94C40.6977 50.9972 40.6615 51.1702 40.7413 51.2323C40.7862 51.2664 40.8673 51.2396 40.876 51.2481C40.8897 51.2615 40.8685 51.3833 40.8598 51.4138ZM40.0991 49.1192C40.1066 49.0681 40.2387 49.0705 40.2512 49.1192C40.6341 49.1801 40.4246 48.9146 40.6228 48.7892C40.6428 48.8379 40.6939 49.1034 40.7089 49.118C40.7176 49.1277 40.8461 49.1143 40.876 49.118C40.8835 49.1972 40.9334 49.3141 40.8336 49.3652C40.7862 49.4334 40.9782 49.7002 40.8598 49.7294C40.8373 49.7148 40.7176 49.6478 40.7126 49.6417C40.6902 49.6173 40.7263 49.6198 40.6565 49.5808C40.5468 49.4663 40.4246 49.6746 40.3023 49.6794C40.3398 49.5735 40.3659 49.4821 40.3585 49.3701C40.331 49.3177 40.2288 49.2873 40.1839 49.2507H40.1664C40.1702 49.1862 40.0305 49.1716 40.0991 49.1192ZM40.0904 53.3612C40.1727 53.3575 40.3834 53.3795 40.437 53.3454C40.4071 53.304 40.4345 53.2942 40.4707 53.2954C40.4744 53.2869 40.467 53.2698 40.4707 53.2625C40.5218 53.2236 40.543 53.1371 40.5717 53.0811C40.7164 53.1054 40.654 53.4002 40.8086 53.3612C40.8037 53.4647 40.8473 53.7546 40.775 53.8569C40.7638 53.8447 40.679 53.8033 40.6565 53.7899C40.6353 53.7777 40.6366 53.74 40.568 53.7607C40.5505 53.7753 40.3909 53.8447 40.4034 53.8898C40.3784 53.9007 40.3011 53.936 40.2687 53.9555C40.24 53.8289 40.4595 53.6389 40.3186 53.5597C40.3323 53.5134 40.2787 53.5317 40.2512 53.5098C40.225 53.472 40.1714 53.4343 40.1327 53.4111C40.124 53.388 40.1078 53.377 40.0816 53.3782C40.0791 53.3697 40.0392 53.3636 40.0904 53.3612ZM40.8934 56.0357L40.8423 56.0187C40.77 55.9736 40.6765 55.8993 40.5817 55.8871C40.5443 55.9151 40.5131 55.92 40.4882 55.903C40.4832 55.9553 40.4158 55.998 40.3697 55.9687C40.3435 55.9894 40.3323 56.0211 40.2674 56.0516C40.3709 55.646 40.437 55.6984 40.0654 55.4657C40.129 55.3634 40.4844 55.5486 40.4707 55.3586C40.5306 55.3123 40.5318 55.2051 40.5717 55.1442C40.6129 55.1333 40.6079 55.1795 40.6403 55.1929C40.644 55.2063 40.6403 55.2209 40.6565 55.2258C40.6715 55.3257 40.7251 55.495 40.8423 55.4572C40.8386 55.6192 40.8548 55.8762 40.8934 56.0357Z" fill="white"/>
<path d="M40.3522 47.089C40.346 47.0865 40.3423 47.078 40.336 47.0731C40.3186 47.1011 40.3273 47.1097 40.3522 47.089Z" fill="white"/>
<path d="M40.3697 47.106C40.3697 47.106 40.3585 47.0926 40.3522 47.089C40.336 47.1182 40.346 47.1291 40.3697 47.106Z" fill="white"/>
<path d="M40.3859 47.1231C40.3809 47.117 40.3747 47.1109 40.3697 47.106C40.3672 47.1231 40.3722 47.1291 40.3859 47.1231Z" fill="white"/>
<path d="M40.4034 47.1389C40.3984 47.1328 40.3921 47.1279 40.3859 47.1231C40.3822 47.1377 40.3871 47.1438 40.4034 47.1389Z" fill="white"/>
<path d="M40.4196 47.1559C40.4196 47.1559 40.4083 47.145 40.4034 47.1389C40.3984 47.1547 40.4046 47.1596 40.4196 47.1559Z" fill="white"/>
<path d="M50.654 56.6849C50.7575 56.3767 50.7613 56.0272 50.7513 55.7057C50.6952 55.4085 50.654 55.065 50.4171 54.8483C50.5867 54.517 50.7051 54.1504 50.5755 53.7838C50.6016 53.8508 50.6253 53.9202 50.6453 53.9896C50.7513 53.7936 50.4532 53.3588 50.2413 53.3722C50.235 53.3612 50.2288 53.3612 50.2238 53.3722C50.1889 53.3685 50.0953 53.3673 50.119 53.4063C50.1016 53.4099 50.0953 53.4014 50.0829 53.3892C50.1315 53.2893 50.1926 53.1907 50.2063 53.0799C50.2363 53.064 50.2363 53.0592 50.2587 53.0799C50.2649 53.0604 50.2799 52.9605 50.2949 52.9593C50.2949 52.9593 50.2924 52.98 50.3123 52.9763C50.3073 52.9398 50.3285 52.8826 50.2949 52.857C50.2936 52.7535 50.2974 52.6633 50.2587 52.5647C50.2288 52.6049 50.2163 52.5476 50.1889 52.5306C50.1876 52.5196 50.1914 52.5062 50.1889 52.4965C50.1951 52.4904 50.2013 52.4855 50.2063 52.4794C50.1864 52.4295 49.9831 52.1396 49.9781 52.2383C49.9208 52.2164 49.9108 52.1786 49.8547 52.136C49.8622 52.097 49.8135 52.0666 49.7848 52.0666C49.8222 52.0227 49.7424 51.9874 49.6963 51.9813C49.6975 51.9752 49.6963 51.9703 49.6963 51.9642C49.5953 51.9289 49.5728 51.8887 49.4681 51.8607C49.4531 51.8571 49.4369 51.8376 49.4244 51.8266C49.4007 51.868 49.4082 51.801 49.3808 51.7925C49.3434 51.7121 49.3247 51.7682 49.2923 51.7584C49.2686 51.7158 49.2336 51.6878 49.2224 51.6378C49.3521 51.5234 49.5604 51.7134 49.7138 51.7243C49.8048 51.8425 49.9644 51.9509 50.0829 52.0495C50.0854 52.0909 50.1203 52.1165 50.154 52.136C50.1801 52.2249 50.2999 52.276 50.3123 52.3759C50.4208 52.477 50.3747 52.2858 50.3822 52.2212C50.3672 52.0824 50.4133 51.8887 50.3647 51.7755C50.3759 51.6586 50.2874 51.555 50.3647 51.4491C50.3373 51.4052 50.3398 51.337 50.2949 51.2944V51.2773C50.3423 51.2579 50.0953 50.9047 50.0654 50.9509C50.0492 50.9339 49.9906 50.873 49.9781 50.8657V50.8486L49.9956 50.8316C49.9769 50.8219 49.9532 50.7853 49.9432 50.7792C49.9956 50.7585 49.8921 50.683 49.8721 50.694C49.8621 50.6087 49.7786 50.5478 49.7138 50.4711H49.6963C49.4394 50.3042 49.1651 50.2214 48.8533 50.1788C48.7448 50.1374 48.559 50.1532 48.4493 50.1958L48.4318 50.1788C48.4243 50.1958 48.3882 50.2287 48.3782 50.247L48.3607 50.2299C48.327 50.2799 48.3021 50.3761 48.2385 50.3846C48.1886 50.2519 48.0963 50.1362 48.009 50.0412C47.9991 49.9632 47.8207 49.7708 47.7285 49.8183C47.7285 49.7988 47.7235 49.7854 47.7422 49.7744C47.6935 49.7209 47.5788 49.7062 47.5177 49.6466C47.5614 49.6295 47.4965 49.621 47.4853 49.6173C47.3693 49.5905 47.2845 49.5869 47.1661 49.6125L47.1835 49.6295V49.6466C47.0713 49.6563 46.9279 49.6989 46.8668 49.8012C46.7433 49.7586 46.7059 49.8658 46.656 49.9389C46.6149 49.9316 46.5799 49.9657 46.5513 50.0412C46.2619 50.4516 46.1659 50.6769 46.1634 51.1921C46.1622 51.2372 46.1834 51.309 46.1285 51.3285C46.0699 51.3358 46.01 51.3602 45.9701 51.415C45.9527 51.4174 45.934 51.4211 45.9178 51.432C45.8766 51.3918 46.0524 51.3297 46.0574 51.3029C46.0574 51.3029 46.0275 51.2798 46.0238 51.2506C46.0063 51.0606 46.0637 50.9704 45.813 50.9339C45.7581 50.9083 45.6222 50.8669 45.5723 50.8535C45.5349 50.8474 45.4638 50.8937 45.4252 50.8486C44.3128 51.3102 43.5895 51.253 43.3526 52.6426C43.4162 52.6451 43.5384 52.5318 43.5621 52.4794C43.9474 52.3004 44.3901 52.0751 44.8279 52.153C44.8303 52.164 44.8254 52.1786 44.8279 52.1871C44.47 52.343 44.0085 52.2919 43.6856 52.5647C43.2267 52.846 43.1144 53.5098 43.3164 53.9555C43.3052 53.8678 43.4075 53.8094 43.405 53.7144C43.5072 53.578 43.6432 53.4769 43.7566 53.3539C43.91 53.2613 44.0622 53.142 44.2305 53.0799L44.3365 53.0628C44.334 53.0786 44.3403 53.1006 44.3365 53.114C44.1744 53.2345 43.9774 53.3502 43.8265 53.4915C43.597 53.662 43.3152 53.9507 43.4224 54.2466C43.4611 54.5146 43.6482 54.7545 43.7205 55.02C43.7342 55.1211 43.7891 55.0833 43.8265 55.02C44.0148 54.9189 44.1856 54.819 44.3714 54.7277C44.4238 54.7082 44.4612 54.6936 44.5124 54.6765C44.5124 54.7557 44.4039 54.8458 44.4064 54.9335C44.1495 55.0163 43.819 55.1466 43.703 55.4146C43.521 55.5802 43.4499 55.903 43.4224 56.1526C43.4811 56.149 43.5047 56.0844 43.5446 56.0491C43.8352 55.8372 44.3178 55.495 44.6882 55.7239V55.7751C44.6632 55.7836 44.6358 55.7897 44.6171 55.8092C44.1308 55.847 43.486 56.0808 43.4399 56.6325C43.3775 56.7823 43.4536 56.9808 43.4748 57.1306C43.501 57.3596 43.516 57.608 43.6157 57.8175C43.6082 57.8553 43.6407 57.8833 43.6332 57.921C43.5434 57.9966 43.4898 58.2048 43.4349 58.312C43.2703 58.3193 43.1032 58.3059 42.9386 58.3132C42.5333 58.2633 42.1243 58.1561 41.7888 57.9003C40.7962 57.6872 37.9442 57.9101 36.8543 57.8346C36.984 58.3303 37.1885 58.8101 37.4142 59.2668C37.5451 59.2754 42.8463 59.2681 43.1269 59.2705C43.1107 59.3764 43.087 59.5287 43.1144 59.6371C43.1593 59.6091 43.1306 59.5494 43.1406 59.5165C43.1905 59.4422 43.2753 59.3424 43.3401 59.2705H43.4786C43.4524 59.2888 43.4012 59.307 43.405 59.3448C43.3713 59.3643 43.3364 59.3898 43.3339 59.4313C43.193 59.5969 43.0957 59.8551 43.1581 60.0658C43.1693 60.1681 43.1306 60.324 43.1755 60.4092C43.183 60.5262 43.2129 60.6053 43.2441 60.7137C43.1431 60.7137 38.7435 60.7222 38.645 60.7222C39.9756 61.7964 41.8325 62.0449 43.496 61.9937C44.5074 62.0339 45.5112 61.7173 46.4627 61.5602C46.5026 61.548 46.5887 61.5845 46.6036 61.5419C46.6323 61.5346 46.7046 61.5626 46.7084 61.5248C47.3232 61.4225 48.0103 61.2667 48.5191 60.9074C48.7236 60.8306 48.9381 60.676 49.064 60.4957C49.2486 60.3508 49.3883 60.1169 49.4506 59.8941C49.5005 59.9062 49.4706 59.9696 49.503 59.9976C49.5105 60.0597 49.5205 60.123 49.5217 60.1864C49.5691 60.1303 49.6202 60.039 49.6439 59.9635C50.0056 59.4848 50.2425 58.9088 50.0305 58.3157L50.0417 58.2998L50.0654 58.3157C50.144 58.463 50.2038 58.6287 50.2238 58.7955C50.331 58.4557 50.3847 58.0891 50.2587 57.7493C50.1602 57.6239 50.2874 57.5642 50.3298 57.457C50.457 57.2853 50.5817 57.0064 50.5056 56.8042C50.4732 56.3987 50.1203 56.0844 49.8023 55.9127C50.2038 55.9541 50.5393 56.3183 50.654 56.6849ZM49.8547 50.694L49.8522 50.7074L49.8472 50.7037C49.8472 50.7037 49.8534 50.7001 49.8547 50.694ZM43.0396 58.3315V58.3291H43.0446L43.0396 58.3315ZM43.8614 60.1182C43.7118 60.2899 43.5933 60.4933 43.5484 60.7137H43.3376C43.4574 60.3264 43.7591 60.0098 44.1432 59.86C44.0422 59.9501 43.9512 60.0146 43.8614 60.1182ZM44.6844 57.457H44.6695C44.677 57.4558 44.6832 57.4522 44.6894 57.4473C44.6894 57.4473 44.6869 57.4534 44.6844 57.457ZM44.7842 57.3706C44.7755 57.3888 44.7406 57.429 44.7755 57.44C44.7643 57.4388 44.7543 57.4424 44.7443 57.4509C44.758 57.4132 44.7381 57.3949 44.7131 57.4168C44.7156 57.4034 44.7094 57.3925 44.6882 57.3888C44.6982 57.3413 44.7169 57.4144 44.7368 57.3596C44.7692 57.2122 44.768 57.021 44.7231 56.8907C44.7219 56.8688 44.7231 56.8432 44.7231 56.8225C44.758 56.7628 44.7393 56.6008 44.6695 56.5814C44.667 56.5692 44.6545 56.5679 44.652 56.5643C44.6533 56.557 44.6533 56.5533 44.652 56.5485C44.6907 56.5387 44.7243 56.4937 44.7056 56.462C44.7705 56.4376 44.7954 56.3731 44.8815 56.3926C44.8865 56.3987 44.9114 56.5692 44.9214 56.5704C44.889 56.585 44.8902 56.6033 44.9339 56.6155C45.0062 56.9248 44.9151 57.105 44.7842 57.3706ZM44.8989 54.4354C44.884 54.5292 44.7979 54.5645 44.7056 54.556C44.7667 54.5474 44.8216 54.4671 44.7755 54.4183C44.7792 54.4062 44.7917 54.3611 44.7929 54.3501L44.8104 54.3928C44.884 54.081 44.7306 53.7753 44.8104 53.4745C44.8416 53.4598 44.8939 53.4391 44.9164 53.4745C44.9613 53.7948 45.0249 54.1187 44.8989 54.4354ZM45.2593 60.7113H45.0935C45.2119 60.3934 45.0199 59.9793 45.1271 59.6712C45.1608 60.0573 45.288 60.3532 45.2593 60.7113ZM49.2923 56.6155C49.1763 56.6751 49.0603 56.719 48.9768 56.8225H48.958V56.8042C48.7124 56.9735 48.6962 57.3157 48.7648 57.5776C48.6825 57.5398 48.5777 57.4278 48.4842 57.457C48.4555 57.4485 48.4256 57.4424 48.3956 57.44C48.3719 57.4059 48.3108 57.4278 48.2734 57.4229L48.2385 57.4059C48.2946 57.4022 48.3557 57.4083 48.4131 57.4059V57.3888C48.3794 57.4034 48.342 57.373 48.3258 57.3718C48.3495 57.3706 48.367 57.3791 48.3607 57.3547C48.1362 57.3486 47.9143 57.4375 47.7634 57.6032L47.7808 57.6117C47.7709 57.6202 47.7659 57.6409 47.7459 57.6458V57.6629C47.6848 57.6763 47.7372 57.6628 47.6761 57.6458C47.6723 57.6129 47.6798 57.5739 47.6761 57.5423C47.731 57.4643 47.6412 57.3827 47.5875 57.3194C47.5576 57.2987 47.5476 57.3072 47.5701 57.3365C47.5564 57.3389 47.5414 57.3206 47.5352 57.3194V57.3023C47.5726 57.2756 47.5052 57.2622 47.4828 57.2512C47.378 57.1684 47.2284 57.0234 47.095 57.0454C46.9366 56.965 46.767 56.8639 46.5862 56.9759C46.5787 56.9613 46.5737 56.9613 46.5687 56.9759C46.4141 57.0027 46.0213 57.1757 46.0412 57.3365C45.8891 57.3632 45.813 57.6336 45.7594 57.7664H45.7357C45.7157 57.8127 45.7182 57.7944 45.6721 57.7834C45.6709 57.7956 45.6733 57.8066 45.6771 57.8163H45.6472C45.6384 57.7993 45.626 57.7773 45.6197 57.7664C45.8018 57.7664 45.3504 57.4217 45.2681 57.4911C45.2631 57.4631 45.2394 57.44 45.197 57.4229C45.3766 57.2427 45.414 56.9345 45.3977 56.6958L45.3554 56.6678C45.3815 56.596 45.3703 56.5558 45.3204 56.5472C45.3105 56.3889 45.0324 56.2148 45.2319 56.0832L45.2755 56.0881C45.3342 56.0101 45.3828 55.9651 45.4202 56.082C45.4489 56.0954 45.4738 56.1246 45.4963 56.1697C45.4688 56.2001 45.4726 56.2598 45.5212 56.2562C45.5399 56.3244 45.5549 56.3926 45.5661 56.462C45.6359 56.6824 45.5262 57.0149 45.4963 57.2341C45.4875 57.25 45.4613 57.2646 45.4788 57.2853C45.4052 57.2427 45.3928 57.3389 45.4788 57.3194C45.5299 57.3559 45.5973 57.3072 45.601 57.2512C46.2033 56.9163 46.2831 56.7531 46.3218 56.0832C46.2994 56.1039 46.3068 56.1271 46.3043 56.1526C46.2831 56.1149 46.2794 56.0613 46.2694 56.015C46.3156 56.0004 46.3043 55.9505 46.3043 55.9127C46.3979 55.5547 45.9664 55.154 45.601 55.3452C45.606 55.2855 45.5611 55.2867 45.5424 55.2599C45.5299 55.2441 45.5399 55.1759 45.4963 55.1564C45.5087 55.0419 45.4239 54.7947 45.3217 54.7667C45.293 54.6644 45.1172 54.6083 45.0211 54.573C45.0361 54.5669 45.0374 54.5608 45.0211 54.556C45.1533 54.4524 45.3391 54.4062 45.4439 54.2819C45.4751 54.2856 45.4476 54.3282 45.4701 54.3331C45.5299 54.2917 45.5935 54.2539 45.6546 54.2125L45.6634 54.2296C45.8055 54.1455 45.9228 54.0639 45.9876 53.9044C46.0475 53.8995 46.0125 53.9616 46.0587 53.9896C45.9676 54.26 45.9689 54.5608 46.0225 54.841L46.0412 54.8312C46.0425 54.8422 46.0712 54.8787 46.0761 54.9165C46.0362 54.9567 46.0687 55.0346 46.0587 55.0882H46.0761V55.0029C46.0824 55.0176 46.0886 55.0176 46.0936 55.0029C46.0911 55.0443 46.0924 55.087 46.1285 55.1052C46.1584 54.9981 46.126 54.8787 46.1821 54.7788C46.2532 54.6838 46.2233 54.7557 46.2457 54.7618C46.4365 54.7496 46.3006 54.7715 46.3929 54.8824C46.257 55.1125 46.1485 55.5352 46.4103 55.7057C46.4253 55.7312 46.4627 55.7605 46.4802 55.7921C46.4739 55.797 46.4677 55.8031 46.4627 55.8092C46.5213 55.8689 46.5151 55.9675 46.5862 56.015C46.6198 56.1392 46.6909 56.2379 46.7271 56.3585C46.752 56.328 46.7595 56.3536 46.7795 56.3755C46.7383 55.9225 46.8967 55.4974 47.1486 55.1223H47.1661C47.181 55.0991 47.201 55.076 47.2184 55.0541C47.2384 55.0614 47.2471 55.0541 47.2359 55.037C47.2571 55.0395 47.2833 55.0212 47.2708 55.0029C47.297 54.9786 47.3307 54.9554 47.3593 54.9335C47.3631 54.9469 47.3756 54.9469 47.3943 54.9335C47.4416 54.9372 47.4491 54.9286 47.4117 54.8994C47.4529 54.8641 47.4978 54.8507 47.5526 54.8483C47.5626 54.8702 47.6013 54.8726 47.605 54.8483L47.6087 54.8665C47.8956 54.953 47.5713 55.1613 47.4641 55.2599V55.277C47.4155 55.2965 47.2434 55.4122 47.2708 55.4657L47.201 55.5339C47.1997 55.5461 47.2022 55.5583 47.201 55.5693C47.1685 55.5583 47.1623 55.5948 47.1486 55.6034V55.6204C46.9877 55.8981 46.9229 56.3329 47.1137 56.6155C47.1162 56.6301 47.1112 56.6459 47.095 56.6508C47.2209 56.7945 47.3943 56.909 47.5177 57.0624C47.5289 57.0758 47.5539 57.1708 47.5875 57.1306H47.605C47.6275 57.1623 47.6462 57.1915 47.6761 57.2171C47.6599 57.2232 47.6599 57.2293 47.6761 57.2341C47.7035 57.2366 47.7185 57.2341 47.7459 57.2171L47.7808 57.2341C47.8133 57.2 47.8781 57.1793 47.9218 57.1477C47.9804 57.1574 48.0003 57.1038 48.0452 57.0795C47.8868 57.3121 48.0776 57.1915 48.15 57.1136C48.4954 56.9613 48.6837 56.3463 48.5553 55.9712C48.4181 55.7775 48.4156 55.6874 48.3956 55.4657C48.8246 55.607 48.8496 56.1709 48.8009 56.5302H48.8171L48.8358 56.4961C48.8383 56.518 48.8259 56.5546 48.8533 56.5643C49.0453 56.4133 49.281 56.2172 49.2573 55.9639C49.2735 55.9821 49.2923 55.9639 49.2923 55.9639C49.2972 55.9748 49.3022 55.9773 49.306 55.9724C49.2997 55.9821 49.2997 55.9882 49.3022 55.9919C49.2636 56.0211 49.2623 56.1088 49.2935 56.1417C49.2511 56.2111 49.3858 56.4218 49.3983 56.5472C49.3534 56.5546 49.3234 56.5887 49.2923 56.6155ZM49.9769 54.7411C50.0118 54.7654 50.0056 54.791 49.9569 54.8178C49.9046 54.7715 49.816 54.7204 49.7861 54.7995C49.8721 55.0212 49.6826 55.199 49.6614 55.3975C49.6414 55.4292 49.6302 55.4572 49.6265 55.4828C49.6265 55.4231 49.6402 55.3488 49.6614 55.294C49.6489 55.2733 49.6377 55.2782 49.6265 55.3111C49.6327 55.1588 49.5641 54.7557 49.4157 54.7277C49.417 54.6242 49.2299 54.4512 49.1164 54.3842C49.0965 54.3489 49.0616 54.3221 49.0291 54.299L49.0466 54.2649C48.8633 54.2223 48.7037 54.0883 48.5191 54.0749V54.0578C48.4717 54.0213 47.9467 53.9336 48.1425 54.0042C48.034 53.9982 48.0003 54.0883 47.9392 54.1443C47.9567 53.9434 47.9579 53.6596 48.0265 53.4745C48.0577 53.5171 48.1038 53.5134 48.1325 53.5256C48.2273 53.6608 48.4617 53.6547 48.5977 53.7497C48.6263 53.712 48.6001 53.7168 48.5715 53.7144V53.6632H48.554C48.4879 53.5366 48.3944 53.3819 48.3782 53.2345C48.4031 53.131 48.4206 52.9568 48.3782 52.857C48.3595 52.7486 48.4879 52.5781 48.4493 52.4794C48.4966 52.4855 48.5079 52.4685 48.4842 52.4271C48.5153 52.399 48.5178 52.393 48.554 52.3418L48.5939 52.3467C48.6862 52.1469 48.8009 52.4307 48.7411 52.5233L48.7648 52.5647C48.7086 52.6877 48.6076 52.8716 48.6425 52.9946C48.6076 52.9922 48.5977 52.9946 48.6089 53.0104L48.6076 53.3722H48.6251C48.65 53.4769 48.6887 53.595 48.7909 53.6462L48.8009 53.6291C48.8134 53.6401 48.8271 53.6571 48.8358 53.6632C48.7972 53.7034 48.8146 53.7473 48.8708 53.7497C48.9992 53.8764 49.2137 53.8861 49.3721 53.9787L49.4332 53.9726C49.4955 54.0079 49.5504 54.0225 49.5915 54.0932C49.5891 54.0822 49.594 54.0651 49.5915 54.0578H49.6265C49.6689 54.1772 49.7225 54.3051 49.836 54.3781C49.8734 54.4439 49.8272 54.4975 49.9607 54.4878L49.9432 54.3331C49.9669 54.383 49.9906 54.4439 50.013 54.4878C49.912 54.5133 49.9644 54.6668 49.9769 54.7411Z" fill="white"/>
<path d="M49.3633 48.1364C49.4893 48.2046 49.6901 48.3142 49.8023 48.4274C50.0018 48.6929 50.1664 48.995 50.2238 49.3202C50.4769 48.6053 50.4869 47.637 49.9258 47.0549C49.7399 46.7626 49.2898 46.4629 48.9231 46.5908C48.867 46.564 48.776 46.6006 48.7298 46.6432C48.7336 46.6408 48.7398 46.6432 48.7448 46.6432C48.5004 46.7065 48.3757 46.9331 48.2734 47.1401C47.7447 46.4325 46.6972 46.7504 46.5862 47.6041C46.4266 47.6918 46.2607 47.8416 46.0936 47.8964C46.1996 47.6955 46.3767 47.475 46.2869 47.2436C46.1834 46.6176 45.2706 46.8101 44.8279 46.9513C44.4413 47.095 44.0622 47.3983 43.9138 47.7759L43.8614 47.8441C43.9237 47.8355 43.9873 47.7953 44.0372 47.7588C44.4151 47.6187 44.8191 47.6236 45.197 47.7247C45.2381 47.7795 45.4401 47.8027 45.3903 47.8964C45.0024 47.9159 44.5685 47.8368 44.1956 47.9476C44.2031 47.9476 44.2031 47.9537 44.2031 47.9537L44.1956 47.9476C43.7404 48.0133 43.4698 48.4993 43.4923 48.9256C43.4623 48.9633 43.4636 49.0632 43.4923 49.0973C43.5085 49.2361 43.511 49.3336 43.5621 49.4578C43.5821 49.5089 43.5658 49.5954 43.6157 49.6125C43.6943 49.3336 43.9138 49.0839 44.1245 48.8744C44.2929 48.7563 44.4899 48.6467 44.6695 48.5821C44.8565 48.5675 44.9987 48.5906 44.9688 48.8062L44.9164 48.9085C44.6695 49.118 44.3016 49.1326 44.0721 49.3725C43.708 49.5845 43.5571 50.1593 43.7205 50.5052C43.7217 50.6794 43.834 50.8072 43.8963 50.968C43.92 51.0642 43.9824 51.1154 43.9674 51.2091C44.3477 50.8718 45.3055 50.8596 45.1621 50.1617C45.1907 49.9571 45.081 49.5832 45.3204 49.4919C45.3753 49.5796 45.3578 49.7123 45.4077 49.7842C45.4339 50.1642 45.2805 50.5296 45.1359 50.8657C45.3379 50.7768 45.5125 50.6806 45.707 50.5904C45.7494 50.5819 45.7594 50.5904 45.7594 50.5904C45.7519 50.6355 46.015 50.5125 45.9876 50.4881C46.0599 50.4516 46.1185 50.3944 46.146 50.3164C46.1522 50.3176 46.1584 50.314 46.1634 50.3164C46.3642 50.0375 46.2732 49.6721 46.3218 49.3725C46.3754 49.4797 46.3879 49.5674 46.4453 49.6636C46.4802 49.7805 46.5014 49.9157 46.4976 50.0412C46.5251 50.0326 46.5787 49.9937 46.5326 49.973C46.6236 49.8841 46.7296 49.8037 46.7608 49.6734L46.7446 49.6636C46.7495 49.6222 46.8094 49.5418 46.8318 49.5089L46.8755 49.5784C46.9391 49.5321 46.9528 49.4566 47.0077 49.4066C47.1012 49.3823 47.2209 49.1472 47.2708 49.0461C47.3494 48.984 47.3444 48.7636 47.307 48.6856C47.3307 48.6893 47.3406 48.6771 47.3419 48.6515C47.3419 48.6515 47.3456 48.6722 47.3593 48.6686C47.3369 48.5297 47.4865 48.3081 47.3943 48.2046C47.4117 48.1875 47.4167 48.1753 47.4117 48.1692C47.4242 48.1619 47.4217 48.1449 47.3943 48.1364C47.4217 48.0791 47.4067 48.0767 47.3943 48.0158C47.5003 48.0816 47.4229 48.2557 47.4616 48.3592C47.4454 48.6381 47.5614 48.9231 47.6399 49.1838C47.5738 49.3555 47.8444 49.4919 47.9741 49.5613C48.0078 49.5832 48.0726 49.6904 48.115 49.6466H48.1325C48.1412 49.6527 48.1562 49.6587 48.1674 49.6636V49.6807L48.1325 49.6892C48.2535 49.7964 48.4093 49.8573 48.5453 49.9364C48.6101 49.8889 48.6401 49.7781 48.5715 49.716C48.5752 49.3823 48.4293 48.9804 48.4318 48.6345C48.4867 48.5919 48.5104 48.4652 48.4667 48.4104C48.5016 48.4408 48.5341 48.4372 48.554 48.3933C48.549 48.4384 48.559 48.4469 48.5889 48.4104C48.5902 48.4226 48.5877 48.4335 48.5889 48.4457C48.5503 48.4591 48.5565 48.4822 48.6076 48.5139C48.8994 48.9304 48.453 49.5504 48.9942 49.8865C49.064 49.8962 49.1588 49.9766 49.2224 49.9389C49.2511 49.9462 49.276 49.9632 49.3097 49.9559C49.3272 49.9669 49.3359 49.9803 49.3633 49.973C49.3808 49.9182 49.2449 49.8962 49.2224 49.8524L49.2399 49.8353C49.281 49.8682 49.3646 49.8999 49.4157 49.9218L49.402 49.9425L49.5654 50.0071C49.5953 49.9839 49.5566 49.9644 49.5392 49.9559C49.5728 49.9498 49.5192 49.8816 49.503 49.8524C49.5616 49.8853 49.5778 49.9084 49.609 49.973C49.5703 49.9839 49.6127 50.0217 49.6227 50.0363C49.6589 50.0899 49.6801 50.1593 49.705 50.1958C49.7362 50.2531 49.7761 50.1033 49.7848 50.0753C49.9021 50.0351 49.9457 49.9048 50.013 49.8012C50.0592 49.7416 50.0467 49.6466 50.0829 49.5613L50.1016 49.6125C50.1639 49.325 50.1041 49.012 49.9083 48.7879C49.8035 48.5638 49.5741 48.4469 49.3858 48.2935C49.3771 48.2874 49.3309 48.2423 49.3272 48.274C49.291 48.2192 49.18 48.1985 49.2573 48.1364H49.3633ZM49.9956 48.995C49.9956 48.9779 49.9931 48.9621 49.9893 48.9451C50.0018 48.9536 49.9956 48.9804 49.9956 48.995Z" fill="white"/>
</g>
<defs>
<filter id="filter0_dd_3591_15914" x="0" y="0" width="86" height="86" filterUnits="userSpaceOnUse" color-interpolation-filters="sRGB">
<feFlood flood-opacity="0" result="BackgroundImageFix"/>
<feColorMatrix in="SourceAlpha" type="matrix" values="0 0 0 0 0 0 0 0 0 0 0 0 0 0 0 0 0 0 127 0" result="hardAlpha"/>
<feOffset dy="1"/>
<feGaussianBlur stdDeviation="4"/>
<feColorMatrix type="matrix" values="0 0 0 0 0.0784314 0 0 0 0 0.0784314 0 0 0 0 0.0784314 0 0 0 0.08 0"/>
<feBlend mode="normal" in2="BackgroundImageFix" result="effect1_dropShadow_3591_15914"/>
<feColorMatrix in="SourceAlpha" type="matrix" values="0 0 0 0 0 0 0 0 0 0 0 0 0 0 0 0 0 0 127 0" result="hardAlpha"/>
<feOffset/>
<feGaussianBlur stdDeviation="0.5"/>
<feColorMatrix type="matrix" values="0 0 0 0 0.0784314 0 0 0 0 0.0784314 0 0 0 0 0.0784314 0 0 0 0.04 0"/>
<feBlend mode="normal" in2="effect1_dropShadow_3591_15914" result="effect2_dropShadow_3591_15914"/>
<feBlend mode="normal" in="SourceGraphic" in2="effect2_dropShadow_3591_15914" result="shape"/>
</filter>
</defs>
</svg>
