<svg width="86" height="72" viewBox="0 0 86 72" fill="none" xmlns="http://www.w3.org/2000/svg">
<g filter="url(#filter0_dd_459_3862)">
<rect x="11" y="-4" width="64" height="64" rx="32" fill="#539461"/>
<rect x="9.5" y="-5.5" width="67" height="67" rx="33.5" stroke="#96BF9C" stroke-width="3"/>
<path d="M41.1432 8.22803V19.3534L44.5996 19.1734L45.4997 8.0012L41.1432 8.22803ZM33.6903 27.3704L33.6783 27.3584C33.4022 27.3824 33.1262 27.4064 32.8502 27.4424C32.5741 27.4784 32.2981 27.5024 32.022 27.5384C31.794 27.5744 31.554 27.5984 31.326 27.6224C31.0979 27.6464 30.8699 27.6704 30.6299 27.6944C30.5459 26.6503 30.4979 25.6182 30.4859 24.5861C30.4739 23.5539 30.4739 22.5218 30.4739 21.4897C29.0937 21.6577 27.7135 21.8497 26.3333 22.0537C26.5254 23.6739 26.7294 25.2941 26.9454 26.9023C27.1614 28.5105 27.3775 30.1307 27.6055 31.7389C29.6097 31.2829 31.638 30.8628 33.6663 30.5028C33.6783 29.2546 33.6903 28.6306 33.6903 27.3704ZM39.583 20.9724C39.979 21.0684 40.3271 21.2244 40.6391 21.4165C40.9512 21.6085 41.2152 21.8485 41.4432 22.1245C41.6712 22.4006 41.8633 22.7126 42.0073 23.0367C42.1513 23.3727 42.2593 23.7207 42.3433 24.0928C42.4153 24.4648 42.4513 24.8489 42.4513 25.2329L42.4633 25.2569C42.4633 25.665 42.4753 26.3851 42.3793 26.4811C42.1393 26.6971 40.6511 26.6371 39.811 26.7811C38.9589 26.9251 38.1188 27.0812 37.2667 27.2372C37.4227 27.5612 37.6387 27.8253 37.9268 28.0053C38.2148 28.1973 38.5509 28.2813 38.9349 28.2573C39.1389 28.2573 39.355 28.2093 39.583 28.1253C39.823 28.0413 40.051 27.9453 40.2791 27.8373C40.5071 27.7292 40.7351 27.6092 40.9512 27.4772C41.1672 27.3452 41.3472 27.2372 41.5032 27.1412C41.3832 28.4253 41.3232 29.0614 41.2032 30.3456C41.0112 30.4896 40.8071 30.6096 40.5911 30.7176C40.3751 30.8256 40.1471 30.9096 39.907 30.9816C39.667 31.0537 39.439 31.1017 39.1989 31.1377C38.9589 31.1737 38.7189 31.1977 38.4908 31.2097C38.0108 31.2337 37.5667 31.1977 37.1707 31.0897C36.7626 30.9816 36.3906 30.8376 36.0545 30.6336C35.7185 30.4296 35.4065 30.1895 35.1424 29.9015C34.8784 29.6135 34.6384 29.2894 34.4463 28.9414C34.2543 28.5933 34.0983 28.2213 33.9663 27.8133C33.8463 27.4172 33.7623 27.0092 33.7263 26.5891C33.6903 26.157 33.6903 25.713 33.7263 25.2689C33.7743 24.8249 33.8703 24.3928 34.0143 23.9848C34.1583 23.5647 34.3503 23.1807 34.6024 22.8086C34.8544 22.4486 35.1544 22.1125 35.5025 21.8365C35.8505 21.5485 36.2586 21.3204 36.7266 21.1524C37.1947 20.9844 37.7108 20.8764 38.2748 20.8524C38.7549 20.8284 39.1869 20.8764 39.583 20.9724ZM39.391 24.9569H39.379C39.379 24.8249 39.355 24.6929 39.3189 24.5488C39.2829 24.4168 39.2229 24.2848 39.1509 24.1768C39.0789 24.0688 38.9829 23.9728 38.8629 23.9128C38.7429 23.8408 38.5989 23.8168 38.4308 23.8168C38.2268 23.8168 38.0468 23.8888 37.8908 23.9968C37.7348 24.1048 37.6027 24.2368 37.5067 24.3928C37.3987 24.5488 37.3147 24.7169 37.2547 24.9089C37.1947 25.0889 37.1467 25.2569 37.1227 25.413C38.0228 25.2809 38.4788 25.2209 39.391 25.1129V24.9569ZM41.9713 30.4536C42.9194 27.3092 43.9395 24.1888 45.0317 21.0924C46.5198 21.0564 47.996 21.0444 49.4842 21.0564C50.3243 24.2608 51.0924 27.4772 51.7885 30.7056C50.5763 30.7536 49.3522 30.8136 48.14 30.9096C47.996 30.2616 47.924 29.9495 47.78 29.3014C47.1079 29.2654 46.7719 29.2534 46.0998 29.2414C45.9318 29.8775 45.8478 30.1895 45.6917 30.8256C44.4556 30.6696 43.2194 30.5496 41.9713 30.4536ZM47.1079 27.9813C47.1079 27.9813 49.2562 26.5411 49.4002 24.8009H49.4122C49.4962 23.6727 48.6561 22.6886 47.54 22.6046C46.4118 22.5206 45.4277 23.3607 45.3437 24.4768C45.1997 26.2171 47.1079 27.9813 47.1079 27.9813ZM60.2975 22.2818L60.2951 22.2914C60.2999 22.2914 60.3047 22.2926 60.3095 22.2938L60.2975 22.2818ZM51.8605 31.1749C53.0847 31.2589 54.3088 31.3669 55.533 31.4989L56.001 27.6464C57.0571 27.7424 57.5852 27.8025 58.6413 27.9345C58.8334 27.0824 58.9294 26.6503 59.1214 25.7982C57.9933 25.6182 57.4292 25.5462 56.301 25.4022C56.3491 25.0541 56.3611 24.8741 56.4091 24.526C57.7292 24.6341 58.3893 24.6941 59.7095 24.8381C59.8175 24.418 59.9135 23.986 60.0095 23.5659C60.1043 23.1375 60.2003 22.7198 60.2951 22.2914C57.8636 21.9205 55.4321 21.6205 52.9766 21.3817C52.5926 24.6461 52.2205 27.9105 51.8605 31.1749ZM47.3599 25.653C47.9228 25.653 48.3801 25.1969 48.3801 24.6329C48.3801 24.0688 47.9228 23.6127 47.3599 23.6127C46.7971 23.6127 46.3398 24.07 46.3398 24.6329C46.3398 25.0277 46.5642 25.371 46.8931 25.539C47.0227 25.6074 47.1691 25.647 47.3239 25.6518C47.3359 25.6518 47.3479 25.653 47.3599 25.653ZM54.6688 42.8847C54.3328 42.8511 53.4123 42.7971 52.3322 43.0671C52.7822 42.4431 53.1723 41.7878 53.4867 41.1337C53.5851 41.3617 53.8443 41.5585 54.5008 41.4001C55.773 41.0941 56.8867 39.9864 57.194 38.5522C57.5012 37.118 57.5612 35.8554 57.5612 35.8554C57.5612 35.8554 53.5587 36.4579 52.697 38.527C51.8353 40.596 52.5986 40.6416 53.4447 40.68C53.4447 40.68 53.4447 40.6824 53.4435 40.6872C53.4087 40.6908 53.3751 40.7076 53.3487 40.74C52.6526 41.4841 51.9325 42.2042 51.1764 42.8763C51.0768 42.9615 50.9772 43.0467 50.8764 43.1319C50.898 42.8283 50.8704 42.4959 50.7708 42.1382C51.8881 42.1862 52.1521 40.9441 51.9565 39.4319C51.7441 37.7865 48.9441 36.8876 48.9441 36.8876C48.9441 36.8876 48.17 37.8129 48.6081 40.308C48.9177 42.077 49.717 42.2366 50.1551 42.179C50.3579 42.8019 50.2823 43.3348 50.1263 43.744C49.4374 44.2817 48.7185 44.7557 47.9108 45.0726C47.3227 45.2646 46.5426 45.5166 46.0746 45.1686C45.7385 44.7965 45.7505 44.2445 45.7625 43.6564C45.9906 41.0521 47.1427 38.5558 48.0428 36.1195C48.1268 35.8434 48.1868 35.6754 48.0788 35.3274C48.1268 35.1954 47.5748 34.6073 47.1187 34.7033C46.7827 34.7513 46.7827 34.7993 46.6747 34.8473C46.5426 34.9313 46.4946 34.9793 46.4106 35.0754C46.1826 35.3514 46.0146 35.6874 45.8346 35.9755C44.8144 37.7397 43.7823 39.4799 42.5942 41.1241C41.43 42.7203 38.7537 46.1527 36.6174 45.7567C36.5574 45.7207 36.5334 45.7087 36.4974 45.6607C36.4614 45.6126 36.4134 45.5046 36.3774 45.3606C36.0413 43.5124 37.2895 40.404 38.0096 38.6038C38.2976 37.9077 38.5977 37.2116 38.9217 36.5275C39.0297 36.2995 39.1377 36.0715 39.2457 35.8554C39.5098 35.3394 39.3057 34.6913 38.7777 34.4153C38.2376 34.1392 37.5895 34.3433 37.3135 34.8713C36.8814 35.6874 36.4134 36.4795 35.8853 37.2116C34.8892 38.5678 33.6771 39.8399 32.0208 40.224C31.2648 40.392 30.4847 40.308 29.7526 40.044C29.1885 39.8519 28.5764 40.14 28.3724 40.704C28.1804 41.2681 28.4684 41.8802 29.0325 42.0842C31.1111 42.8427 33.0206 42.4455 34.6456 41.4217C34.3011 42.6459 34.0839 43.8448 34.0971 44.9166C34.1331 47.2689 35.7773 48.445 38.0216 47.8449C39.7618 47.3769 41.142 46.1047 42.2701 44.8686C42.965 44.0945 43.5975 43.2748 44.1892 42.4263C44.0355 43.4632 44.0151 44.5277 44.3704 45.4566C45.1505 47.3529 47.3107 47.0288 48.8109 46.2727C49.8731 45.7087 50.8452 44.8698 51.6721 43.9048C52.889 43.4116 54.0652 43.4368 54.5188 43.4704C54.2164 43.8568 53.9704 44.5433 55.4153 45.0246C57.5324 45.7303 59.7191 41.4361 59.7191 41.4361C59.7191 41.4361 53.5683 40.296 54.6664 42.8847H54.6688Z" fill="white"/>
</g>
<defs>
<filter id="filter0_dd_459_3862" x="0" y="-14" width="86" height="86" filterUnits="userSpaceOnUse" color-interpolation-filters="sRGB">
<feFlood flood-opacity="0" result="BackgroundImageFix"/>
<feColorMatrix in="SourceAlpha" type="matrix" values="0 0 0 0 0 0 0 0 0 0 0 0 0 0 0 0 0 0 127 0" result="hardAlpha"/>
<feOffset dy="1"/>
<feGaussianBlur stdDeviation="4"/>
<feColorMatrix type="matrix" values="0 0 0 0 0.0784314 0 0 0 0 0.0784314 0 0 0 0 0.0784314 0 0 0 0.08 0"/>
<feBlend mode="normal" in2="BackgroundImageFix" result="effect1_dropShadow_459_3862"/>
<feColorMatrix in="SourceAlpha" type="matrix" values="0 0 0 0 0 0 0 0 0 0 0 0 0 0 0 0 0 0 127 0" result="hardAlpha"/>
<feOffset/>
<feGaussianBlur stdDeviation="0.5"/>
<feColorMatrix type="matrix" values="0 0 0 0 0.0784314 0 0 0 0 0.0784314 0 0 0 0 0.0784314 0 0 0 0.04 0"/>
<feBlend mode="normal" in2="effect1_dropShadow_459_3862" result="effect2_dropShadow_459_3862"/>
<feBlend mode="normal" in="SourceGraphic" in2="effect2_dropShadow_459_3862" result="shape"/>
</filter>
</defs>
</svg>
