<svg width="19" height="18" viewBox="0 0 19 18" fill="none" xmlns="http://www.w3.org/2000/svg">
<path fill-rule="evenodd" clip-rule="evenodd" d="M6.71985 0.21967C7.01274 -0.0732233 7.48761 -0.0732233 7.78051 0.21967L9.50018 1.93934L11.2198 0.21967C11.5127 -0.0732233 11.9876 -0.0732233 12.2805 0.21967C12.5734 0.512563 12.5734 0.987437 12.2805 1.28033L10.2502 3.31066V7.70101L14.0527 5.50583L14.7757 2.80598C14.8829 2.40586 15.2941 2.16838 15.6942 2.27553C16.0943 2.38269 16.3318 2.79391 16.2246 3.19402L15.6193 5.45431L17.9291 6.02165C18.3313 6.12045 18.5773 6.52664 18.4785 6.9289C18.3797 7.33116 17.9735 7.57715 17.5713 7.47835L14.8106 6.80026L11.0003 9L14.8106 11.1997L17.5713 10.5216C17.9735 10.4228 18.3797 10.6688 18.4785 11.0711C18.5773 11.4734 18.3313 11.8795 17.9291 11.9784L15.6193 12.5457L16.2246 14.806C16.3318 15.2061 16.0943 15.6173 15.6942 15.7245C15.2941 15.8316 14.8829 15.5941 14.7757 15.194L14.0527 12.4942L10.2502 10.299V14.6893L12.2805 16.7197C12.5734 17.0126 12.5734 17.4874 12.2805 17.7803C11.9876 18.0732 11.5127 18.0732 11.2198 17.7803L9.50018 16.0607L7.78051 17.7803C7.48761 18.0732 7.01274 18.0732 6.71985 17.7803C6.42695 17.4874 6.42695 17.0126 6.71985 16.7197L8.75018 14.6893V10.299L4.9477 12.4942L4.22464 15.194C4.11749 15.5941 3.70627 15.8316 3.30615 15.7245C2.90604 15.6173 2.66855 15.2061 2.77571 14.806L3.38104 12.5457L1.07127 11.9784C0.669017 11.8795 0.42302 11.4734 0.521825 11.0711C0.620629 10.6688 1.02682 10.4228 1.42908 10.5216L4.18973 11.1997L8.00009 9L4.18973 6.80026L1.42908 7.47835C1.02682 7.57715 0.620629 7.33116 0.521825 6.9289C0.42302 6.52664 0.669017 6.12045 1.07127 6.02165L3.38104 5.45431L2.77571 3.19402C2.66855 2.79391 2.90604 2.38269 3.30615 2.27553C3.70627 2.16838 4.11749 2.40586 4.22464 2.80598L4.9477 5.50582L8.75018 7.70101V3.31066L6.71985 1.28033C6.42695 0.987437 6.42695 0.512563 6.71985 0.21967Z" fill="#556065"/>
</svg>
