<svg width="40" height="40" viewBox="0 0 40 40" fill="none" xmlns="http://www.w3.org/2000/svg">
<path d="M0 20C0 8.95431 8.95431 0 20 0C31.0457 0 40 8.95431 40 20C40 31.0457 31.0457 40 20 40C8.95431 40 0 31.0457 0 20Z" fill="#6B4EFF"/>
<path d="M27.5 16.625V14H24.875C24.2537 14 23.75 13.4963 23.75 12.875C23.75 12.2537 24.2537 11.75 24.875 11.75H28.625L28.7402 11.7559C29.3074 11.8136 29.75 12.2926 29.75 12.875V16.625C29.75 17.2463 29.2463 17.75 28.625 17.75C28.0037 17.75 27.5 17.2463 27.5 16.625Z" fill="white"/>
<path d="M10.25 23.375C10.25 22.7537 10.7537 22.25 11.375 22.25C11.9963 22.25 12.5 22.7537 12.5 23.375V26H15.125C15.7463 26 16.25 26.5037 16.25 27.125C16.25 27.7463 15.7463 28.25 15.125 28.25H11.375C10.7537 28.25 10.25 27.7463 10.25 27.125V23.375Z" fill="white"/>
<path d="M27.5 23.375C27.5 22.7537 28.0037 22.25 28.625 22.25C29.2463 22.25 29.75 22.7537 29.75 23.375V27.125L29.7441 27.2402C29.6864 27.8074 29.2074 28.25 28.625 28.25H24.875C24.2537 28.25 23.75 27.7463 23.75 27.125C23.75 26.5037 24.2537 26 24.875 26H27.5V23.375Z" fill="white"/>
<path d="M10.25 16.625V12.875C10.25 12.2537 10.7537 11.75 11.375 11.75H15.125C15.7463 11.75 16.25 12.2537 16.25 12.875C16.25 13.4963 15.7463 14 15.125 14H12.5V16.625C12.5 17.2463 11.9963 17.75 11.375 17.75C10.7537 17.75 10.25 17.2463 10.25 16.625Z" fill="white"/>
<path d="M15.125 23.375V16.625C15.125 16.0037 15.6287 15.5 16.25 15.5C16.8713 15.5 17.375 16.0037 17.375 16.625V23.375C17.375 23.9963 16.8713 24.5 16.25 24.5C15.6287 24.5 15.125 23.9963 15.125 23.375Z" fill="white"/>
<path d="M22.625 23.375V16.625C22.625 16.0037 23.1287 15.5 23.75 15.5C24.3713 15.5 24.875 16.0037 24.875 16.625V23.375C24.875 23.9963 24.3713 24.5 23.75 24.5C23.1287 24.5 22.625 23.9963 22.625 23.375Z" fill="white"/>
<path d="M18.875 23.375V16.625C18.875 16.0037 19.3787 15.5 20 15.5C20.6213 15.5 21.125 16.0037 21.125 16.625V23.375C21.125 23.9963 20.6213 24.5 20 24.5C19.3787 24.5 18.875 23.9963 18.875 23.375Z" fill="white"/>
</svg>
