<svg width="64" height="64" viewBox="0 0 64 64" fill="none" xmlns="http://www.w3.org/2000/svg">
<path d="M0 32C0 14.3269 14.3269 0 32 0C49.6731 0 64 14.3269 64 32C64 49.6731 49.6731 64 32 64C14.3269 64 0 49.6731 0 32Z" fill="#6B4EFF"/>
<path d="M42 27.5V24H38.5C37.6716 24 37 23.3284 37 22.5C37 21.6716 37.6716 21 38.5 21H43.5L43.6536 21.0078C44.4099 21.0848 45 21.7234 45 22.5V27.5C45 28.3284 44.3284 29 43.5 29C42.6716 29 42 28.3284 42 27.5Z" fill="white"/>
<path d="M19 36.5C19 35.6716 19.6716 35 20.5 35C21.3284 35 22 35.6716 22 36.5V40H25.5C26.3284 40 27 40.6716 27 41.5C27 42.3284 26.3284 43 25.5 43H20.5C19.6716 43 19 42.3284 19 41.5V36.5Z" fill="white"/>
<path d="M42 36.5C42 35.6716 42.6716 35 43.5 35C44.3284 35 45 35.6716 45 36.5V41.5L44.9922 41.6536C44.9152 42.4099 44.2766 43 43.5 43H38.5C37.6716 43 37 42.3284 37 41.5C37 40.6716 37.6716 40 38.5 40H42V36.5Z" fill="white"/>
<path d="M19 27.5V22.5C19 21.6716 19.6716 21 20.5 21H25.5C26.3284 21 27 21.6716 27 22.5C27 23.3284 26.3284 24 25.5 24H22V27.5C22 28.3284 21.3284 29 20.5 29C19.6716 29 19 28.3284 19 27.5Z" fill="white"/>
<path d="M25.5 36.5V27.5C25.5 26.6716 26.1716 26 27 26C27.8284 26 28.5 26.6716 28.5 27.5V36.5C28.5 37.3284 27.8284 38 27 38C26.1716 38 25.5 37.3284 25.5 36.5Z" fill="white"/>
<path d="M35.5 36.5V27.5C35.5 26.6716 36.1716 26 37 26C37.8284 26 38.5 26.6716 38.5 27.5V36.5C38.5 37.3284 37.8284 38 37 38C36.1716 38 35.5 37.3284 35.5 36.5Z" fill="white"/>
<path d="M30.5 36.5V27.5C30.5 26.6716 31.1716 26 32 26C32.8284 26 33.5 26.6716 33.5 27.5V36.5C33.5 37.3284 32.8284 38 32 38C31.1716 38 30.5 37.3284 30.5 36.5Z" fill="white"/>
</svg>
