<svg width="48" height="48" viewBox="0 0 48 48" fill="none" xmlns="http://www.w3.org/2000/svg">
  <!-- Shop storefront base -->
  <path d="M8 18L12 10H36L40 18V22C40 24.2091 38.2091 26 36 26C33.7909 26 32 24.2091 32 22C32 24.2091 30.2091 26 28 26C25.7909 26 24 24.2091 24 22C24 24.2091 22.2091 26 20 26C17.7909 26 16 24.2091 16 22C16 24.2091 14.2091 26 12 26C9.79086 26 8 24.2091 8 22V18Z" fill="#699E73"/>
  
  <!-- Shop body -->
  <path d="M10 26V40H22V32C22 30.8954 22.8954 30 24 30C25.1046 30 26 30.8954 26 32V40H38V26" stroke="#699E73" stroke-width="2" stroke-linecap="round"/>
  
  <!-- Door -->
  <rect x="20" y="32" width="8" height="8" rx="1" fill="#699E73"/>
  
  <!-- Chat bubble -->
  <circle cx="34" cy="14" r="9" fill="#539461"/>
  <path d="M34 18C36.2091 18 38 16.2091 38 14C38 11.7909 36.2091 10 34 10C31.7909 10 30 11.7909 30 14C30 14.9193 30.2922 15.7715 30.7853 16.4644L30 19L32.5356 18.2147C33.2285 18.7078 34.0807 19 34 19V18Z" fill="white"/>
  
  <!-- Chat dots -->
  <circle cx="32" cy="14" r="1" fill="#539461"/>
  <circle cx="34" cy="14" r="1" fill="#539461"/>
  <circle cx="36" cy="14" r="1" fill="#539461"/>
</svg>
