<svg width="64" height="64" viewBox="0 0 64 64" fill="none" xmlns="http://www.w3.org/2000/svg">
<path d="M0 32C0 14.3269 14.3269 0 32 0C49.6731 0 64 14.3269 64 32C64 49.6731 49.6731 64 32 64C14.3269 64 0 49.6731 0 32Z" fill="#48A7F8"/>
<path d="M43.96 24.2688L32.96 18.25C32.6661 18.0876 32.3358 18.0024 32 18.0024C31.6642 18.0024 31.3339 18.0876 31.04 18.25L20.04 24.2713C19.7259 24.4432 19.4636 24.6962 19.2807 25.0041C19.0978 25.3119 19.0008 25.6632 19 26.0213V37.9763C19.0008 38.3344 19.0978 38.6857 19.2807 38.9935C19.4636 39.3013 19.7259 39.5544 20.04 39.7263L31.04 45.7475C31.3339 45.9099 31.6642 45.9951 32 45.9951C32.3358 45.9951 32.6661 45.9099 32.96 45.7475L43.96 39.7263C44.2741 39.5544 44.5364 39.3013 44.7193 38.9935C44.9023 38.6857 44.9992 38.3344 45 37.9763V26.0225C44.9999 25.6638 44.9032 25.3117 44.7203 25.0032C44.5373 24.6946 44.2747 24.441 43.96 24.2688ZM32 20L42.0438 25.5L38.3213 27.5363L28.2775 22.0363L32 20ZM32 31L21.9563 25.5L26.195 23.1788L36.2388 28.6788L32 31ZM43 37.9813L33 43.455V32.7288L37 30.54V35C37 35.2652 37.1054 35.5196 37.2929 35.7071C37.4804 35.8947 37.7348 36 38 36C38.2652 36 38.5196 35.8947 38.7071 35.7071C38.8946 35.5196 39 35.2652 39 35V29.445L43 27.2563V37.9763V37.9813Z" fill="white"/>
</svg>
