<svg width="40" height="40" viewBox="0 0 40 40" fill="none" xmlns="http://www.w3.org/2000/svg">
<path d="M0 20C0 8.95431 8.95431 0 20 0C31.0457 0 40 8.95431 40 20C40 31.0457 31.0457 40 20 40C8.95431 40 0 31.0457 0 20Z" fill="#48A7F8"/>
<path d="M28.97 14.2015L20.72 9.68739C20.4996 9.5656 20.2518 9.50171 20 9.50171C19.7482 9.50171 19.5004 9.5656 19.28 9.68739L11.03 14.2033C10.7944 14.3322 10.5977 14.522 10.4605 14.7529C10.3233 14.9838 10.2506 15.2473 10.25 15.5158V24.4821C10.2506 24.7506 10.3233 25.0141 10.4605 25.245C10.5977 25.4759 10.7944 25.6657 11.03 25.7946L19.28 30.3105C19.5004 30.4323 19.7482 30.4962 20 30.4962C20.2518 30.4962 20.4996 30.4323 20.72 30.3105L28.97 25.7946C29.2056 25.6657 29.4023 25.4759 29.5395 25.245C29.6767 25.0141 29.7494 24.7506 29.75 24.4821V15.5168C29.7499 15.2477 29.6774 14.9837 29.5402 14.7523C29.403 14.5208 29.206 14.3306 28.97 14.2015ZM20 10.9999L27.5328 15.1249L24.7409 16.6521L17.2081 12.5271L20 10.9999ZM20 19.2499L12.4672 15.1249L15.6462 13.384L23.1791 17.509L20 19.2499ZM28.25 24.4858L20.75 28.5911V20.5465L23.75 18.9049V22.2499C23.75 22.4488 23.829 22.6396 23.9697 22.7802C24.1103 22.9209 24.3011 22.9999 24.5 22.9999C24.6989 22.9999 24.8897 22.9209 25.0303 22.7802C25.171 22.6396 25.25 22.4488 25.25 22.2499V18.0836L28.25 16.4421V24.4821V24.4858Z" fill="white"/>
</svg>
