<svg width="41" height="40" viewBox="0 0 41 40" fill="none" xmlns="http://www.w3.org/2000/svg">
<path d="M6.5 8.5C6.5 6.01472 8.51472 4 11 4H22.5C24.9853 4 27 6.01472 27 8.5V12.5H31C33.2091 12.5 35 14.2909 35 16.5V31C35 33.2091 33.2091 35 31 35H10C7.79086 35 6 33.2091 6 31V16.5C6 14.2909 7.79086 12.5 10 12.5H14V8.5H6.5Z" fill="#539461"/>
<path d="M10 12.5H31C33.2091 12.5 35 14.2909 35 16.5V31C35 33.2091 33.2091 35 31 35H10C7.79086 35 6 33.2091 6 31V16.5C6 14.2909 7.79086 12.5 10 12.5Z" fill="#7CBD58"/>
<path d="M11 4H22.5C24.9853 4 27 6.01472 27 8.5V12.5H14V8.5C14 6.01472 12.4853 4 11 4Z" fill="#3D7A49"/>
<circle cx="20.5" cy="23.5" r="7.5" fill="#FFFFFF"/>
<path d="M17.2 26.8L23.8 20.2" stroke="#DA4A54" stroke-width="2.2" stroke-linecap="round"/>
<circle cx="17.8" cy="20.8" r="1.6" fill="#DA4A54"/>
<circle cx="23.2" cy="26.2" r="1.6" fill="#DA4A54"/>
<path d="M30.5 6.5L34.5 10.5L38 7" stroke="#FDC74F" stroke-width="2.5" stroke-linecap="round" stroke-linejoin="round"/>
<path d="M33 3.5V10.5" stroke="#FDC74F" stroke-width="2" stroke-linecap="round"/>
<path d="M29.5 7H36.5" stroke="#FDC74F" stroke-width="2" stroke-linecap="round"/>
</svg>
