<svg width="24" height="24" viewBox="0 0 24 24" fill="none" xmlns="http://www.w3.org/2000/svg">
<path d="M10.5 2.25012C10.5 1.8359 10.8358 1.50012 11.25 1.50012C11.6642 1.50012 12 1.8359 12 2.25012V12.0001H21.75C22.1642 12.0001 22.5 12.3359 22.5 12.7501C22.5 13.1643 22.1642 13.5001 21.75 13.5001H11.25C10.8358 13.5001 10.5 13.1643 10.5 12.7501V2.25012Z" fill="#556065"/>
<path d="M10.7197 12.2198C11.0126 11.9269 11.4874 11.9269 11.7803 12.2198C12.0732 12.5127 12.0732 12.9875 11.7803 13.2804L5.03027 20.0304C4.73738 20.3233 4.26262 20.3233 3.96973 20.0304C3.67683 19.7375 3.67683 19.2627 3.96973 18.9698L10.7197 12.2198Z" fill="#556065"/>
<path d="M18.2197 9.21984C18.5126 8.92695 18.9874 8.92695 19.2803 9.21984L22.2803 12.2198C22.5732 12.5127 22.5732 12.9875 22.2803 13.2804L19.2803 16.2804C18.9874 16.5733 18.5126 16.5733 18.2197 16.2804C17.9268 15.9875 17.9268 15.5127 18.2197 15.2198L20.6895 12.7501L18.2197 10.2804C17.9268 9.9875 17.9268 9.51274 18.2197 9.21984Z" fill="#556065"/>
<path d="M10.7764 1.66809C11.0709 1.42778 11.5057 1.44524 11.7803 1.71984L14.7803 4.71984L14.832 4.77648C15.0723 5.07107 15.0549 5.50579 14.7803 5.78039C14.5057 6.05499 14.0709 6.07246 13.7764 5.83215L13.7197 5.78039L11.25 3.31066L8.78027 5.78039C8.48738 6.07328 8.01262 6.07328 7.71973 5.78039C7.42683 5.4875 7.42683 5.01274 7.71973 4.71984L10.7197 1.71984L10.7764 1.66809Z" fill="#556065"/>
<path d="M3.75 15.0001C3.75 14.5859 4.08579 14.2501 4.5 14.2501C4.91421 14.2501 5.25 14.5859 5.25 15.0001V18.7501H9C9.41421 18.7501 9.75 19.0859 9.75 19.5001C9.75 19.9143 9.41421 20.2501 9 20.2501H4.5C4.08579 20.2501 3.75 19.9143 3.75 19.5001V15.0001Z" fill="#556065"/>
</svg>
