<svg width="41" height="40" viewBox="0 0 41 40" fill="none" xmlns="http://www.w3.org/2000/svg">
<path d="M4.93729 9.32153L2.55692 31.1425C2.28135 33.6684 4.2598 35.8742 6.80038 35.8742H27.4186C29.9595 35.8742 31.9377 33.6684 31.6621 31.1425L29.2817 9.32153C29.185 8.43591 28.4373 7.76544 27.5468 7.76544H6.67252C5.78171 7.76544 5.03403 8.43591 4.93729 9.32153Z" fill="#DA4A54"/>
<path d="M31.6617 31.1425L29.2813 9.32153C29.1846 8.43591 28.4369 7.76544 27.5464 7.76544H25.5237C26.4142 7.76544 27.1619 8.43591 27.2586 9.32153L29.639 31.1425C29.9145 33.6684 27.9364 35.8742 25.3955 35.8742H27.4182C29.9591 35.8742 31.9372 33.6684 31.6617 31.1425Z" fill="#C32430"/>
<path d="M2.53223 31.6424C2.5481 33.9523 4.42889 35.8743 6.80041 35.8743H27.4187C29.7902 35.8743 31.671 33.9523 31.6872 31.6424H2.53223Z" fill="#C32430"/>
<path d="M29.664 31.6424C29.6478 33.9523 27.767 35.8743 25.3955 35.8743H27.4182H27.4207C27.4966 35.8743 27.572 35.8718 27.6471 35.8682C27.6727 35.8666 27.6981 35.8642 27.7234 35.8624C27.7734 35.8587 27.8232 35.8553 27.8726 35.8502C27.9028 35.8468 27.9324 35.8425 27.9623 35.8386C28.0066 35.8331 28.0508 35.8276 28.0945 35.8206C28.1262 35.8157 28.1573 35.8096 28.1888 35.8038C28.2303 35.7961 28.2715 35.7888 28.3124 35.78C28.3444 35.7733 28.3765 35.7656 28.4082 35.758C28.4479 35.7485 28.4872 35.7391 28.5263 35.7287C28.5583 35.7202 28.5901 35.7107 28.6218 35.7012C28.66 35.6902 28.6978 35.679 28.7353 35.6667C28.7674 35.6564 28.7991 35.6454 28.8309 35.6344C28.8672 35.6216 28.9035 35.6085 28.9395 35.5947C28.9712 35.5825 29.0027 35.57 29.0341 35.5572C29.0692 35.5428 29.104 35.5282 29.1385 35.5129C29.1699 35.4989 29.201 35.4852 29.2319 35.4705C29.2657 35.4546 29.299 35.4382 29.3323 35.4214C29.3631 35.4058 29.3939 35.3903 29.4244 35.3741C29.4565 35.357 29.4882 35.339 29.52 35.321C29.5502 35.3039 29.5807 35.2868 29.6106 35.2688C29.6411 35.2502 29.6713 35.2313 29.7012 35.212C29.7311 35.1931 29.7613 35.1742 29.791 35.1544C29.8193 35.1354 29.8471 35.1153 29.8752 35.0955C29.9054 35.0744 29.9356 35.0536 29.9649 35.0317C29.9905 35.0124 30.0149 34.9926 30.0403 34.9728C30.0711 34.949 30.1019 34.9255 30.1318 34.9008C30.1483 34.887 30.1642 34.8727 30.1804 34.8586C30.2621 34.7891 30.3418 34.717 30.4181 34.6414C30.4239 34.6356 30.4303 34.6301 30.4364 34.624C30.47 34.5904 30.5023 34.5553 30.5347 34.5205C30.5502 34.5043 30.5658 34.4885 30.5807 34.4717C30.6113 34.4381 30.6406 34.4036 30.6699 34.3691C30.6857 34.3502 30.7022 34.3319 30.7178 34.313C30.7461 34.2782 30.7733 34.2428 30.8008 34.2074C30.816 34.1876 30.8316 34.1677 30.8466 34.1479C30.8731 34.1119 30.8987 34.0753 30.9244 34.0386C30.9387 34.0179 30.9531 33.9974 30.9671 33.9764C30.9921 33.9391 31.0162 33.9013 31.04 33.8632C31.0532 33.8421 31.0663 33.821 31.0791 33.7997C31.1026 33.7609 31.1252 33.7213 31.1475 33.6816C31.1591 33.6605 31.171 33.6392 31.1822 33.6178C31.2042 33.5772 31.2253 33.536 31.246 33.4945C31.2564 33.4738 31.2665 33.4524 31.2765 33.4313C31.2967 33.3886 31.3165 33.3456 31.3351 33.3022C31.344 33.2821 31.3525 33.2614 31.3611 33.2409C31.3797 33.196 31.398 33.1509 31.4151 33.1051C31.4224 33.0862 31.4291 33.067 31.4358 33.0477C31.4532 32.9998 31.47 32.9519 31.4853 32.9034C31.4908 32.8869 31.4954 32.8698 31.5005 32.853C31.5164 32.8015 31.5317 32.7499 31.5457 32.6974C31.5488 32.6855 31.5515 32.6736 31.5546 32.6614C31.5692 32.6037 31.5832 32.546 31.5955 32.4877C31.5955 32.4874 31.5958 32.4874 31.5958 32.4871C31.6531 32.2137 31.6843 31.9311 31.6864 31.6424H29.664Z" fill="#ED5176"/>
<path d="M38.4493 28.0666L38.1722 21.2295C38.1328 20.2618 37.3574 19.4863 36.3896 19.447L29.5525 19.1699C29.0337 19.1488 28.5295 19.3456 28.1624 19.7128L18.2122 29.663C17.4215 30.4537 17.4215 31.7361 18.2122 32.5268L25.092 39.4067C25.8831 40.1977 27.1651 40.1977 27.9558 39.4067L37.9064 29.4564C38.2735 29.0893 38.4703 28.5854 38.4493 28.0666ZM33.4957 24.1235C32.9982 23.626 32.9982 22.8198 33.4957 22.3223C33.9928 21.8252 34.7991 21.8252 35.2965 22.3223C35.7939 22.8198 35.7939 23.626 35.2965 24.1235C34.7991 24.6209 33.9928 24.6209 33.4957 24.1235Z" fill="#FDC74F"/>
<path d="M38.449 28.0666L38.1719 21.2295C38.1448 20.5581 37.7624 19.9795 37.2079 19.6749C37.3159 19.8931 37.3721 20.1455 37.3626 20.4202L37.1401 26.7577C37.1233 27.2387 36.9048 27.7212 36.5377 28.0883L26.5875 38.0386C25.7968 38.8293 24.6044 38.9196 23.9248 38.2397L25.0921 39.407C25.8828 40.1977 27.1649 40.1977 27.9559 39.407L37.9061 29.4567C38.2732 29.0893 38.4701 28.5854 38.449 28.0666Z" fill="#FCA629"/>
<path d="M22.8191 10.932C22.5002 10.932 22.2417 10.6735 22.2417 10.3546V6.28661C22.2417 3.45703 19.9394 1.15509 17.1099 1.15509C14.2803 1.15509 11.978 3.45703 11.978 6.28661V10.3546C11.978 10.6735 11.7195 10.932 11.4006 10.932C11.0817 10.932 10.8232 10.6735 10.8232 10.3546V6.28661C10.8232 2.82013 13.6434 0 17.1099 0C20.5763 0 23.3965 2.82013 23.3965 6.28661V10.3546C23.3965 10.6735 23.138 10.932 22.8191 10.932Z" fill="#252D4C"/>
<path d="M26.1899 28.7396C25.0598 28.7396 24.1406 27.8204 24.1406 26.6903C24.1406 25.5605 25.0598 24.6411 26.1899 24.6411C27.3196 24.6411 28.2391 25.5605 28.2391 26.6903C28.2391 27.8204 27.3199 28.7396 26.1899 28.7396ZM26.1899 25.7961C25.6967 25.7961 25.2954 26.1971 25.2954 26.6903C25.2954 27.1835 25.6967 27.5848 26.1899 27.5848C26.683 27.5848 27.084 27.1835 27.084 26.6903C27.084 26.1971 26.683 25.7961 26.1899 25.7961Z" fill="#252D4C"/>
<path d="M29.8816 34.5269C28.7515 34.5269 27.832 33.6077 27.832 32.4777C27.832 31.3479 28.7515 30.4284 29.8816 30.4284C31.0113 30.4284 31.9308 31.3479 31.9308 32.4777C31.9308 33.6077 31.0113 34.5269 29.8816 34.5269ZM29.8816 31.5835C29.3884 31.5835 28.9871 31.9848 28.9871 32.478C28.9871 32.9708 29.3884 33.3721 29.8816 33.3721C30.3748 33.3721 30.7758 32.9708 30.7758 32.478C30.7758 31.9845 30.3748 31.5835 29.8816 31.5835Z" fill="#252D4C"/>
<path d="M25.0023 33.1951C24.8546 33.1951 24.7066 33.1387 24.5939 33.0258C24.3684 32.8005 24.3684 32.4346 24.5939 32.2091L30.6608 26.1422C30.8864 25.9167 31.252 25.9167 31.4775 26.1422C31.703 26.3678 31.703 26.7334 31.4775 26.9589L25.4106 33.0258C25.298 33.1387 25.15 33.1951 25.0023 33.1951Z" fill="#252D4C"/>
</svg>
