<svg width="24" height="24" viewBox="0 0 24 24" fill="none" xmlns="http://www.w3.org/2000/svg">
<path fill-rule="evenodd" clip-rule="evenodd" d="M17.4697 2.46967C17.7626 2.17678 18.2374 2.17678 18.5303 2.46967L21.5303 5.46967C21.8232 5.76256 21.8232 6.23744 21.5303 6.53033L12.5303 15.5303C12.3897 15.671 12.1989 15.75 12 15.75H9C8.58579 15.75 8.25 15.4142 8.25 15V12C8.25 11.8011 8.32902 11.6103 8.46967 11.4697L17.4697 2.46967ZM15.75 6.31066L9.75 12.3107V14.25H11.6893L17.6893 8.25L15.75 6.31066ZM18.75 7.18934L16.8107 5.25L18 4.06066L19.9393 6L18.75 7.18934ZM3.43934 3.43934C3.72064 3.15804 4.10217 3 4.5 3H12C12.4142 3 12.75 3.33579 12.75 3.75C12.75 4.16421 12.4142 4.5 12 4.5L4.5 4.5L4.5 19.5H19.5V12C19.5 11.5858 19.8358 11.25 20.25 11.25C20.6642 11.25 21 11.5858 21 12V19.5C21 19.8978 20.842 20.2794 20.5607 20.5607C20.2794 20.842 19.8978 21 19.5 21H4.5C4.10218 21 3.72065 20.842 3.43934 20.5607C3.15804 20.2794 3 19.8978 3 19.5V4.5C3 4.10217 3.15804 3.72064 3.43934 3.43934Z" fill="#556065"/>
</svg>
