<svg width="19" height="19" viewBox="0 0 19 19" fill="none" xmlns="http://www.w3.org/2000/svg">
<path fill-rule="evenodd" clip-rule="evenodd" d="M14.4697 0.46967C14.7626 0.176777 15.2374 0.176777 15.5303 0.46967L18.5303 3.46967C18.8232 3.76256 18.8232 4.23744 18.5303 4.53033L9.53033 13.5303C9.38968 13.671 9.19891 13.75 9 13.75H6C5.58579 13.75 5.25 13.4142 5.25 13V10C5.25 9.80109 5.32902 9.61032 5.46967 9.46967L14.4697 0.46967ZM12.75 4.31066L6.75 10.3107V12.25H8.68934L14.6893 6.25L12.75 4.31066ZM15.75 5.18934L13.8107 3.25L15 2.06066L16.9393 4L15.75 5.18934ZM0.43934 1.43934C0.720644 1.15804 1.10217 1 1.5 1H9C9.41421 1 9.75 1.33579 9.75 1.75C9.75 2.16421 9.41421 2.5 9 2.5L1.5 2.5L1.5 17.5H16.5V10C16.5 9.58579 16.8358 9.25 17.25 9.25C17.6642 9.25 18 9.58579 18 10V17.5C18 17.8978 17.842 18.2794 17.5607 18.5607C17.2794 18.842 16.8978 19 16.5 19H1.5C1.10218 19 0.720645 18.842 0.43934 18.5607C0.158035 18.2794 0 17.8978 0 17.5V2.5C0 2.10217 0.158036 1.72064 0.43934 1.43934Z" fill="#7F8D91"/>
</svg>
