<svg width="41" height="40" viewBox="0 0 41 40" fill="none" xmlns="http://www.w3.org/2000/svg">
<g clip-path="url(#clip0_5494_51039)">
<path d="M0.5 32.0323V35.3612C0.5 35.8057 0.860312 36.166 1.30484 36.166H25.2663V32.0324H0.5L0.5 32.0323Z" fill="#9BB9C3"/>
<path d="M3.25305 35.3611V32.0323H0.5V35.3611C0.5 35.8056 0.860312 36.1659 1.30484 36.1659H4.05789C3.61336 36.1659 3.25305 35.8056 3.25305 35.3611Z" fill="#87A0AF"/>
<path d="M0.5 33.2429H25.2662L27.3198 22.6733L25.2662 16.4533V12.0086C25.2662 11.564 24.9059 11.2037 24.4613 11.2037H1.30484C0.860312 11.2038 0.5 11.5642 0.5 12.0087L0.5 33.2429Z" fill="#E9BB91"/>
<path d="M1.30484 11.2038C0.860312 11.2038 0.5 11.5641 0.5 12.0087V33.2429H3.25305V15.1402C5.23688 18.3829 8.81125 20.5515 12.883 20.5515C18.4445 20.5515 23.0784 16.5063 23.9984 11.2038H1.30484Z" fill="#CA936C"/>
<path d="M8.3448 40C6.2273 40 4.51074 38.2834 4.51074 36.1659C4.51074 34.0484 6.2273 32.3319 8.3448 32.3319C10.4623 32.3319 12.1789 34.0484 12.1789 36.1659C12.1788 38.2834 10.4622 40 8.3448 40Z" fill="#495959"/>
<path d="M8.345 34.6881C7.52883 34.6881 6.86719 35.3498 6.86719 36.166C6.86719 36.9821 7.52883 37.6438 8.345 37.6438C9.16117 37.6438 9.82281 36.9821 9.82281 36.166C9.82281 35.3498 9.16117 34.6881 8.345 34.6881Z" fill="#F1F6F7"/>
<path d="M25.2666 32.0323V36.1659H39.6956C40.1401 36.1659 40.5004 35.8056 40.5004 35.3611V32.0323H25.2666V32.0323Z" fill="#9BB9C3"/>
<path d="M25.2666 32.0323H27.7274V36.1659H25.2666V32.0323Z" fill="#87A0AF"/>
<path d="M40.3023 24.5198L33.512 16.7293C33.3592 16.5539 33.1379 16.4533 32.9053 16.4533H26.0714C25.6269 16.4533 25.2666 16.8136 25.2666 17.2581V33.2429H40.5004V25.0486C40.5004 24.8542 40.43 24.6663 40.3023 24.5198Z" fill="#DC4955"/>
<path d="M28.5322 16.4534H26.0714C25.6269 16.4534 25.2666 16.8137 25.2666 17.2582V33.243H27.7274V17.2581C27.7274 16.8137 28.0877 16.4534 28.5322 16.4534Z" fill="#C42430"/>
<path d="M27.7266 25.6734V19.6732C27.7266 19.4509 27.9067 19.2708 28.129 19.2708H31.623C31.7394 19.2708 31.85 19.3211 31.9264 19.4088L36.6656 24.846C36.7295 24.9193 36.7647 25.0132 36.7647 25.1104V25.6734C36.7647 25.8956 36.5845 26.0758 36.3623 26.0758H28.129C27.9067 26.0759 27.7266 25.8957 27.7266 25.6734Z" fill="#7398D4"/>
<path d="M29.0267 29.1751H27.7266C27.3932 29.1751 27.123 28.9048 27.123 28.5715C27.123 28.2381 27.3933 27.9679 27.7266 27.9679H29.0267C29.3602 27.9679 29.6303 28.2381 29.6303 28.5715C29.6303 28.9048 29.3602 29.1751 29.0267 29.1751Z" fill="#A81F2A"/>
<path d="M32.6485 40C30.531 40 28.8145 38.2834 28.8145 36.1659C28.8145 34.0484 30.531 32.3319 32.6485 32.3319C34.766 32.3319 36.4826 34.0484 36.4826 36.1659C36.4826 38.2834 34.766 40 32.6485 40Z" fill="#495959"/>
<path d="M32.6487 34.6881C31.8325 34.6881 31.1709 35.3498 31.1709 36.166C31.1709 36.9821 31.8325 37.6438 32.6487 37.6438C33.4649 37.6438 34.1265 36.9821 34.1265 36.166C34.1265 35.3498 33.4649 34.6881 32.6487 34.6881Z" fill="#F1F6F7"/>
<path d="M37.1671 30.8281H40.4996V28.4909H37.1671C36.9448 28.4909 36.7646 28.6711 36.7646 28.8934V30.4258C36.7646 30.648 36.9448 30.8281 37.1671 30.8281Z" fill="#FFE17D"/>
<path d="M22.2388 30.2524H18.1817C17.8484 30.2524 17.5781 29.9822 17.5781 29.6488C17.5781 29.3154 17.8484 29.0452 18.1817 29.0452H22.2387C22.5721 29.0452 22.8423 29.3155 22.8423 29.6488C22.8423 29.9823 22.5721 30.2524 22.2388 30.2524Z" fill="#764F43"/>
<path d="M22.2388 27.6891H18.1817C17.8484 27.6891 17.5781 27.4188 17.5781 27.0855C17.5781 26.7521 17.8484 26.4819 18.1817 26.4819H22.2387C22.5721 26.4819 22.8423 26.7521 22.8423 27.0855C22.8423 27.4188 22.5721 27.6891 22.2388 27.6891Z" fill="#764F43"/>
<path d="M10.3398 30.2524H4.0577C3.72434 30.2524 3.4541 29.9822 3.4541 29.6488C3.4541 29.3154 3.72434 29.0452 4.0577 29.0452H10.3398C10.6732 29.0452 10.9434 29.3155 10.9434 29.6488C10.9435 29.9823 10.6732 30.2524 10.3398 30.2524Z" fill="#764F43"/>
<path d="M6.45664 27.1957H7.94055C8.16281 27.1957 8.34297 27.0155 8.34297 26.7933V22.7762H9.32984C9.69359 22.7762 9.8707 22.3318 9.60664 22.0816L7.5761 20.1577C7.42485 20.0144 7.18914 20.0103 7.03289 20.1482L4.85461 22.0721C4.5768 22.3175 4.75031 22.7762 5.12102 22.7762H6.05422V26.7933C6.05422 27.0155 6.23445 27.1957 6.45664 27.1957Z" fill="#764F43"/>
<path d="M12.883 18.5395C7.76352 18.5395 3.61328 14.3893 3.61328 9.26976C3.61328 4.15016 7.76352 0 12.883 0C18.0026 0 22.1527 4.15016 22.1527 9.26969C22.1527 14.3892 18.0026 18.5395 12.883 18.5395Z" fill="#FFE17D"/>
<path d="M6.39477 9.26977C6.39477 4.62289 9.81398 0.774922 14.2737 0.103906C13.8201 0.035625 13.3557 0 12.883 0C7.76352 0 3.61328 4.15016 3.61328 9.26969C3.61328 14.3892 7.76344 18.5394 12.883 18.5394C13.3557 18.5394 13.82 18.5037 14.2737 18.4355C9.81406 17.7645 6.39477 13.9166 6.39477 9.26977Z" fill="#FFD164"/>
<path d="M12.8827 2.78149C9.29937 2.78149 6.39453 5.68634 6.39453 9.2697C6.39453 12.8531 9.29937 15.7579 12.8827 15.7579C16.4661 15.7579 19.3709 12.8531 19.3709 9.2697C19.3709 5.68634 16.4661 2.78149 12.8827 2.78149Z" fill="#FFF9DF"/>
<path d="M8.09062 9.2697C8.09062 5.97399 10.5485 3.25415 13.7308 2.83845C13.453 2.80212 13.1704 2.78149 12.8827 2.78149C9.29938 2.78149 6.39453 5.68634 6.39453 9.2697C6.39453 12.8531 9.29938 15.7579 12.8827 15.7579C13.1704 15.7579 13.453 15.7372 13.7308 15.7009C10.5485 15.2852 8.09062 12.5655 8.09062 9.2697Z" fill="#FFF0AF"/>
<path d="M14.2737 9.87327H12.8829C12.5495 9.87327 12.2793 9.60304 12.2793 9.26968V7.3207C12.2793 6.98726 12.5495 6.7171 12.8829 6.7171C13.2163 6.7171 13.4865 6.98734 13.4865 7.3207V8.66601H14.2736C14.607 8.66601 14.8772 8.93624 14.8772 9.2696C14.8772 9.60296 14.607 9.87327 14.2737 9.87327Z" fill="#FFC350"/>
<path d="M4.02344 3.87189H1.08594C0.762344 3.87189 0.5 3.60962 0.5 3.28595C0.5 2.96228 0.762344 2.70001 1.08594 2.70001H4.02344C4.34703 2.70001 4.60938 2.96228 4.60938 3.28595C4.60938 3.60962 4.34703 3.87189 4.02344 3.87189Z" fill="#F1F6F7"/>
<path d="M1.80313 9.22406H1.08594C0.762344 9.22406 0.5 8.96179 0.5 8.63812C0.5 8.31445 0.762344 8.05219 1.08594 8.05219H1.80313C2.12672 8.05219 2.38906 8.31445 2.38906 8.63812C2.38906 8.96179 2.12672 9.22406 1.80313 9.22406Z" fill="#F1F6F7"/>
<path d="M2.31656 6.57187H1.08594C0.762344 6.57187 0.5 6.3096 0.5 5.98593C0.5 5.66226 0.762344 5.39999 1.08594 5.39999H2.31656C2.64016 5.39999 2.9025 5.66226 2.9025 5.98593C2.9025 6.3096 2.64023 6.57187 2.31656 6.57187Z" fill="#F1F6F7"/>
<path d="M12.883 5.45646C13.2165 5.45646 13.4868 5.18615 13.4868 4.85271C13.4868 4.51927 13.2165 4.24896 12.883 4.24896C12.5496 4.24896 12.2793 4.51927 12.2793 4.85271C12.2793 5.18615 12.5496 5.45646 12.883 5.45646Z" fill="#FFE17D"/>
<path d="M12.883 14.2904C13.2165 14.2904 13.4868 14.02 13.4868 13.6866C13.4868 13.3532 13.2165 13.0829 12.883 13.0829C12.5496 13.0829 12.2793 13.3532 12.2793 13.6866C12.2793 14.02 12.5496 14.2904 12.883 14.2904Z" fill="#FFE17D"/>
<path d="M15.5792 6.57333C15.815 6.80911 16.1972 6.80911 16.433 6.57333C16.6688 6.33755 16.6688 5.95528 16.433 5.7195C16.1972 5.48372 15.815 5.48372 15.5792 5.7195C15.3434 5.95528 15.3434 6.33755 15.5792 6.57333Z" fill="#FFE17D"/>
<path d="M10.1869 11.9661C9.95113 11.7303 9.56887 11.7303 9.33309 11.9661C9.0973 12.2018 9.0973 12.5841 9.33309 12.8199C9.56887 13.0557 9.95113 13.0557 10.1869 12.8199C10.4227 12.5841 10.4227 12.2018 10.1869 11.9661Z" fill="#FFE17D"/>
<path d="M17.3 9.87339C17.6335 9.87339 17.9038 9.60309 17.9038 9.26964C17.9038 8.9362 17.6335 8.66589 17.3 8.66589C16.9666 8.66589 16.6963 8.9362 16.6963 9.26964C16.6963 9.60309 16.9666 9.87339 17.3 9.87339Z" fill="#FFE17D"/>
<path d="M8.46606 9.87339C8.7995 9.87339 9.0698 9.60309 9.0698 9.26964C9.0698 8.9362 8.7995 8.66589 8.46606 8.66589C8.13261 8.66589 7.8623 8.9362 7.8623 9.26964C7.8623 9.60309 8.13261 9.87339 8.46606 9.87339Z" fill="#FFE17D"/>
<path d="M15.5792 12.8198C15.815 13.0556 16.1972 13.0556 16.433 12.8198C16.6688 12.584 16.6688 12.2018 16.433 11.966C16.1972 11.7302 15.815 11.7302 15.5792 11.966C15.3434 12.2018 15.3434 12.5841 15.5792 12.8198Z" fill="#FFE17D"/>
<path d="M10.1869 5.7195C9.95113 5.48372 9.56887 5.48372 9.33309 5.7195C9.0973 5.95528 9.0973 6.33755 9.33309 6.57333C9.56887 6.80911 9.95113 6.80911 10.1869 6.57333C10.4227 6.33755 10.4227 5.95528 10.1869 5.7195Z" fill="#FFE17D"/>
</g>
<defs>
<clipPath id="clip0_5494_51039">
<rect width="40" height="40" fill="white" transform="translate(0.5)"/>
</clipPath>
</defs>
</svg>
