<svg width="40" height="41" viewBox="0 0 40 41" fill="none" xmlns="http://www.w3.org/2000/svg">
<rect x="0.5" y="1" width="39" height="39" rx="19.5" fill="#539461"/>
<rect x="0.5" y="1" width="39" height="39" rx="19.5" stroke="#539461"/>
<path fill-rule="evenodd" clip-rule="evenodd" d="M20.077 22.5653C18.6265 19.7554 18.9754 16.883 20.9489 14.7633C22.996 12.5646 26.6513 11.3231 31.3853 11.6015C31.7963 11.6257 32.1243 11.9535 32.1487 12.3645C32.4298 17.0988 31.1882 20.7543 28.9888 22.8014C26.8836 24.7608 24.0359 25.1188 21.245 23.7039C20.9118 24.1207 20.6383 24.5832 20.4332 25.0781C20.1473 25.7683 20.0002 26.5079 20.0002 27.2549V30.25C20.0002 30.6988 19.6364 31.0625 19.1877 31.0625C18.739 31.0625 18.3752 30.6988 18.3752 30.25V27.3366L15.8382 24.7995C13.8073 25.775 11.7229 25.4976 10.1729 24.0546C8.53372 22.5286 7.63924 19.8382 7.8405 16.4162C7.86469 16.005 8.19279 15.6769 8.60402 15.6528C12.0259 15.4521 14.7163 16.3466 16.2423 17.9856C17.6853 19.5355 17.9627 21.6197 16.9872 23.6505L18.6404 25.3036C18.72 25.016 18.8173 24.733 18.932 24.4562C19.2161 23.7703 19.6025 23.1329 20.077 22.5653ZM15.7435 22.4068C16.1691 21.1316 15.8759 19.9768 15.0529 19.0929C14.0605 18.0269 12.1759 17.2285 9.43771 17.2501C9.41572 19.9883 10.2141 21.8728 11.2802 22.8652C12.1642 23.6883 13.3192 23.9814 14.5944 23.5558L12.1132 21.0745C11.7959 20.7572 11.7959 20.2428 12.1132 19.9255C12.4305 19.6082 12.9449 19.6082 13.2622 19.9255L15.7435 22.4068ZM22.4332 22.4661C24.5075 23.345 26.4348 22.9585 27.8817 21.6119C29.5051 20.1009 30.6565 17.2539 30.5574 13.1933C26.4965 13.0963 23.6493 14.2476 22.1382 15.8706C20.7918 17.3168 20.4052 19.2431 21.2841 21.3171L26.7382 15.863C27.0555 15.5457 27.5699 15.5457 27.8872 15.863C28.2045 16.1803 28.2045 16.6947 27.8872 17.012L22.4332 22.4661Z" fill="white"/>
</svg>
