<svg width="41" height="40" viewBox="0 0 41 40" fill="none" xmlns="http://www.w3.org/2000/svg">
<g clip-path="url(#clip0_5494_4287)">
<path fill-rule="evenodd" clip-rule="evenodd" d="M25.2395 5.44711L27.5998 2.60594C27.7975 2.36836 27.6633 1.99446 27.3951 1.84156L25.0419 0.482033C24.7759 0.329143 24.3829 0.39969 24.2771 0.688987L22.9946 4.1511C22.8863 4.44039 22.9334 4.76258 23.1994 4.91547L24.4748 5.65399C24.743 5.80696 25.0442 5.68461 25.2395 5.44711Z" fill="#60B8FE"/>
<path fill-rule="evenodd" clip-rule="evenodd" d="M38.4231 6.19031L37.8183 4.49219C37.7453 4.28523 37.7171 4.10883 37.8018 3.92305L38.5902 2.20844C38.7573 1.87445 38.7196 1.79687 38.343 1.8039L36.4158 1.84156C36.1969 1.8439 36.1687 1.79219 36.0252 1.65344L34.7027 0.371483C34.4344 0.112733 34.3214 0.143358 34.2179 0.500858L33.7143 2.27187C33.6578 2.46476 33.6602 2.52351 33.4695 2.62937L31.7799 3.56078C31.4528 3.74187 31.4575 3.8289 31.7705 4.03586L33.3119 5.12484C33.4766 5.24242 33.5401 5.4118 33.5801 5.6282L33.9073 7.39922C33.9637 7.77086 34.0508 7.79437 34.3497 7.56859L35.764 6.47961C35.9099 6.36672 36.1711 6.29617 36.3546 6.32203L38.1219 6.55726C38.496 6.60422 38.5573 6.5407 38.4231 6.19031Z" fill="#FECE85"/>
<path fill-rule="evenodd" clip-rule="evenodd" d="M17.199 17.0423C20.9242 12.2348 19.9593 7.49328 19.2652 4.66618C18.4886 1.50516 14.0928 2.25539 14.9917 5.59993C15.86 8.83157 16.173 11.2894 15.2929 15.8357L17.199 17.0423Z" fill="#FC502A"/>
<path fill-rule="evenodd" clip-rule="evenodd" d="M21.7478 21.1206L31.6902 12.8652C32.0127 12.543 32.0127 12.0161 31.6902 11.6939L29.1016 9.10907C28.7792 8.78688 28.2521 8.78688 27.9298 9.10907L19.6699 19.0438L21.7478 21.1206Z" fill="#FECE85"/>
<path fill-rule="evenodd" clip-rule="evenodd" d="M34.985 26.4878C38.2819 27.5533 39.2537 23.2045 36.1334 22.2684C33.3659 21.4381 28.7301 20.2481 23.7812 23.6231L25.0308 25.6317C29.4526 25.0367 31.8599 25.4765 34.985 26.4878Z" fill="#FC502A"/>
<path fill-rule="evenodd" clip-rule="evenodd" d="M17.1992 17.0423C20.9244 12.2349 19.9595 7.49329 19.2654 4.66618C18.8277 2.87868 17.2275 2.34009 16.0862 2.81751C16.6556 3.12564 17.138 3.69712 17.3498 4.56032C18.0064 7.23689 18.9077 11.6327 15.832 16.1767L17.1992 17.0423Z" fill="#E60D28"/>
<path fill-rule="evenodd" clip-rule="evenodd" d="M21.7473 21.1206L31.6898 12.8652C32.0122 12.543 32.0122 12.0161 31.6898 11.6939L31.2285 11.2329L20.6484 20.0199L21.7473 21.1206Z" fill="#FDB440"/>
<path fill-rule="evenodd" clip-rule="evenodd" d="M34.9843 26.4878C38.1918 27.525 39.1989 23.4372 36.3798 22.353C36.3468 23.5243 35.3867 24.6062 33.5841 24.2722C30.5437 23.7078 28.1976 23.5643 24.3359 24.5169L25.0302 25.6317C29.4519 25.0366 31.8592 25.4765 34.9843 26.4878Z" fill="#E60D28"/>
<path fill-rule="evenodd" clip-rule="evenodd" d="M6.19041 16.4566L5.74096 11.635C5.7033 11.2352 5.23268 11.0118 4.84205 11.1176L1.40158 12.0397C1.01096 12.1432 0.712052 12.5712 0.881505 12.9381L2.90525 17.3363C3.07471 17.7032 3.41354 17.9596 3.80416 17.8561L5.67025 17.3551C6.06096 17.2516 6.22807 16.8588 6.19041 16.4566Z" fill="#60B8FE"/>
<path fill-rule="evenodd" clip-rule="evenodd" d="M9.56455 5.61873L11.2377 4.43569C11.5765 4.20991 11.5813 4.11584 11.2259 3.92061L9.39275 2.90928C9.18564 2.79405 9.18799 2.73053 9.12682 2.52123L8.57853 0.599671C8.46791 0.209281 8.34557 0.176312 8.05377 0.458577L6.6183 1.8485C6.46064 2.00139 6.43236 2.0578 6.19471 2.05311L4.10033 2.01311C3.69322 2.00373 3.65088 2.08834 3.83439 2.45295L4.69096 4.31334C4.78275 4.51327 4.75213 4.70616 4.67213 4.93194L4.01557 6.7735C3.86963 7.15217 3.93791 7.22272 4.34267 7.171L6.26056 6.91467C6.46056 6.88881 6.74299 6.96405 6.90299 7.08639L8.43494 8.26944C8.75971 8.51405 8.85385 8.48819 8.91736 8.086L9.27033 6.16444C9.3151 5.9292 9.3833 5.74576 9.56455 5.61873Z" fill="#FECE85"/>
<path fill-rule="evenodd" clip-rule="evenodd" d="M40.0108 16.3437L40.825 11.5715C40.8933 11.174 40.4956 10.8377 40.0908 10.8377H36.528C36.1256 10.8377 35.7256 11.174 35.7938 11.5715L36.6103 16.3437C36.6786 16.7412 36.9398 17.0776 37.3446 17.0776H39.2766C39.6789 17.0776 39.9425 16.7412 40.0108 16.3437Z" fill="#60B8FE"/>
<path fill-rule="evenodd" clip-rule="evenodd" d="M39.3026 33.652L40.6157 32.0738C40.8863 31.768 40.8651 31.6763 40.4697 31.5775L38.4342 31.0742C38.2036 31.0177 38.1894 30.9566 38.0765 30.7684L37.0482 29.0514C36.8411 28.7033 36.714 28.7033 36.5046 29.0514L35.4762 30.7684C35.3633 30.9565 35.3491 31.0177 35.1186 31.0742L33.083 31.5775C32.6877 31.6763 32.6689 31.7681 32.9395 32.0738L34.2503 33.652C34.3915 33.8214 34.4103 34.0165 34.3915 34.2541L34.2362 36.2062C34.1915 36.6107 34.2762 36.6601 34.6551 36.5072L36.4435 35.7617C36.6318 35.6841 36.9236 35.6841 37.1094 35.7617L38.9002 36.5072C39.2767 36.6601 39.3615 36.6107 39.3191 36.2062L39.1615 34.2541C39.1426 34.0165 39.1614 33.8213 39.3026 33.652Z" fill="#FECE85"/>
<path fill-rule="evenodd" clip-rule="evenodd" d="M30.3537 36.3121L26.7132 33.7343C26.4096 33.5179 26.019 33.4709 25.7555 33.7343L24.4988 34.9903C24.2352 35.2537 24.2823 35.6441 24.4988 35.9475L27.078 39.586C27.2921 39.8895 27.7698 39.8495 28.0334 39.586L30.3537 37.267C30.6173 37.0035 30.6573 36.526 30.3537 36.3121Z" fill="#60B8FE"/>
<path fill-rule="evenodd" clip-rule="evenodd" d="M25.0348 22.8564C24.4041 21.9627 23.677 21.0548 22.8933 20.1705C22.552 19.7848 22.1991 19.4038 21.8391 19.0298C21.8344 19.0228 21.8273 19.0156 21.8202 19.011C21.4273 18.6299 21.0272 18.2606 20.6201 17.9008C19.7682 17.1505 18.8975 16.4543 18.0362 15.8428C18.0339 15.8428 18.0339 15.8428 18.0339 15.8428C17.5491 15.4971 17.0691 15.1819 16.5984 14.8997C16.2431 14.6856 15.8948 14.4928 15.5536 14.3188C13.1298 13.091 11.0966 12.9358 10.3412 14.7539C10.3247 14.7915 10.1929 15.149 10.0917 15.3701L9.32453 17.5245L8.035 21.1465L6.16891 26.3891L4.70281 30.5145L3.06726 35.1055C2.66484 36.2392 2.78726 37.0835 3.30726 37.5139C3.73789 38.0337 4.58273 38.156 5.71695 37.7539L10.3105 36.1192L14.438 34.6539L19.6834 32.7889L23.3074 31.4999L25.463 30.7332C25.6841 30.6321 26.0419 30.5004 26.0795 30.4839C27.8515 29.7501 27.7503 27.798 26.6043 25.4554C26.402 25.0391 26.1642 24.611 25.9007 24.1736C25.6395 23.7409 25.3501 23.301 25.037 22.8589C25.0348 22.8588 25.0348 22.8564 25.0348 22.8564Z" fill="#80D261"/>
<path fill-rule="evenodd" clip-rule="evenodd" d="M22.8936 20.1704C22.5523 19.7847 22.1993 19.4037 21.8393 19.0297C21.8346 19.0226 21.8275 19.0155 21.8205 19.0108C21.4275 18.6298 21.0275 18.2605 20.6204 17.9007C20.5968 17.8819 20.5757 17.8607 20.5521 17.8419C19.7472 17.1362 18.9236 16.4777 18.1094 15.8944C18.0859 15.878 18.06 15.8591 18.0364 15.8427C18.0341 15.8427 18.0341 15.8427 18.0341 15.8427C17.5493 15.497 17.0693 15.1818 16.5986 14.8973C16.2504 14.6903 15.9021 14.4951 15.5538 14.3187C14.5561 13.813 13.6218 13.4908 12.8193 13.4108C13.7018 13.9305 14.5819 14.5468 15.4126 15.1959C15.6479 15.3794 15.8809 15.5652 16.1068 15.7533C16.4081 16.0003 16.6975 16.2496 16.9775 16.4965C17.1046 16.6071 17.2293 16.72 17.3564 16.8329V16.8352C17.6341 17.0869 17.9095 17.3433 18.1777 17.6043L18.1989 17.6231C19.3449 18.8108 20.4744 20.1491 21.3946 21.4521C21.9617 22.2471 22.55 23.2043 22.9618 24.0487C24.1079 26.3936 24.209 28.3433 22.4371 29.0795C22.43 29.0819 22.4089 29.0889 22.3806 29.1007C22.83 29.9591 23.1525 30.7706 23.3078 31.4997L25.4633 30.733C25.6845 30.6318 26.0422 30.5001 26.0799 30.4837C27.8518 29.7498 27.7507 27.7977 26.6046 25.4551C26.5976 25.4387 26.5905 25.4246 26.5811 25.4081C26.3858 25.0106 26.1529 24.5896 25.9011 24.1733C25.8799 24.138 25.8564 24.1028 25.8352 24.0651C25.8352 24.0651 25.8329 24.0628 25.8329 24.0605C25.5764 23.6418 25.3034 23.2326 25.0375 22.8586C25.0351 22.8586 25.0351 22.8562 25.0351 22.8562C24.4539 22.0307 23.7903 21.1958 23.0772 20.3773C23.016 20.3069 22.9548 20.2387 22.8936 20.1704Z" fill="#4FC122"/>
<path fill-rule="evenodd" clip-rule="evenodd" d="M23.3077 31.4999C22.8041 29.1245 20.5167 25.8623 17.7893 23.0399C14.9654 20.3139 11.7015 18.0278 9.32469 17.5245L8.03516 21.1465C10.1342 22.1061 12.5816 23.9524 14.7677 26.0598C16.8763 28.2448 18.7235 30.6908 19.6837 32.7888L23.3077 31.4999Z" fill="#FECE85"/>
<path fill-rule="evenodd" clip-rule="evenodd" d="M14.438 34.6539L19.6834 32.7888C19.3562 32.0715 18.9233 31.3141 18.4126 30.5403L12.873 32.5089C13.4473 33.2262 13.9767 33.9459 14.438 34.6539Z" fill="#4FC122"/>
<path fill-rule="evenodd" clip-rule="evenodd" d="M23.3079 31.4999C23.1525 30.7708 22.8301 29.9594 22.3807 29.101C22.2607 29.1456 21.9971 29.2468 21.8206 29.3291L18.4131 30.5403C18.9237 31.3142 19.3568 32.0715 19.6839 32.7888L23.3079 31.4999Z" fill="#FDB440"/>
<path fill-rule="evenodd" clip-rule="evenodd" d="M14.4385 34.6539C13.4478 33.1369 12.1512 31.554 10.7369 30.0887C9.27078 28.6752 7.68711 27.3793 6.16922 26.389L4.70312 30.5144C5.72211 31.2929 6.74336 32.1749 7.71289 33.111C8.64945 34.08 9.53195 35.1008 10.3109 36.1192L14.4385 34.6539Z" fill="#FECE85"/>
<path fill-rule="evenodd" clip-rule="evenodd" d="M10.3109 36.1192C9.77668 35.4207 9.19308 34.7197 8.5766 34.0353L2.83941 36.0745C2.77824 36.7236 2.94769 37.2175 3.30769 37.5139C3.73832 38.0336 4.58316 38.156 5.71738 37.7538L10.3109 36.1192Z" fill="#4FC122"/>
<path fill-rule="evenodd" clip-rule="evenodd" d="M14.4381 34.6539C13.9769 33.9459 13.4474 33.2263 12.8732 32.5089L8.57617 34.0353C9.19273 34.7198 9.77633 35.4206 10.3105 36.1191L14.4381 34.6539Z" fill="#FDB440"/>
<path fill-rule="evenodd" clip-rule="evenodd" d="M9.56445 5.61873L11.2376 4.43569C11.5764 4.20991 11.5812 4.11584 11.2258 3.92061L9.39266 2.90928C9.18555 2.79405 9.18789 2.73053 9.12672 2.52123L8.57844 0.599671C8.46781 0.209281 8.34547 0.176312 8.05367 0.458577L7.42062 1.07241C7.67711 1.90498 7.81836 2.82225 7.81836 3.7842C7.81836 5.05662 7.57125 6.24905 7.14062 7.26983L8.43492 8.26944C8.75969 8.51405 8.85383 8.48819 8.91734 8.086L9.27031 6.16444C9.315 5.9292 9.3832 5.74576 9.56445 5.61873Z" fill="#FDB440"/>
<path fill-rule="evenodd" clip-rule="evenodd" d="M6.1907 16.4566L5.74125 11.635C5.70359 11.2352 5.23297 11.0118 4.84234 11.1176L4.05164 11.3293C4.13867 11.8397 4.18344 12.3736 4.18344 12.9215C4.18344 14.6573 3.72453 16.2425 2.9668 17.4515C3.14797 17.7549 3.45625 17.9477 3.80453 17.856L5.67063 17.355C6.06125 17.2516 6.22836 16.8588 6.1907 16.4566Z" fill="#23A8FE"/>
<path fill-rule="evenodd" clip-rule="evenodd" d="M27.5997 2.60589C27.7973 2.36831 27.6632 1.9944 27.3949 1.84151L25.0417 0.482058C24.9005 0.402058 24.7287 0.383308 24.5781 0.425574C24.8676 1.3005 25.0276 2.27425 25.0276 3.30206C25.0276 4.15346 24.917 4.96964 24.7146 5.72221C24.9099 5.72456 25.1005 5.61635 25.2394 5.44706L27.5997 2.60589Z" fill="#23A8FE"/>
<path fill-rule="evenodd" clip-rule="evenodd" d="M37.8174 4.49219C37.7445 4.28523 37.7163 4.10883 37.8009 3.92304L38.5893 2.20844C38.7564 1.87445 38.7188 1.79687 38.3422 1.8039L36.4149 1.84156C36.1961 1.8439 36.1678 1.79219 36.0243 1.65344L35.2995 0.952576C35.4078 1.51703 35.4642 2.10976 35.4642 2.72125C35.4642 4.65461 34.8924 6.40211 33.9746 7.64867C34.0381 7.76156 34.1441 7.7239 34.3488 7.56867L35.763 6.47969C35.909 6.36679 36.1702 6.29625 36.3537 6.32211L38.1209 6.55734C38.4951 6.60437 38.5563 6.54086 38.4222 6.19047L37.8174 4.49219Z" fill="#FDB440"/>
<path fill-rule="evenodd" clip-rule="evenodd" d="M40.0111 16.3437L40.8254 11.5715C40.8936 11.174 40.4959 10.8377 40.0911 10.8377H38.5404C38.5686 11.134 38.5827 11.4375 38.5827 11.7456C38.5827 13.8083 37.9332 15.6569 36.9072 16.9152C37.0249 17.0164 37.1708 17.0775 37.345 17.0775H39.277C39.6793 17.0776 39.9429 16.7412 40.0111 16.3437Z" fill="#23A8FE"/>
<path fill-rule="evenodd" clip-rule="evenodd" d="M28.033 39.5859L30.3533 37.2669C30.6169 37.0034 30.6569 36.526 30.3533 36.3119L26.8587 33.8376C27.0635 34.5926 27.1741 35.4087 27.1741 36.2626C27.1741 37.2762 27.0164 38.2382 26.7363 39.1037L27.0776 39.5859C27.2916 39.8894 27.7694 39.8494 28.033 39.5859Z" fill="#23A8FE"/>
<path fill-rule="evenodd" clip-rule="evenodd" d="M39.3031 33.652L40.6163 32.0738C40.8869 31.768 40.8657 31.6763 40.4703 31.5775L38.4348 31.0742C38.2041 31.0177 38.19 30.9566 38.0771 30.7684L37.0488 29.0514C36.8416 28.7033 36.7146 28.7033 36.5052 29.0514L36.1757 29.6018C36.5005 30.5191 36.6816 31.5516 36.6816 32.6453C36.6816 33.826 36.4698 34.9385 36.0957 35.9075L36.444 35.7616C36.6323 35.684 36.9241 35.684 37.1099 35.7616L38.9007 36.5071C39.2772 36.66 39.362 36.6107 39.3196 36.2061L39.162 34.254C39.1431 34.0165 39.162 33.8213 39.3031 33.652Z" fill="#FDB440"/>
</g>
<defs>
<clipPath id="clip0_5494_4287">
<rect width="40" height="40" fill="white" transform="translate(0.833008)"/>
</clipPath>
</defs>
</svg>
