<svg width="48" height="48" viewBox="0 0 48 48" fill="none" xmlns="http://www.w3.org/2000/svg">
<path d="M10.0642 30.2745H4.97952C3.69683 30.2745 2.32227 29.5721 2.32227 27.0965C2.32227 25.8138 3.36214 24.7739 4.64483 24.7739H10.0641L10.0642 30.2745Z" fill="#77CC7D"/>
<path d="M44.1294 0H12.3875C11.9599 0 11.6133 0.346594 11.6133 0.774188V44.1107H44.9036V0.774188L44.1294 0Z" fill="#98DB7C"/>
<path d="M44.9037 0H44.1295V38.7097C44.1295 41.2751 42.0498 43.3548 39.4844 43.3548V44.9032H44.9037C45.3313 44.9032 45.6779 44.5565 45.6779 44.129V0.774188C45.6779 0.346594 45.3313 0 44.9037 0Z" fill="#77CC7D"/>
<path d="M34.064 3.09668H9.28981C8.86222 3.09668 8.51562 3.44327 8.51562 3.87087V41.881L9.25531 43.3572L8.51562 44.9032V47.2257C8.51562 47.6533 8.86222 47.9999 9.28981 47.9999H10.064L11.607 47.2977H41.8751V11.48L34.064 3.09668Z" fill="#ECEAEC"/>
<path d="M14.4004 13.2002V34.58H34.8427C35.3605 34.58 35.7802 34.1603 35.7802 33.6425V13.2002H14.4004Z" fill="#77CC7D"/>
<path d="M35.7802 29.6008H29.3567V26.7311H35.7802V25.3249H29.3567V22.4552H35.7802V21.0489H29.3567V18.1793H35.7802V16.773H29.3567V13.2002H27.9505V16.773H22.2301V13.2002H20.8239V16.773H14.4004V18.1793H20.8239V21.0489H14.4004V22.4552H20.8239V25.3249H14.4004V26.7311H20.8239V29.6008H14.4004V31.0071H20.8239V34.5799H22.2301V31.0071H27.9505V34.5799H29.3567V31.0071H35.7802V29.6008ZM27.9505 29.6008H22.2301V26.7311H27.9505V29.6008ZM27.9505 25.3249H22.2301V22.4552H27.9505V25.3249ZM27.9505 21.0489H22.2301V18.1792H27.9505V21.0489Z" fill="#ECEAEC"/>
<path d="M34.8382 44.9032H8.51562V30.9678H34.8382C35.6934 30.9678 36.3866 31.6611 36.3866 32.5161V43.3549C36.3866 44.21 35.6933 44.9032 34.8382 44.9032Z" fill="#DBD8DB"/>
<path d="M33.29 29.4192H4.64483C3.36214 29.4192 2.32227 28.3794 2.32227 27.0967V41.0321C2.32227 42.3148 3.36214 43.3547 4.64483 43.3547L6.32333 42.5741H34.1174V30.3154L33.29 29.4192Z" fill="#98DB7C"/>
<path d="M42.127 10.385L35.2922 3.55015C35.0018 3.2598 34.608 3.09668 34.1973 3.09668H34.0645V10.0645C34.0645 10.9196 34.7577 11.6128 35.6128 11.6128H40.258C40.6855 11.6128 41.0321 11.9594 41.0321 12.387V41.8063C41.0321 44.3718 38.9524 46.4515 36.387 46.4515H11.6128C10.7576 46.4515 10.0645 47.1447 10.0645 47.9998H41.8064C42.234 47.9998 42.5806 47.6532 42.5806 47.2256V11.4799C42.5806 11.0692 42.4174 10.6753 42.127 10.385Z" fill="#DBD8DB"/>
<path d="M33.2906 29.4194V38.7098C33.2906 40.4201 31.9042 41.8065 30.1939 41.8065H6.19388C5.3387 41.8065 4.64551 42.4998 4.64551 43.3549H33.2906C34.1458 43.3549 34.839 42.6616 34.839 41.8065V30.9679C34.839 30.1127 34.1457 29.4194 33.2906 29.4194Z" fill="#77CC7D"/>
<path d="M7.9919 38.7095H7.98355C7.55559 38.7095 7.21387 39.0562 7.21387 39.4837C7.21387 39.9112 7.56393 40.2578 7.9918 40.2578C8.41968 40.2578 8.76599 39.9112 8.76599 39.4837C8.76599 39.0562 8.41977 38.7095 7.9919 38.7095Z" fill="white"/>
<path d="M24.7306 40.4105C24.4824 40.4105 24.2268 40.3766 23.9636 40.3089C23.7079 40.2413 23.4785 40.1585 23.2755 40.0608C23.1176 39.9856 22.9822 39.9029 22.8694 39.8126C22.7566 39.7149 22.7002 39.6096 22.7002 39.4968C22.7002 39.4216 22.7152 39.3088 22.7453 39.1584C22.7754 39.0005 22.8243 38.8538 22.892 38.7185C22.9672 38.5831 23.0574 38.5154 23.1627 38.5154C23.2304 38.5154 23.3394 38.553 23.4898 38.6282C23.6477 38.7034 23.8282 38.7786 24.0312 38.8538C24.2418 38.929 24.4636 38.9666 24.6968 38.9666C24.8998 38.9666 25.0878 38.9177 25.2608 38.82C25.4412 38.7147 25.5315 38.5004 25.5315 38.177C25.5315 37.9665 25.4788 37.7935 25.3736 37.6581C25.2758 37.5228 25.1404 37.4025 24.9675 37.2972C24.802 37.1919 24.6216 37.0866 24.426 36.9813C24.0801 36.7858 23.7868 36.5828 23.5462 36.3722C23.3056 36.1617 23.1213 35.9173 22.9935 35.639C22.8656 35.3533 22.8017 35.0073 22.8017 34.6013C22.8017 34.1275 22.9032 33.7214 23.1063 33.383C23.3168 33.0446 23.5988 32.7852 23.9523 32.6047C24.3132 32.4242 24.7193 32.334 25.1705 32.334C25.4262 32.334 25.6894 32.3641 25.9601 32.4242C26.2308 32.4844 26.4602 32.5746 26.6482 32.6949C26.7159 32.7401 26.7873 32.7965 26.8625 32.8641C26.9377 32.9318 26.9753 33.0145 26.9753 33.1123C26.9753 33.2176 26.9603 33.3492 26.9302 33.5071C26.9001 33.6575 26.855 33.7929 26.7948 33.9132C26.7347 34.0335 26.6595 34.0937 26.5692 34.0937C26.5091 34.0937 26.4113 34.0673 26.276 34.0147C26.1406 33.9621 25.9864 33.9094 25.8135 33.8568C25.6405 33.8041 25.4713 33.7778 25.3059 33.7778C25.0652 33.7778 24.881 33.8192 24.7532 33.9019C24.6328 33.9846 24.5501 34.0824 24.505 34.1952C24.4674 34.3005 24.4486 34.402 24.4486 34.4997C24.4486 34.7253 24.5088 34.9058 24.6291 35.0412C24.7569 35.1765 24.9186 35.2931 25.1141 35.3909C25.3096 35.4886 25.5127 35.5977 25.7232 35.718C26.0541 35.906 26.3248 36.1053 26.5354 36.3158C26.7535 36.5264 26.9152 36.7708 27.0204 37.049C27.1332 37.3197 27.1896 37.6544 27.1896 38.0529C27.1896 38.459 27.1032 38.8425 26.9302 39.2035C26.7572 39.5569 26.4903 39.8465 26.1293 40.0721C25.7684 40.2977 25.3021 40.4105 24.7306 40.4105Z" fill="white"/>
<path d="M18.0668 40.3199C17.7885 40.3199 17.6494 40.1695 17.6494 39.8687V32.7736C17.6494 32.5254 17.875 32.4014 18.3262 32.4014H18.721C19.1722 32.4014 19.3978 32.5254 19.3978 32.7736V38.8422H21.0447C21.2703 38.8422 21.3831 39.0302 21.3831 39.4062V39.7559C21.3831 40.1319 21.2703 40.3199 21.0447 40.3199H18.0668Z" fill="white"/>
<path d="M11.3422 40.3425C10.9813 40.3425 10.8008 40.2673 10.8008 40.1169C10.8008 40.0793 10.8083 40.0379 10.8233 39.9928C10.8384 39.9477 10.8572 39.8988 10.8797 39.8462L12.4025 36.2027L11.0941 32.8977C11.0565 32.7999 11.0377 32.7247 11.0377 32.6721C11.0377 32.5894 11.0753 32.5254 11.1505 32.4803C11.2332 32.4277 11.3685 32.4014 11.5565 32.4014H12.1093C12.2597 32.4014 12.3913 32.4202 12.5041 32.4578C12.6169 32.4878 12.6958 32.5743 12.7409 32.7172L13.508 35.1988L14.3653 32.627C14.4029 32.5217 14.4743 32.4578 14.5796 32.4352C14.6924 32.4126 14.8315 32.4014 14.9969 32.4014H15.5045C15.8354 32.4014 16.0009 32.4728 16.0009 32.6157C16.0009 32.6683 15.9708 32.7623 15.9106 32.8977L14.5457 36.2253L15.9783 39.8462C16.0234 39.959 16.046 40.0492 16.046 40.1169C16.046 40.2673 15.8693 40.3425 15.5158 40.3425H15.0082C14.7826 40.3425 14.6285 40.3237 14.5457 40.2861C14.463 40.241 14.3991 40.1545 14.354 40.0266L13.4629 37.3307L12.4815 40.0154C12.4289 40.1507 12.3612 40.241 12.2785 40.2861C12.1957 40.3237 12.0453 40.3425 11.8273 40.3425H11.3422Z" fill="white"/>
</svg>
