<svg width="28" height="28" viewBox="0 0 28 28" fill="none" xmlns="http://www.w3.org/2000/svg">
<path d="M14 19.3125C14.6904 19.3125 15.25 18.7529 15.25 18.0625C15.25 17.3721 14.6904 16.8125 14 16.8125C13.3096 16.8125 12.75 17.3721 12.75 18.0625C12.75 18.7529 13.3096 19.3125 14 19.3125Z" fill="#7F8D91"/>
<path fill-rule="evenodd" clip-rule="evenodd" d="M14 7.4375C10.3756 7.4375 7.4375 10.3756 7.4375 14C7.4375 17.6244 10.3756 20.5625 14 20.5625C17.6244 20.5625 20.5625 17.6244 20.5625 14C20.5625 10.3756 17.6244 7.4375 14 7.4375ZM5.5625 14C5.5625 9.3401 9.3401 5.5625 14 5.5625C18.6599 5.5625 22.4375 9.3401 22.4375 14C22.4375 18.6599 18.6599 22.4375 14 22.4375C9.3401 22.4375 5.5625 18.6599 5.5625 14ZM10.5625 12.125C10.5625 10.2858 12.2232 9 14 9C15.7768 9 17.4375 10.2858 17.4375 12.125C17.4375 13.6414 16.3087 14.7815 14.9166 15.1351C14.8259 15.558 14.45 15.875 14 15.875C13.4822 15.875 13.0625 15.4553 13.0625 14.9375V14.3125C13.0625 13.7947 13.4822 13.375 14 13.375C14.9842 13.375 15.5625 12.7014 15.5625 12.125C15.5625 11.5486 14.9842 10.875 14 10.875C13.0158 10.875 12.4375 11.5486 12.4375 12.125V12.4375C12.4375 12.9553 12.0178 13.375 11.5 13.375C10.9822 13.375 10.5625 12.9553 10.5625 12.4375V12.125Z" fill="#7F8D91"/>
</svg>
