<svg width="41" height="40" viewBox="0 0 41 40" fill="none" xmlns="http://www.w3.org/2000/svg">
<g clip-path="url(#clip0_5494_47268)">
<path d="M39.6504 17.0795H36.2543C36.1397 17.0795 36.0423 16.9985 36.0194 16.8863C35.6179 14.9173 34.8436 13.0839 33.7726 11.4636C33.7094 11.368 33.7212 11.242 33.8022 11.161L36.2039 8.75922C36.6658 8.29734 36.6657 7.54859 36.2039 7.0868L33.7462 4.62898C33.2843 4.16711 32.5355 4.16711 32.0737 4.62906L29.672 7.0307C29.591 7.11172 29.465 7.12352 29.3694 7.06031C27.7491 5.9893 25.9157 5.21508 23.9468 4.81352C23.8346 4.79063 23.7536 4.69312 23.7536 4.57867V1.18266C23.7535 0.529453 23.2239 0 22.5708 0H19.0951C18.4419 0 17.9125 0.529453 17.9125 1.18266V4.57867C17.9125 4.6932 17.8314 4.79063 17.7193 4.81352C15.7502 5.21508 13.9168 5.9893 12.2966 7.06031C12.2011 7.12344 12.075 7.11172 11.994 7.0307L9.59231 4.62898C9.13043 4.16711 8.38168 4.16711 7.9198 4.62898L5.46199 7.08672C5.00012 7.54859 5.00012 8.29734 5.46199 8.75922L7.86371 11.1609C7.94465 11.242 7.95652 11.368 7.89332 11.4635C6.8223 13.0838 6.04809 14.9172 5.64652 16.8862C5.62363 16.9984 5.52613 17.0795 5.41168 17.0795H2.01566C1.36254 17.0795 0.833008 17.609 0.833008 18.2622V21.7379C0.833008 22.391 1.36246 22.9205 2.01566 22.9205H5.41176C5.52629 22.9205 5.62371 23.0016 5.6466 23.1137C6.04816 25.0828 6.8223 26.9162 7.8934 28.5365C7.95652 28.632 7.94473 28.7581 7.86379 28.8391L5.46207 31.2408C5.0002 31.7027 5.0002 32.4514 5.46207 32.9133L7.9198 35.371C8.38168 35.8329 9.13043 35.8329 9.59231 35.371L11.994 32.9693C12.075 32.8883 12.2011 32.8765 12.2966 32.9397C13.9169 34.0107 15.7503 34.7849 17.7193 35.1865C17.8314 35.2094 17.9125 35.3069 17.9125 35.4213V38.8173C17.9125 39.4705 18.442 40 19.0951 40H22.5708C23.2239 40 23.7535 39.4705 23.7535 38.8173V35.4212C23.7535 35.3067 23.8345 35.2093 23.9467 35.1864C25.9157 34.7848 27.7491 34.0106 29.3693 32.9396C29.4649 32.8765 29.591 32.8882 29.6719 32.9692L32.0736 35.3709C32.5355 35.8327 33.2843 35.8327 33.7462 35.3709L36.2039 32.9131C36.6658 32.4512 36.6658 31.7025 36.2039 31.2406L33.8022 28.8389C33.7212 28.7579 33.7094 28.6319 33.7726 28.5363C34.8436 26.916 35.6178 25.0827 36.0194 23.1136C36.0423 23.0014 36.1398 22.9204 36.2543 22.9204H39.6503C40.3035 22.9204 40.8329 22.3909 40.8329 21.7377V18.262C40.8329 17.609 40.3035 17.0795 39.6504 17.0795Z" fill="#60B8FE"/>
<path d="M7.86328 11.1609C7.94422 11.2419 7.95609 11.3679 7.89289 11.4634C6.82188 13.0837 6.04766 14.9171 5.64609 16.8862C5.6232 16.9984 5.5257 17.0794 5.41125 17.0794H7.00492C7.11945 17.0794 7.21688 16.9984 7.23977 16.8862C7.64133 14.9171 8.41547 13.0837 9.48656 11.4634C9.54969 11.3679 9.53789 11.2418 9.45695 11.1609L7.05523 8.75914C6.59336 8.29726 6.59336 7.54851 7.05523 7.08664L9.51297 4.6289C9.52563 4.61625 9.5393 4.60523 9.55242 4.59328C9.08836 4.16875 8.36852 4.17969 7.91938 4.6289L5.46164 7.08664C4.99977 7.54851 4.99977 8.29726 5.46164 8.75914L7.86328 11.1609Z" fill="#23A8FE"/>
<path d="M2.42668 21.7378V18.2621C2.42668 17.609 2.95613 17.0795 3.60934 17.0795H2.01566C1.36254 17.0794 0.833008 17.6089 0.833008 18.2621V21.7378C0.833008 22.391 1.36246 22.9205 2.01566 22.9205H3.60934C2.95621 22.9205 2.42668 22.391 2.42668 21.7378Z" fill="#23A8FE"/>
<path d="M9.51297 35.371L7.05523 32.9132C6.59336 32.4514 6.59336 31.7026 7.05523 31.2407L9.45695 28.839C9.53789 28.758 9.54969 28.632 9.48656 28.5365C8.41555 26.9162 7.64133 25.0828 7.23977 23.1138C7.21688 23.0016 7.11945 22.9206 7.00492 22.9206H5.41133C5.52586 22.9206 5.62328 23.0016 5.64617 23.1138C6.04773 25.0829 6.82188 26.9162 7.89297 28.5365C7.95609 28.632 7.9443 28.7581 7.86336 28.839L5.46164 31.2407C4.99977 31.7026 4.99977 32.4514 5.46164 32.9132L7.91938 35.371C8.36859 35.8201 9.08836 35.8311 9.55242 35.4066C9.5393 35.3947 9.5257 35.3836 9.51297 35.371Z" fill="#23A8FE"/>
<path d="M20.716 30.5734C26.5556 30.5734 31.2895 25.8395 31.2895 20C31.2895 14.1604 26.5556 9.42651 20.716 9.42651C14.8765 9.42651 10.1426 14.1604 10.1426 20C10.1426 25.8395 14.8765 30.5734 20.716 30.5734Z" fill="#0D95EC"/>
<path d="M11.7182 20C11.7182 14.4255 16.0322 9.85888 21.5037 9.45592C21.2435 9.43677 20.9809 9.4267 20.7159 9.4267C14.8764 9.4267 10.1426 14.1605 10.1426 20C10.1426 25.8394 14.8764 30.5733 20.7159 30.5733C20.9809 30.5733 21.2435 30.5632 21.5037 30.544C16.0321 30.1411 11.7182 25.5744 11.7182 20Z" fill="#0055A3"/>
<path d="M20.7427 7.3432C18.0899 7.3432 15.9395 9.49367 15.9395 12.1465V14.0473C16.2605 13.7497 16.7172 13.588 17.163 13.6475V13.4081C17.163 13.2179 17.3255 13.0676 17.5138 13.0818C19.3709 13.2152 21.2609 12.6251 22.6898 11.6916C22.8233 11.6044 22.9999 11.6261 23.1083 11.7426C24.33 13.0558 24.3226 13.0049 24.3226 13.1764V13.6464C24.8112 13.5731 25.2447 13.7241 25.5459 14.0041V12.1463C25.546 9.49367 23.3956 7.3432 20.7427 7.3432Z" fill="#576574"/>
<path d="M17.2287 12.1465C17.2287 9.71242 19.0395 7.70265 21.3873 7.3875C21.1762 7.35914 20.9614 7.3432 20.7427 7.3432C18.0898 7.3432 15.9395 9.49367 15.9395 12.1465V14.0473C16.2605 13.7497 16.7172 13.588 17.163 13.6475V13.4081C17.163 13.3342 17.1877 13.2666 17.2287 13.212V12.1465Z" fill="#3E4B5A"/>
<path d="M24.259 13.4555V16.0868C24.259 16.1153 24.2575 16.1435 24.2568 16.1719C25.1879 16.3129 25.9172 15.6401 25.9172 14.8138C25.9171 13.9859 25.1873 13.3163 24.259 13.4555Z" fill="#FFDFCF"/>
<path d="M17.2266 16.0868V13.4565C16.416 13.3482 15.5684 13.9704 15.5684 14.8138C15.5684 15.639 16.296 16.313 17.2287 16.1718C17.228 16.1435 17.2266 16.1152 17.2266 16.0868Z" fill="#FFDFCF"/>
<path d="M25.4239 13.7622C25.1264 13.5153 24.717 13.387 24.259 13.4556V16.0869C24.259 16.1154 24.2575 16.1436 24.2568 16.172C24.7161 16.2415 25.1261 16.1128 25.4239 15.8656V13.7622H25.4239Z" fill="#FFCEBF"/>
<path d="M17.2266 15.8657C16.9205 15.6116 16.7332 15.2323 16.7332 14.8139C16.7332 14.4068 16.931 14.0516 17.2266 13.8048V13.4567C16.4159 13.3484 15.5684 13.9706 15.5684 14.814C15.5684 15.6391 16.2959 16.3131 17.2287 16.172C17.228 16.1437 17.2266 16.1154 17.2266 16.0869V15.8657Z" fill="#FFCEBF"/>
<path d="M20.794 19.5519C20.018 19.5519 19.3361 19.3388 18.7783 18.9824V20.8675L20.7854 23.3449L22.7925 20.8675V18.9292C22.2238 19.3215 21.5354 19.5519 20.794 19.5519Z" fill="#FFDFCF"/>
<path d="M20.0637 19.4855C19.5852 19.3967 19.1536 19.2222 18.7783 18.9824V20.8675L20.0637 22.4541V19.4855Z" fill="#FFCEBF"/>
<path d="M28.1021 22.7965L22.7925 20.7403L20.7855 23.2177L18.7784 20.7403L13.4743 22.7965C13.4743 22.7965 11.8437 23.4678 11.5547 25.2815C13.3821 28.4446 16.8005 30.5733 20.7162 30.5733C24.7105 30.5733 28.187 28.3581 29.9856 25.0894C29.6174 23.4201 28.1021 22.7965 28.1021 22.7965Z" fill="#E4EAF8"/>
<path d="M28.1021 22.7965L22.7925 20.7403L20.7855 23.2177L18.7784 20.7403L13.4743 22.7965C13.4743 22.7965 11.8437 23.4678 11.5547 25.2815C13.3821 28.4446 16.8005 30.5733 20.7162 30.5733C24.7105 30.5733 28.187 28.3581 29.9856 25.0894C29.6174 23.4201 28.1021 22.7965 28.1021 22.7965Z" fill="#EAF6FF"/>
<path d="M12.7959 25.2642C12.7959 23.7283 13.7202 22.8663 14.3005 22.4763C13.5669 22.7607 13.0237 22.8991 12.3723 23.6047C11.9488 24.0634 11.6589 24.6274 11.5547 25.2815C11.9105 25.8974 12.3274 26.4735 12.7959 27.003V25.2642Z" fill="#B3DAFE"/>
<path d="M23.1084 11.6154C23 11.4989 22.8233 11.4772 22.69 11.5644C21.261 12.4979 19.3711 13.088 17.5139 12.9546C17.3256 12.9403 17.1631 13.0907 17.1631 13.281V16.1505C17.1631 17.9948 18.6082 19.6792 20.794 19.6792C22.7398 19.6792 24.3228 18.0962 24.3228 16.1505V13.0492C24.3228 12.8778 24.3301 12.9286 23.1084 11.6154Z" fill="#FFDFCF"/>
<path d="M18.4485 16.1505V12.962C18.1376 12.9785 17.8253 12.977 17.5139 12.9546C17.3256 12.9403 17.1631 13.0906 17.1631 13.2809V16.1505C17.1631 17.9947 18.6082 19.6791 20.794 19.6791C20.9957 19.6791 21.1932 19.6613 21.3857 19.6286C19.7207 19.3462 18.4485 17.8945 18.4485 16.1505Z" fill="#FFCEBF"/>
<path d="M23.2085 24.4906L24.7094 21.4827L22.7922 20.7402L20.7852 23.2177L22.742 24.6074C22.9004 24.7198 23.1218 24.6645 23.2085 24.4906Z" fill="#B3DAFE"/>
<path d="M18.3641 24.4907L16.8633 21.4828L18.7805 20.7403L20.7875 23.2177L18.8307 24.6075C18.6723 24.7199 18.4509 24.6645 18.3641 24.4907Z" fill="#B3DAFE"/>
<path d="M20.7879 23.2194V23.2177L20.7868 23.2185L20.7856 23.2177V23.2194L19.3623 24.2302L20.035 25.2427C20.5777 25.2427 20.9957 25.2427 21.5385 25.2427L22.2112 24.2302L20.7879 23.2194Z" fill="#FC502A"/>
<path d="M21.499 23.7244L20.788 23.2194V23.2177L20.7868 23.2185L20.7856 23.2177V23.2194L19.3623 24.2302L20.035 25.2427C20.5585 25.2427 20.965 25.2427 21.4595 25.2427L20.9071 24.4113C20.84 24.3104 20.8652 24.1744 20.964 24.1042L21.499 23.7244Z" fill="#E60D28"/>
<path d="M19.21 30.466C19.7019 30.5362 20.2045 30.5733 20.7158 30.5733C21.2985 30.5733 21.8696 30.5249 22.4267 30.4342L21.5382 25.2428C20.9954 25.2428 20.5775 25.2428 20.0347 25.2428L19.21 30.466Z" fill="#FC502A"/>
<path d="M19.21 30.466C19.6704 30.5317 20.1403 30.5673 20.6178 30.5716L21.4593 25.2427C20.9626 25.2427 20.5603 25.2427 20.0348 25.2427L19.21 30.466Z" fill="#E60D28"/>
<path d="M26.7433 25.9286C26.41 25.9286 26.1396 26.1988 26.1396 26.5323V29.0768C26.5621 28.8237 26.9654 28.542 27.347 28.2343V26.5323C27.347 26.1989 27.0767 25.9286 26.7433 25.9286Z" fill="#B3DAFE"/>
<path d="M15.5257 29.2124V26.5323C15.5257 26.199 15.2555 25.9286 14.922 25.9286C14.5887 25.9286 14.3184 26.1989 14.3184 26.5323V28.4175C14.7013 28.7088 15.1045 28.9745 15.5257 29.2124Z" fill="#B3DAFE"/>
<path d="M19.0956 0C18.4425 0 17.9129 0.529531 17.9129 1.18266V4.57867C17.9129 4.6932 17.8319 4.79063 17.7197 4.81352L19.0583 4.63758C19.3148 4.60391 19.5066 4.38523 19.5066 4.12656V1.18266C19.5066 0.529453 20.0361 0 20.6893 0H19.0956Z" fill="#23A8FE"/>
<path d="M19.5066 38.8173V35.8672C19.5066 35.6121 19.3175 35.3965 19.0644 35.3632L17.7197 35.1865C17.8319 35.2094 17.9129 35.3069 17.9129 35.4213V38.8173C17.9129 39.4705 18.4425 40 19.0956 40H20.6893C20.0361 40 19.5066 39.4705 19.5066 38.8173Z" fill="#23A8FE"/>
</g>
<defs>
<clipPath id="clip0_5494_47268">
<rect width="40" height="40" fill="white" transform="translate(0.833008)"/>
</clipPath>
</defs>
</svg>
