<svg width="41" height="40" viewBox="0 0 41 40" fill="none" xmlns="http://www.w3.org/2000/svg">
<g clip-path="url(#clip0_5494_20077)">
<path d="M40.1662 20C40.1662 25.2768 38.1227 30.0763 34.7837 33.6502C31.1335 37.5575 25.9351 39.6514 20.1662 39.6514C9.12047 39.6514 0.548828 31.0457 0.548828 20C0.548828 14.2314 2.60836 9.0332 6.51523 5.38297C10.0893 2.04383 14.8891 0 20.1662 0C31.2119 0 40.1662 8.9543 40.1662 20Z" fill="#8DC637"/>
<path d="M20.1662 36.129C29.074 36.129 36.2952 28.9078 36.2952 20C36.2952 11.0921 29.074 3.87091 20.1662 3.87091C11.2583 3.87091 4.03711 11.0921 4.03711 20C4.03711 28.9078 11.2583 36.129 20.1662 36.129Z" fill="#BCEA73"/>
<path d="M33.7143 20C33.7143 23.4516 32.4236 26.6017 30.2986 28.994C27.8168 31.788 24.197 33.195 20.1659 33.195C12.6834 33.195 7.06445 27.4826 7.06445 20.0001C7.06445 15.9716 8.37578 12.3538 11.1667 9.87205C13.5597 7.74416 16.7119 6.45166 20.1659 6.45166C27.6485 6.45166 33.7143 12.5174 33.7143 20Z" fill="#8DC637"/>
<path d="M21.1337 39.0323C10.088 39.0323 1.13375 30.078 1.13375 19.0323C1.13375 13.7556 3.17641 8.95696 6.51516 5.38306C2.60773 9.03329 0.166016 14.2309 0.166016 20C0.166016 31.0457 9.12031 40 20.166 40C25.9351 40 31.1334 37.5577 34.7836 33.6502C31.2097 36.9889 26.4104 39.0323 21.1337 39.0323Z" fill="#82B732"/>
<path d="M21.2909 32.4229C13.8084 32.4229 7.74258 26.3572 7.74258 18.8746C7.74258 15.4199 9.03789 12.2651 11.1664 9.87201C8.37617 12.3536 6.61719 15.9722 6.61719 20C6.61719 27.4826 12.683 33.5483 20.1655 33.5483C24.1934 33.5483 27.8166 31.7841 30.2982 28.9939C27.9051 31.1225 24.7457 32.4229 21.2909 32.4229Z" fill="#82B732"/>
<path d="M20.7388 10.3178L25.3544 18.0007C27.6604 21.8391 24.7779 26.6371 20.166 26.6371C15.5541 26.6371 12.6717 21.8391 14.9776 18.0007L19.5932 10.3178C19.8477 9.89406 20.4843 9.89406 20.7388 10.3178Z" fill="#BCEA73"/>
<path d="M14.9777 18.0007L19.5933 10.3178C19.8479 9.89406 20.4843 9.89406 20.739 10.3178L21.6709 11.869L17.9872 18.0006C15.9442 21.4013 17.9742 25.5546 21.6709 26.4577C21.1951 26.5739 20.692 26.6369 20.1662 26.6369C15.5542 26.637 12.6718 21.8391 14.9777 18.0007Z" fill="#A3E440"/>
<path d="M20.1656 30C20.4981 30 20.7676 29.7411 20.7676 29.4216V18.6217C20.7676 18.3021 20.4981 18.0432 20.1656 18.0432C19.8332 18.0432 19.5637 18.3021 19.5637 18.6217V29.4216C19.5637 29.7411 19.8332 30 20.1656 30Z" fill="#78A91F"/>
</g>
<defs>
<clipPath id="clip0_5494_20077">
<rect width="40" height="40" fill="white" transform="translate(0.166016)"/>
</clipPath>
</defs>
</svg>
