<svg width="201" height="40" viewBox="0 0 201 40" fill="none" xmlns="http://www.w3.org/2000/svg">
<g clip-path="url(#clip0_6120_59324)">
<path d="M109.139 5.49809C109.139 5.21794 109.367 4.99028 109.647 4.99028C109.927 4.99028 110.155 5.21794 110.155 5.49809V11.7579C111.289 10.2985 111.932 8.30998 111.932 6.21587C111.932 3.92583 111.164 1.76213 109.824 0.278671C109.779 0.228622 109.715 0.199936 109.647 0.199936C109.58 0.199936 109.515 0.228622 109.47 0.278671C108.131 1.76213 107.362 3.92613 107.362 6.21587C107.362 8.30998 108.005 10.2985 109.139 11.7576V5.49809Z" fill="#99CE19"/>
<path d="M109.061 9.25999C108.751 8.30876 108.585 7.27635 108.585 6.21587C108.585 4.18675 109.189 2.25743 110.258 0.811813C110.121 0.626266 109.977 0.447433 109.824 0.278671C109.779 0.228622 109.715 0.199936 109.647 0.199936C109.58 0.199936 109.515 0.228622 109.47 0.278671C108.131 1.76213 107.362 3.92613 107.362 6.21587C107.362 8.26146 107.976 10.2057 109.061 11.655V9.25999Z" fill="#81AA00"/>
<path d="M109.14 27.5659V5.49805C109.14 5.2179 109.368 4.99023 109.647 4.99023C109.928 4.99023 110.155 5.2179 110.155 5.49805V27.5659H109.14Z" fill="#7F441C"/>
<path d="M116.739 9.30333C116.73 9.23558 116.693 9.17485 116.637 9.13609C116.597 9.10863 116.549 9.09398 116.502 9.09398C116.482 9.09398 116.463 9.09642 116.444 9.101C114.861 9.49284 113.347 10.5985 112.289 12.1344C111.344 13.5065 110.853 15.0959 110.901 16.5723L113.004 13.5175C113.099 13.3799 113.255 13.2975 113.423 13.2975C113.525 13.2975 113.625 13.3286 113.71 13.3872C113.941 13.5459 113.999 13.8627 113.84 14.0934L111.738 17.1479C113.135 16.6645 114.444 15.6376 115.389 14.2655C116.447 12.7295 116.939 10.9208 116.739 9.30333Z" fill="#99CE19"/>
<path d="M116.739 9.30333C116.731 9.23558 116.694 9.17485 116.638 9.13609C116.598 9.10863 116.55 9.09398 116.502 9.09398C116.483 9.09398 116.464 9.09642 116.445 9.101C114.862 9.49284 113.347 10.5985 112.29 12.1344C111.373 13.4656 110.883 15.0013 110.898 16.4399L112.94 13.4729C112.973 13.4253 113.012 13.3848 113.054 13.35C113.112 13.2596 113.17 13.1699 113.231 13.0814C114.153 11.7429 115.421 10.7319 116.779 10.2344C116.79 9.91948 116.777 9.60789 116.739 9.30333Z" fill="#81AA00"/>
<path d="M105.422 14.0934C105.263 13.8627 105.322 13.5459 105.553 13.3872C105.638 13.3286 105.737 13.2975 105.84 13.2975C106.007 13.2975 106.164 13.3799 106.259 13.5175L108.362 16.5726C108.41 15.0962 107.918 13.5068 106.974 12.1344C105.916 10.5985 104.402 9.49284 102.819 9.101C102.799 9.09642 102.78 9.09398 102.761 9.09398C102.713 9.09398 102.666 9.10863 102.626 9.13609C102.57 9.17485 102.532 9.23558 102.524 9.30333C102.324 10.9208 102.816 12.7295 103.874 14.2655C104.818 15.6376 106.128 16.6645 107.525 17.1479L105.422 14.0934Z" fill="#99CE19"/>
<path d="M105.358 14.1376C105.267 14.0055 105.238 13.8486 105.264 13.7021C105.143 13.5508 105.027 13.3945 104.916 13.2331C104.085 12.0252 103.605 10.6495 103.534 9.33018C103.298 9.23863 103.059 9.16051 102.819 9.101C102.799 9.09642 102.78 9.09398 102.761 9.09398C102.713 9.09398 102.666 9.10863 102.626 9.13609C102.57 9.17485 102.532 9.23558 102.524 9.30333C102.324 10.9208 102.816 12.7295 103.874 14.2655C104.79 15.5967 106.05 16.6034 107.4 17.1036L105.358 14.1376Z" fill="#81AA00"/>
<path d="M117.707 16.0785C117.698 16.0117 117.661 15.9512 117.605 15.9128C117.565 15.8853 117.518 15.871 117.47 15.871C117.452 15.871 117.433 15.8731 117.414 15.8774C115.563 16.3226 113.791 17.608 112.554 19.4043C111.429 21.0391 110.857 22.9355 110.949 24.686L113.45 21.0535C113.544 20.9158 113.701 20.8334 113.869 20.8334C113.971 20.8334 114.071 20.8646 114.156 20.9232C114.386 21.0818 114.445 21.3986 114.286 21.6293L111.786 25.2609C113.454 24.7208 115.023 23.5092 116.148 21.8747C117.385 20.0784 117.953 17.9657 117.707 16.0785Z" fill="#99CE19"/>
<path d="M117.706 16.0785C117.698 16.0117 117.661 15.9512 117.605 15.9128C117.565 15.8853 117.518 15.871 117.47 15.871C117.451 15.871 117.432 15.8731 117.414 15.8774C115.562 16.3226 113.791 17.608 112.554 19.4043C111.456 20.9985 110.886 22.8418 110.943 24.5557L112.532 22.2476C112.791 21.5988 113.127 20.965 113.539 20.3665C114.633 18.7772 116.146 17.5885 117.762 17.027C117.765 16.7065 117.747 16.3895 117.706 16.0785Z" fill="#81AA00"/>
<path d="M104.976 21.6293C104.899 21.5176 104.87 21.3828 104.895 21.2494C104.919 21.116 104.994 21.0001 105.106 20.9232C105.191 20.8646 105.291 20.8337 105.394 20.8337C105.561 20.8337 105.718 20.9158 105.813 21.0535L108.313 24.686C108.405 22.9358 107.833 21.0391 106.708 19.4046C105.471 17.608 103.7 16.3226 101.848 15.8777C101.829 15.8731 101.811 15.871 101.792 15.871C101.744 15.871 101.697 15.8853 101.657 15.9131C101.601 15.9512 101.564 16.0117 101.555 16.0788C101.309 17.966 101.877 20.0784 103.114 21.875C104.239 23.5095 105.808 24.7211 107.476 25.2612L104.976 21.6293Z" fill="#99CE19"/>
<path d="M104.912 21.6736C104.883 21.6318 104.861 21.5872 104.844 21.5417C104.68 21.34 104.522 21.1316 104.372 20.9146C103.361 19.4449 102.797 17.7634 102.76 16.167C102.459 16.0486 102.155 15.9512 101.848 15.8774C101.829 15.8731 101.811 15.871 101.792 15.871C101.744 15.871 101.697 15.8853 101.657 15.9128C101.601 15.9512 101.564 16.0117 101.555 16.0785C101.309 17.9657 101.877 20.0784 103.114 21.8747C104.212 23.4689 105.73 24.6603 107.353 25.2194L104.912 21.6736Z" fill="#81AA00"/>
<path d="M113.755 13.3228C113.489 13.1391 113.124 13.2065 112.94 13.4732L110.155 17.5183V19.5536C110.191 19.5221 110.223 19.4861 110.251 19.4455L113.906 14.1376C114.089 13.8712 114.022 13.5062 113.755 13.3228Z" fill="#9B5729"/>
<path d="M109.14 17.5626L106.324 13.4732C106.141 13.2068 105.776 13.1394 105.51 13.3228C105.243 13.5062 105.176 13.8712 105.359 14.1376L109.013 19.4455C109.049 19.4974 109.092 19.5407 109.14 19.5773V17.5626Z" fill="#9B5729"/>
<path d="M114.201 20.8588C113.934 20.6754 113.569 20.7428 113.386 21.0092L110.155 25.7013V27.6441H110.241L114.351 21.6736C114.535 21.4072 114.467 21.0422 114.201 20.8588Z" fill="#9B5729"/>
<path d="M109.139 25.7459L105.878 21.0092C105.695 20.7425 105.33 20.6754 105.063 20.8588C104.797 21.0425 104.729 21.4072 104.913 21.6736L109.023 27.6441H109.139V25.7459Z" fill="#9B5729"/>
<path d="M114.19 36.6516L115.008 30.1605H104.257L105.075 36.6516H114.19Z" fill="#EAC092"/>
<path d="M107.143 36.6516L106.324 30.1605H104.257L105.075 36.6516H107.143Z" fill="#E0AA68"/>
<path d="M104.44 39.1061H114.824C115.472 38.6295 115.894 37.8619 115.894 36.9977V36.7856C115.894 36.6684 115.799 36.5735 115.682 36.5735H103.582C103.464 36.5735 103.369 36.6687 103.369 36.7856V36.9977C103.369 37.8619 103.791 38.6295 104.44 39.1061Z" fill="#B57A4E"/>
<path d="M104.44 39.1061H108.114C107.466 38.6295 107.044 37.8619 107.044 36.9977V36.7856C107.044 36.6684 107.139 36.5735 107.256 36.5735H103.582C103.464 36.5735 103.369 36.6687 103.369 36.7856V36.9977C103.369 37.8619 103.791 38.6295 104.44 39.1061Z" fill="#9B5729"/>
<path d="M110.233 27.644V5.49805C110.233 5.17426 109.971 4.91211 109.647 4.91211C109.324 4.91211 109.062 5.17426 109.062 5.49805V27.644H110.233Z" fill="#7F441C"/>
<path d="M116.018 29.8422C116.018 30.0601 115.84 30.2386 115.621 30.2386H103.641C103.423 30.2386 103.244 30.0601 103.244 29.8422V27.9623C103.244 27.7441 103.423 27.5659 103.641 27.5659H115.621C115.84 27.5659 116.018 27.7441 116.018 27.9623V29.8422Z" fill="#B57A4E"/>
<path d="M105.696 29.8422V27.9623C105.696 27.7441 105.874 27.5659 106.093 27.5659H103.641C103.423 27.5659 103.244 27.7441 103.244 27.9623V29.8422C103.244 30.0601 103.423 30.2386 103.641 30.2386H106.093C105.874 30.2386 105.696 30.0601 105.696 29.8422Z" fill="#9B5729"/>
<path d="M27.9531 28.1129H29.9884C29.5117 26.1021 29.2559 23.712 29.2559 21.172C29.2559 21.1216 29.2565 21.0716 29.2565 21.0215C28.5864 19.0184 27.7752 17.2587 26.8832 15.8976C26.8383 15.8293 26.763 15.7899 26.6839 15.7899C26.6665 15.7899 26.6488 15.7917 26.6311 15.7957C26.5341 15.8177 26.4611 15.8976 26.448 15.9962C26.116 18.4645 26.3574 21.6935 27.1282 25.0883C27.3666 26.1381 27.6437 27.1516 27.9531 28.1129Z" fill="#009E2F"/>
<path d="M27.9531 28.113H29.1717C28.8623 27.1517 28.5852 26.1382 28.3468 25.0884C27.6806 22.1544 27.4105 19.3453 27.5637 17.0427C27.3431 16.6359 27.116 16.2529 26.8832 15.8977C26.8386 15.8297 26.7633 15.7903 26.6839 15.7903C26.6665 15.7903 26.6488 15.7921 26.6311 15.7961C26.5344 15.8181 26.4611 15.898 26.448 15.9963C26.116 18.4648 26.3574 21.6936 27.1282 25.0884C27.3666 26.1382 27.6437 27.1517 27.9531 28.113Z" fill="#00752C"/>
<path d="M31.5127 28.113H33.706C34.0008 27.1431 34.262 26.1208 34.4836 25.0624C35.1971 21.6555 35.3842 18.4227 35.0109 15.9603C34.996 15.862 34.9215 15.7836 34.8242 15.7631C34.808 15.7598 34.7915 15.7579 34.7753 15.7579C34.6948 15.7579 34.6185 15.7988 34.5742 15.869C33.6859 17.2753 32.8893 19.0969 32.2454 21.1663V21.1721C32.2451 23.712 31.9894 26.1022 31.5127 28.113Z" fill="#009E2F"/>
<path d="M31.5127 28.113H32.0623C32.1804 26.9258 32.3724 25.6847 32.6373 24.4188C33.2272 21.6014 34.0991 19.0386 35.1348 17.0449C35.1043 16.6692 35.0634 16.3069 35.0109 15.9603C34.996 15.862 34.9215 15.7836 34.8242 15.7631C34.808 15.7598 34.7915 15.7579 34.7753 15.7579C34.6948 15.7579 34.6185 15.7988 34.5742 15.869C33.6859 17.2753 32.8893 19.0969 32.2454 21.1663V21.1721C32.2451 23.712 31.9894 26.1022 31.5127 28.113Z" fill="#00752C"/>
<path d="M31.5916 28.113C32.0668 26.0997 32.3219 23.7102 32.3219 21.1721C32.3219 17.6909 31.8428 14.4884 30.9724 12.1547C30.9376 12.0616 30.8485 12 30.7493 12C30.6498 12 30.5607 12.0616 30.5262 12.1547C29.6559 14.4884 29.1768 17.6909 29.1768 21.1721C29.1768 23.7102 29.4319 26.0997 29.907 28.113H31.5916Z" fill="#009E2F"/>
<path d="M31.1439 28.113C30.6685 26.0997 30.413 23.7102 30.4133 21.1721C30.413 18.2604 30.7487 15.5443 31.3676 13.3678C31.2465 12.9421 31.1149 12.5365 30.9724 12.1547C30.9376 12.0616 30.8488 12 30.7493 12C30.6498 12 30.561 12.0616 30.5262 12.1547C29.6559 14.4884 29.1768 17.6909 29.1768 21.1721C29.1768 23.7102 29.4319 26.0997 29.9073 28.113H31.1439Z" fill="#00752C"/>
<path d="M25.324 30.572C25.3206 30.6031 25.32 30.6352 25.3243 30.6685L26.4467 39.575H35.0548L36.177 30.6685C36.1812 30.6352 36.1809 30.6031 36.1776 30.572H25.324Z" fill="#EAC092"/>
<path d="M27.9171 30.572H25.324C25.3206 30.6031 25.32 30.6352 25.3243 30.6685L26.4467 39.575H29.0398L27.9174 30.6685C27.9131 30.6352 27.9134 30.6031 27.9171 30.572Z" fill="#E0AA68"/>
<path d="M37.001 30.2315C37.001 30.4619 36.8127 30.6502 36.5823 30.6502H24.9197C24.6896 30.6502 24.501 30.4619 24.501 30.2315V28.4532C24.501 28.2231 24.6896 28.0345 24.9197 28.0345H36.5823C36.8127 28.0345 37.001 28.2231 37.001 28.4532V30.2315Z" fill="#B57A4E"/>
<path d="M27.0461 30.2315V28.4532C27.0461 28.2231 27.2344 28.0345 27.4648 28.0345H24.9197C24.6896 28.0345 24.501 28.2231 24.501 28.4532V30.2315C24.501 30.4619 24.6896 30.6502 24.9197 30.6502H27.4648C27.2344 30.6502 27.0461 30.4619 27.0461 30.2315Z" fill="#9B5729"/>
<path d="M85.2438 15.5831L86.6501 13.0898C88.994 8.93433 93.7593 6.77561 98.4288 7.75413L99.1092 7.8967C99.3268 7.94227 99.3425 8.24701 99.1307 8.31475L98.8256 8.41233C94.7751 9.70758 91.2684 12.3094 88.8544 15.8104L85.2438 21.0467V15.5831Z" fill="#5EA570"/>
<path d="M84.0254 15.5831L82.6191 13.0898C80.2752 8.93433 75.5099 6.77561 70.8404 7.75413L70.16 7.8967C69.9424 7.94227 69.9267 8.24701 70.1385 8.31475L70.4436 8.41233C74.4941 9.70758 78.0008 12.3094 80.4149 15.8104L84.0254 21.0467V15.5831Z" fill="#5EA570"/>
<path d="M86.5616 21.5894L87.9505 18.7022C90.2655 13.8901 95.2928 11.6138 99.3652 12.9745L100.076 13.212C100.27 13.2767 100.274 13.5493 100.082 13.6202L99.6778 13.7701C96.0203 15.1254 92.7675 18.0493 90.4286 22.0843L86.9305 28.1192L86.5616 21.5894Z" fill="#5EA570"/>
<path d="M85.2161 18.3597L87.1463 16.7171C90.3632 13.9793 95.3953 15.4277 98.9771 17.6669L99.4193 17.9434C99.6078 18.0612 99.5175 18.3526 99.2953 18.3432L99.1059 18.3351C95.344 18.1745 91.2227 17.4788 88.1473 19.6512L83.5476 22.9003L85.2161 18.3597Z" fill="#69AF81"/>
<path d="M82.709 21.5894L81.32 18.7022C79.0051 13.8901 73.9777 11.6138 69.9054 12.9745L69.1948 13.212C69.001 13.2767 68.9966 13.5493 69.1881 13.6202L69.5928 13.7701C73.2504 15.1254 76.5031 18.0493 78.842 22.0843L82.3401 28.1192L82.709 21.5894Z" fill="#5EA570"/>
<path d="M84.0512 18.4284L82.121 16.7858C78.9041 14.0481 73.8721 15.4964 70.2902 17.7357L69.848 18.0121C69.6595 18.13 69.7499 18.4214 69.972 18.4119L70.1615 18.4039C73.9233 18.2433 78.0446 17.5476 81.12 19.72L85.7197 22.969L84.0512 18.4284Z" fill="#69AF81"/>
<path d="M84.8475 6.18298C85.9055 12.9203 86.6401 19.1555 86.4213 23.9098H82.8456C82.6268 19.1554 83.3614 12.9203 84.4194 6.18298C84.4578 5.93903 84.8092 5.93903 84.8475 6.18298Z" fill="#69AF81"/>
<path d="M89.789 26.0945L92.6199 25.4775L94.1195 21.2157C94.1995 20.9885 94.1502 20.7357 93.9907 20.5552C93.8312 20.3747 93.5865 20.2946 93.3511 20.3459L91.684 20.7093L89.789 26.0945Z" fill="#78C2A4"/>
<path d="M79.4795 26.0945L76.6486 25.4775L75.1489 21.2157C75.069 20.9885 75.1183 20.7357 75.2778 20.5552C75.4373 20.3747 75.682 20.2946 75.9174 20.3459L77.5845 20.7093L79.4795 26.0945Z" fill="#78C2A4"/>
<path d="M94.891 20.2321C96.2377 20.785 100.723 23.1006 100.491 29.3501C100.485 29.5319 100.236 29.5787 100.163 29.4121C99.3952 27.663 96.9484 23.0527 91.6833 20.7092L94.1629 20.1688C94.4066 20.1157 94.6602 20.1374 94.891 20.2321Z" fill="#95D6A4"/>
<path d="M74.3773 20.2321C73.0305 20.785 68.5457 23.1006 68.7769 29.3501C68.7836 29.5319 69.0323 29.5787 69.1054 29.4121C69.8731 27.663 72.3199 23.0527 77.585 20.7092L75.1054 20.1688C74.8617 20.1157 74.6081 20.1374 74.3773 20.2321Z" fill="#95D6A4"/>
<path d="M91.3815 36.8637C95.362 33.9172 96.3946 30.3099 95.401 25.3379C95.2352 24.508 94.5065 23.9099 93.6601 23.9099H75.6077C74.7613 23.9099 74.0326 24.508 73.8667 25.3379C72.8731 30.3099 73.9058 33.9172 77.8862 36.8637L79.16 38.3017L89.788 37.9274L91.3815 36.8637Z" fill="#C6865C"/>
<path d="M75.6071 23.9098H76.1302C74.6392 29.6308 75.4675 33.6421 79.8193 36.8636H77.8856C73.9051 33.917 72.8725 30.3098 73.8661 25.3378C74.032 24.5079 74.7607 23.9098 75.6071 23.9098Z" fill="#C17D4F"/>
<path d="M84.0737 23.9099H86.971L88.9361 21.2543C89.0853 21.0525 89.1082 20.7839 88.9953 20.5598C88.8824 20.3357 88.6528 20.1944 88.4019 20.1944H86.823L84.0737 23.9099Z" fill="#78C2A4"/>
<path d="M85.1943 23.9099H82.297L80.3319 21.2543C80.1827 21.0525 80.1598 20.7839 80.2727 20.5598C80.3856 20.3357 80.6152 20.1944 80.8661 20.1944H82.445L85.1943 23.9099Z" fill="#78C2A4"/>
<path d="M89.3597 20.1944C89.6091 20.1944 89.8523 20.2696 90.0576 20.4113C91.2557 21.2383 95.1446 24.4559 93.5877 30.5128C93.5424 30.6891 93.2896 30.6819 93.2535 30.5035C92.876 28.631 91.4671 23.6054 86.8219 20.1944L89.3597 20.1944Z" fill="#95D6A4"/>
<path d="M79.9075 20.1944C79.6581 20.1944 79.4149 20.2697 79.2096 20.4113C78.0115 21.2383 74.1226 24.4559 75.6795 30.5128C75.7248 30.6891 75.9776 30.6819 76.0137 30.5035C76.3912 28.6311 77.8001 23.6054 82.4453 20.1945L79.9075 20.1944Z" fill="#95D6A4"/>
<path d="M94.1097 37.6651C94.1593 37.5441 94.2004 37.4171 94.233 37.2846C94.2867 37.066 94.1208 36.8546 93.8958 36.8546H75.3726C75.1476 36.8546 74.9817 37.066 75.0354 37.2846C75.068 37.4171 75.1091 37.5441 75.1587 37.6651C75.4937 38.4823 76.3087 39 77.192 39H92.0765C92.9598 39 93.7748 38.4823 94.1097 37.6651Z" fill="#9D6B6B"/>
<path d="M75.3735 36.8546H77.003C76.7779 36.8546 76.612 37.066 76.6658 37.2846C76.6984 37.4171 76.7395 37.5441 76.789 37.6651C77.1241 38.4823 77.9391 39 78.8223 39H77.1928C76.3096 39 75.4946 38.4823 75.1595 37.6651C75.1099 37.5441 75.0688 37.4171 75.0362 37.2846C74.9826 37.066 75.1485 36.8546 75.3735 36.8546Z" fill="#8B5E5E"/>
<path d="M121.939 39H134.23C134.452 39 134.641 38.8393 134.677 38.6204L135.91 31.0733H120.259L121.492 38.6204C121.528 38.8393 121.717 39 121.939 39Z" fill="#BE652B"/>
<path d="M122.012 31.0733L123.308 39H121.941C121.719 39 121.529 38.8393 121.494 38.6204L120.26 31.0733H122.012V31.0733Z" fill="#A75224"/>
<path d="M125.292 13.0076C125.292 14.4577 124.43 15.2515 123.367 15.2515C122.304 15.2515 121.443 14.4577 121.443 13.0076C121.443 11.5574 122.834 10 123.367 10C123.901 10 125.292 11.5574 125.292 13.0076Z" fill="#6DE470"/>
<path d="M123.367 10C123.574 10 123.909 10.2342 124.242 10.6046C123.715 11.1907 123.192 12.119 123.192 13.0076C123.192 14.0278 123.619 14.7226 124.242 15.0452C123.98 15.1811 123.683 15.2515 123.367 15.2515C122.304 15.2515 121.443 14.4577 121.443 13.0076C121.443 11.5574 122.834 10 123.367 10Z" fill="#4DCC68"/>
<path d="M129.524 17.6076C128.15 18.0694 127.124 17.5049 126.785 16.4969C126.447 15.4888 126.925 14.4188 128.299 13.957C129.673 13.4952 131.591 14.319 131.761 14.8246C131.931 15.3302 130.898 17.1459 129.524 17.6076Z" fill="#6DE470"/>
<path d="M128.297 13.957C128.868 13.7651 129.532 13.7956 130.127 13.9326C130.1 13.9406 130.073 13.9481 130.046 13.957C128.672 14.4188 128.195 15.4888 128.533 16.4969C128.704 17.0042 129.048 17.399 129.524 17.6073C129.523 17.6074 129.523 17.6076 129.522 17.6077C128.148 18.0695 127.122 17.505 126.784 16.4969C126.445 15.4887 126.923 14.4188 128.297 13.957Z" fill="#4DCC68"/>
<path d="M134.089 22.4721C132.688 22.0989 132.143 21.0615 132.417 20.0339C132.69 19.0062 133.679 18.3775 135.079 18.7507C136.48 19.1239 137.626 20.87 137.489 21.3854C137.352 21.9009 135.489 22.8454 134.089 22.4721Z" fill="#6DE470"/>
<path d="M132.417 20.034C132.69 19.0064 133.679 18.3776 135.079 18.7509C135.129 18.7642 135.179 18.7797 135.228 18.7963C134.689 19.0183 134.318 19.4647 134.166 20.034C133.901 21.0301 134.405 22.0353 135.712 22.4359C135.181 22.5681 134.604 22.6094 134.089 22.4722C132.688 22.099 132.143 21.0617 132.417 20.034Z" fill="#4DCC68"/>
<path d="M125.534 22.8508C126.557 21.8241 127.728 21.871 128.48 22.622C129.233 23.3731 129.282 24.5439 128.259 25.5706C127.235 26.5972 125.151 26.7167 124.773 26.34C124.396 25.9634 124.51 23.8775 125.534 22.8508Z" fill="#6DE470"/>
<path d="M125.533 22.8508C126.374 22.0068 127.315 21.8888 128.041 22.2906C127.785 22.4185 127.529 22.6031 127.282 22.8508C126.259 23.8776 126.145 25.9633 126.522 26.34C126.548 26.3662 126.583 26.3897 126.625 26.4109C125.793 26.6101 124.993 26.5597 124.772 26.34C124.395 25.9633 124.509 23.8776 125.533 22.8508Z" fill="#4DCC68"/>
<path d="M119.715 18.6355C120.761 17.6323 121.93 17.7058 122.666 18.4738C123.401 19.2417 123.424 20.4134 122.377 21.4165C121.331 22.4197 119.244 22.4917 118.875 22.1065C118.506 21.7214 118.668 19.6387 119.715 18.6355Z" fill="#6DE470"/>
<path d="M119.714 18.6356C120.56 17.8253 121.485 17.7178 122.197 18.1111C121.951 18.2326 121.704 18.4054 121.464 18.6356C120.417 19.6388 120.256 21.7215 120.625 22.1066C120.661 22.1448 120.715 22.1784 120.783 22.2072C119.926 22.4033 119.095 22.3363 118.875 22.1066C118.506 21.7215 118.668 19.6388 119.714 18.6356Z" fill="#4DCC68"/>
<path d="M120.587 19.6863C121.002 19.0432 121.587 18.6386 122.324 18.4839C122.904 18.3619 123.522 18.4115 124.106 18.5435C123.537 17.776 123.216 16.9612 123.038 16.2384C122.587 14.4081 122.936 12.8059 122.951 12.7387C123.003 12.51 123.23 12.3667 123.459 12.4173C123.687 12.4682 123.832 12.6951 123.781 12.924C123.778 12.9387 123.458 14.4234 123.871 16.0636C124.081 16.9019 124.439 17.6271 124.939 18.2378C124.975 17.8836 125.089 17.5505 125.281 17.2415C126.235 15.7037 128.796 15.3869 128.905 15.3741C129.138 15.3473 129.349 15.5133 129.376 15.7461C129.404 15.9789 129.237 16.1901 129.004 16.2179C128.982 16.2206 126.739 16.5007 126.002 17.6906C125.749 18.0997 125.708 18.5718 125.878 19.1298C125.987 19.211 126.101 19.2888 126.219 19.3636C126.433 19.4788 126.595 19.5764 126.689 19.6349C127.177 19.8886 127.723 20.0943 128.326 20.2514C128.604 20.3239 128.867 20.4045 129.116 20.4928C129.207 19.8697 129.519 19.5308 129.8 19.3489C131.275 18.3946 134.494 20.1093 134.857 20.3079C135.062 20.4207 135.138 20.6789 135.025 20.8846C134.912 21.0903 134.653 21.1656 134.448 21.0529C133.25 20.3974 131.055 19.5487 130.262 20.0622C130.179 20.1157 129.946 20.2673 129.939 20.84C131.024 21.382 131.725 22.1236 132.031 23.0565C132.793 25.3816 130.765 27.9809 130.59 28.1997L129.86 29.2218C129.777 29.338 129.646 29.4 129.513 29.4C129.428 29.4 129.342 29.3743 129.267 29.3209C129.076 29.1846 129.031 28.9193 129.168 28.7284L129.905 27.696C129.91 27.6887 129.916 27.6816 129.921 27.6747C129.937 27.6551 131.224 26.0528 131.343 24.4072C131.169 24.1329 130.592 23.3381 129.663 23.1863C128.8 23.0454 127.829 23.478 126.774 24.4724C126.603 24.6333 126.334 24.6255 126.173 24.4549C126.012 24.2843 126.02 24.0154 126.19 23.8544C127.452 22.6653 128.669 22.1589 129.81 22.3494C130.279 22.4278 130.677 22.6163 131.004 22.8418C130.528 22.0441 129.558 21.4505 128.111 21.0734C126.992 20.7817 126.108 20.3475 125.41 19.8354C124.716 19.5117 123.549 19.0939 122.497 19.3155C121.984 19.4236 121.593 19.6956 121.301 20.1469C121.174 20.3441 120.911 20.4007 120.714 20.2735C120.516 20.1464 120.459 19.8835 120.587 19.6863Z" fill="#1EB073"/>
<path d="M120.143 31.2102H136.028C136.415 31.2102 136.729 30.8966 136.729 30.5098V28.6432C136.729 28.2563 136.415 27.9427 136.028 27.9427H120.143C119.756 27.9427 119.442 28.2563 119.442 28.6432V30.5098C119.442 30.8966 119.756 31.2102 120.143 31.2102Z" fill="#D67B42"/>
<path d="M120.143 27.9427H121.895C121.508 27.9427 121.194 28.2562 121.194 28.6429V30.5101C121.194 30.8968 121.507 31.2103 121.895 31.2103H120.143C119.755 31.2103 119.442 30.8968 119.442 30.5101V28.6429C119.442 28.2561 119.755 27.9427 120.143 27.9427Z" fill="#BE652B"/>
<path d="M7.40833 35.4051C7.09117 35.4051 6.81624 35.1691 6.77558 34.8463C6.53061 32.9 6.98881 31.0465 8.0327 29.761C8.25395 29.4886 8.49247 29.253 8.74257 29.0576C9.23961 28.6693 10.9869 28.6283 11.0156 28.9797C11.0443 29.3312 10.7826 29.6395 10.4311 29.6681C9.97655 29.7052 9.45057 30.041 9.02407 30.5662C8.1987 31.5825 7.841 33.0844 8.04266 34.6868C8.08671 35.0367 7.83877 35.3561 7.48887 35.4001C7.46181 35.4035 7.43491 35.4051 7.40833 35.4051Z" fill="#9BD069"/>
<path d="M10.4919 28.7542C10.0573 28.7904 9.62048 28.8925 9.40976 29.0577C9.15946 29.2531 8.92107 29.4885 8.69969 29.761C7.65584 31.0466 7.19777 32.9002 7.44257 34.8461C7.46811 35.0466 7.58307 35.213 7.74271 35.3109C7.66779 35.3573 7.58179 35.3884 7.48898 35.3999C7.46174 35.4033 7.43493 35.405 7.40811 35.405C7.09094 35.405 6.81639 35.1692 6.77552 34.8461C6.53071 32.9002 6.98879 31.0466 8.03264 29.761C8.25401 29.4885 8.49241 29.2531 8.74271 29.0577C9.06748 28.8035 9.92784 28.698 10.4919 28.7542Z" fill="#8BC852"/>
<path d="M18.1704 37.3861C17.8076 37.3861 17.5136 37.092 17.5136 36.7293C17.5136 35.0108 18.5148 33.9988 19.3982 33.1059C20.1883 32.3072 20.8707 31.6175 20.8707 30.4938C20.8707 29.5318 20.2481 28.9317 19.2323 28.0321C18.2731 27.1827 17.1125 26.1549 16.8036 24.4447C16.7528 24.1633 17.7788 23.18 18.1415 23.18C18.5043 23.18 18.0386 23.18 18.0386 23.5427C18.0386 25.2205 19.0414 26.1085 20.1031 27.0487C21.1262 27.9548 22.1842 28.8917 22.1842 30.4938C22.1842 32.1575 21.2002 33.1522 20.332 34.0297C19.5245 34.8459 18.8272 35.5508 18.8272 36.7293C18.8271 37.092 18.5331 37.3861 18.1704 37.3861Z" fill="#9BD069"/>
<path d="M20.1531 33.1056C19.2696 33.9988 18.2686 35.0107 18.2686 36.7292C18.2686 36.9512 18.3789 37.1478 18.548 37.2665C18.4411 37.3418 18.3111 37.3861 18.1701 37.3861C17.8075 37.3861 17.5133 37.0918 17.5133 36.7293C17.5133 35.0107 18.5147 33.9988 19.3979 33.1056C20.1882 32.307 20.8704 31.6173 20.8704 30.4938C20.8704 29.5318 20.2477 28.9316 19.2319 28.0322C18.273 27.1828 17.1123 26.1551 16.8036 24.4448C16.7528 24.1633 17.7787 23.1799 18.1412 23.1799C18.5042 23.1799 18.0383 23.1799 18.0383 23.5428C18.0383 23.6081 18.0397 23.672 18.0432 23.7346C17.7612 24.0083 17.5339 24.3087 17.5585 24.4448C17.8676 26.1551 19.0279 27.1828 19.9873 28.0322C21.0031 28.9315 21.6257 29.5318 21.6257 30.4938C21.6256 31.6173 20.9431 32.3069 20.1531 33.1056Z" fill="#8BC852"/>
<path d="M14.583 26.072C16.2609 26.072 17.6211 25.3435 17.6211 24.445C17.6211 23.5464 16.2609 22.818 14.583 22.818C12.9051 22.818 11.5449 23.5464 11.5449 24.445C11.5449 25.3435 12.9051 26.072 14.583 26.072Z" fill="#9BD069"/>
<path d="M20.4924 23.4485C21.6787 22.2622 22.1254 20.7855 21.4901 20.1503C20.8548 19.515 19.3782 19.9616 18.1919 21.1479C17.0056 22.3342 16.5589 23.8109 17.1942 24.4461C17.8295 25.0814 19.3062 24.6347 20.4924 23.4485Z" fill="#AAD880"/>
<path d="M9.88508 29.3733C10.4934 28.712 9.98543 27.255 8.75049 26.119C7.51556 24.9831 6.0213 24.5984 5.41298 25.2597C4.80466 25.921 5.31264 27.378 6.54757 28.5139C7.78251 29.6499 9.27676 30.0346 9.88508 29.3733Z" fill="#9BD069"/>
<path d="M12.5633 30.867C14.2396 30.7965 15.5678 30.0117 15.5301 29.114C15.4923 28.2164 14.1029 27.5458 12.4267 27.6163C10.7504 27.6868 9.4222 28.4716 9.45993 29.3692C9.49767 30.2669 10.8871 30.9374 12.5633 30.867Z" fill="#AAD880"/>
<path d="M11.2301 36.576C11.1901 37.064 11.0845 37.724 10.8182 38.3576C10.6737 38.7017 10.3359 38.9248 9.9626 38.9248H4.85478C4.4815 38.9248 4.14367 38.7017 3.99916 38.3576C3.73287 37.724 3.62728 37.064 3.58724 36.576C3.55034 36.1249 3.56935 35.8209 3.56935 35.8209H11.248C11.248 35.8209 11.267 36.1249 11.2301 36.576Z" fill="#365E7D"/>
<path d="M6.29833 38.9248H4.85508C4.4818 38.9248 4.14398 38.7017 3.99918 38.3576C3.48676 37.1384 3.56936 35.8209 3.56936 35.8209H5.73962C5.73962 35.8209 5.70359 37.1384 5.92641 38.3576C5.98918 38.7017 6.13625 38.9248 6.29833 38.9248Z" fill="#2B4D66"/>
<path d="M11.2301 36.576C8.68259 36.6347 6.13475 36.6347 3.58724 36.576C3.55034 36.1249 3.56935 35.8209 3.56935 35.8209L7.40865 34.7664L11.2479 35.8209C11.248 35.8209 11.267 36.1249 11.2301 36.576Z" fill="#2B4D66"/>
<path d="M21.6344 36.576C21.5944 37.064 21.4888 37.724 21.2225 38.3576C21.078 38.7017 20.7402 38.9248 20.3669 38.9248H15.2591C14.8858 38.9248 14.548 38.7017 14.4035 38.3576C14.1372 37.724 14.0316 37.064 13.9915 36.576C13.9546 36.1249 13.9736 35.8209 13.9736 35.8209H21.6523C21.6523 35.8209 21.6713 36.1249 21.6344 36.576Z" fill="#365E7D"/>
<path d="M16.7026 38.9248H15.2594C14.8861 38.9248 14.5483 38.7017 14.4035 38.3576C13.8911 37.1384 13.9737 35.8209 13.9737 35.8209H16.1439C16.1439 35.8209 16.1079 37.1384 16.3307 38.3576C16.3935 38.7017 16.5405 38.9248 16.7026 38.9248Z" fill="#2B4D66"/>
<path d="M21.6344 36.576C19.0869 36.6347 16.539 36.6347 13.9915 36.576C13.9546 36.1249 13.9736 35.8209 13.9736 35.8209L17.8129 34.7664L21.6522 35.8209C21.6523 35.8209 21.6713 36.1249 21.6344 36.576Z" fill="#2B4D66"/>
<path d="M22.1402 33.7229C15.7864 33.6531 9.43261 33.6531 3.07882 33.7229C2.68004 33.7273 2.30924 33.9515 2.14072 34.313C1.99476 34.6261 1.99476 34.9391 2.14072 35.2522C2.30924 35.6137 2.68004 35.8379 3.07882 35.8423C3.68603 35.7621 4.8865 35.6113 4.8865 35.6113C4.8865 35.6113 6.55207 35.737 7.27491 35.8782C12.2304 35.9087 17.186 35.8967 22.1415 35.8423C22.5402 35.8379 22.911 35.6137 23.0796 35.2522C23.2184 34.9544 23.2252 34.6566 23.0999 34.3589C22.9382 33.9744 22.5573 33.7275 22.1402 33.7229Z" fill="#365E7D"/>
<path d="M7.42642 35.8788C5.97731 35.8703 4.5282 35.8579 3.07904 35.8422C2.68014 35.8379 2.30934 35.6136 2.14078 35.2521C1.99474 34.9392 1.99474 34.6259 2.14078 34.313C2.30934 33.9516 2.68014 33.7272 3.07904 33.723C4.52816 33.7072 5.97727 33.6949 7.42642 33.6864C7.04839 33.7221 6.70739 33.9473 6.54564 34.2943C6.39365 34.62 6.39365 34.9452 6.54564 35.2709C6.70739 35.6178 7.04839 35.843 7.42642 35.8788Z" fill="#2B4D66"/>
<path d="M62.9103 28.5085H42.4946C42.2495 28.5085 42.0508 28.7072 42.0508 28.9523C42.0508 34.8258 46.8292 39.604 52.7024 39.604C58.5759 39.604 63.3541 34.8258 63.3541 28.9523C63.3541 28.7072 63.1554 28.5085 62.9103 28.5085Z" fill="#BFA774"/>
<path d="M45.1575 28.9523C45.1575 28.7072 45.3562 28.5085 45.6013 28.5085H42.4946C42.2495 28.5085 42.0508 28.7072 42.0508 28.9523C42.0508 34.8258 46.8292 39.604 52.7024 39.604C53.2301 39.604 53.7487 39.5648 54.2558 39.4904C49.1161 38.7361 45.1575 34.2981 45.1575 28.9523Z" fill="#AF9151"/>
<path d="M52.7022 13.2206C51.7474 12.8862 50.7089 13.2279 49.8397 14.1372C49.5099 13.6947 48.9573 13.1295 48.2291 13.0197C47.5833 12.9221 46.9553 13.1876 46.3628 13.8081C45.0992 15.1313 44.7889 17.1449 45.4654 19.631C45.9712 21.4889 46.9046 23.1781 47.3766 23.8831C48.0089 24.8283 48.9573 25.4013 49.8542 25.4013C49.9431 25.4013 50.0313 25.3957 50.1188 25.3844C50.7778 25.2982 51.6783 24.8606 52.2246 23.2654C52.2889 23.0778 52.4203 22.7295 52.5865 22.2885C53.4798 19.9197 54.4361 17.301 54.4751 16.2072C54.5252 14.8097 53.8126 13.6093 52.7022 13.2206Z" fill="#7CBC59"/>
<path d="M49.5957 23.4397C49.1239 22.7345 48.1903 21.0455 47.6848 19.1876C47.008 16.7016 47.3183 14.6879 48.5819 13.3647C48.6417 13.3021 48.7018 13.2442 48.7622 13.1889C48.5969 13.1085 48.4192 13.0483 48.2291 13.0197C47.5833 12.9222 46.9553 13.1874 46.3628 13.8081C45.0992 15.1313 44.7889 17.1449 45.4654 19.631C45.9712 21.4889 46.9046 23.1779 47.3766 23.8831C48.009 24.8283 48.9573 25.4013 49.8542 25.4013C49.9431 25.4013 50.0313 25.3957 50.1188 25.3842C50.4716 25.3383 50.8938 25.1911 51.2936 24.8195C50.656 24.5965 50.046 24.1126 49.5957 23.4397Z" fill="#5BAB30"/>
<path d="M50.1182 25.3844C50.1821 25.376 50.2482 25.3643 50.316 25.3487C49.1545 22.2205 49.9036 16.2131 50.2879 13.7298C50.1344 13.8497 49.9843 13.9853 49.8391 14.1373C49.721 13.9786 49.5736 13.8044 49.4002 13.6408C49.0099 16.1427 48.2911 21.9474 49.3781 25.3491C49.537 25.3834 49.696 25.4013 49.8538 25.4013C49.9424 25.4013 50.0309 25.3957 50.1182 25.3844Z" fill="#A6CA3C"/>
<path d="M51.7687 30.7277C51.7085 30.7277 51.6473 30.7154 51.5886 30.6894C51.3648 30.5899 51.2638 30.3275 51.3632 30.1036C51.3979 30.0254 54.8096 22.2252 52.6906 17.1399C51.7672 14.9234 50.087 14.5899 50.0162 14.5767C49.7745 14.5353 49.6135 14.3062 49.6549 14.0646C49.6965 13.823 49.9271 13.6609 50.1687 13.7023C50.2589 13.7179 52.3907 14.1118 53.51 16.7984C54.4667 19.0942 54.5302 22.0969 53.6994 25.7229C53.0865 28.3968 52.2114 30.3808 52.1744 30.464C52.1009 30.6294 51.9386 30.7277 51.7687 30.7277Z" fill="#7AA110"/>
<path d="M55.3647 29.3961C55.1196 29.3961 54.9209 29.1974 54.9209 28.9523C54.9209 26.6524 54.9749 24.2504 55.3662 22.2647C55.8846 19.6343 56.9294 18.3006 58.4715 18.3006C59.2858 18.3006 59.9618 18.5886 60.4808 19.1571C61.8346 20.6393 61.5877 23.5437 61.5765 23.6666C61.5544 23.9108 61.3389 24.0907 61.0943 24.0683C60.8503 24.0462 60.6704 23.8306 60.6925 23.5866C60.6947 23.5604 60.9144 20.9464 59.8244 19.7545C59.4759 19.3736 59.0334 19.1883 58.4715 19.1883C55.8085 19.1883 55.8085 26.0304 55.8085 28.9523C55.8085 29.1974 55.6098 29.3961 55.3647 29.3961Z" fill="#7AA110"/>
<path d="M66.8626 26.8004C66.6591 24.2317 65.6865 22.4415 64.05 21.6232C63.2826 21.2394 62.6021 21.2022 62.0272 21.512C61.379 21.8616 61.0498 22.5802 60.889 23.1083C59.7637 22.5462 58.6708 22.5754 57.8852 23.2128C56.9716 23.9543 56.7066 25.3248 57.226 26.6233C57.6326 27.6395 59.4176 29.781 61.0589 31.7084C61.3645 32.0671 61.6059 32.3505 61.7297 32.5055C62.5681 33.5532 63.3697 33.8352 63.9893 33.8352C64.1481 33.8352 64.2953 33.8168 64.4279 33.7877C65.3842 33.579 66.1982 32.6606 66.5014 31.4481C66.707 30.6251 67.0147 28.7198 66.8626 26.8004Z" fill="#7CBC59"/>
<path d="M65.4973 33.0505C64.8776 33.0505 64.0762 32.7685 63.2377 31.7205C63.1138 31.5656 62.8726 31.2821 62.567 30.9235C60.9257 28.9961 59.1404 26.8546 58.7339 25.8384C58.2771 24.6964 58.4274 23.4986 59.0919 22.7221C58.645 22.7663 58.2346 22.9293 57.8852 23.2128C56.9716 23.9541 56.7066 25.3248 57.226 26.6233C57.6326 27.6395 59.4176 29.7808 61.0589 31.7082C61.3645 32.067 61.6059 32.3505 61.7297 32.5052C62.5681 33.5532 63.3697 33.8352 63.9893 33.8352C64.1481 33.8352 64.2953 33.8167 64.4279 33.7877C64.8867 33.6876 65.3125 33.4236 65.6651 33.0427C65.6107 33.0472 65.555 33.0505 65.4973 33.0505Z" fill="#5BAB30"/>
<path d="M63.7867 33.825C63.8563 33.8319 63.9241 33.8352 63.9898 33.8352C64.1486 33.8352 64.2958 33.8167 64.4282 33.7877C64.5109 33.7697 64.5924 33.7461 64.6728 33.7177C64.6427 32.8615 64.5387 31.1276 64.1779 29.2034C63.5821 26.0252 62.5669 23.7602 61.1559 22.4514C61.0371 22.6775 60.9509 22.9068 60.8895 23.1083C60.6793 23.0032 60.47 22.9187 60.2637 22.8552C63.2887 25.2279 63.7243 32.0061 63.7867 33.825Z" fill="#BCD76D"/>
<path d="M51.3697 32.826C51.148 32.826 50.9566 32.6604 50.9296 32.435C50.9261 32.4075 50.5908 29.6458 49.9377 26.8169C48.7867 21.8336 47.6646 20.9631 47.2353 20.8201C46.6842 20.6363 46.2317 20.663 45.8523 20.9014C44.9289 21.4811 44.7113 23.1014 44.7094 23.1176C44.6782 23.3606 44.4558 23.5326 44.2133 23.5019C43.9704 23.4711 43.7983 23.2498 43.8287 23.0069C43.8391 22.9237 44.0985 20.9575 45.3773 20.1515C45.9877 19.7667 46.7072 19.7084 47.5162 19.978C48.795 20.4042 49.8705 22.578 50.8041 26.6238C51.4674 29.4986 51.8074 32.3013 51.8109 32.3295C51.8399 32.5729 51.6664 32.7937 51.423 32.8229C51.405 32.8249 51.3872 32.826 51.3697 32.826Z" fill="#7AA110"/>
<path d="M47.518 22.3252C46.7327 21.6878 45.6396 21.6586 44.5142 22.2207C44.3537 21.6926 44.0243 20.9738 43.3763 20.6244C42.8014 20.3145 42.1207 20.3518 41.3533 20.7356C39.7168 21.5539 38.7442 23.3441 38.5407 25.9128C38.3888 27.8322 38.6965 29.7373 38.9021 30.5603C39.2053 31.773 40.0193 32.6914 40.9756 32.9001C41.1082 32.9289 41.2552 32.9476 41.4142 32.9476C42.0338 32.9476 42.8354 32.6656 43.6736 31.6176C43.7976 31.4627 44.039 31.1795 44.3446 30.8206C45.9857 28.8932 47.7709 26.7517 48.1775 25.7355C48.6967 24.4372 48.4319 23.0665 47.518 22.3252Z" fill="#7CBC59"/>
<path d="M40.6775 31.0034C40.4716 30.1804 40.1639 28.275 40.3161 26.3557C40.5195 23.787 41.4921 21.9968 43.1287 21.1785C43.3558 21.0649 43.5751 20.9826 43.7864 20.9297C43.6664 20.812 43.5305 20.7076 43.3762 20.6244C42.8015 20.3145 42.1208 20.352 41.3534 20.7355C39.7169 21.5538 38.7443 23.3441 38.5408 25.9127C38.3886 27.8323 38.6964 29.7374 38.9022 30.5605C39.2054 31.7729 40.0192 32.6914 40.9757 32.9C41.1083 32.9289 41.2553 32.9475 41.4141 32.9475C41.5489 32.9475 41.6922 32.9341 41.8425 32.9026C41.3019 32.4781 40.878 31.8052 40.6775 31.0034Z" fill="#5BAB30"/>
<path d="M45.1413 21.9671C44.9346 22.0308 44.725 22.1153 44.5141 22.2206C44.4628 22.052 44.3941 21.8639 44.3035 21.6748C43.9713 22.2724 40.7896 28.1197 40.6875 32.814C40.7818 32.8498 40.878 32.8788 40.9755 32.9C41.1081 32.9291 41.2551 32.9475 41.4139 32.9475C41.4657 32.9475 41.5188 32.9453 41.5732 32.9412C41.6245 28.308 45.0633 22.1344 45.1001 22.0687C45.1185 22.036 45.1318 22.0018 45.1413 21.9671Z" fill="#A6CA3C"/>
<path d="M55.4919 27.0968C54.8994 26.4763 54.2716 26.2111 53.6256 26.3084C52.8975 26.4183 52.3449 26.9834 52.015 27.4262C51.146 26.5169 50.1073 26.1749 49.1525 26.5093C48.0421 26.8983 47.3296 28.0986 47.3794 29.4962C47.4186 30.5899 48.3748 33.2086 49.268 35.5772C49.4345 36.0185 49.5658 36.3667 49.6299 36.5544C50.1765 38.1496 51.0767 38.5871 51.7359 38.6731C51.8232 38.6846 51.9114 38.6903 52.0003 38.6903C52.8972 38.6903 53.8456 38.1171 54.4781 37.172C54.9499 36.4668 55.8835 34.7778 56.3891 32.92C57.0658 30.4337 56.7555 28.42 55.4919 27.0968Z" fill="#7CBC59"/>
<path d="M51.3641 36.1366C51.2997 35.949 51.1684 35.6007 51.0019 35.1597C50.1089 32.7909 49.1525 30.1722 49.1133 29.0784C49.0734 27.9598 49.5222 26.9679 50.2725 26.417C49.8963 26.3527 49.5183 26.3813 49.1525 26.5094C48.0419 26.8981 47.3294 28.0985 47.3794 29.4963C47.4184 30.59 48.3748 33.2087 49.268 35.5773C49.4343 36.0183 49.5658 36.3668 49.63 36.5545C50.1763 38.1497 51.0767 38.5872 51.7357 38.6732C51.8233 38.6847 51.9115 38.6903 52.0003 38.6903C52.471 38.6903 52.956 38.5321 53.4018 38.2454C52.7499 38.1384 51.8917 37.6779 51.3641 36.1366Z" fill="#5BAB30"/>
<path d="M51.3711 38.5913C51.4977 38.632 51.6201 38.6583 51.7352 38.6732C51.8227 38.6847 51.9109 38.6903 51.9998 38.6903C52.086 38.6903 52.1727 38.6847 52.2596 38.6743C53.0974 34.3867 52.4978 28.6507 52.306 27.0767C52.1952 27.1948 52.0975 27.3144 52.0143 27.426C51.8134 27.2158 51.6032 27.0364 51.3873 26.8882C51.4961 27.7338 52.2676 34.1195 51.3711 38.5913Z" fill="#A6CA3C"/>
<path d="M164.741 30.8782L171.144 30.3953L177.351 30.8782L176.121 37.9963C176.021 38.5764 175.518 39.0001 174.93 39.0001H167.162C166.573 39.0001 166.07 38.5764 165.97 37.9963L164.741 30.8782Z" fill="#C86D36"/>
<path d="M166.439 30.8781L167.418 36.5475C167.518 37.1275 168.022 37.5512 168.61 37.5512H176.198L176.121 37.9962C176.021 38.5762 175.518 38.9999 174.929 38.9999H167.162C166.573 38.9999 166.07 38.5762 165.97 37.9962L164.74 30.8781L165.496 30.3952L166.439 30.8781Z" fill="#AC5E2E"/>
<path d="M170.046 22.0579C170.046 22.0579 172.937 22.4392 173.999 19.5698C174.785 17.4465 176.245 16.0323 176.951 15.4405C177.091 15.3231 177.014 15.0957 176.832 15.0867C174.87 14.9896 168.152 15.1451 170.046 22.0579Z" fill="#02905D"/>
<path d="M169.911 27.2796C169.911 27.2796 173.865 28.2011 175.727 24.3703C177.104 21.5355 179.319 19.7749 180.378 19.0511C180.588 18.9076 180.512 18.582 180.261 18.5447C177.556 18.1434 168.228 17.4452 169.911 27.2796Z" fill="#97D729"/>
<path d="M172.351 22.115C172.351 22.115 169.452 22.4365 168.45 19.5458C167.708 17.4067 166.278 15.9627 165.584 15.3564C165.446 15.2362 165.528 15.0104 165.71 15.0051C167.674 14.9485 174.388 15.2427 172.351 22.115Z" fill="#57BE92"/>
<path d="M172.429 28.4119C172.429 28.4119 168.128 28.8298 166.701 24.5263C165.645 21.3416 163.554 19.1732 162.538 18.2608C162.337 18.0799 162.462 17.7469 162.733 17.7428C165.643 17.6986 175.585 18.2699 172.429 28.4119Z" fill="#BBEC6C"/>
<path d="M171.144 29.1628C171.144 29.1628 171.105 25.7167 174.621 24.8759C177.222 24.2537 179.087 22.74 179.881 21.995C180.039 21.8473 180.295 21.9697 180.28 22.1851C180.117 24.5002 178.987 32.3599 171.144 29.1628Z" fill="#09A76D"/>
<path d="M172.865 29.7389C172.865 29.7389 172.914 25.4981 168.587 24.4634C165.385 23.6977 163.09 21.835 162.113 20.9182C161.919 20.7364 161.604 20.887 161.623 21.152C161.823 24.001 163.214 33.6732 172.865 29.7389Z" fill="#57BE92"/>
<path d="M164.281 30.8781H177.812C177.89 30.8781 177.953 30.8148 177.953 30.7368V28.7598C177.953 28.6818 177.89 28.6185 177.812 28.6185H164.281C164.203 28.6185 164.14 28.6818 164.14 28.7598V30.7368C164.14 30.8149 164.203 30.8781 164.281 30.8781Z" fill="#E19974"/>
<path d="M164.283 28.6185H166.606C166.526 28.6185 166.461 28.6837 166.461 28.7641V30.7326C166.461 30.8129 166.526 30.8781 166.606 30.8781H164.283C164.203 30.8781 164.138 30.8129 164.138 30.7326V28.7641C164.138 28.6837 164.203 28.6185 164.283 28.6185Z" fill="#DC8758"/>
<path d="M159.438 16.9651C158.588 17.155 157.785 17.4952 157.136 17.8277C157.07 19.5715 156.677 21.5784 155.557 23.4456H157.541C159.656 21.7526 160.117 18.9735 160.213 17.6229C160.243 17.1988 159.853 16.8724 159.438 16.9651Z" fill="#6DC82A"/>
<path d="M157.136 17.8276C157.07 19.5714 156.677 21.5783 155.557 23.4456H156.659C157.888 21.3974 158.242 19.1813 158.249 17.3286C157.847 17.4826 157.471 17.656 157.136 17.8276Z" fill="#67AF28"/>
<path d="M139.393 16.9945C138.914 16.8787 138.461 17.2692 138.503 17.7599C138.62 19.1541 139.118 21.8079 141.164 23.4457H143.148C142.027 21.5783 141.635 19.5716 141.569 17.8278C140.952 17.5117 140.196 17.1888 139.393 16.9945Z" fill="#67AF28"/>
<path d="M139.591 17.7599C139.57 17.5005 139.687 17.2701 139.872 17.1267C139.715 17.0782 139.555 17.0337 139.393 16.9945C138.914 16.8787 138.461 17.2692 138.503 17.7599C138.62 19.1541 139.118 21.8079 141.164 23.4457H142.253C140.207 21.8078 139.709 19.1541 139.591 17.7599Z" fill="#5E9B24"/>
<path d="M155.958 13.3556C154.417 13.9935 153.344 15.0319 152.699 15.8204C153.269 17.057 153.587 18.4332 153.587 19.884C153.587 21.1412 153.349 22.3427 152.914 23.4456H155.612C157.851 19.7152 157.187 15.4274 156.81 13.7937C156.723 13.4154 156.317 13.2071 155.958 13.3556Z" fill="#8DCE55"/>
<path d="M153.432 15.0263C153.145 15.3022 152.901 15.5736 152.699 15.8204C153.269 17.0569 153.587 18.4332 153.587 19.884C153.587 21.1412 153.349 22.3426 152.914 23.4455H154.058C154.492 22.3426 154.731 21.1412 154.731 19.884C154.731 18.1145 154.258 16.4555 153.432 15.0263Z" fill="#6DC82A"/>
<path d="M146.006 15.8206C145.368 15.04 144.31 14.0144 142.794 13.3749C142.412 13.2139 141.975 13.4398 141.884 13.844C141.506 15.514 140.877 19.7529 143.093 23.4456H145.791C145.357 22.3427 145.118 21.1413 145.118 19.8841C145.118 18.4334 145.436 17.0571 146.006 15.8206Z" fill="#8DCE55"/>
<path d="M142.98 13.8439C143.008 13.7229 143.067 13.6183 143.145 13.5348C143.031 13.4795 142.914 13.4256 142.794 13.3748C142.412 13.2138 141.975 13.4397 141.884 13.8439C141.506 15.5139 140.877 19.7528 143.093 23.4455H144.19C141.974 19.7529 142.602 15.514 142.98 13.8439Z" fill="#6DC82A"/>
<path d="M157.288 26.4894C157.13 26.4894 141.711 26.4894 141.418 26.4894C140.175 28.7995 140.13 31.5791 141.298 33.929L143.204 37.7658C143.58 38.5228 144.345 39.0005 145.183 39.0005H149.122H149.583H153.523C154.36 39.0005 155.126 38.5228 155.502 37.7658L157.408 33.929C158.575 31.579 158.53 28.7994 157.288 26.4894Z" fill="#996459"/>
<path d="M144.32 37.7657L142.414 33.9289C141.247 31.579 141.292 28.7994 142.535 26.4893H141.418C140.175 28.7994 140.13 31.579 141.298 33.9289L143.204 37.7657C143.58 38.5227 144.345 39.0004 145.183 39.0004H146.299C145.462 39.0004 144.696 38.5227 144.32 37.7657Z" fill="#7E5C62"/>
<path d="M149.823 12.1598C149.545 11.9469 149.16 11.9469 148.882 12.1598C146.56 13.9364 145.063 16.7354 145.063 19.8841C145.063 21.1413 145.302 22.3427 145.737 23.4457H152.968C153.402 22.3427 153.641 21.1413 153.641 19.8841C153.641 16.7354 152.144 13.9363 149.823 12.1598Z" fill="#D0EF6F"/>
<path d="M149.897 12.2178C149.872 12.1986 149.848 12.1787 149.823 12.1597C149.545 11.9468 149.16 11.9468 148.881 12.1597C146.56 13.9363 145.063 16.7353 145.063 19.884C145.063 21.1412 145.302 22.3427 145.737 23.4456H146.825C146.391 22.3427 146.152 21.1412 146.152 19.884C146.152 16.7691 147.618 13.997 149.897 12.2178Z" fill="#B5EF14"/>
<path d="M150.966 20.0447L149.757 20.9019V19.0868L151.438 17.8944C151.622 17.7639 151.665 17.5091 151.535 17.3251C151.404 17.1413 151.149 17.0978 150.965 17.2283L149.757 18.0856V16.1588C149.757 15.9333 149.574 15.7505 149.349 15.7505C149.123 15.7505 148.94 15.9333 148.94 16.1588V18.0838L147.734 17.2283C147.551 17.0979 147.296 17.1413 147.165 17.3251C147.035 17.5091 147.078 17.7639 147.262 17.8944L148.94 19.085V20.9001L147.734 20.0447C147.55 19.9142 147.296 19.9576 147.165 20.1415C147.035 20.3254 147.078 20.5802 147.262 20.7107L148.94 21.9013V23.8671C148.94 24.0926 149.123 24.2754 149.349 24.2754C149.574 24.2754 149.757 24.0926 149.757 23.8671V21.9031L151.438 20.7107C151.622 20.5802 151.665 20.3253 151.535 20.1414C151.404 19.9576 151.149 19.9141 150.966 20.0447Z" fill="#AEDB75"/>
<path d="M158.605 25.6823V24.3457C158.605 23.8185 158.178 23.3911 157.651 23.3911H141.056C140.529 23.3911 140.102 23.8185 140.102 24.3457V25.6823C140.102 26.2095 140.529 26.6369 141.056 26.6369H157.651C158.178 26.6369 158.605 26.2096 158.605 25.6823Z" fill="#CC905E"/>
<path d="M157.651 25.0685H141.056C140.568 25.0685 140.167 24.7023 140.109 24.2299C140.105 24.2679 140.102 24.3065 140.102 24.3458V25.6823C140.102 26.2096 140.529 26.637 141.056 26.637H157.651C158.178 26.637 158.605 26.2096 158.605 25.6823V24.3458C158.605 24.3065 158.602 24.2679 158.598 24.2299C158.54 24.7022 158.139 25.0685 157.651 25.0685Z" fill="#BA7958"/>
<path d="M196.044 28.5945C197.172 27.9608 198.416 27.541 199.712 27.3644C199.82 27.3497 199.894 27.4707 199.831 27.5601C199.167 28.5081 198.353 29.3323 197.426 30.0037L191.426 32.6448L191.179 31.1866L196.044 28.5945Z" fill="#68CA44"/>
<path d="M194.553 30.0037C196.44 28.4861 197.865 26.4652 198.658 24.1704C198.703 24.0418 198.573 23.922 198.448 23.9766C196.634 24.7724 195.036 25.9724 193.77 27.4748L189.936 31.8398L190.654 32.0264L194.553 30.0037Z" fill="#80D261"/>
<path d="M192.157 30.0037L193.577 27.7867C194.974 25.6054 195.682 23.0538 195.608 20.4646C195.604 20.3286 195.44 20.2624 195.343 20.3576C193.727 21.9396 192.561 23.9143 191.952 26.0799L189.936 31.8398L190.654 32.0265L192.157 30.0037Z" fill="#97DA7B"/>
<path d="M191.218 30.0037L191.885 26.4554C192.464 23.3798 192.103 19.9804 190.849 17.1129C190.783 16.9624 190.57 16.9624 190.504 17.1129C189.25 19.9804 188.889 23.3798 189.468 26.4554L190.136 30.0037L190.434 31.1866H191.09L191.218 30.0037Z" fill="#ADE194"/>
<path d="M189.198 30.0037L187.778 27.7867C186.381 25.6054 185.673 23.0538 185.747 20.4646C185.751 20.3286 185.915 20.2624 186.012 20.3576C187.628 21.9396 188.794 23.9143 189.403 26.0799L191.273 32.887H190.496L189.198 30.0037Z" fill="#97DA7B"/>
<path d="M185.309 28.5945C184.181 27.9608 182.937 27.541 181.641 27.3644C181.533 27.3497 181.459 27.4707 181.522 27.5601C182.186 28.5081 183.001 29.3323 183.928 30.0037L189.796 33.8788L190.181 32.7852L185.309 28.5945Z" fill="#68CA44"/>
<path d="M186.802 30.0037C184.914 28.4861 183.49 26.4652 182.696 24.1704C182.652 24.0418 182.782 23.922 182.906 23.9766C184.72 24.7724 186.319 25.9724 187.585 27.4748L190.936 31.8398H189.403L186.802 30.0037Z" fill="#80D261"/>
<path d="M182.487 30.5351L182.841 31.8398L183.605 37.4246C183.728 38.3274 184.499 39.0004 185.411 39.0004H195.899C196.81 39.0004 197.581 38.3274 197.705 37.4246L198.469 31.8398L198.88 30.5351H182.487Z" fill="#F3F0F3"/>
<path d="M198.88 30.5351H182.487L182.841 31.8398L183.605 37.4246C183.728 38.3274 184.499 39.0004 185.411 39.0004H188.613C188.25 38.7167 187.995 38.2974 187.929 37.8113L187.579 35.2537C187.412 34.0318 188.362 32.9434 189.595 32.9434H198.318L198.469 31.8399L198.758 30.9218L198.88 30.5351Z" fill="#E2DEE2"/>
<path d="M198.734 30.0037H182.577C182.253 30.0037 181.991 30.2657 181.991 30.589V31.2545C181.991 31.4023 182.046 31.5369 182.137 31.6399L185.124 31.7149L186.902 31.8398H198.734C199.057 31.8398 199.319 31.5777 199.319 31.2545V30.589C199.319 30.2657 199.057 30.0037 198.734 30.0037Z" fill="#F3F0F3"/>
<path d="M186.317 31.2545V30.589C186.317 30.2657 186.579 30.0037 186.902 30.0037H182.577C182.253 30.0037 181.991 30.2657 181.991 30.589V31.2545C181.991 31.5778 182.253 31.8398 182.577 31.8398H186.902C186.579 31.8398 186.317 31.5777 186.317 31.2545Z" fill="#E2DEE2"/>
<path d="M190.849 17.1129C190.783 16.9624 190.57 16.9624 190.504 17.1129C190.449 17.2381 190.397 17.3646 190.346 17.4917V24.4644C190.346 24.6472 190.494 24.7954 190.677 24.7954C190.86 24.7954 191.008 24.6472 191.008 24.4644V17.4917C190.956 17.3646 190.904 17.2381 190.849 17.1129Z" fill="#97DA7B"/>
<path d="M186.012 20.3576C185.915 20.2624 185.751 20.3286 185.747 20.4646C185.743 20.6285 185.741 20.7923 185.743 20.9559L187.782 26.008C187.834 26.1369 187.958 26.2152 188.089 26.2152C188.13 26.2152 188.172 26.2074 188.213 26.1911C188.382 26.1226 188.464 25.9297 188.396 25.7601L186.357 20.7089C186.245 20.5898 186.13 20.4726 186.012 20.3576Z" fill="#80D261"/>
<path d="M195.607 20.4646C195.603 20.3287 195.439 20.2625 195.342 20.3577C195.225 20.4726 195.11 20.5899 194.998 20.7089L192.959 25.7602C192.89 25.9298 192.972 26.1226 193.142 26.1911C193.182 26.2075 193.224 26.2153 193.266 26.2153C193.397 26.2153 193.521 26.137 193.573 26.0081L195.612 20.9559C195.613 20.7923 195.612 20.6285 195.607 20.4646Z" fill="#80D261"/>
<path d="M196.662 40H4.3382C2.21919 40 0.5 39.776 0.5 39.5C0.5 39.224 2.21919 39 4.3382 39H196.662C198.783 39 200.5 39.224 200.5 39.5C200.5 39.776 198.783 40 196.662 40Z" fill="#7F441C"/>
</g>
<defs>
<clipPath id="clip0_6120_59324">
<rect width="200" height="40" fill="white" transform="translate(0.5)"/>
</clipPath>
</defs>
</svg>
