<svg width="41" height="40" viewBox="0 0 41 40" fill="none" xmlns="http://www.w3.org/2000/svg">
<path d="M34.6222 4.17969V35.8203C34.6222 38.125 32.7503 40 30.4496 40H12.6697C10.369 40 8.49707 38.125 8.49707 35.8203V4.17969C8.49707 1.875 10.369 0 12.6697 0H30.4496C32.7503 0 34.6222 1.875 34.6222 4.17969Z" fill="#678D98"/>
<path d="M34.6222 4.17969V35.8203C34.6222 38.125 32.7503 40 30.4496 40H28.8877C31.1884 40 33.0604 38.125 33.0604 35.8203V4.17969C33.0604 1.875 31.1884 0 28.8877 0H30.4496C32.7503 0 34.6222 1.875 34.6222 4.17969Z" fill="#537983"/>
<path d="M32.2826 4.08281V35.9172C32.2826 36.9406 31.4517 37.7734 30.4294 37.7734H12.6901C11.6679 37.7734 10.8369 36.9406 10.8369 35.9172V4.08281C10.8369 3.05937 11.6679 2.22656 12.6901 2.22656H14.5418C14.7956 2.22656 15.0213 2.39063 15.0993 2.63281L15.5578 4.05703C15.6718 4.41094 15.9967 4.64844 16.3676 4.64844H26.7519C27.1221 4.64844 27.4478 4.41094 27.5618 4.05703L28.0202 2.63281C28.0983 2.39063 28.3232 2.22656 28.5778 2.22656H30.4294C31.4517 2.22656 32.2826 3.05937 32.2826 4.08281Z" fill="#EAF6FF"/>
<path d="M32.2823 4.08281V35.9172C32.2823 36.9406 31.4513 37.7734 30.4291 37.7734H28.8672C29.8895 37.7734 30.7204 36.9406 30.7204 35.9172V4.08281C30.7204 3.05937 29.8895 2.22656 28.8672 2.22656H30.4291C31.4513 2.22656 32.2823 3.05937 32.2823 4.08281Z" fill="#D8ECFE"/>
<path d="M24.7312 1.71759H18.3875C18.0639 1.71759 17.8018 1.97993 17.8018 2.30353C17.8018 2.62712 18.064 2.88947 18.3875 2.88947H24.7312C25.0547 2.88947 25.3169 2.62712 25.3169 2.30353C25.3169 1.97993 25.0546 1.71759 24.7312 1.71759Z" fill="#537983"/>
<path d="M24.7312 33.9626H18.3875C18.0639 33.9626 17.8018 34.225 17.8018 34.5486C17.8018 34.8722 18.064 35.1345 18.3875 35.1345H24.7312C25.0547 35.1345 25.3169 34.8722 25.3169 34.5486C25.3169 34.225 25.0546 33.9626 24.7312 33.9626Z" fill="#82AEE3"/>
<path d="M23.7174 10.3102V17.143C23.7174 18.1469 22.901 18.9641 21.8963 18.9641H5.68848C4.68457 18.9641 3.86816 18.1469 3.86816 17.143V10.3102C3.86816 9.30548 4.68457 8.48907 5.68848 8.48907H21.8963C22.901 8.48907 23.7174 9.30548 23.7174 10.3102Z" fill="#FC502A"/>
<path d="M23.7176 10.3102V17.143C23.7176 18.1469 22.9012 18.9641 21.8965 18.9641H20.334C21.3387 18.9641 22.1551 18.1469 22.1551 17.143V10.3102C22.1551 9.30548 21.3387 8.48907 20.334 8.48907H21.8965C22.9012 8.48907 23.7176 9.30548 23.7176 10.3102Z" fill="#E60D28"/>
<path d="M9.14258 15.4964H7.38477V11.3948C7.38477 11.0712 7.12242 10.8089 6.79883 10.8089C6.47523 10.8089 6.21289 11.0712 6.21289 11.3948V16.0823C6.21289 16.4059 6.47523 16.6683 6.79883 16.6683H9.14258C9.46617 16.6683 9.72852 16.4059 9.72852 16.0823C9.72852 15.7587 9.46625 15.4964 9.14258 15.4964Z" fill="white"/>
<path d="M11.4082 10.8089C11.0846 10.8089 10.8223 11.0712 10.8223 11.3948V16.0823C10.8223 16.4059 11.0846 16.6683 11.4082 16.6683C11.7318 16.6683 11.9941 16.4059 11.9941 16.0823V11.3948C11.9941 11.0712 11.7319 10.8089 11.4082 10.8089Z" fill="white"/>
<path d="M16.238 10.8264C15.9246 10.7479 15.6059 10.9387 15.5274 11.2527L14.924 13.6665L14.3205 11.2527C14.242 10.9387 13.9237 10.7478 13.61 10.8264C13.296 10.9048 13.1051 11.223 13.1837 11.5369L14.3555 16.2244C14.4207 16.4853 14.6551 16.6683 14.924 16.6683C15.1929 16.6683 15.4272 16.4853 15.4924 16.2244L16.6643 11.5369C16.7428 11.223 16.5519 10.9049 16.238 10.8264Z" fill="white"/>
<path d="M20.7832 14.3245C21.1068 14.3245 21.3691 14.0622 21.3691 13.7386C21.3691 13.415 21.1068 13.1526 20.7832 13.1526H19.0254V11.9808H20.7832C21.1068 11.9808 21.3691 11.7184 21.3691 11.3948C21.3691 11.0712 21.1068 10.8089 20.7832 10.8089H18.4395C18.1159 10.8089 17.8535 11.0712 17.8535 11.3948V16.0823C17.8535 16.4059 18.1159 16.6683 18.4395 16.6683H20.7832C21.1068 16.6683 21.3691 16.4059 21.3691 16.0823C21.3691 15.7587 21.1068 15.4964 20.7832 15.4964H19.0254V14.3245H20.7832Z" fill="white"/>
<path d="M37.798 26.3601C37.7973 27.0898 37.5129 27.7757 36.9965 28.2921L33.1355 32.153C33.059 32.2296 32.959 32.2679 32.8598 32.2679C32.7598 32.2679 32.6598 32.2296 32.5832 32.153L28.7223 28.2921C27.6559 27.2265 27.6551 25.4929 28.7199 24.4288C29.784 23.364 31.5176 23.3648 32.5832 24.4312L32.8598 24.707L33.1355 24.4312C33.4676 24.0984 33.866 23.8695 34.2879 23.7437C35.2184 23.4679 36.2668 23.696 36.9988 24.4288C37.5152 24.9445 37.7988 25.6304 37.798 26.3601Z" fill="#FC502A"/>
<path d="M36.9984 24.4288C37.5148 24.9445 37.7984 25.6304 37.7977 26.3601C37.7969 27.0898 37.5125 27.7757 36.9961 28.2921L33.1352 32.153C33.0586 32.2296 32.9586 32.2679 32.8594 32.2679C36.2352 28.1351 36.2344 27.0898 36.2352 26.3601C36.2359 25.6304 35.9523 24.9445 35.4359 24.4288C35.1047 24.0968 34.7086 23.8687 34.2875 23.7437C35.218 23.4679 36.2664 23.696 36.9984 24.4288Z" fill="#E60D28"/>
<path d="M37.7982 17.8046C37.7982 18.3624 37.5803 18.8866 37.1857 19.2812L34.3873 22.0796C34.3139 22.1531 34.2146 22.1945 34.1107 22.1945C34.0076 22.1945 33.9084 22.1531 33.835 22.0796L31.0365 19.2812C30.2217 18.4663 30.2209 17.1421 31.0342 16.3288C31.8482 15.5156 33.1725 15.5156 33.9873 16.3304L34.1107 16.4546L34.235 16.3304C34.4404 16.1257 34.6771 15.9718 34.9311 15.8702C35.6842 15.5671 36.5787 15.7195 37.1873 16.3288C37.5818 16.7226 37.799 17.2468 37.7982 17.8046Z" fill="#FFC344"/>
<path d="M37.1869 16.3288C37.5814 16.7226 37.7986 17.2468 37.7979 17.8046C37.7979 18.3624 37.5799 18.8866 37.1854 19.2812L34.3869 22.0796C34.3135 22.1531 34.2143 22.1945 34.1104 22.1945C36.3971 18.957 36.2354 18.3624 36.2354 17.8046C36.2361 17.2468 36.0189 16.7226 35.6244 16.3288C35.4205 16.1241 35.1838 15.971 34.9307 15.8702C35.6838 15.5671 36.5783 15.7195 37.1869 16.3288Z" fill="#FEB237"/>
<path d="M17.3455 30.9595H15.4922V28.325C15.4922 28.0014 15.2299 27.7391 14.9062 27.7391C14.5826 27.7391 14.3203 28.0014 14.3203 28.325V31.5455C14.3203 31.8691 14.5826 32.1314 14.9062 32.1314H17.3455C17.6692 32.1314 17.9315 31.8691 17.9315 31.5455C17.9315 31.2219 17.6691 30.9595 17.3455 30.9595Z" fill="#82AEE3"/>
<path d="M28.2 7.81464H25.7607C25.4371 7.81464 25.1748 8.07698 25.1748 8.40057C25.1748 8.72417 25.4371 8.98651 25.7607 8.98651H27.6141V11.621C27.6141 11.9446 27.8764 12.207 28.2 12.207C28.5237 12.207 28.786 11.9446 28.786 11.621V8.40057C28.786 8.07698 28.5237 7.81464 28.2 7.81464Z" fill="#82AEE3"/>
</svg>
