<svg width="40" height="40" viewBox="0 0 40 40" fill="none" xmlns="http://www.w3.org/2000/svg">
<rect x="0.5" y="1" width="39" height="38" rx="11.5" fill="#539461"/>
<rect x="0.5" y="1" width="39" height="38" rx="11.5" stroke="#96BF9C"/>
<path fill-rule="evenodd" clip-rule="evenodd" d="M26.9997 27.2917V12.7083C26.9997 12.2442 26.8153 11.7991 26.4871 11.4709C26.1589 11.1427 25.7138 10.9583 25.2497 10.9583H8.33301C7.86888 10.9583 7.42376 11.1427 7.09557 11.4709C6.76738 11.7991 6.58301 12.2442 6.58301 12.7083V27.2917C6.58301 27.7558 6.76738 28.2009 7.09557 28.5291C7.42376 28.8573 7.86888 29.0417 8.33301 29.0417H25.2497C25.7138 29.0417 26.1589 28.8573 26.4871 28.5291C26.8153 28.2009 26.9997 27.7558 26.9997 27.2917ZM9.39227 16.5V24.06H12.7989V22.9307H11.0629V16.5H9.39227ZM13.5396 16.5V24.06H15.2103V16.5H13.5396ZM17.3456 24.06L15.9829 16.5H17.4109L18.2229 21.6333L18.9789 16.5H20.4909L19.1096 24.06H17.3456ZM21.2503 16.5V24.06H24.6663V22.9307H22.921V20.672H24.237V19.5147H22.921V17.6387H24.6477V16.5H21.2503Z" fill="white"/>
<path d="M32.9666 13.8914C33.0915 13.8684 33.22 13.8721 33.3434 13.9023C33.5313 13.9509 33.6978 14.0605 33.8166 14.2139C33.9354 14.3674 33.9998 14.5559 33.9997 14.75V25.215C34.0023 25.3709 33.9649 25.5249 33.8909 25.6622C33.817 25.7995 33.7091 25.9156 33.5775 25.9992C33.4352 26.0853 33.2714 26.129 33.1052 26.1253C32.9391 26.1216 32.7773 26.0707 32.6391 25.9784L28.9444 23.5153C28.8844 23.4753 28.8353 23.4212 28.8013 23.3576C28.7674 23.2941 28.7496 23.2231 28.7497 23.1511V16.8489C28.7496 16.7769 28.7674 16.7059 28.8013 16.6424C28.8353 16.5788 28.8844 16.5247 28.9444 16.4847L32.6183 14.0358C32.7229 13.9636 32.8416 13.9144 32.9666 13.8914Z" fill="white"/>
</svg>
