<svg width="48" height="48" viewBox="0 0 48 48" fill="none" xmlns="http://www.w3.org/2000/svg">
<path d="M27.7159 18.493L16.7397 3.14264C16.0316 2.15232 14.5595 2.15232 13.8515 3.14264L2.87537 18.493C-4.3501 28.5981 2.87302 42.6426 15.2956 42.6426C27.7182 42.6426 34.9414 28.5981 27.7159 18.493Z" fill="#8ACC19"/>
<path d="M9.36436 18.493L18.5401 5.66047L16.7398 3.14264C16.0317 2.15232 14.5596 2.15232 13.8515 3.14264L2.87537 18.493C-4.3501 28.5981 2.87302 42.6426 15.2956 42.6426C16.4225 42.6426 17.5057 42.5256 18.5401 42.3079C8.17126 40.1257 2.79429 27.6815 9.36436 18.493Z" fill="#79AF10"/>
<path d="M46.5311 7.16895H37.8016C37.4031 7.16895 37.0801 7.49198 37.0801 7.8905V9.44983C37.0801 9.84835 37.4031 10.1714 37.8016 10.1714H46.5311C46.9296 10.1714 47.2526 9.84835 47.2526 9.44983V7.8906C47.2527 7.49208 46.9296 7.16895 46.5311 7.16895Z" fill="#60B8FE"/>
<path d="M23.9415 24.5699L16.0423 29.2453V24.8729L22.9342 20.7937C23.2892 20.5836 23.4067 20.1254 23.1965 19.7703C22.9864 19.4152 22.5282 19.2977 22.1731 19.5079L16.0424 23.1366V18.7641L19.467 16.7372C19.8221 16.527 19.9396 16.0688 19.7294 15.7137C19.5193 15.3588 19.0612 15.2412 18.7059 15.4513L16.0425 17.0277V11.8643C16.0425 11.4516 15.708 11.1172 15.2955 11.1172C14.8828 11.1172 14.5484 11.4517 14.5484 11.8643V17.0277L11.885 15.4513C11.5299 15.2412 11.0716 15.3586 10.8615 15.7137C10.6513 16.0688 10.7687 16.527 11.1239 16.7372L14.5484 18.7641V23.1366L8.41776 19.5079C8.06272 19.2977 7.60443 19.4152 7.39427 19.7703C7.18412 20.1254 7.30161 20.5836 7.65664 20.7937L14.5484 24.8729V29.2453L6.64926 24.57C6.29422 24.3598 5.83592 24.4772 5.62577 24.8323C5.41561 25.1875 5.53311 25.6457 5.88814 25.8558L14.5484 30.9817V35.3541L7.42892 31.1402C7.07388 30.9302 6.61559 31.0475 6.40543 31.4026C6.19528 31.7577 6.31267 32.2159 6.66781 32.4261L14.5484 37.0904V41.1347L11.885 39.5583C11.5299 39.3482 11.0716 39.4656 10.8615 39.8207C10.6513 40.1758 10.7687 40.634 11.1239 40.8442L14.5484 42.8711V45.6279C14.5484 46.0405 14.8829 46.375 15.2955 46.375C15.7081 46.375 16.0425 46.0405 16.0425 45.6279V37.0903L23.9231 32.426C24.2781 32.2158 24.3956 31.7576 24.1855 31.4025C23.9753 31.0476 23.5172 30.9299 23.162 31.1401L16.0425 35.354V30.9816L24.7028 25.8557C25.0578 25.6456 25.1753 25.1874 24.9651 24.8322C24.7548 24.4772 24.2966 24.3597 23.9415 24.5699Z" fill="#739B10"/>
<path d="M33.3712 7.65625H27.9288C27.7335 7.65625 27.5461 7.73262 27.4065 7.86915L21.0705 14.0643C20.7755 14.3527 20.7702 14.8258 21.0586 15.1208C21.205 15.2705 21.3989 15.3456 21.5929 15.3456C21.7813 15.3456 21.9698 15.2748 22.1152 15.1327L28.2334 9.1505H33.3713C33.784 9.1505 34.1185 8.81598 34.1185 8.40342C34.1185 7.99087 33.7839 7.65625 33.3712 7.65625Z" fill="#3E4B5A"/>
<path d="M37.0801 14.0752H47.2527C47.6654 14.0752 47.9998 13.7407 47.9998 13.3281C47.9998 12.9156 47.6653 12.5811 47.2527 12.5811H37.0801C36.6674 12.5811 36.333 12.9156 36.333 13.3281C36.333 13.7407 36.6674 14.0752 37.0801 14.0752Z" fill="#576574"/>
<path d="M47.2527 15.7383H37.0801C36.6674 15.7383 36.333 16.0728 36.333 16.4854C36.333 16.898 36.6675 17.2325 37.0801 17.2325H47.2527C47.6654 17.2325 47.9998 16.898 47.9998 16.4854C47.9998 16.0728 47.6653 15.7383 47.2527 15.7383Z" fill="#576574"/>
<path d="M47.2527 18.8955H37.0801C36.6674 18.8955 36.333 19.23 36.333 19.6426C36.333 20.0552 36.6675 20.3897 37.0801 20.3897H47.2527C47.6654 20.3897 47.9998 20.0551 47.9998 19.6426C47.9998 19.23 47.6653 18.8955 47.2527 18.8955Z" fill="#576574"/>
<path d="M47.2527 29.7305H37.0801C36.6674 29.7305 36.333 30.065 36.333 30.4775C36.333 30.8902 36.6675 31.2247 37.0801 31.2247H47.2527C47.6654 31.2247 47.9998 30.8902 47.9998 30.4775C47.9998 30.065 47.6653 29.7305 47.2527 29.7305Z" fill="#576574"/>
<path d="M47.2527 32.8882H37.0801C36.6674 32.8882 36.333 33.2227 36.333 33.6354C36.333 34.048 36.6675 34.3825 37.0801 34.3825H47.2527C47.6654 34.3825 47.9998 34.048 47.9998 33.6354C47.9998 33.2227 47.6653 32.8882 47.2527 32.8882Z" fill="#576574"/>
<path d="M47.2527 36.0449H37.0801C36.6674 36.0449 36.333 36.3794 36.333 36.7921C36.333 37.2048 36.6675 37.5392 37.0801 37.5392H47.2527C47.6654 37.5392 47.9998 37.2047 47.9998 36.7921C47.9998 36.3794 47.6653 36.0449 47.2527 36.0449Z" fill="#576574"/>
<path d="M46.5311 24.3184H37.8016C37.4031 24.3184 37.0801 24.6414 37.0801 25.0399V26.5992C37.0801 26.9978 37.4031 27.3208 37.8016 27.3208H46.5311C46.9296 27.3208 47.2526 26.9978 47.2526 26.5992V25.0399C47.2527 24.6414 46.9296 24.3184 46.5311 24.3184Z" fill="#FC502A"/>
<path d="M41.3908 9.44983V7.8905C41.3908 7.49198 41.7138 7.16895 42.1123 7.16895H37.8016C37.4031 7.16895 37.0801 7.49198 37.0801 7.8905V9.44983C37.0801 9.84835 37.4031 10.1714 37.8016 10.1714H42.1123C41.7138 10.1714 41.3908 9.84835 41.3908 9.44983Z" fill="#23A8FE"/>
<path d="M41.3908 26.5992V25.0399C41.3908 24.6414 41.7138 24.3184 42.1123 24.3184H37.8016C37.4031 24.3184 37.0801 24.6414 37.0801 25.0399V26.5992C37.0801 26.9978 37.4031 27.3208 37.8016 27.3208H42.1123C41.7138 27.3209 41.3908 26.9978 41.3908 26.5992Z" fill="#E60D28"/>
</svg>
