<svg width="41" height="40" viewBox="0 0 41 40" fill="none" xmlns="http://www.w3.org/2000/svg">
<path d="M22.5371 6.25H20.0371V2.5L21.2871 1.25L22.5371 2.5V6.25Z" fill="#60B7FF"/>
<path d="M15.5418 8.11195L13.7741 9.87969L11.407 7.51258C11.2498 7.35539 11.2498 7.10063 11.407 6.94352L12.6056 5.74484C12.7628 5.58766 13.0176 5.58766 13.1747 5.74484L15.5418 8.11195Z" fill="#EE6161"/>
<path d="M27.0332 8.11195L28.8009 9.87969L31.168 7.51258C31.3252 7.35539 31.3252 7.10063 31.168 6.94352L29.9694 5.74484C29.8122 5.58766 29.5574 5.58766 29.4003 5.74484L27.0332 8.11195Z" fill="#60B7FF"/>
<path d="M21.2871 26.25C27.1551 26.25 31.9121 21.493 31.9121 15.625C31.9121 9.75697 27.1551 5 21.2871 5C15.4191 5 10.6621 9.75697 10.6621 15.625C10.6621 21.493 15.4191 26.25 21.2871 26.25Z" fill="#8AC9FE"/>
<path d="M21.2871 23.75C25.7744 23.75 29.4121 20.1123 29.4121 15.625C29.4121 11.1377 25.7744 7.5 21.2871 7.5C16.7998 7.5 13.1621 11.1377 13.1621 15.625C13.1621 20.1123 16.7998 23.75 21.2871 23.75Z" fill="#EAF6FF"/>
<path d="M26.398 9.30774C27.5284 10.7036 28.2057 12.4816 28.2057 14.4177C28.2057 18.9051 24.568 22.5427 20.0807 22.5427C18.1445 22.5427 16.3666 21.8655 14.9707 20.735C16.4604 22.5742 18.7369 23.75 21.288 23.75C25.7754 23.75 29.413 20.1123 29.413 15.625C29.413 13.0738 28.2372 10.7973 26.398 9.30774Z" fill="#D8ECFE"/>
<path d="M23.3847 2.5H19.1895C18.9673 2.5 18.7871 2.31984 18.7871 2.09758V0.402422C18.7871 0.180156 18.9673 0 19.1895 0H23.3847C23.607 0 23.7871 0.180156 23.7871 0.402422V2.09758C23.7871 2.31984 23.6069 2.5 23.3847 2.5Z" fill="#C4E2FF"/>
<path d="M24.2871 18.75H38.3013C38.4805 18.75 38.5704 18.9667 38.4436 19.0935L35.0371 22.5L27.5371 23.75L20.0371 22.5L23.4335 19.1036C23.6599 18.8772 23.967 18.75 24.2871 18.75Z" fill="#ECA026"/>
<path d="M15.7871 18.75H3.98872C3.80951 18.75 3.71966 18.9667 3.84646 19.0935L7.25294 22.5L12.5371 23.75L20.0371 22.5L16.6407 19.1036C16.4143 18.8772 16.1072 18.75 15.7871 18.75Z" fill="#FEB237"/>
<path d="M34.6347 40H20.0371L18.7871 27.5L20.0371 22.5H35.0371V39.5976C35.0371 39.8198 34.8569 40 34.6347 40Z" fill="#FEB237"/>
<path d="M32.3359 37.5H28.9883C28.8772 37.5 28.7871 37.4099 28.7871 37.2988V35.2012C28.7871 35.0902 28.8772 35.0001 28.9883 35.0001H32.3359C32.447 35.0001 32.537 35.0902 32.537 35.2012V37.2988C32.5371 37.4099 32.447 37.5 32.3359 37.5Z" fill="#EAF6FF"/>
<path d="M7.65535 40H20.0371V22.5H7.25293V39.5976C7.25293 39.8198 7.43316 40 7.65535 40Z" fill="#FFC344"/>
<path d="M10.4907 27.628L7.11625 31.0024C7.03094 31.0877 6.89266 31.0877 6.80734 31.0024L5.04289 29.238C4.87227 29.0673 4.5957 29.0673 4.42516 29.238L3.12406 30.5391C2.95344 30.7097 2.95344 30.9862 3.12406 31.1568L6.65297 34.6857C6.82359 34.8563 7.10016 34.8563 7.2707 34.6857L12.4096 29.5468C12.5802 29.3762 12.5802 29.0996 12.4096 28.9291L11.1085 27.6279C10.9379 27.4573 10.6613 27.4573 10.4907 27.628Z" fill="#46CC8D"/>
<path d="M20.6836 0H21.8909V2.5H20.6836V0Z" fill="#B3DAFE"/>
<path d="M21.2872 11.8536C20.9538 11.8536 20.6836 11.5834 20.6836 11.25V10C20.6836 9.66656 20.9538 9.39641 21.2872 9.39641C21.6205 9.39641 21.8908 9.66664 21.8908 10V11.25C21.8908 11.5834 21.6205 11.8536 21.2872 11.8536Z" fill="#554E56"/>
<path d="M21.5372 15.9788C21.3828 15.9788 21.2282 15.9198 21.1104 15.802C20.8746 15.5662 20.8746 15.1841 21.1104 14.9482L24.838 11.2206C25.0737 10.985 25.4559 10.985 25.6917 11.2206C25.9275 11.4564 25.9275 11.8385 25.6917 12.0744L21.9641 15.802C21.8461 15.9199 21.6917 15.9788 21.5372 15.9788Z" fill="#E94444"/>
<path d="M26.9122 16.2286H25.6622C25.3288 16.2286 25.0586 15.9584 25.0586 15.625C25.0586 15.2917 25.3288 15.0215 25.6622 15.0215H26.9122C27.2455 15.0215 27.5158 15.2917 27.5158 15.625C27.5158 15.9584 27.2455 16.2286 26.9122 16.2286Z" fill="#554E56"/>
<path d="M18.1935 13.1351C18.0391 13.1351 17.8845 13.0762 17.7667 12.9583L16.8829 12.0744C16.6471 11.8387 16.6471 11.4565 16.8829 11.2207C17.1187 10.985 17.5009 10.9851 17.7366 11.2208L18.6204 12.1047C18.8562 12.3404 18.8561 12.7226 18.6204 12.9583C18.5025 13.0762 18.348 13.1351 18.1935 13.1351Z" fill="#554E56"/>
<path d="M16.9122 16.2286H15.6622C15.3288 16.2286 15.0586 15.9584 15.0586 15.625C15.0586 15.2917 15.3288 15.0215 15.6622 15.0215H16.9122C17.2455 15.0215 17.5158 15.2917 17.5158 15.625C17.5158 15.9584 17.2455 16.2286 16.9122 16.2286Z" fill="#554E56"/>
<path d="M21.2871 16.875C21.9775 16.875 22.5371 16.3154 22.5371 15.625C22.5371 14.9346 21.9775 14.375 21.2871 14.375C20.5968 14.375 20.0371 14.9346 20.0371 15.625C20.0371 16.3154 20.5968 16.875 21.2871 16.875Z" fill="#EE6161"/>
</svg>
