<svg width="41" height="40" viewBox="0 0 41 40" fill="none" xmlns="http://www.w3.org/2000/svg">
<g clip-path="url(#clip0_5494_34278)">
<path d="M0.833008 9.71947L5.43207 3.05176e-05H36.2333L40.8322 9.71947L22.389 15.1069" fill="#E9BB91"/>
<path d="M40.8322 9.71979H0.833008V40H40.8322V9.71979Z" fill="#CA936C"/>
<path d="M23.9808 9.71977V18.1253H17.6846V9.71977L18.4086 -6.10352e-05H23.2567L23.9808 9.71977Z" fill="#764F43"/>
<path d="M23.9808 31.5936H17.6846V39.9992H23.9808V31.5936Z" fill="#764F43"/>
<path d="M17.6846 9.71947L18.4085 3.05176e-05H23.2569L23.9809 9.71947" fill="#8E6459"/>
<path d="M4.44746 30.2148L5.46213 29.2001V34.0455C5.46213 34.3836 5.73619 34.6577 6.07439 34.6577C6.41258 34.6577 6.68664 34.3836 6.68664 34.0455V29.2001L7.70123 30.2147C7.82084 30.3343 7.97748 30.3941 8.13419 30.3941C8.29083 30.3941 8.44755 30.3343 8.56716 30.2147C8.80629 29.9756 8.80629 29.5879 8.56716 29.3489L6.50743 27.2891C6.39258 27.1743 6.23688 27.1097 6.07447 27.1097C5.91212 27.1097 5.75642 27.1742 5.6415 27.2891L3.5817 29.3489C3.34256 29.588 3.34256 29.9757 3.5817 30.2147C3.82068 30.4538 4.20833 30.4539 4.44746 30.2148Z" fill="#764F43"/>
<path d="M10.5695 30.2147L11.5841 29.2002V34.0455C11.5841 34.3837 11.8582 34.6578 12.1964 34.6578C12.5346 34.6578 12.8086 34.3837 12.8086 34.0455V29.2002L13.8232 30.2147C13.9428 30.3344 14.0995 30.3941 14.2562 30.3941C14.4128 30.3941 14.5695 30.3344 14.6891 30.2147C14.9283 29.9757 14.9283 29.588 14.6891 29.349L12.6294 27.2892C12.5146 27.1743 12.3589 27.1098 12.1965 27.1098C12.034 27.1098 11.8784 27.1743 11.7635 27.2892L9.70377 29.349C9.46463 29.588 9.46463 29.9758 9.70377 30.2147C9.94282 30.4538 10.3304 30.4538 10.5695 30.2147Z" fill="#764F43"/>
<path d="M14.2162 35.5556H4.05366C3.71546 35.5556 3.44141 35.8297 3.44141 36.1679C3.44141 36.506 3.71546 36.7801 4.05366 36.7801H14.2161C14.5543 36.7801 14.8284 36.506 14.8284 36.1679C14.8284 35.8297 14.5544 35.5556 14.2162 35.5556Z" fill="#764F43"/>
<path d="M37.7758 13.8821H26.8789V22.331H37.7758V13.8821Z" fill="#F5FFFF"/>
<path d="M35.4905 17.252H29.246C28.9078 17.252 28.6338 16.9779 28.6338 16.6398C28.6338 16.3016 28.9078 16.0275 29.246 16.0275H35.4905C35.8287 16.0275 36.1027 16.3016 36.1027 16.6398C36.1027 16.9779 35.8287 17.252 35.4905 17.252Z" fill="#764F43"/>
<path d="M35.4905 20.1858H29.246C28.9078 20.1858 28.6338 19.9117 28.6338 19.5736C28.6338 19.2354 28.9078 18.9613 29.246 18.9613H35.4905C35.8287 18.9613 36.1027 19.2354 36.1027 19.5736C36.1027 19.9117 35.8287 20.1858 35.4905 20.1858Z" fill="#764F43"/>
</g>
<defs>
<clipPath id="clip0_5494_34278">
<rect width="40" height="40" fill="white" transform="translate(0.833008)"/>
</clipPath>
</defs>
</svg>
