<svg width="41" height="40" viewBox="0 0 41 40" fill="none" xmlns="http://www.w3.org/2000/svg">
<g clip-path="url(#clip0_5494_8815)">
<path d="M28.618 24.0045C28.0064 23.1736 26.8991 22.9177 25.9849 23.3964L18.2091 27.4677C17.9698 27.5929 17.8471 27.8651 17.9116 28.1273C17.9761 28.3895 18.2111 28.5737 18.481 28.5737H24.9877C25.0851 28.5737 25.1812 28.5494 25.2668 28.503L27.9347 27.0591C28.4627 26.7734 28.8408 26.2734 28.9718 25.6874C29.103 25.1013 28.974 24.488 28.618 24.0045Z" fill="#F7B081"/>
<path d="M24.9872 28.5734C25.0846 28.5734 25.1806 28.5491 25.2663 28.5027L27.9341 27.0588C28.4622 26.7731 28.8402 26.2731 28.9713 25.6871C29.0747 25.2246 29.0155 24.7453 28.8112 24.3259L21.1035 28.5734H24.9872Z" fill="#DB9975"/>
<path d="M32.7433 25.2994C32.1864 24.3806 31.0099 24.0614 30.0649 24.5726L24.7088 27.4714C24.4726 27.5991 24.3535 27.8708 24.4194 28.1311C24.4853 28.3914 24.7195 28.5736 24.9879 28.5736H26.3236C26.8812 28.5736 27.3349 29.0272 27.3349 29.5848C27.3349 29.7902 27.4423 29.9806 27.6181 30.0868C27.7112 30.143 27.8161 30.1713 27.9213 30.1713C28.0149 30.1713 28.1087 30.1489 28.1943 30.1038L31.9594 28.1229C32.4482 27.8656 32.8134 27.4128 32.9613 26.8806C33.1091 26.3482 33.0297 25.7719 32.7433 25.2994Z" fill="#F7B081"/>
<path d="M32.9609 26.8806C33.1088 26.3483 33.0293 25.772 32.743 25.2995C32.7185 25.2591 32.6924 25.2202 32.6655 25.1822L26.5479 28.5998C26.9975 28.7023 27.3345 29.1047 27.3345 29.5849C27.3345 29.7903 27.4419 29.9808 27.6178 30.087C27.7108 30.1431 27.8157 30.1714 27.9209 30.1714C28.0145 30.1714 28.1083 30.149 28.1939 30.1039L31.959 28.123C32.4479 27.8656 32.813 27.4128 32.9609 26.8806Z" fill="#DB9975"/>
<path d="M37.0222 26.1135C36.4354 25.2935 35.3201 25.0292 34.4276 25.4987L27.6477 29.0657C27.455 29.167 27.3343 29.367 27.3343 29.5848C27.3343 30.093 26.9542 30.5242 26.4499 30.588L16.51 31.8447C16.2162 31.8818 15.9962 32.1321 15.9971 32.4282C15.998 32.7243 16.2194 32.9734 16.5136 33.0087L20.735 33.5166C21.5209 33.6112 22.3058 33.6582 23.0868 33.6582C26.3691 33.6582 29.5806 32.8284 32.4895 31.2141L36.3566 29.0681C36.8619 28.7877 37.2245 28.3037 37.3514 27.7399C37.4784 27.1763 37.3583 26.5834 37.0222 26.1135Z" fill="#F7B081"/>
<path d="M32.4893 31.214L36.3564 29.0679C36.8618 28.7876 37.2243 28.3036 37.3513 27.7398C37.4574 27.2685 37.3902 26.777 37.169 26.3539L27.4468 31.6355C27.4468 31.6355 25.8035 31.352 25.3261 31.3326C25.1468 31.3254 23.1052 31.3236 20.6257 31.3241L16.51 31.8445C16.2162 31.8816 15.9962 32.1319 15.9971 32.428C15.998 32.7241 16.2194 32.9732 16.5136 33.0085L20.735 33.5165C21.5209 33.611 22.3058 33.658 23.0868 33.658C26.369 33.6581 29.5804 32.8283 32.4893 31.214Z" fill="#DB9975"/>
<path d="M27.9298 18.9511C27.8286 18.8835 25.4261 17.3058 23.2308 18.026C21.9354 18.451 21.0561 19.5631 20.5442 20.4273C20.0322 19.5632 19.153 18.451 17.8575 18.026C15.6623 17.3059 13.2598 18.8835 13.1586 18.9511C12.9338 19.1011 12.8405 19.3852 12.9327 19.6392C12.9742 19.7535 13.9752 22.4478 16.1706 23.1681C16.5769 23.3013 16.9903 23.356 17.395 23.356C18.7325 23.356 19.9736 22.7596 20.5441 22.4392C21.1145 22.7597 22.3556 23.356 23.6932 23.356C24.0977 23.356 24.5114 23.3013 24.9176 23.1681C27.113 22.4478 28.114 19.7535 28.1555 19.6392C28.2479 19.3852 28.1547 19.1011 27.9298 18.9511Z" fill="#8ACC19"/>
<path d="M27.9297 18.9512C27.926 18.9487 27.9183 18.9436 27.9085 18.9373C27.4884 19.7945 26.5225 21.3751 24.9176 21.9016C24.5115 22.0348 24.0978 22.0895 23.6932 22.0895C22.3556 22.0895 21.1145 21.4932 20.5441 21.1726C19.9736 21.4932 18.7325 22.0894 17.395 22.0895C16.9904 22.0895 16.577 22.0349 16.1706 21.9016C14.5657 21.3751 13.5998 19.7946 13.1797 18.9373C13.17 18.9436 13.1622 18.9487 13.1586 18.9512C12.9338 19.1012 12.8405 19.3852 12.9327 19.6392C12.9742 19.7535 13.9752 22.4479 16.1706 23.1681C16.5769 23.3014 16.9903 23.356 17.395 23.356C18.7325 23.356 19.9736 22.7597 20.5441 22.4392C21.1145 22.7598 22.3556 23.356 23.6932 23.356C24.0977 23.356 24.5114 23.3014 24.9176 23.1681C27.113 22.4479 28.114 19.7535 28.1555 19.6392C28.2477 19.3852 28.1545 19.1012 27.9297 18.9512Z" fill="#79AF10"/>
<path d="M20.548 25.1048C20.2242 25.1048 19.9619 24.8424 19.9616 24.5187L19.957 17.0521C19.9568 16.7281 20.2193 16.4655 20.543 16.4653C20.5432 16.4653 20.5434 16.4653 20.5434 16.4653C20.8673 16.4653 21.1296 16.7277 21.1298 17.0514L21.1345 24.518C21.1347 24.8419 20.8723 25.1046 20.5484 25.1047C20.5483 25.1048 20.548 25.1048 20.548 25.1048Z" fill="#739B10"/>
<path d="M30.8488 31.222C25.8798 25.1965 22.502 23.9318 20.5434 23.9318C18.8305 23.9318 16.8439 24.862 14.6392 26.6968C14.4565 26.8489 14.3835 27.096 14.4545 27.3228C14.5256 27.5495 14.7263 27.7111 14.9631 27.7319C16.9009 27.9019 18.2693 28.5026 18.2829 28.5086C18.3582 28.5422 18.4397 28.5597 18.5221 28.5597H26.3741C26.9327 28.5597 27.3872 29.0142 27.3872 29.5728C27.3872 30.082 27.0063 30.514 26.5011 30.5779L16.5491 31.8361C16.2552 31.8732 16.0352 32.1235 16.0361 32.4196C16.037 32.7157 16.2584 32.9647 16.5526 33L20.7793 33.5086C21.5492 33.6013 22.3227 33.6473 23.0953 33.6473C25.6713 33.6473 28.2364 33.1357 30.623 32.136C30.7942 32.0643 30.9213 31.9159 30.9658 31.7358C31.0102 31.5557 30.9669 31.3651 30.8488 31.222Z" fill="#AA5D24"/>
<path d="M30.8486 31.222C25.8796 25.1965 22.5019 23.9318 20.5432 23.9318C19.9679 23.9318 19.3616 24.0372 18.7266 24.2461C20.2747 24.7543 22.3025 25.9734 24.8424 28.5595H26.3738C26.9325 28.5595 27.387 29.014 27.387 29.5726C27.387 30.0281 27.0818 30.421 26.6559 30.5447C26.8434 30.7637 27.033 30.9889 27.2252 31.2219C27.2965 31.3083 27.9016 32.1946 28.3604 32.9229C29.1282 32.7078 29.8841 32.4454 30.6227 32.1359C30.7939 32.0642 30.921 31.9158 30.9655 31.7357C31.01 31.5557 30.9667 31.3651 30.8486 31.222Z" fill="#8E4821"/>
<path d="M40.0466 27.8837C39.3816 27.0033 38.1899 26.7376 37.2137 27.2515C37.2098 27.2535 37.206 27.2555 37.2022 27.2576L31.9206 30.1886C28.6921 31.9802 25.0663 32.7429 21.4041 32.4082L26.5973 31.7516C27.6863 31.6139 28.5074 30.6824 28.5074 29.5847C28.5074 28.3805 27.5277 27.4007 26.3234 27.4007H18.5999C17.9785 27.1468 15.122 26.0972 11.7459 26.7247C8.48977 27.3301 5.82367 29.2952 5.13219 29.8411H1.08641C0.7625 29.8411 0.5 30.1036 0.5 30.4275V38.1791C0.5 38.503 0.762578 38.7655 1.08641 38.7655H5.31359L18.6062 39.9501C18.9064 39.9768 19.2059 39.9896 19.5055 39.9896C23.317 39.9894 27.068 37.9137 30.4053 36.0666C30.8108 35.8422 31.2113 35.6206 31.6061 35.4058L39.3292 31.2045C39.903 30.8923 40.3113 30.3471 40.4492 29.7085C40.5873 29.0701 40.4405 28.4049 40.0466 27.8837Z" fill="#FFC89F"/>
<path d="M39.3293 28.9905L31.6062 33.1917C31.2113 33.4065 30.8108 33.6282 30.4054 33.8526C27.0679 35.6997 23.3171 37.7753 19.5055 37.7756C19.2059 37.7756 18.9065 37.7627 18.6062 37.736L5.31359 36.5514H1.08641C0.7625 36.5514 0.5 36.2888 0.5 35.9649V38.1789C0.5 38.5028 0.762578 38.7653 1.08641 38.7653H5.31359L18.6062 39.9498C18.9064 39.9766 19.2059 39.9894 19.5055 39.9894C23.317 39.9892 27.068 37.9135 30.4053 36.0664C30.8108 35.842 31.2113 35.6204 31.6061 35.4056L39.3292 31.2043C39.903 30.8921 40.3113 30.3469 40.4492 29.7083C40.5663 29.1658 40.4773 28.6044 40.2066 28.1281C40.0025 28.488 39.7009 28.7883 39.3293 28.9905Z" fill="#F7B081"/>
<path d="M20.5433 0.010376C15.6833 0.010376 11.7295 3.96428 11.7295 8.8242C11.7295 13.6841 15.6833 17.638 20.5433 17.638C25.4033 17.638 29.3571 13.6841 29.3571 8.8242C29.3571 3.96428 25.4033 0.010376 20.5433 0.010376Z" fill="#FFD039"/>
<path d="M20.5442 0.010376C20.2375 0.010376 19.9344 0.0262354 19.6357 0.0570166C24.0705 0.513188 27.5411 4.271 27.5411 8.82436C27.5411 13.3777 24.0706 17.1355 19.6357 17.5917C19.9344 17.6224 20.2375 17.6383 20.5442 17.6383C25.4042 17.6383 29.358 13.6844 29.358 8.82452C29.358 3.96459 25.4042 0.010376 20.5442 0.010376Z" fill="#FFAE47"/>
<path d="M20.5438 14.7292C23.805 14.7292 26.4488 12.0854 26.4488 8.82408C26.4488 5.5628 23.805 2.91901 20.5438 2.91901C17.2825 2.91901 14.6387 5.5628 14.6387 8.82408C14.6387 12.0854 17.2825 14.7292 20.5438 14.7292Z" fill="#F99608"/>
<path d="M20.6666 8.235C20.295 8.20352 20.0406 8.09234 19.9107 7.90461C19.7738 7.70695 19.7652 7.42781 19.7821 7.22852C19.8017 6.99656 19.8952 6.79758 20.0456 6.6682C20.2237 6.51461 20.4926 6.44836 20.8227 6.47633C21.3181 6.51828 21.5077 7.19711 21.5085 7.19977C21.5884 7.51359 21.9074 7.70328 22.2216 7.62344C22.5354 7.54359 22.7251 7.22438 22.6452 6.91047C22.6357 6.87297 22.5452 6.53359 22.3125 6.18047C22.0111 5.72289 21.6053 5.43469 21.1301 5.33758V4.75438C21.1301 4.43047 20.8676 4.16797 20.5437 4.16797C20.2197 4.16797 19.9572 4.43055 19.9572 4.75438V5.40492C19.6596 5.50023 19.4368 5.64461 19.2799 5.77977C18.8959 6.11078 18.6591 6.59008 18.6135 7.12953C18.566 7.69031 18.6812 8.1893 18.9466 8.57258C19.1796 8.90891 19.6498 9.32602 20.5677 9.40383C21.5436 9.48664 21.6186 9.94312 21.59 10.2793C21.5681 10.5388 21.463 10.7795 21.3016 10.9396C21.1179 11.1221 20.8608 11.2009 20.5375 11.1734C19.8195 11.1125 19.4473 10.3812 19.4361 10.3589C19.2973 10.0682 18.9494 9.94375 18.6576 10.0809C18.3645 10.2186 18.2384 10.5678 18.3761 10.861C18.3989 10.9098 18.8867 11.9221 19.9573 12.2494V12.8944C19.9573 13.2183 20.2198 13.4808 20.5437 13.4808C20.8676 13.4808 21.1301 13.2182 21.1301 12.8944V12.3047C21.5934 12.2087 21.9181 11.9802 22.128 11.7718C22.4888 11.4134 22.7128 10.9186 22.7587 10.3784C22.8386 9.43477 22.3309 8.37625 20.6666 8.235Z" fill="#FFD039"/>
</g>
<defs>
<clipPath id="clip0_5494_8815">
<rect width="40" height="40" fill="white" transform="translate(0.5)"/>
</clipPath>
</defs>
</svg>
