<svg width="40" height="40" viewBox="0 0 40 40" fill="none" xmlns="http://www.w3.org/2000/svg">
<rect x="0.5" y="0.5" width="39" height="39" rx="11.5" fill="white"/>
<rect x="0.5" y="0.5" width="39" height="39" rx="11.5" stroke="#CDD3D4"/>
<path fill-rule="evenodd" clip-rule="evenodd" d="M20 11C20.4142 11 20.75 11.3358 20.75 11.75V19.25H28.25C28.6642 19.25 29 19.5858 29 20C29 20.4142 28.6642 20.75 28.25 20.75H20.75V28.25C20.75 28.6642 20.4142 29 20 29C19.5858 29 19.25 28.6642 19.25 28.25V20.75H11.75C11.3358 20.75 11 20.4142 11 20C11 19.5858 11.3358 19.25 11.75 19.25H19.25V11.75C19.25 11.3358 19.5858 11 20 11Z" fill="#556065"/>
</svg>
