<svg width="24" height="24" viewBox="0 0 24 24" fill="none" xmlns="http://www.w3.org/2000/svg">
<path d="M0 18.75V15C0 14.6022 0.158148 14.2208 0.439453 13.9395C0.720759 13.6581 1.10218 13.5 1.5 13.5H4.5C4.91421 13.5 5.25 13.8358 5.25 14.25C5.25 14.6642 4.91421 15 4.5 15H1.5V18.75H4.5C4.91421 18.75 5.25 19.0858 5.25 19.5C5.25 19.9142 4.91421 20.25 4.5 20.25H1.5C1.10218 20.25 0.720759 20.0919 0.439453 19.8105C0.158148 19.5292 0 19.1478 0 18.75Z" fill="#556065"/>
<path d="M14.25 13.125C14.25 12.8266 14.1319 12.5401 13.9209 12.3291C13.7099 12.1181 13.4234 12 13.125 12H8.43555C8.23853 11.9995 8.04352 12.0383 7.86133 12.1133C7.67901 12.1883 7.5127 12.2983 7.37305 12.4375L5.25 14.5605V18.75H11.1582L17.0117 17.2861L20.5635 15.7705C20.6932 15.7036 20.8031 15.6038 20.8799 15.4795C20.9584 15.3524 20.9999 15.206 21 15.0566L20.9941 14.9639C20.9834 14.8718 20.9574 14.7817 20.916 14.6982C20.8609 14.5871 20.7803 14.4902 20.6816 14.415C20.583 14.3399 20.4684 14.2883 20.3467 14.2646C20.2249 14.241 20.0992 14.2455 19.9795 14.2783C19.9695 14.2811 19.9593 14.2838 19.9492 14.2861L13.668 15.7305C13.6128 15.7431 13.5566 15.75 13.5 15.75H10.5C10.0858 15.75 9.75 15.4142 9.75 15C9.75 14.5858 10.0858 14.25 10.5 14.25H13.125C13.4234 14.25 13.7099 14.1319 13.9209 13.9209C14.1319 13.7099 14.25 13.4234 14.25 13.125ZM15.75 13.125C15.75 13.3305 15.7224 13.5327 15.6758 13.7295L19.6133 12.8242C19.9463 12.7378 20.2948 12.7263 20.6328 12.792C20.9809 12.8596 21.3087 13.0068 21.5908 13.2217C21.873 13.4367 22.1021 13.7144 22.2598 14.0322C22.3977 14.3103 22.478 14.6129 22.4961 14.9219L22.5 15.0547L22.4941 15.2148C22.4684 15.5874 22.3525 15.9495 22.1553 16.2685C21.93 16.6327 21.6077 16.9268 21.2246 17.1182C21.2112 17.1248 21.1973 17.1318 21.1836 17.1377L17.5439 18.6894C17.5076 18.705 17.47 18.7179 17.4316 18.7275L11.4316 20.2275C11.3722 20.2424 11.3112 20.25 11.25 20.25L4.5 20.25C4.08579 20.25 3.75 19.9142 3.75 19.5V14.25C3.75 14.0511 3.82908 13.8604 3.96973 13.7197L6.31445 11.375C6.59376 11.0967 6.92544 10.8757 7.29004 10.7256C7.65399 10.5758 8.04394 10.5002 8.4375 10.501L13.125 10.5C13.8212 10.5 14.4892 10.7763 14.9814 11.2685C15.4737 11.7608 15.75 12.4288 15.75 13.125Z" fill="#556065"/>
<path d="M17.25 9.75V2.25C17.25 1.83579 17.5858 1.5 18 1.5C18.4142 1.5 18.75 1.83579 18.75 2.25V9.75C18.75 10.1642 18.4142 10.5 18 10.5C17.5858 10.5 17.25 10.1642 17.25 9.75Z" fill="#556065"/>
<path d="M20.4697 6.21973C20.7626 5.92683 21.2374 5.92683 21.5303 6.21973C21.8232 6.51262 21.8232 6.98738 21.5303 7.28027L18.5303 10.2803C18.2374 10.5732 17.7626 10.5732 17.4697 10.2803L14.4697 7.28027C14.1768 6.98738 14.1768 6.51262 14.4697 6.21973C14.7626 5.92683 15.2374 5.92683 15.5303 6.21973L18 8.68945L20.4697 6.21973Z" fill="#556065"/>
</svg>
