<svg width="41" height="40" viewBox="0 0 41 40" fill="none" xmlns="http://www.w3.org/2000/svg">
<g clip-path="url(#clip0_5494_26883)">
<path fill-rule="evenodd" clip-rule="evenodd" d="M24.9443 17.5654V35.1605L12.7664 36.9456L1.08691 35.1605V17.5654L9.34144 16.9795L12.4015 16.7623L15.7936 16.9795L24.9443 17.5654Z" fill="#EAF6FF"/>
<path fill-rule="evenodd" clip-rule="evenodd" d="M20.9579 8.29081L24.944 13.9956L13.5171 15.7805L1.08691 13.9956L8.71379 3.07761C8.93082 2.76753 9.01496 2.58597 9.62621 2.58597H12.9635H13.1429H16.4049C17.0161 2.58597 17.098 2.76753 17.315 3.07761L20.9579 8.29081Z" fill="#B3DAFE"/>
<path fill-rule="evenodd" clip-rule="evenodd" d="M35.9276 8.29081L39.9138 13.9956L32.4287 15.7805L24.9436 13.9956L19.1415 8.66323L16.4043 2.58597H24.4563H31.3745C31.9858 2.58597 32.0677 2.76753 32.2847 3.07761L35.9276 8.29081Z" fill="#B3DAFE"/>
<path fill-rule="evenodd" clip-rule="evenodd" d="M39.9137 17.5654V35.1605L32.4287 36.9456L24.9438 35.1605L23.5 26.0535L24.8133 18.1513L24.9438 17.5654L28.4655 16.9795L32.4287 16.3201L36.392 16.9795L39.9137 17.5654Z" fill="#B3DAFE"/>
<path fill-rule="evenodd" clip-rule="evenodd" d="M39.9145 35.1609V38.0642C39.9034 38.4319 39.5979 38.7308 39.228 38.7308H32.4294H24.9443V35.1609H32.4294H39.9145Z" fill="#AA5D24"/>
<path fill-rule="evenodd" clip-rule="evenodd" d="M1.08691 13.9952H24.9443V17.5654H1.08691V13.9952Z" fill="#B3DAFE"/>
<path fill-rule="evenodd" clip-rule="evenodd" d="M24.9443 13.9952H39.9143V17.5654H24.9443V13.9952Z" fill="#B3DAFE"/>
<path fill-rule="evenodd" clip-rule="evenodd" d="M29.2357 3.07761L32.8786 8.29073H35.9279L32.285 3.07761C32.068 2.76753 31.9861 2.58597 31.3749 2.58597H28.3232C28.9345 2.58597 29.0186 2.76761 29.2357 3.07761Z" fill="#60B8FE"/>
<path fill-rule="evenodd" clip-rule="evenodd" d="M32.8789 8.2908L36.8628 13.9956H39.9145L35.9283 8.2908H32.8789Z" fill="#60B8FE"/>
<path fill-rule="evenodd" clip-rule="evenodd" d="M36.8623 13.9956H39.9139V17.5655H36.8623V13.9956Z" fill="#60B8FE"/>
<path fill-rule="evenodd" clip-rule="evenodd" d="M36.8623 17.5655H39.9139V35.1609H36.8623V17.5655Z" fill="#60B8FE"/>
<path fill-rule="evenodd" clip-rule="evenodd" d="M36.8628 35.1609V38.0642C36.8539 38.4319 36.5505 38.7286 36.1807 38.7308H36.1829H39.2279C39.5977 38.7308 39.9033 38.4318 39.9143 38.0642V35.1609H36.8628Z" fill="#8E4821"/>
<path fill-rule="evenodd" clip-rule="evenodd" d="M18.0696 8.29082L22.0558 13.9956H24.9436L20.9574 8.29082L17.3145 3.0777C17.0975 2.76762 17.0155 2.58606 16.4043 2.58606H13.5166C14.1278 2.58606 14.2097 2.76762 14.4268 3.0777L18.0696 8.29082Z" fill="#60B8FE"/>
<path fill-rule="evenodd" clip-rule="evenodd" d="M22.0566 13.9956H24.9444V17.5655H22.0566V13.9956Z" fill="#60B8FE"/>
<path fill-rule="evenodd" clip-rule="evenodd" d="M22.0566 17.5655V35.1609H24.9444V17.5655H22.0566Z" fill="#D8ECFE"/>
<path fill-rule="evenodd" clip-rule="evenodd" d="M7.54199 31.3382L9.68121 31.1212C10.8461 31.0039 11.7983 29.9453 11.7983 28.7693V27.0021C11.7983 26.7983 11.6322 26.6478 11.4307 26.6677L9.6591 26.8471C8.49645 26.9644 7.54199 28.023 7.54199 29.1989V29.746V31.3382Z" fill="#8ACC19"/>
<path fill-rule="evenodd" clip-rule="evenodd" d="M9.68121 31.1212C10.8461 31.0039 11.7983 29.9453 11.7983 28.7693V27.0021C11.7983 26.7983 11.6322 26.6478 11.4307 26.6677L10.8727 26.7253V28.1448C10.8727 29.323 10.0422 30.1689 8.87738 30.2863L8.2573 30.3483L7.54199 30.4214V31.3382L9.68121 31.1212Z" fill="#79AF10"/>
<path d="M7.6502 31.8046C7.51012 31.8046 7.36965 31.7546 7.25754 31.6534C7.01746 31.4364 6.99871 31.066 7.21559 30.8258L9.08239 28.7596C9.29934 28.5195 9.66989 28.5008 9.91004 28.7177C10.1501 28.9346 10.1689 29.3051 9.952 29.5453L8.0852 31.6114C7.9695 31.7395 7.81012 31.8046 7.6502 31.8046Z" fill="#739B10"/>
<path fill-rule="evenodd" clip-rule="evenodd" d="M7.54223 28.9664L5.4052 28.7494C4.24035 28.6321 3.28809 27.5735 3.28809 26.3975V24.6303C3.28809 24.4265 3.45418 24.276 3.65566 24.2959L5.4273 24.4753C6.58996 24.5926 7.54441 25.6512 7.54215 26.8271V27.3742L7.54223 28.9664Z" fill="#8ACC19"/>
<path fill-rule="evenodd" clip-rule="evenodd" d="M5.4052 28.7494C4.24035 28.6321 3.28809 27.5735 3.28809 26.3975V24.6303C3.28809 24.4265 3.45418 24.276 3.65566 24.2959L4.21371 24.3535V25.773C4.21371 26.9511 5.04418 27.7971 6.20902 27.9145L6.8291 27.9765L7.54215 28.0496V28.9664L5.4052 28.7494Z" fill="#79AF10"/>
<path d="M7.43633 29.4328C7.27641 29.4328 7.11711 29.3677 7.00141 29.2397L5.13453 27.1734C4.91766 26.9333 4.93641 26.5628 5.17649 26.3458C5.41649 26.129 5.78696 26.1475 6.00414 26.3878L7.87102 28.454C8.08789 28.6941 8.06914 29.0647 7.82907 29.2816C7.71688 29.3829 7.57641 29.4328 7.43633 29.4328Z" fill="#739B10"/>
<path d="M7.54199 35.7468C7.2184 35.7468 6.95605 35.4845 6.95605 35.1609V26.8271C6.95605 26.5036 7.21832 26.2412 7.54199 26.2412C7.86566 26.2412 8.12793 26.5036 8.12793 26.8271V35.1609C8.12793 35.4845 7.86566 35.7468 7.54199 35.7468Z" fill="#739B10"/>
<path fill-rule="evenodd" clip-rule="evenodd" d="M18.1006 31.3382L20.2376 31.1212C21.4025 31.0039 22.3547 29.9453 22.3547 28.7693V27.0021C22.3547 26.7983 22.1886 26.6478 21.9871 26.6677L20.2178 26.8471C19.0529 26.9644 18.1007 28.023 18.1007 29.1989V29.746L18.1006 31.3382Z" fill="#8ACC19"/>
<path fill-rule="evenodd" clip-rule="evenodd" d="M20.2385 31.1212C21.4034 31.0039 22.3556 29.9453 22.3556 28.7693V27.0021C22.3556 26.7983 22.1895 26.6478 21.988 26.6677L21.4322 26.7253V28.1448C21.4322 29.323 20.5995 30.1689 19.4347 30.2863L18.8146 30.3483L18.1016 30.4214V31.3382L20.2385 31.1212Z" fill="#79AF10"/>
<path d="M18.2069 31.8046C18.0667 31.8046 17.9261 31.7546 17.814 31.6531C17.574 31.436 17.5554 31.0656 17.7725 30.8256L19.6415 28.7594C19.8586 28.5194 20.2291 28.5009 20.4691 28.7179C20.7091 28.935 20.7277 29.3055 20.5106 29.5455L18.6416 31.6117C18.5259 31.7396 18.3666 31.8046 18.2069 31.8046Z" fill="#739B10"/>
<path fill-rule="evenodd" clip-rule="evenodd" d="M18.1011 28.9664L15.9618 28.7494C14.797 28.6321 13.8447 27.5735 13.8447 26.3975V24.6303C13.8447 24.4265 14.0108 24.276 14.2123 24.2959L15.9839 24.4753C17.1466 24.5926 18.1011 25.6512 18.1011 26.8271V27.3742V28.9664Z" fill="#8ACC19"/>
<path fill-rule="evenodd" clip-rule="evenodd" d="M15.9618 28.7494C14.797 28.6321 13.8447 27.5735 13.8447 26.3975V24.6303C13.8447 24.4265 14.0108 24.276 14.2123 24.2959L14.7704 24.3535V25.773C14.7704 26.9511 15.603 27.7971 16.7657 27.9145L17.3857 27.9765L18.1011 28.0496V28.9664L15.9618 28.7494Z" fill="#79AF10"/>
<path d="M17.993 29.4328C17.8331 29.4328 17.6738 29.3677 17.558 29.2397L15.6912 27.1734C15.4743 26.9333 15.4931 26.5628 15.7331 26.3458C15.9731 26.129 16.3436 26.1475 16.5608 26.3878L18.4277 28.454C18.6445 28.6941 18.6258 29.0647 18.3857 29.2816C18.2736 29.3829 18.133 29.4328 17.993 29.4328Z" fill="#739B10"/>
<path d="M18.1006 35.7468C17.777 35.7468 17.5146 35.4845 17.5146 35.1609V26.8271C17.5146 26.5036 17.7769 26.2412 18.1006 26.2412C18.4243 26.2412 18.6865 26.5036 18.6865 26.8271V35.1609C18.6865 35.4845 18.4242 35.7468 18.1006 35.7468Z" fill="#739B10"/>
<path fill-rule="evenodd" clip-rule="evenodd" d="M24.944 35.1609V38.7308H1.7734C1.39473 38.7308 1.08691 38.4207 1.08691 38.0443V35.1609H7.74824H18.1278H24.944Z" fill="#AA5D24"/>
<path fill-rule="evenodd" clip-rule="evenodd" d="M22.0566 35.1609H24.9444V38.7308H22.0566V35.1609Z" fill="#8E4821"/>
<path d="M40.3944 13.6599L36.415 7.96506C36.4137 7.96327 36.4125 7.96147 36.4112 7.95967L32.7651 2.74162L32.7258 2.68491C32.458 2.29686 32.1885 2.00006 31.3748 2.00006H16.4047H9.62601C8.81093 2.00006 8.54038 2.29787 8.27132 2.68725L0.606398 13.66C0.524132 13.7778 0.494679 13.8621 0.500773 14.1428V38.7307H1.67265V18.1513H24.3581V38.7307H25.53V18.1513H31.5401V38.7307H32.7119V18.1513H39.3282V38.7307H40.5001V14.1428C40.5001 13.9594 40.4731 13.7723 40.3944 13.6599ZM34.8038 7.70483H28.7482L25.5809 3.17186H31.3749C31.5874 3.17186 31.648 3.19975 31.648 3.19975C31.6687 3.21616 31.7222 3.29381 31.7612 3.35045L34.8038 7.70483ZM25.2492 13.4096L22.0818 8.8767H28.1375L31.3048 13.4096H25.2492ZM24.1513 3.17186L27.3187 7.70483H21.263L18.0955 3.17186H24.1513ZM13.7286 3.17186H16.4047C16.6171 3.17186 16.6777 3.19975 16.6777 3.19975C16.6984 3.21616 16.7519 3.29381 16.791 3.35045L23.8196 13.4096H13.7286V3.17186ZM9.19366 3.4135L9.23546 3.35326C9.2753 3.29569 9.32976 3.21678 9.34882 3.2017C9.34882 3.2017 9.40702 3.17186 9.62601 3.17186H12.5567V13.4096H2.21077L9.19366 3.4135ZM1.67273 16.9794V14.5814H24.3582V16.9794H1.67273ZM31.5401 16.9794H25.53V14.5814H31.5401V16.9794ZM29.567 8.8767H35.6226L38.79 13.4096H32.7344L29.567 8.8767ZM39.3282 16.9794H32.7119V14.5814H39.3282V16.9794Z" fill="#23A8FE"/>
</g>
<defs>
<clipPath id="clip0_5494_26883">
<rect width="40" height="40" fill="white" transform="translate(0.5)"/>
</clipPath>
</defs>
</svg>
