<svg width="41" height="40" viewBox="0 0 41 40" fill="none" xmlns="http://www.w3.org/2000/svg">
<path d="M8 14H33V28C33 30.2091 31.2091 32 29 32H12C9.79086 32 8 30.2091 8 28V14Z" fill="#FDC74F"/>
<path d="M8 14H33V20H8V14Z" fill="#FCA629"/>
<path d="M10 32V28H31V32C31 33.1046 30.1046 34 29 34H12C10.8954 34 10 33.1046 10 32Z" fill="#E8941F"/>
<path d="M20.5 14V32" stroke="#DA8A1A" stroke-width="1.5"/>
<path d="M8 20H33" stroke="#DA8A1A" stroke-width="1.5"/>
<path d="M20.5 6C22.9853 6 25 8.01472 25 10.5V14H16V10.5C16 8.01472 18.0147 6 20.5 6Z" fill="#539461"/>
<path d="M18.5 10.5C18.5 9.11929 19.6193 8 21 8H20C18.3431 8 17 9.34315 17 11V14H16V10.5C16 8.01472 18.0147 6 20.5 6C22.9853 6 25 8.01472 25 10.5V14H24V11C24 9.34315 22.6569 8 21 8C19.6193 8 18.5 9.11929 18.5 10.5Z" fill="#3D7A49"/>
<path d="M12.5 18.5L14.2 20.2L12.5 21.9L10.8 20.2L12.5 18.5Z" fill="#FFFFFF"/>
<path d="M28.5 18.5L30.2 20.2L28.5 21.9L26.8 20.2L28.5 18.5Z" fill="#FFFFFF"/>
<circle cx="20.5" cy="24.5" r="3" fill="#FFFFFF"/>
<path d="M20.5 22.5V26.5M18.5 24.5H22.5" stroke="#539461" stroke-width="1.5" stroke-linecap="round"/>
</svg>
