<svg width="41" height="40" viewBox="0 0 41 40" fill="none" xmlns="http://www.w3.org/2000/svg">
<g clip-path="url(#clip0_5494_42442)">
<path d="M28.6313 13.0202C28.5181 13.0202 28.4037 12.9879 28.3023 12.9204C28.0289 12.7385 27.9548 12.3693 28.1368 12.096L34.559 2.44636C34.741 2.17293 35.1101 2.09879 35.3835 2.28082C35.657 2.46277 35.731 2.83191 35.5491 3.10527L29.1269 12.7549C29.0123 12.9271 28.8235 13.0202 28.6313 13.0202Z" fill="#B1DBFC"/>
<path d="M26.8791 13.4809C26.7896 13.4809 26.6987 13.4606 26.6133 13.4178L21.0971 10.6549C20.8034 10.5078 20.6846 10.1506 20.8317 9.85698C20.9787 9.56323 21.336 9.4444 21.6297 9.59159L27.146 12.3544C27.4396 12.5015 27.5585 12.8588 27.4114 13.1524C27.3071 13.3606 27.0971 13.4809 26.8791 13.4809Z" fill="#B1DBFC"/>
<path d="M13.4892 16.9326C13.3372 16.9326 13.1852 16.8747 13.0691 16.7588C12.8366 16.5268 12.8363 16.1503 13.0683 15.9178L18.802 10.1743C19.034 9.9419 19.4105 9.94151 19.643 10.1736C19.8754 10.4056 19.8757 10.7821 19.6437 11.0146L13.91 16.7581C13.794 16.8744 13.6416 16.9326 13.4892 16.9326Z" fill="#B1DBFC"/>
<path d="M6.21731 21.0725C6.00129 21.0725 5.79309 20.9546 5.68778 20.7492C5.53785 20.457 5.65317 20.0985 5.94543 19.9486L10.8909 17.4114C11.1832 17.2614 11.5415 17.3769 11.6914 17.669C11.8413 17.9612 11.726 18.3196 11.4337 18.4696L6.48824 21.0067C6.40137 21.0514 6.30863 21.0725 6.21731 21.0725Z" fill="#B1DBFC"/>
<path d="M4.82312 22.9944C5.83864 22.9944 6.66188 22.1711 6.66188 21.1556C6.66188 20.1401 5.83864 19.3169 4.82312 19.3169C3.80761 19.3169 2.98438 20.1401 2.98438 21.1556C2.98438 22.1711 3.80761 22.9944 4.82312 22.9944Z" fill="#FF656F"/>
<path d="M12.536 19.131C13.5515 19.131 14.3748 18.3078 14.3748 17.2923C14.3748 16.2767 13.5515 15.4535 12.536 15.4535C11.5205 15.4535 10.6973 16.2767 10.6973 17.2923C10.6973 18.3078 11.5205 19.131 12.536 19.131Z" fill="#FFA85D"/>
<path d="M20.2499 11.4043C21.2654 11.4043 22.0886 10.5811 22.0886 9.56554C22.0886 8.55003 21.2654 7.72679 20.2499 7.72679C19.2344 7.72679 18.4111 8.55003 18.4111 9.56554C18.4111 10.5811 19.2344 11.4043 20.2499 11.4043Z" fill="#FEE55A"/>
<path d="M27.9637 15.2676C28.9793 15.2676 29.8025 14.4444 29.8025 13.4289C29.8025 12.4134 28.9793 11.5901 27.9637 11.5901C26.9482 11.5901 26.125 12.4134 26.125 13.4289C26.125 14.4444 26.9482 15.2676 27.9637 15.2676Z" fill="#43CB8E"/>
<path d="M35.6776 3.6775C36.6931 3.6775 37.5164 2.85426 37.5164 1.83875C37.5164 0.823236 36.6931 0 35.6776 0C34.6621 0 33.8389 0.823236 33.8389 1.83875C33.8389 2.85426 34.6621 3.6775 35.6776 3.6775Z" fill="#23A8FE"/>
<path d="M4.99297 21.1556C4.99297 20.5108 5.32516 19.9439 5.82742 19.6156C5.53867 19.4269 5.19383 19.3168 4.82312 19.3168C3.80758 19.3168 2.98438 20.14 2.98438 21.1556C2.98438 22.1711 3.80766 22.9943 4.82312 22.9943C5.19383 22.9943 5.53867 22.8842 5.82742 22.6955C5.32508 22.3674 4.99297 21.8005 4.99297 21.1556Z" fill="#FF4756"/>
<path d="M12.7059 17.2923C12.7059 16.6474 13.038 16.0805 13.5403 15.7523C13.2516 15.5635 12.9067 15.4534 12.536 15.4534C11.5205 15.4534 10.6973 16.2766 10.6973 17.2922C10.6973 18.3077 11.5205 19.1309 12.536 19.1309C12.9067 19.1309 13.2516 19.0209 13.5403 18.8321C13.038 18.504 12.7059 17.9371 12.7059 17.2923Z" fill="#FF9839"/>
<path d="M20.4197 9.56554C20.4197 8.9207 20.7519 8.35382 21.2542 8.02554C20.9654 7.83679 20.6206 7.72672 20.2499 7.72672C19.2343 7.72672 18.4111 8.54992 18.4111 9.56547C18.4111 10.581 19.2344 11.4042 20.2499 11.4042C20.6206 11.4042 20.9654 11.2941 21.2542 11.1054C20.7519 10.7773 20.4197 10.2103 20.4197 9.56554Z" fill="#FFD301"/>
<path d="M28.1336 13.4289C28.1336 12.7841 28.4658 12.2172 28.968 11.8889C28.6793 11.7002 28.3345 11.5901 27.9637 11.5901C26.9482 11.5901 26.125 12.4133 26.125 13.4288C26.125 14.4444 26.9483 15.2676 27.9637 15.2676C28.3345 15.2676 28.6793 15.1575 28.968 14.9688C28.4657 14.6406 28.1336 14.0737 28.1336 13.4289Z" fill="#00BA66"/>
<path d="M35.8475 1.83875C35.8475 1.19391 36.1796 0.627031 36.6819 0.29875C36.3932 0.110078 36.0483 0 35.6776 0C34.6621 0 33.8389 0.823203 33.8389 1.83875C33.8389 2.8543 34.6621 3.6775 35.6776 3.6775C36.0483 3.6775 36.3932 3.56742 36.6819 3.37867C36.1796 3.05047 35.8475 2.48359 35.8475 1.83875Z" fill="#0193FA"/>
<path d="M6.81152 27.9617H2.83418C2.55949 27.9617 2.33691 28.1844 2.33691 28.459V39.4053H7.30887V28.4591C7.30879 28.1844 7.08613 27.9617 6.81152 27.9617Z" fill="#FF656F"/>
<path d="M14.5254 24.0984H10.548C10.2734 24.0984 10.0508 24.321 10.0508 24.5956V39.4053H15.0227V24.5957C15.0227 24.321 14.8001 24.0984 14.5254 24.0984Z" fill="#FFA85D"/>
<path d="M22.2383 16.338H18.2609C17.9863 16.338 17.7637 16.5606 17.7637 16.8352V39.4054H22.7356V16.8352C22.7355 16.5606 22.5129 16.338 22.2383 16.338Z" fill="#FEE55A"/>
<path d="M29.9521 20.235H25.9748C25.7002 20.235 25.4775 20.4577 25.4775 20.7323V39.4053H30.4495V20.7323C30.4494 20.4577 30.2268 20.235 29.9521 20.235Z" fill="#43CB8E"/>
<path d="M37.666 8.59055H33.6887C33.414 8.59055 33.1914 8.8132 33.1914 9.08781V39.4053H38.1634V9.08789C38.1634 8.8132 37.9407 8.59055 37.666 8.59055Z" fill="#23A8FE"/>
<path d="M5.88973 27.9617H2.83418C2.55949 27.9617 2.33691 28.1844 2.33691 28.459V39.4053H5.39254V28.4591C5.39246 28.1844 5.61512 27.9617 5.88973 27.9617Z" fill="#FF4756"/>
<path d="M13.6037 24.0984H10.548C10.2734 24.0984 10.0508 24.321 10.0508 24.5956V39.4053H13.1064V24.5957C13.1064 24.321 13.329 24.0984 13.6037 24.0984Z" fill="#FF9839"/>
<path d="M21.3166 16.338H18.2609C17.9863 16.338 17.7637 16.5606 17.7637 16.8352V39.4054H20.8193V16.8352C20.8192 16.5606 21.0419 16.338 21.3166 16.338Z" fill="#FFD301"/>
<path d="M29.0304 20.235H25.9748C25.7002 20.235 25.4775 20.4577 25.4775 20.7323V39.4053H28.5332V20.7323C28.5331 20.4577 28.7557 20.235 29.0304 20.235Z" fill="#00BA66"/>
<path d="M36.7443 8.59055H33.6887C33.414 8.59055 33.1914 8.8132 33.1914 9.08781V39.4053H36.247V9.08789C36.247 8.8132 36.4697 8.59055 36.7443 8.59055Z" fill="#0193FA"/>
<path d="M39.4934 40H1.00574C0.677305 40 0.411133 39.7338 0.411133 39.4053C0.411133 39.0768 0.677383 38.8107 1.00574 38.8107H39.4934C39.8218 38.8107 40.088 39.0769 40.088 39.4053C40.088 39.7338 39.8218 40 39.4934 40Z" fill="#23A8FE"/>
</g>
<defs>
<clipPath id="clip0_5494_42442">
<rect width="40" height="40" fill="white" transform="translate(0.25)"/>
</clipPath>
</defs>
</svg>
