<svg width="24" height="24" viewBox="0 0 24 24" fill="none" xmlns="http://www.w3.org/2000/svg">
<path d="M19.5 6.92676L18.2861 4.5H5.71387L4.5 6.92676V19.5H19.5V6.92676ZM21 19.5C21 19.8978 20.8419 20.2792 20.5605 20.5605C20.2792 20.8419 19.8978 21 19.5 21H4.5C4.10218 21 3.72076 20.8419 3.43945 20.5605C3.15815 20.2792 3 19.8978 3 19.5V6.75C3 6.63371 3.02716 6.51908 3.0791 6.41504L4.5791 3.41504C4.70615 3.16095 4.96592 3 5.25 3H18.75L18.8555 3.00781C19.0971 3.0421 19.3098 3.19282 19.4209 3.41504L20.9209 6.41504C20.9728 6.51908 21 6.63371 21 6.75V19.5Z" fill="#556065"/>
<path d="M20.25 6C20.6642 6 21 6.33579 21 6.75C21 7.16421 20.6642 7.5 20.25 7.5H3.75C3.33579 7.5 3 7.16421 3 6.75C3 6.33579 3.33579 6 3.75 6H20.25Z" fill="#556065"/>
<path d="M11.25 17.25V9.75C11.25 9.33579 11.5858 9 12 9C12.4142 9 12.75 9.33579 12.75 9.75V17.25C12.75 17.6642 12.4142 18 12 18C11.5858 18 11.25 17.6642 11.25 17.25Z" fill="#556065"/>
<path d="M14.4697 13.7197C14.7626 13.4268 15.2374 13.4268 15.5303 13.7197C15.8232 14.0126 15.8232 14.4874 15.5303 14.7803L12.5303 17.7803C12.2374 18.0732 11.7626 18.0732 11.4697 17.7803L8.46973 14.7803C8.17683 14.4874 8.17683 14.0126 8.46973 13.7197C8.76262 13.4268 9.23738 13.4268 9.53027 13.7197L12 16.1895L14.4697 13.7197Z" fill="#556065"/>
</svg>
