<svg width="41" height="40" viewBox="0 0 41 40" fill="none" xmlns="http://www.w3.org/2000/svg">
<g clip-path="url(#clip0_5494_38394)">
<path d="M8.67969 2.31898V37.6811C8.67969 38.9618 9.71789 40.0001 10.9987 40.0001H30.6666C31.9473 40.0001 32.9855 38.9619 32.9855 37.6811V2.31898C32.9855 1.0382 31.9473 0 30.6666 0H23.1152L20.7923 0.78125L18.5499 0H10.9986C9.71789 0 8.67969 1.0382 8.67969 2.31898Z" fill="#60B8FE"/>
<path d="M30.6667 0H27.7539C29.0346 0 30.0728 1.0382 30.0728 2.31898V37.6811L32.9856 37.1561V2.31898C32.9857 1.0382 31.9474 0 30.6667 0Z" fill="#23A8FE"/>
<path d="M8.67969 37.156V37.681C8.67969 38.9617 9.71789 40 10.9987 40H30.6666C31.9473 40 32.9855 38.9618 32.9855 37.681V37.156H8.67969Z" fill="#678D98"/>
<path d="M32.9857 37.681V37.156H30.0729V37.681C30.0729 38.9617 29.0347 40 27.7539 40H30.6667C31.9474 40 32.9857 38.9618 32.9857 37.681Z" fill="#537983"/>
<path d="M18.5498 0V1.43391C18.5498 2.21266 19.1811 2.84398 19.9599 2.84398H21.705C22.4838 2.84398 23.1151 2.21266 23.1151 1.43391V0H18.5498Z" fill="#678D98"/>
<path d="M4.46777 8.56405V31.4359C4.46777 31.901 4.8448 32.2781 5.30996 32.2781H36.3558C36.8209 32.2781 37.198 31.9011 37.198 31.4359V8.56405C37.198 8.09897 36.821 7.72186 36.3558 7.72186H5.30996C4.8448 7.72194 4.46777 8.09897 4.46777 8.56405Z" fill="#EAF6FF"/>
<path d="M36.3554 7.72195H33.7119C34.177 7.72195 34.5541 8.09899 34.5541 8.56414V31.4359C34.5541 31.9011 34.1771 32.2781 33.7119 32.2781H36.3554C36.8205 32.2781 37.1976 31.9011 37.1976 31.4359V8.56406C37.1975 8.09899 36.8205 7.72195 36.3554 7.72195Z" fill="#D8ECFE"/>
<path d="M13.5215 13.1086V14.7634C13.5215 14.9954 13.7095 15.1835 13.9416 15.1835H15.5964C15.8284 15.1835 16.0165 14.9955 16.0165 14.7634V13.1086C16.0165 12.8766 15.8284 12.6885 15.5964 12.6885H13.9416C13.7095 12.6885 13.5215 12.8766 13.5215 13.1086Z" fill="#0055A3"/>
<path d="M13.5215 25.2367V26.8915C13.5215 27.1235 13.7095 27.3116 13.9416 27.3116H15.5964C15.8284 27.3116 16.0165 27.1235 16.0165 26.8915V25.2367C16.0165 25.0047 15.8284 24.8166 15.5964 24.8166H13.9416C13.7095 24.8166 13.5215 25.0046 13.5215 25.2367Z" fill="#0055A3"/>
<path d="M25.6494 13.1086V14.7635C25.6494 14.9954 25.8375 15.1835 26.0695 15.1835H27.7243C27.9563 15.1835 28.1444 14.9955 28.1444 14.7635V13.1086C28.1444 12.8767 27.9564 12.6885 27.7243 12.6885H26.0695C25.8375 12.6885 25.6494 12.8766 25.6494 13.1086Z" fill="#0055A3"/>
<path d="M38.9485 4.81897H34.8985C34.5651 4.81897 34.2949 5.0892 34.2949 5.42256C34.2949 5.75592 34.5652 6.02616 34.8985 6.02616H38.8937V10.0214C38.8937 10.3548 39.164 10.625 39.4973 10.625C39.8308 10.625 40.1009 10.3548 40.1009 10.0214V5.97139C40.1009 5.33592 39.5839 4.81897 38.9485 4.81897Z" fill="#46CC8D"/>
<path d="M39.4973 29.3751C39.1639 29.3751 38.8937 29.6453 38.8937 29.9787V33.9739H34.8985C34.5651 33.9739 34.2949 34.2441 34.2949 34.5775C34.2949 34.9108 34.5652 35.1811 34.8985 35.1811H38.9485C39.584 35.1811 40.1009 34.664 40.1009 34.0286V29.9786C40.1009 29.6454 39.8307 29.3751 39.4973 29.3751Z" fill="#46CC8D"/>
<path d="M6.76688 4.81891H2.71695C2.08148 4.81891 1.56445 5.33594 1.56445 5.97141V10.0214C1.56445 10.3548 1.83469 10.625 2.16805 10.625C2.50141 10.625 2.77164 10.3548 2.77164 10.0214V6.0261H6.76688C7.10023 6.0261 7.37047 5.75586 7.37047 5.4225C7.37047 5.08914 7.10031 4.81891 6.76688 4.81891Z" fill="#46CC8D"/>
<path d="M6.7668 33.9739H2.77164V29.9787C2.77164 29.6454 2.50141 29.3751 2.16805 29.3751C1.83469 29.3751 1.56445 29.6454 1.56445 29.9787V34.0287C1.56445 34.6642 2.08148 35.1812 2.71695 35.1812H6.76687C7.10023 35.1812 7.37047 34.911 7.37047 34.5776C7.37047 34.2443 7.10023 33.9739 6.7668 33.9739Z" fill="#46CC8D"/>
<path d="M18.1887 9.91187H11.3477C11.0144 9.91187 10.7441 10.1821 10.7441 10.5155V17.3565C10.7441 17.6898 11.0144 17.9601 11.3477 17.9601H18.1887C18.5221 17.9601 18.7923 17.6898 18.7923 17.3565V10.5155C18.7923 10.1821 18.5221 9.91187 18.1887 9.91187ZM17.5852 16.753H11.9513V11.1191H17.5852V16.753Z" fill="#0055A3"/>
<path d="M18.1887 22.04H11.3477C11.0144 22.04 10.7441 22.3103 10.7441 22.6436V29.4846C10.7441 29.818 11.0144 30.0882 11.3477 30.0882H18.1887C18.5221 30.0882 18.7923 29.818 18.7923 29.4846V22.6436C18.7923 22.3103 18.5221 22.04 18.1887 22.04ZM17.5852 28.8811H11.9513V23.2472H17.5852V28.8811Z" fill="#0055A3"/>
<path d="M30.3167 9.91193H23.4757C23.1422 9.91193 22.8721 10.1822 22.8721 10.5155V17.3565C22.8721 17.6899 23.1423 17.9601 23.4757 17.9601H30.3167C30.6501 17.9601 30.9203 17.6899 30.9203 17.3565V10.5155C30.9204 10.1822 30.6501 9.91193 30.3167 9.91193ZM29.7131 16.753H24.0793V11.1192H29.7131V16.753Z" fill="#0055A3"/>
<path d="M30.317 25.5729H26.8966C26.5631 25.5729 26.293 25.8432 26.293 26.1765V29.4847C26.293 29.818 26.5632 30.0882 26.8966 30.0882C27.23 30.0882 27.5002 29.818 27.5002 29.4847V26.7801H30.317C30.6505 26.7801 30.9206 26.5099 30.9206 26.1765C30.9206 25.8432 30.6505 25.5729 30.317 25.5729Z" fill="#0055A3"/>
<path d="M28.7559 22.1104V23.4339C28.7559 23.7672 29.0261 24.0375 29.3595 24.0375C29.6928 24.0375 29.963 23.7672 29.963 23.4339V22.1104C29.963 21.7771 29.6928 21.5068 29.3595 21.5068C29.0261 21.5068 28.7559 21.7771 28.7559 22.1104Z" fill="#0055A3"/>
<path d="M23.9916 27.7032H22.8887C22.5553 27.7032 22.2852 27.9734 22.2852 28.3068C22.2852 28.6401 22.5554 28.9103 22.8887 28.9103H23.9916C24.3251 28.9103 24.5952 28.6401 24.5952 28.3068C24.5952 27.9734 24.325 27.7032 23.9916 27.7032Z" fill="#0055A3"/>
<path d="M21.2745 12.1037C21.6079 12.1037 21.878 11.8335 21.878 11.5001C21.878 11.1667 21.6078 10.8965 21.2745 10.8965H20.3087C19.9753 10.8965 19.7051 11.1667 19.7051 11.5001C19.7051 11.8335 19.9753 12.1037 20.3087 12.1037H21.2745Z" fill="#0055A3"/>
<path d="M21.008 21.6871C20.6746 21.6871 20.4044 21.9574 20.4044 22.2907C20.4044 22.6241 20.6746 22.8943 21.008 22.8943H22.8888C23.2222 22.8943 23.4923 22.6241 23.4923 22.2907V20.415H25.8913C26.2248 20.415 26.4949 20.1448 26.4949 19.8114C26.4949 19.4781 26.2247 19.2078 25.8913 19.2078H21.6115V15.9641C21.6115 15.6307 21.3412 15.3605 21.0079 15.3605C20.6745 15.3605 20.4043 15.6307 20.4043 15.9641V19.8114C20.4043 20.1448 20.6745 20.415 21.0079 20.415H22.2852V21.6871H21.008V21.6871Z" fill="#0055A3"/>
<path d="M11.3477 20.0806H12.4813C12.8147 20.0806 13.0849 19.8104 13.0849 19.477C13.0849 19.1436 12.8147 18.8734 12.4813 18.8734H11.3477C11.0144 18.8734 10.7441 19.1436 10.7441 19.477C10.7441 19.8104 11.0143 20.0806 11.3477 20.0806Z" fill="#0055A3"/>
<path d="M15.8907 21.0199C16.224 21.0199 16.4943 20.7496 16.4943 20.4163C16.4943 20.0829 16.224 19.8127 15.8907 19.8127H14.3253C13.9919 19.8127 13.7217 20.0829 13.7217 20.4163C13.7217 20.7496 13.9919 21.0199 14.3253 21.0199H15.8907Z" fill="#0055A3"/>
<path d="M27.5934 23.4339C27.5934 23.1005 27.3232 22.8303 26.9898 22.8303H26.2521V21.9853C26.2521 21.6519 25.9819 21.3817 25.6485 21.3817C25.3152 21.3817 25.0449 21.6519 25.0449 21.9853V23.4339C25.0449 23.7672 25.3152 24.0375 25.6485 24.0375H26.9898C27.3233 24.0375 27.5934 23.7672 27.5934 23.4339Z" fill="#0055A3"/>
<path d="M24.0489 24.3695H20.8321C20.4987 24.3695 20.2285 24.6397 20.2285 24.9731V29.4847C20.2285 29.818 20.4987 30.0883 20.8321 30.0883C21.1655 30.0883 21.4357 29.818 21.4357 29.4847V25.5768H24.0489C24.3823 25.5768 24.6525 25.3065 24.6525 24.9732C24.6525 24.6398 24.3823 24.3695 24.0489 24.3695Z" fill="#0055A3"/>
<path d="M18.1886 18.934C17.8552 18.934 17.585 19.2043 17.585 19.5376V20.5436C17.585 20.877 17.8552 21.1472 18.1886 21.1472C18.5219 21.1472 18.7921 20.877 18.7921 20.5436V19.5376C18.7921 19.2043 18.5219 18.934 18.1886 18.934Z" fill="#0055A3"/>
<path d="M29.7505 27.7032H29.0372C28.7038 27.7032 28.4336 27.9734 28.4336 28.3068C28.4336 28.6401 28.7038 28.9103 29.0372 28.9103H29.7505C30.084 28.9103 30.3541 28.6401 30.3541 28.3068C30.3541 27.9734 30.084 27.7032 29.7505 27.7032Z" fill="#0055A3"/>
<path d="M29.0443 19.2079H28.1436C27.8102 19.2079 27.54 19.4781 27.54 19.8115C27.54 20.1448 27.8103 20.415 28.1436 20.415H29.0443C29.3777 20.415 29.6479 20.1448 29.6479 19.8115C29.6479 19.4781 29.3776 19.2079 29.0443 19.2079Z" fill="#0055A3"/>
</g>
<defs>
<clipPath id="clip0_5494_38394">
<rect width="40" height="40" fill="white" transform="translate(0.833008)"/>
</clipPath>
</defs>
</svg>
