<svg width="41" height="40" viewBox="0 0 41 40" fill="none" xmlns="http://www.w3.org/2000/svg">
<path d="M19.403 33.3333H4.16559C2.69285 33.3333 1.49902 32.1394 1.49902 30.6667V28H21.9644L19.403 33.3333Z" fill="#B3DAFE"/>
<path d="M36.1682 12V23.2029V30.6665H4.16559C2.69285 30.6665 1.49902 29.4726 1.49902 27.9999V12L20.167 5.33325L36.1682 12Z" fill="#EAF6FF"/>
<path d="M6.20863 17.3334H4.79199C4.44684 17.3334 4.16699 17.0535 4.16699 16.7084V15.2917C4.16699 14.9466 4.44684 14.6667 4.79199 14.6667H6.20863C6.55379 14.6667 6.83363 14.9466 6.83363 15.2917V16.7084C6.83363 17.0535 6.55379 17.3334 6.20863 17.3334Z" fill="#576574"/>
<path d="M11.5416 17.3334H10.125C9.77984 17.3334 9.5 17.0535 9.5 16.7084V15.2917C9.5 14.9466 9.77984 14.6667 10.125 14.6667H11.5416C11.8868 14.6667 12.1666 14.9466 12.1666 15.2917V16.7084C12.1666 17.0535 11.8868 17.3334 11.5416 17.3334Z" fill="#576574"/>
<path d="M16.8756 17.3334H15.459C15.1138 17.3334 14.834 17.0535 14.834 16.7084V15.2917C14.834 14.9466 15.1138 14.6667 15.459 14.6667H16.8756C17.2208 14.6667 17.5006 14.9466 17.5006 15.2917V16.7084C17.5006 17.0535 17.2209 17.3334 16.8756 17.3334Z" fill="#576574"/>
<path d="M22.2086 17.3334H20.792C20.4468 17.3334 20.167 17.0535 20.167 16.7084V15.2917C20.167 14.9466 20.4468 14.6667 20.792 14.6667H22.2086C22.5538 14.6667 22.8336 14.9466 22.8336 15.2917V16.7084C22.8336 17.0535 22.5538 17.3334 22.2086 17.3334Z" fill="#576574"/>
<path d="M27.5407 17.3334H26.124C25.7789 17.3334 25.499 17.0535 25.499 16.7084V15.2917C25.499 14.9466 25.7789 14.6667 26.124 14.6667H27.5407C27.8858 14.6667 28.1657 14.9466 28.1657 15.2917V16.7084C28.1657 17.0535 27.8859 17.3334 27.5407 17.3334Z" fill="#576574"/>
<path d="M32.8746 17.3334H31.458C31.1129 17.3334 30.833 17.0535 30.833 16.7084V15.2917C30.833 14.9466 31.1129 14.6667 31.458 14.6667H32.8746C33.2198 14.6667 33.4996 14.9466 33.4996 15.2917V16.7084C33.4996 17.0535 33.2198 17.3334 32.8746 17.3334Z" fill="#576574"/>
<path d="M6.20863 22.6666H4.79199C4.44684 22.6666 4.16699 22.3868 4.16699 22.0416V20.625C4.16699 20.2798 4.44684 20 4.79199 20H6.20863C6.55379 20 6.83363 20.2798 6.83363 20.625V22.0416C6.83363 22.3869 6.55379 22.6666 6.20863 22.6666Z" fill="#576574"/>
<path d="M11.5416 22.6666H10.125C9.77984 22.6666 9.5 22.3868 9.5 22.0416V20.625C9.5 20.2798 9.77984 20 10.125 20H11.5416C11.8868 20 12.1666 20.2798 12.1666 20.625V22.0416C12.1666 22.3869 11.8868 22.6666 11.5416 22.6666Z" fill="#576574"/>
<path d="M16.8756 22.6666H15.459C15.1138 22.6666 14.834 22.3868 14.834 22.0416V20.625C14.834 20.2798 15.1138 20 15.459 20H16.8756C17.2208 20 17.5006 20.2798 17.5006 20.625V22.0416C17.5006 22.3869 17.2209 22.6666 16.8756 22.6666Z" fill="#576574"/>
<path d="M22.8336 22.6666V20.6666C22.8336 20.2984 22.5352 20 22.167 20H20.8336C20.4654 20 20.167 20.2984 20.167 20.6666V22C20.167 22.3682 20.4655 22.6666 20.8336 22.6666H22.8336Z" fill="#576574"/>
<path d="M6.20863 28H4.79199C4.44684 28 4.16699 27.7202 4.16699 27.375V25.9584C4.16699 25.6132 4.44684 25.3334 4.79199 25.3334H6.20863C6.55379 25.3334 6.83363 25.6132 6.83363 25.9584V27.375C6.83363 27.7202 6.55379 28 6.20863 28Z" fill="#576574"/>
<path d="M11.5416 28H10.125C9.77984 28 9.5 27.7202 9.5 27.375V25.9584C9.5 25.6132 9.77984 25.3334 10.125 25.3334H11.5416C11.8868 25.3334 12.1666 25.6132 12.1666 25.9584V27.375C12.1666 27.7202 11.8868 28 11.5416 28Z" fill="#576574"/>
<path d="M16.8756 28H15.459C15.1138 28 14.834 27.7202 14.834 27.375V25.9584C14.834 25.6132 15.1138 25.3334 15.459 25.3334H16.8756C17.2208 25.3334 17.5006 25.6132 17.5006 25.9584V27.375C17.5006 27.7202 17.2209 28 16.8756 28Z" fill="#576574"/>
<path d="M32.8552 14.6666H31.4763C31.3929 14.6666 31.3134 14.683 31.2402 14.7119C31.4789 14.8061 31.648 15.0383 31.648 15.3105V16.6894C31.648 16.9615 31.4788 17.1937 31.2402 17.288C31.3134 17.3169 31.3929 17.3333 31.4763 17.3333H32.8552C33.2109 17.3333 33.4991 17.045 33.4991 16.6894V15.3105C33.4991 14.9549 33.2108 14.6666 32.8552 14.6666Z" fill="#3E4B5A"/>
<path d="M27.5222 14.6666H26.1433C26.0599 14.6666 25.9804 14.683 25.9072 14.7119C26.1459 14.8061 26.315 15.0383 26.315 15.3105V16.6894C26.315 16.9615 26.1458 17.1937 25.9072 17.288C25.9804 17.3169 26.0599 17.3333 26.1433 17.3333H27.5222C27.8779 17.3333 28.1661 17.045 28.1661 16.6894V15.3105C28.1661 14.9549 27.8779 14.6666 27.5222 14.6666Z" fill="#3E4B5A"/>
<path d="M22.1892 14.6666H20.8103C20.7269 14.6666 20.6474 14.683 20.5742 14.7119C20.8129 14.8061 20.982 15.0383 20.982 15.3105V16.6894C20.982 16.9615 20.8129 17.1937 20.5742 17.288C20.6474 17.3169 20.7269 17.3333 20.8103 17.3333H22.1892C22.5448 17.3333 22.8331 17.045 22.8331 16.6894V15.3105C22.833 14.9549 22.5448 14.6666 22.1892 14.6666Z" fill="#3E4B5A"/>
<path d="M16.8562 14.6666H15.4773C15.3939 14.6666 15.3144 14.683 15.2412 14.7119C15.4799 14.8061 15.649 15.0383 15.649 15.3105V16.6894C15.649 16.9615 15.4799 17.1937 15.2412 17.288C15.3144 17.3169 15.3939 17.3333 15.4773 17.3333H16.8562C17.2118 17.3333 17.5001 17.045 17.5001 16.6894V15.3105C17.5 14.9549 17.2118 14.6666 16.8562 14.6666Z" fill="#3E4B5A"/>
<path d="M11.5222 14.6666H10.1433C10.0599 14.6666 9.98043 14.683 9.90723 14.7119C10.1459 14.8061 10.315 15.0383 10.315 15.3105V16.6894C10.315 16.9615 10.1458 17.1937 9.90723 17.288C9.98043 17.3169 10.0599 17.3333 10.1433 17.3333H11.5222C11.8779 17.3333 12.1661 17.045 12.1661 16.6894V15.3105C12.1661 14.9549 11.8779 14.6666 11.5222 14.6666Z" fill="#3E4B5A"/>
<path d="M6.18922 14.6666H4.81031C4.72687 14.6666 4.64742 14.683 4.57422 14.7119C4.81289 14.8061 4.98203 15.0383 4.98203 15.3105V16.6894C4.98203 16.9615 4.81289 17.1937 4.57422 17.288C4.64742 17.3169 4.72687 17.3333 4.81031 17.3333H6.18922C6.54484 17.3333 6.83312 17.045 6.83312 16.6894V15.3105C6.83305 14.9549 6.54477 14.6666 6.18922 14.6666Z" fill="#3E4B5A"/>
<path d="M6.18922 20H4.81031C4.72687 20 4.64742 20.0164 4.57422 20.0452C4.81289 20.1395 4.98203 20.3716 4.98203 20.6438V22.0228C4.98203 22.295 4.81289 22.5272 4.57422 22.6214C4.64742 22.6503 4.72687 22.6667 4.81031 22.6667H6.18922C6.54484 22.6667 6.83312 22.3784 6.83312 22.0229V20.6439C6.83305 20.2883 6.54477 20 6.18922 20Z" fill="#3E4B5A"/>
<path d="M6.18922 25.3334H4.81031C4.72687 25.3334 4.64742 25.3498 4.57422 25.3786C4.81289 25.4728 4.98203 25.705 4.98203 25.9772V27.3562C4.98203 27.6284 4.81289 27.8606 4.57422 27.9548C4.64742 27.9837 4.72687 28.0001 4.81031 28.0001H6.18922C6.54484 28.0001 6.83312 27.7118 6.83312 27.3563V25.9773C6.83305 25.6216 6.54477 25.3334 6.18922 25.3334Z" fill="#3E4B5A"/>
<path d="M11.5222 20H10.1433C10.0599 20 9.98043 20.0164 9.90723 20.0452C10.1459 20.1395 10.315 20.3716 10.315 20.6438V22.0228C10.315 22.295 10.1458 22.5272 9.90723 22.6214C9.98043 22.6503 10.0599 22.6667 10.1433 22.6667H11.5222C11.8779 22.6667 12.1661 22.3784 12.1661 22.0229V20.6439C12.1661 20.2883 11.8779 20 11.5222 20Z" fill="#3E4B5A"/>
<path d="M11.5222 25.3334H10.1433C10.0599 25.3334 9.98043 25.3498 9.90723 25.3786C10.1459 25.4728 10.315 25.705 10.315 25.9772V27.3562C10.315 27.6284 10.1458 27.8606 9.90723 27.9548C9.98043 27.9837 10.0599 28.0001 10.1433 28.0001H11.5222C11.8779 28.0001 12.1661 27.7118 12.1661 27.3563V25.9773C12.1661 25.6216 11.8779 25.3334 11.5222 25.3334Z" fill="#3E4B5A"/>
<path d="M16.8562 20H15.4773C15.3939 20 15.3144 20.0164 15.2412 20.0452C15.4799 20.1395 15.649 20.3716 15.649 20.6438V22.0228C15.649 22.295 15.4799 22.5272 15.2412 22.6214C15.3144 22.6503 15.3939 22.6667 15.4773 22.6667H16.8562C17.2118 22.6667 17.5001 22.3784 17.5001 22.0229V20.6439C17.5 20.2883 17.2118 20 16.8562 20Z" fill="#3E4B5A"/>
<path d="M22.8331 22.6666V20.6438C22.8331 20.2882 22.5448 20 22.1892 20H20.8103C20.7269 20 20.6474 20.0164 20.5742 20.0452C20.8129 20.1395 20.982 20.3716 20.982 20.6438V22.0228C20.982 22.295 20.8129 22.5272 20.5742 22.6214C20.6474 22.6503 20.7269 22.6667 20.8103 22.6667H22.8331V22.6666Z" fill="#3E4B5A"/>
<path d="M16.8562 25.3334H15.4773C15.3939 25.3334 15.3144 25.3498 15.2412 25.3786C15.4799 25.4728 15.649 25.705 15.649 25.9772V27.3562C15.649 27.6284 15.4799 27.8606 15.2412 27.9548C15.3144 27.9837 15.3939 28.0001 15.4773 28.0001H16.8562C17.2118 28.0001 17.5001 27.7118 17.5001 27.3563V25.9773C17.5 25.6216 17.2118 25.3334 16.8562 25.3334Z" fill="#3E4B5A"/>
<path d="M34.3154 11.2282V23.203V30.6666H36.1679V23.203V12L34.3154 11.2282Z" fill="#B3DAFE"/>
<path d="M36.1682 12V5.33331C36.1682 3.86058 34.9743 2.66675 33.5017 2.66675H4.16559C2.69285 2.66675 1.49902 3.86058 1.49902 5.33331V12H36.1682Z" fill="#FC502A"/>
<path d="M9.9018 5.93692H8.16609C7.83266 5.93692 7.5625 5.66669 7.5625 5.33333C7.5625 4.99997 7.83273 4.72974 8.16609 4.72974H9.9018C10.2352 4.72974 10.5054 4.99997 10.5054 5.33333C10.5054 5.66669 10.2352 5.93692 9.9018 5.93692Z" fill="#E60D28"/>
<path d="M14.1664 5.93692H12.4307C12.0973 5.93692 11.8271 5.66669 11.8271 5.33333C11.8271 4.99997 12.0974 4.72974 12.4307 4.72974H14.1664C14.4999 4.72974 14.77 4.99997 14.77 5.33333C14.77 5.66669 14.4999 5.93692 14.1664 5.93692Z" fill="#E60D28"/>
<path d="M25.2359 5.93692H23.5001C23.1666 5.93692 22.8965 5.66669 22.8965 5.33333C22.8965 4.99997 23.1667 4.72974 23.5001 4.72974H25.2359C25.5693 4.72974 25.8395 4.99997 25.8395 5.33333C25.8395 5.66669 25.5693 5.93692 25.2359 5.93692Z" fill="#E60D28"/>
<path d="M29.5005 5.93692H27.7647C27.4313 5.93692 27.1611 5.66669 27.1611 5.33333C27.1611 4.99997 27.4314 4.72974 27.7647 4.72974H29.5005C29.8339 4.72974 30.1041 4.99997 30.1041 5.33333C30.1041 5.66669 29.8339 5.93692 29.5005 5.93692Z" fill="#E60D28"/>
<path d="M12.8323 5C12.8323 5.92047 12.0861 6.66664 11.1657 6.66664C10.2452 6.66664 9.49902 5.92047 9.49902 5V1.66664C9.49895 0.746172 10.2451 0 11.1656 0C12.0861 0 12.8322 0.746172 12.8322 1.66664V5H12.8323Z" fill="#EAF6FF"/>
<path d="M28.1664 5C28.1664 5.92047 27.4202 6.66664 26.4997 6.66664C25.5793 6.66664 24.833 5.92047 24.833 5V1.66664C24.833 0.746172 25.5792 0 26.4996 0C27.4201 0 28.1663 0.746172 28.1663 1.66664V5H28.1664Z" fill="#EAF6FF"/>
<path d="M26.4999 0C26.1577 0 25.8399 0.103438 25.5752 0.280313C26.0225 0.579219 26.3172 1.08836 26.3172 1.66672V5C26.3172 5.57828 26.0225 6.0875 25.5752 6.38641C25.8398 6.5632 26.1577 6.66672 26.4999 6.66672C27.4204 6.66672 28.1665 5.92055 28.1665 5.00008V1.66664C28.1666 0.746172 27.4204 0 26.4999 0Z" fill="#B3DAFE"/>
<path d="M11.1659 0C10.8237 0 10.5059 0.103438 10.2412 0.280313C10.6885 0.579219 10.9832 1.08836 10.9832 1.66672V5C10.9832 5.57828 10.6885 6.0875 10.2412 6.38641C10.5058 6.5632 10.8237 6.66672 11.1659 6.66672C12.0864 6.66672 12.8325 5.92055 12.8325 5.00008V1.66664C12.8326 0.746172 12.0864 0 11.1659 0Z" fill="#B3DAFE"/>
<path d="M33.5022 2.66663H31.6504C33.1231 2.66663 34.317 3.86045 34.317 5.33319V12H36.1687V5.33327C36.1688 3.86053 34.9748 2.66663 33.5022 2.66663Z" fill="#E60D28"/>
<path d="M1.49902 8.72968H36.1683V9.93694H1.49902V8.72968Z" fill="#E60D28"/>
<path d="M28.834 40C34.3568 40 38.834 35.5228 38.834 30C38.834 24.4772 34.3568 20 28.834 20C23.3111 20 18.834 24.4772 18.834 30C18.834 35.5228 23.3111 40 28.834 40Z" fill="#60B8FE"/>
<path d="M28.8334 37.3333C32.8835 37.3333 36.1667 34.0501 36.1667 30C36.1667 25.9499 32.8835 22.6666 28.8334 22.6666C24.7833 22.6666 21.5 25.9499 21.5 30C21.5 34.0501 24.7833 37.3333 28.8334 37.3333Z" fill="#EAF6FF"/>
<path d="M28.8341 29.2702C28.5006 29.2702 28.2305 29 28.2305 28.6666V25.3333C28.2305 24.9999 28.5007 24.7297 28.8341 24.7297C29.1675 24.7297 29.4377 24.9999 29.4377 25.3333V28.6666C29.4377 29 29.1674 29.2702 28.8341 29.2702Z" fill="#576574"/>
<path d="M32.1671 30.6036H30.1671C29.8336 30.6036 29.5635 30.3334 29.5635 30C29.5635 29.6667 29.8337 29.3964 30.1671 29.3964H32.1671C32.5006 29.3964 32.7707 29.6667 32.7707 30C32.7707 30.3334 32.5005 30.6036 32.1671 30.6036Z" fill="#576574"/>
<path d="M28.8338 20C28.5217 20 28.2131 20.0151 27.9083 20.043C32.9971 20.5102 36.9827 24.7893 36.9827 30C36.9827 35.2107 32.997 39.4898 27.9082 39.957C28.213 39.9849 28.5216 40 28.8338 40C34.3566 40 38.8338 35.5228 38.8338 30C38.8338 24.4772 34.3566 20 28.8338 20Z" fill="#23A8FE"/>
<path d="M28.8341 22.6666C28.5208 22.6666 28.2121 22.6864 27.9092 22.7245C31.5226 23.1793 34.3176 26.2632 34.3176 30C34.3176 33.7368 31.5226 36.8207 27.9092 37.2755C28.2121 37.3136 28.5208 37.3333 28.8341 37.3333C32.8842 37.3333 36.1675 34.0501 36.1675 30C36.1675 25.9499 32.8842 22.6666 28.8341 22.6666Z" fill="#B3DAFE"/>
<path d="M28.8334 31.3333C29.5698 31.3333 30.1667 30.7364 30.1667 30C30.1667 29.2636 29.5698 28.6666 28.8334 28.6666C28.097 28.6666 27.5 29.2636 27.5 30C27.5 30.7364 28.097 31.3333 28.8334 31.3333Z" fill="#FFC344"/>
</svg>
