<svg width="41" height="40" viewBox="0 0 41 40" fill="none" xmlns="http://www.w3.org/2000/svg">
<g clip-path="url(#clip0_5494_49355)">
<path d="M34.079 7.4729H25.2189L21.8375 9.53212L20.1769 7.4729H11.3171C10.4651 7.4729 9.77441 8.1636 9.77441 9.01563V30.1121C9.77441 30.872 10.3904 31.4881 11.1504 31.4881H34.2457C35.0056 31.4881 35.6216 30.872 35.6216 30.1121V9.01563C35.6217 8.1636 34.931 7.4729 34.079 7.4729Z" fill="#E9BB91"/>
<path d="M35.6214 9.01578V30.1122C35.6214 30.872 35.0054 31.488 34.2456 31.488H30.7464C31.507 31.488 32.123 30.872 32.123 30.1122V9.01578C32.123 8.16398 31.432 7.47281 30.5801 7.47281H34.0793C34.931 7.47289 35.6214 8.16398 35.6214 9.01578Z" fill="#CA936C"/>
<path d="M22.5254 15.9521L20.6831 15.9523C20.404 15.9523 20.1777 15.7261 20.1777 15.4469V7.47289L23.0309 7.47281L23.4991 15.4467C23.499 15.7259 23.1168 15.9521 22.5254 15.9521Z" fill="#8E6459"/>
<path d="M25.2196 7.4729V15.4467C25.2196 15.7261 24.9935 15.9521 24.7142 15.9521H22.5254C22.8048 15.9521 23.0308 15.726 23.0308 15.4467V7.4729H25.2196Z" fill="#764F43"/>
<path d="M4.05566 30.0478V37.048C4.05566 37.8013 4.7577 38.3581 5.49121 38.1864L11.4276 36.7976C12.2479 36.6057 13.0875 36.5088 13.9299 36.5088H21.4429C22.2368 36.5088 23.0282 36.4228 23.8036 36.2521L33.5826 34.1003C34.5082 33.9176 35.3015 33.3262 35.741 32.4913L38.8052 26.6692C39.2022 25.9149 38.9599 24.9824 38.2459 24.5168C37.5134 24.0391 36.5355 24.2153 36.0157 24.9185L32.4561 29.7345C32.2998 29.946 32.042 30.0571 31.7809 30.0256L22.951 28.9617L25.5506 25.9749C26.2264 25.473 26.8464 24.1562 26.8464 24.1562C26.4159 23.5477 24.8532 23.57 24.8532 23.57L19.5166 26.0159C19.2443 26.1407 18.9536 26.2221 18.6554 26.2513C17.8643 26.3288 15.9781 26.6842 13.8889 28.2996C13.57 28.5461 13.183 28.6886 12.78 28.6981L5.19699 28.8788C4.5623 28.894 4.05566 29.4129 4.05566 30.0478Z" fill="#FFDFCF"/>
<path d="M38.8047 26.6691L35.7406 32.4912C35.3014 33.326 34.5077 33.9178 33.5825 34.1003L31.4688 34.5654C31.9734 34.2739 32.3924 33.8444 32.6702 33.3163L36.5529 26.6691C36.9049 26.0005 36.7539 25.1907 36.217 24.6933C36.5279 24.4019 36.9332 24.2485 37.3441 24.2485C37.6541 24.2485 37.9683 24.3357 38.246 24.5174C38.9598 24.9824 39.202 25.9149 38.8047 26.6691Z" fill="#FFCEBF"/>
<path d="M27.3305 23.8238C27.0326 23.4023 26.5554 23.169 26.0653 23.169C25.8481 23.169 25.6285 23.215 25.4203 23.3103L24.8535 23.5703C24.9366 23.6446 25.0117 23.7294 25.0787 23.8239C25.5647 24.511 25.413 25.4604 24.7371 25.9626L20.5469 29.3443C20.2864 29.5542 20.2456 29.9354 20.4553 30.1958C20.575 30.3442 20.7503 30.4214 20.9272 30.4214C21.0606 30.4214 21.1949 30.3774 21.3067 30.2872L22.951 28.962H22.9511L26.9897 25.9625C27.6656 25.4603 27.8166 24.5108 27.3305 23.8238Z" fill="#FFCEBF"/>
<path d="M10.0059 25.4473H1.25477C0.653437 25.4473 0.166016 24.9599 0.166016 24.3585C0.166016 23.7572 0.653437 23.2698 1.25477 23.2698H10.0059C10.6073 23.2698 12.1109 23.7572 12.1109 24.3585C12.1109 24.9599 10.6073 25.4473 10.0059 25.4473Z" fill="#60B8FE"/>
<path d="M13.7511 19.9431H7.27234C6.67102 19.9431 6.18359 19.4557 6.18359 18.8544C6.18359 18.253 6.67102 17.7656 7.27234 17.7656H13.7511C14.3524 17.7656 16.1118 18.253 16.1118 18.8544C16.1118 19.4557 14.3524 19.9431 13.7511 19.9431Z" fill="#60B8FE"/>
<path d="M6.18375 14.4391H1.25477C0.653437 14.4391 0.166016 13.9516 0.166016 13.3502C0.166016 12.7489 0.653437 12.2615 1.25477 12.2615H6.18375C6.78508 12.2615 7.2725 12.7489 7.2725 13.3502C7.2725 13.9516 6.78508 14.4391 6.18375 14.4391Z" fill="#60B8FE"/>
<path d="M13.2898 24.3586C13.2898 24.9602 12.8027 25.4473 12.2011 25.4473H10.0059C10.6075 25.4473 11.0946 24.9602 11.0946 24.3586C11.0946 23.7569 10.6075 23.2698 10.0059 23.2698H12.2011C12.8027 23.2698 13.2898 23.7569 13.2898 24.3586Z" fill="#23A8FE"/>
<path d="M17.035 18.8544C17.035 19.456 16.5471 19.9431 15.9462 19.9431H13.751C14.3518 19.9431 14.8397 19.456 14.8397 18.8544C14.8397 18.2527 14.3518 17.7656 13.751 17.7656H15.9462C16.5471 17.7656 17.035 18.2527 17.035 18.8544Z" fill="#23A8FE"/>
<path d="M7.27227 13.3501C7.27227 13.9517 6.78437 14.4388 6.18352 14.4388H3.98828C4.58914 14.4388 5.07703 13.9517 5.07703 13.3501C5.07703 12.7492 4.58914 12.2613 3.98828 12.2613H6.18352C6.78437 12.2613 7.27227 12.7493 7.27227 13.3501Z" fill="#23A8FE"/>
<path d="M38.1525 8.23851C38.1525 14.4351 31.89 14.4351 31.89 14.4351C29.2101 13.6494 27.2529 11.1724 27.2529 8.23851C27.2529 5.34132 29.2618 2.8603 31.89 2.0428C31.89 2.0428 38.1525 1.78226 38.1525 8.23851Z" fill="#8ACC19"/>
<path d="M40.1657 8.23821C40.1657 11.8045 37.2752 14.6949 33.7089 14.6949C33.0774 14.6949 32.4664 14.6043 31.8896 14.4352C34.5698 13.6497 36.527 11.1729 36.527 8.23829C36.527 5.30438 34.5698 2.82766 31.8896 2.0429C32.4664 1.87297 33.0774 1.78235 33.7089 1.78235C37.2752 1.78227 40.1657 4.67274 40.1657 8.23821Z" fill="#79AF10"/>
<path d="M36.8711 6.37867L36.4815 7.46492L33.2139 10.7325C33.1026 10.8438 32.9564 10.8994 32.8101 10.8994C32.6639 10.8994 32.5176 10.8438 32.4064 10.7325L30.0248 8.35094C29.8016 8.12773 29.8016 7.76664 30.0248 7.54336C30.248 7.32016 30.6099 7.32016 30.8331 7.54336L32.8101 9.52039L36.1813 6.14844C36.1813 6.14844 37.0943 6.15539 36.8711 6.37867Z" fill="#EAF6FF"/>
<path d="M37.3938 6.55295L36.4818 7.46491C36.4277 7.01006 36.3256 6.56897 36.1816 6.14842L36.5854 5.74467C36.8086 5.52147 37.1705 5.52147 37.3938 5.74467C37.617 5.96788 37.617 6.32975 37.3938 6.55295Z" fill="#D8ECFE"/>
</g>
<defs>
<clipPath id="clip0_5494_49355">
<rect width="40" height="40" fill="white" transform="translate(0.166016)"/>
</clipPath>
</defs>
</svg>
