<svg width="24" height="24" viewBox="0 0 24 24" fill="none" xmlns="http://www.w3.org/2000/svg">
<path fill-rule="evenodd" clip-rule="evenodd" d="M15.8759 3.87592C16.4393 3.31258 17.2033 2.99609 18 2.99609C18.7967 2.99609 19.5608 3.31258 20.1241 3.87592C20.6874 4.43926 21.0039 5.20331 21.0039 6C21.0039 6.79668 20.6874 7.56074 20.1241 8.12408C20.1186 8.1296 20.113 8.13504 20.1073 8.14038L17.3738 10.7082L20.2049 18.4937C20.3044 18.7675 20.2364 19.0743 20.0303 19.2803L17.7803 21.5303C17.6215 21.6892 17.3997 21.7685 17.1761 21.7463C16.9525 21.7242 16.7506 21.603 16.626 21.416L12.6334 15.4272L11.25 16.8107V18.75C11.25 18.9489 11.171 19.1397 11.0303 19.2803L8.78034 21.5303C8.60208 21.7086 8.34617 21.7854 8.09921 21.7347C7.85225 21.684 7.64728 21.5126 7.55365 21.2785L6.17303 17.827L2.72147 16.4464C2.48739 16.3527 2.31602 16.1478 2.26533 15.9008C2.21464 15.6538 2.29142 15.3979 2.46968 15.2197L4.71968 12.9697C4.86033 12.829 5.0511 12.75 5.25001 12.75H7.18935L8.57278 11.3666L2.58399 7.37403C2.39703 7.2494 2.2758 7.0475 2.25366 6.8239C2.23152 6.6003 2.3108 6.37855 2.46968 6.21967L4.71968 3.96967C4.92573 3.76362 5.23247 3.69557 5.50632 3.79515L13.2918 6.62623L15.8596 3.89274C15.865 3.88705 15.8704 3.88144 15.8759 3.87592ZM16.9441 4.92915L14.0466 8.0135C13.8413 8.23207 13.5255 8.30733 13.2437 8.20484L5.4426 5.36807L4.17724 6.63343L10.166 10.626C10.353 10.7506 10.4742 10.9525 10.4964 11.1761C10.5185 11.3997 10.4392 11.6214 10.2803 11.7803L8.03034 14.0303C7.88969 14.171 7.69892 14.25 7.50001 14.25H5.56067L4.33461 15.4761L7.02856 16.5536C7.21913 16.6299 7.37014 16.7809 7.44637 16.9715L8.52395 19.6654L9.75001 18.4393V16.5C9.75001 16.3011 9.82903 16.1103 9.96968 15.9697L12.2197 13.7197C12.3786 13.5608 12.6003 13.4815 12.8239 13.5036C13.0475 13.5258 13.2494 13.647 13.3741 13.834L17.3666 19.8228L18.6319 18.5574L15.7952 10.7563C15.6927 10.4745 15.7679 10.1587 15.9865 9.95336L19.0708 7.05596C19.3482 6.77465 19.5039 6.39535 19.5039 6C19.5039 5.60114 19.3455 5.21861 19.0634 4.93658C18.7814 4.65454 18.3989 4.49609 18 4.49609C17.6047 4.49609 17.2254 4.65176 16.9441 4.92915Z" fill="#556065"/>
</svg>
