<svg width="41" height="40" viewBox="0 0 41 40" fill="none" xmlns="http://www.w3.org/2000/svg">
<g clip-path="url(#clip0_5494_34343)">
<path d="M33.046 30.7479C32.7578 30.7479 32.5028 30.5409 32.4519 30.2472C31.5157 24.8403 29.9118 22.3931 29.8957 22.369C29.7105 22.0918 29.7851 21.717 30.0623 21.5318C30.3394 21.3465 30.7143 21.4211 30.8995 21.6984C30.971 21.8055 32.662 24.3849 33.6415 30.0413C33.6983 30.3698 33.4782 30.6822 33.1497 30.7391C33.1148 30.745 33.0802 30.7479 33.046 30.7479Z" fill="#79A72D"/>
<path d="M22.7557 30.7478C22.7382 30.7478 22.7205 30.7471 22.7028 30.7456C22.3708 30.7168 22.1248 30.4242 22.1537 30.092C22.1594 30.026 22.7271 23.4207 22.7326 18.2652C22.733 17.932 23.0031 17.6622 23.3362 17.6622H23.3368C23.6702 17.6626 23.9401 17.9331 23.9398 18.2664C23.9342 23.4743 23.3621 30.1298 23.3562 30.1964C23.3291 30.5107 23.0655 30.7478 22.7557 30.7478Z" fill="#79A72D"/>
<path d="M4.9634 30.7478C4.74098 30.7478 4.52715 30.6245 4.42199 30.4116C4.32652 30.2182 2.08301 25.6038 2.08301 19.2157C2.08301 18.8822 2.35324 18.6121 2.6866 18.6121C3.01996 18.6121 3.2902 18.8823 3.2902 19.2157C3.2902 25.3082 5.48238 29.8322 5.50449 29.8772C5.6516 30.1762 5.52879 30.538 5.22996 30.6853C5.14418 30.7277 5.05301 30.7478 4.9634 30.7478Z" fill="#79A72D"/>
<path d="M18.961 30.7473C18.6667 30.7473 18.4093 30.5324 18.3649 30.2325C18.3462 30.1056 17.9196 27.0535 19.2041 20.9509C20.5787 14.4199 20.1884 7.45034 20.1842 7.38073C20.1646 7.04792 20.4185 6.76221 20.7512 6.7426C21.0847 6.72276 21.3697 6.97674 21.3894 7.30948C21.3935 7.38065 21.7942 14.5061 20.3854 21.1996C19.1523 27.0582 19.5552 30.0278 19.5594 30.0571C19.6067 30.3866 19.3785 30.6928 19.0492 30.741C19.0195 30.7453 18.9901 30.7473 18.961 30.7473Z" fill="#79A72D"/>
<path d="M7.73183 30.748C7.50058 30.748 7.27996 30.6145 7.17996 30.3895C5.02246 25.5396 7.85551 21.7562 7.97715 21.5975C8.17996 21.333 8.55887 21.2831 8.82348 21.4857C9.08801 21.6886 9.13808 22.0675 8.93527 22.3321C8.9298 22.3392 8.28988 23.193 7.89566 24.5546C7.37504 26.3527 7.50535 28.1507 8.28301 29.8989C8.41848 30.2034 8.28144 30.5602 7.97683 30.6956C7.89707 30.7312 7.81371 30.748 7.73183 30.748Z" fill="#79A72D"/>
<path d="M28.3662 22.356C28.3662 22.356 28.7431 19.2964 29.6004 18.7604C32.9969 16.6369 37.7718 16.8946 39.4726 17.0706C39.5306 17.0766 39.5791 17.0996 39.6164 17.1328C39.6444 17.1578 39.6661 17.1885 39.6807 17.2223C39.7245 17.3235 31.6821 22.9128 31.6821 22.9128L28.3662 22.356Z" fill="#A3E440"/>
<path d="M39.5997 17.53C38.2392 18.5493 34.4141 21.3662 31.6823 22.9129C30.9027 23.3543 28.3672 22.3562 28.3672 22.3562C28.3672 22.3562 28.3677 22.3555 28.3674 22.3543C28.3677 22.3525 28.3671 22.35 28.3678 22.3475C28.3683 22.3468 28.3683 22.3468 28.3688 22.346C31.5316 19.2139 37.9897 17.615 39.688 17.2376C39.7226 17.3368 39.6991 17.4557 39.5997 17.53Z" fill="#82B732"/>
<path d="M10.5585 39.4689H5.53133C5.10914 39.4689 4.74273 39.1776 4.64766 38.7662L2.99609 31.6239H13.0938L11.4422 38.7662C11.3471 39.1776 10.9808 39.4689 10.5585 39.4689Z" fill="#688D97"/>
<path d="M13.0943 31.6241L11.4427 38.7664C11.3473 39.1778 10.9806 39.4692 10.5586 39.4692H8.03613C8.45801 39.4692 8.82473 39.1777 8.9202 38.7664L10.5718 31.6241H13.0943Z" fill="#557983"/>
<path d="M12.3956 34.6434L13.0938 31.6239H2.99609L3.6943 34.6434H12.3956Z" fill="#557983"/>
<path d="M22.6796 39.4689H17.6524C17.2302 39.4689 16.8638 39.1775 16.7687 38.7662L15.1172 31.6239H25.2148L23.5633 38.7662C23.4682 39.1775 23.1018 39.4689 22.6796 39.4689Z" fill="#688D97"/>
<path d="M25.2145 31.6241L23.5628 38.7663C23.4683 39.1778 23.1016 39.4692 22.6797 39.4692H20.1572C20.5791 39.4692 20.9458 39.1777 21.0404 38.7663L22.692 31.6241H25.2145Z" fill="#557983"/>
<path d="M24.5166 34.6433L25.2148 31.6239H15.1172L15.8154 34.6433H24.5166Z" fill="#557983"/>
<path d="M34.7997 39.4689H29.7725C29.3504 39.4689 28.9839 39.1775 28.8889 38.7662L27.2373 31.6239H37.335L35.6834 38.7662C35.5883 39.1775 35.2219 39.4689 34.7997 39.4689Z" fill="#688D97"/>
<path d="M37.3346 31.6241L35.683 38.7663C35.5876 39.1778 35.2218 39.4692 34.7989 39.4692H32.2764C32.6991 39.4692 33.065 39.1777 33.1604 38.7663L34.8121 31.6241H37.3346Z" fill="#557983"/>
<path d="M36.6368 34.6433L37.335 31.6239H27.2373L27.9354 34.6433H36.6368Z" fill="#557983"/>
<path d="M39.2908 32.4867H1.04133C0.557891 32.4867 0.166016 32.0948 0.166016 31.6114V30.3451C0.166016 29.8617 0.557891 29.4699 1.04133 29.4699H39.2908C39.7742 29.4699 40.166 29.8618 40.166 30.3451V31.6114C40.166 32.0948 39.7741 32.4867 39.2908 32.4867Z" fill="#90BAC4"/>
<path d="M40.1661 30.3454V31.611C40.1661 32.0951 39.774 32.4862 39.2909 32.4862H36.9434C37.4265 32.4862 37.8187 32.095 37.8187 31.611V30.3454C37.8187 29.8613 37.4266 29.4702 36.9434 29.4702H39.2909C39.774 29.4701 40.1661 29.8613 40.1661 30.3454Z" fill="#7DA2B0"/>
<path d="M2.21955 20.2388C2.21955 20.2388 1.3858 17.0399 2.02846 16.1668C4.57479 12.7075 9.43627 11.0769 11.2012 10.58C11.4417 10.5123 11.6399 10.775 11.5092 10.988C10.5553 12.542 5.74494 19.4831 5.74494 19.4831L2.21955 20.2388Z" fill="#A3E440"/>
<path d="M11.5085 10.988C10.5553 12.5419 7.85594 16.8617 5.74422 19.4833C5.14172 20.2314 2.21969 20.2388 2.21969 20.2388C2.21969 20.2388 2.21984 20.2378 2.21914 20.2368C2.21859 20.2349 2.21719 20.2327 2.2168 20.2298C2.21695 20.2289 2.21695 20.2289 2.21719 20.228C4.13188 15.8556 9.93726 11.7091 11.481 10.6616C11.5548 10.7469 11.5783 10.8747 11.5085 10.988Z" fill="#82B732"/>
<path d="M20.4913 8.02018C20.4913 8.02018 20.3809 4.6994 21.2041 3.98542C24.5195 1.10964 29.7627 0.615652 31.5216 0.530887C31.7406 0.52034 31.8593 0.782996 31.7064 0.940184C30.4856 2.19534 26.8081 5.92011 24.115 8.05854C23.3588 8.65901 20.4913 8.02018 20.4913 8.02018Z" fill="#82B732"/>
<path d="M31.7063 0.940186C31.7972 0.84667 31.7916 0.716123 31.7264 0.627686C23.3572 3.12612 20.4914 8.01979 20.4912 8.02019C20.4911 8.02058 23.3587 8.65901 24.115 8.05854C26.808 5.92011 30.4854 2.19534 31.7063 0.940186Z" fill="#79A72D"/>
<path d="M21.2959 8.18113C21.2959 8.18113 19.8362 5.19629 18.7744 4.95168C14.4976 3.96621 9.63484 5.98848 8.04156 6.73832C7.99195 6.76168 7.95593 6.79715 7.93296 6.83832C7.86421 6.96176 18.1131 9.91426 18.1131 9.91426L21.2959 8.18113Z" fill="#A3E440"/>
<path d="M7.82617 22.6622C7.82617 22.6622 9.92836 21.2685 10.7176 21.5162C13.7845 22.4785 16.1331 25.4835 16.9729 26.6844C17.0994 26.8652 16.9377 27.1067 16.7223 27.0583C15.3012 26.7392 11.6129 25.8772 9.2443 25.0194C8.55523 24.7697 7.82617 22.6622 7.82617 22.6622Z" fill="#8DC637"/>
<path d="M11.3221 24.6619C11.9898 24.1795 12.7269 23.5958 13.468 22.9812C12.6464 22.3642 11.7205 21.8308 10.7176 21.5161C9.92836 21.2684 7.82617 22.6621 7.82617 22.6621C7.82617 22.6621 8.27289 23.9534 8.79758 24.6341C9.58062 24.798 10.86 24.9957 11.3221 24.6619Z" fill="#82B732"/>
<path d="M7.85156 22.6394C7.85156 22.6394 7.88703 19.7343 8.63445 19.1434C11.5956 16.8018 16.0949 16.5476 17.7063 16.536C17.9259 16.5344 18.033 16.8031 17.8728 16.9533C16.7037 18.0492 13.413 21.0845 11.0154 22.8168C10.3309 23.3113 7.85156 22.6394 7.85156 22.6394Z" fill="#BCEA73"/>
<path d="M17.8725 16.9532C16.704 18.0492 13.4134 21.0846 11.015 22.8169C10.3306 23.3113 7.85203 22.6395 7.85203 22.6395C7.85203 22.6395 7.85242 22.6388 7.85203 22.6377C7.85203 22.6359 7.85133 22.6337 7.85164 22.6312C7.85203 22.6305 7.85203 22.6305 7.85235 22.6298C10.4899 19.3677 16.3731 17.1998 17.9248 16.6701C17.9676 16.7596 17.958 16.8733 17.8725 16.9532Z" fill="#A3E440"/>
<path d="M22.8028 19.3215C22.8028 19.3215 22.2609 16.2867 22.9221 15.5219C25.5417 12.4914 30.1803 11.3298 31.8574 10.9966C32.0859 10.9513 32.2511 11.2099 32.1141 11.3984C31.114 12.7735 26.1356 18.876 26.1356 18.876L22.8028 19.3215Z" fill="#A3E440"/>
<path d="M32.1134 11.3983C31.1139 12.7734 28.2893 16.5927 26.1348 18.8762C25.5201 19.5278 22.8029 19.3216 22.8029 19.3216C22.8029 19.3216 22.8031 19.3207 22.8025 19.3197C22.8021 19.3178 22.8009 19.3157 22.8008 19.3131C22.801 19.3122 22.801 19.3122 22.8012 19.3114C24.9002 15.386 30.5998 11.9542 32.1114 11.0929C32.1739 11.1776 32.1865 11.2981 32.1134 11.3983Z" fill="#82B732"/>
<path d="M21.2959 8.18119C21.2952 8.18073 16.4692 5.20244 7.90604 6.91994C7.88987 7.02869 7.94604 7.14658 8.07026 7.18658C9.73713 7.72276 14.7317 9.2883 18.1131 9.91432C19.0628 10.09 21.2959 8.18119 21.2959 8.18119Z" fill="#82B732"/>
</g>
<defs>
<clipPath id="clip0_5494_34343">
<rect width="40" height="40" fill="white" transform="translate(0.166016)"/>
</clipPath>
</defs>
</svg>
