<svg width="41" height="40" viewBox="0 0 41 40" fill="none" xmlns="http://www.w3.org/2000/svg">
<path d="M36.5911 0V32.8305L7.3259 36.0241L3.74121 36.4153V3.58469C3.74121 2.59477 4.14199 1.6982 4.79074 1.04945C5.43949 0.400703 6.33598 0 7.3259 0L36.5911 0Z" fill="#DA4A54"/>
<path d="M7.3259 0V36.0241L3.74121 36.4153V3.58469C3.74121 2.59477 4.14199 1.6982 4.79074 1.04945C5.43949 0.400703 6.33598 0 7.3259 0Z" fill="#C32430"/>
<path d="M36.5913 32.8309H7.32574C5.34605 32.8309 3.74121 34.4357 3.74121 36.4154C3.74121 38.3951 5.34605 39.9999 7.32574 39.9999H36.5913V37.9878L35.1329 36.4153L36.5913 34.8428V32.8309Z" fill="#C32430"/>
<path d="M7.32543 37.9879C6.45832 37.9879 5.75293 37.2825 5.75293 36.4154C5.75293 35.5483 6.45832 34.8429 7.32543 34.8429H36.591V37.9879H7.32543Z" fill="#DFEAEF"/>
<path d="M16.6492 7.77195L14.0434 5.09742L11.4375 7.77195V0H16.6492V7.77195Z" fill="#FFD039"/>
<path d="M27.8085 13.9215L22.4058 6.36559C22.0572 5.87814 21.3326 5.87814 20.9841 6.36559L15.5814 13.9215C12.0248 18.8955 15.5802 25.8086 21.695 25.8086C27.8097 25.8086 31.3652 18.8955 27.8085 13.9215Z" fill="#D0EF6F"/>
<path d="M18.7754 13.9215L23.292 7.60494L22.4058 6.36559C22.0573 5.87814 21.3327 5.87814 20.9841 6.36559L15.5814 13.9215C12.0248 18.8955 15.5802 25.8086 21.695 25.8086C22.2496 25.8086 22.7828 25.751 23.292 25.6439C18.1881 24.5697 15.5414 18.4443 18.7754 13.9215Z" fill="#B5EF14"/>
<path d="M25.9506 16.9124L22.0624 19.2138V17.0616L25.4548 15.0537C25.6296 14.9503 25.6874 14.7247 25.5839 14.5499C25.4805 14.3752 25.255 14.3173 25.0802 14.4208L22.0625 16.2069V14.0547L23.7482 13.057C23.9229 12.9535 23.9808 12.728 23.8773 12.5532C23.7739 12.3785 23.5484 12.3206 23.3735 12.424L22.0625 13.2V10.6584C22.0625 10.4553 21.8979 10.2906 21.6948 10.2906C21.4917 10.2906 21.3271 10.4553 21.3271 10.6584V13.2L20.0161 12.424C19.8413 12.3206 19.6157 12.3784 19.5123 12.5532C19.4088 12.728 19.4666 12.9535 19.6414 13.057L21.3271 14.0547V16.2069L18.3094 14.4208C18.1347 14.3173 17.9091 14.3752 17.8056 14.5499C17.7022 14.7247 17.76 14.9503 17.9348 15.0537L21.3271 17.0616V19.2138L17.4389 16.9125C17.2642 16.809 17.0386 16.8668 16.9351 17.0416C16.8317 17.2164 16.8895 17.442 17.0643 17.5454L21.3271 20.0685V22.2207L17.8227 20.1466C17.6479 20.0432 17.4223 20.1009 17.3189 20.2757C17.2154 20.4505 17.2732 20.676 17.448 20.7795L21.3271 23.0754V25.0661L20.0161 24.2902C19.8413 24.1868 19.6157 24.2446 19.5123 24.4193C19.4088 24.5941 19.4666 24.8197 19.6414 24.9231L21.3271 25.9208V27.2778C21.3271 27.4809 21.4917 27.6456 21.6948 27.6456C21.8979 27.6456 22.0625 27.4809 22.0625 27.2778V23.0754L25.9416 20.7794C26.1163 20.676 26.1742 20.4505 26.0707 20.2757C25.9673 20.1009 25.7418 20.043 25.5669 20.1465L22.0625 22.2207V20.0685L26.3254 17.5454C26.5001 17.4419 26.5579 17.2164 26.4545 17.0416C26.351 16.8668 26.1254 16.809 25.9506 16.9124Z" fill="#739B10"/>
</svg>
