<svg width="25" height="20" viewBox="0 0 25 20" fill="none" xmlns="http://www.w3.org/2000/svg">
<path fill-rule="evenodd" clip-rule="evenodd" d="M15.8008 11.0403L19.2956 7.54549C19.735 7.10615 19.735 6.39384 19.2956 5.9545C18.8563 5.51516 18.144 5.51516 17.7046 5.9545L14.2098 9.44937C13.7232 7.87143 14.1052 6.45054 15.1232 5.35718C16.378 4.00941 18.7654 2.98643 22.2506 3.00011C22.2659 6.4849 21.2429 8.87211 19.8948 10.1268C18.8009 11.145 17.3791 11.527 15.8008 11.0403ZM14.1386 12.8043C16.7516 14.0106 19.4292 13.634 21.4278 11.7738C23.5688 9.78108 24.7268 6.27835 24.4635 1.84301C24.4297 1.27394 23.9756 0.820092 23.4065 0.78662C18.9715 0.525769 15.4691 1.68372 13.4764 3.82398C11.5872 5.85311 11.2282 8.58206 12.5031 11.2332C12.1112 11.7366 11.7878 12.2914 11.5426 12.8833C11.4737 13.0497 11.4112 13.2184 11.3552 13.3891L10.1677 12.2016C10.9934 10.2769 10.6956 8.29129 9.30573 6.79843C7.79406 5.1748 5.1823 4.3372 1.95862 4.5263C1.38923 4.5597 0.934929 5.01393 0.901441 5.58332C0.711836 8.8071 1.54944 11.4189 3.17325 12.9306C4.6662 14.3205 6.652 14.6183 8.57668 13.7925L11.0001 16.216V18.375C11.0001 18.9963 11.5038 19.5 12.1251 19.5C12.7464 19.5 13.2501 18.9963 13.2501 18.375V15.6103C13.2501 14.97 13.3763 14.336 13.6213 13.7445C13.7589 13.4122 13.9326 13.097 14.1386 12.8043ZM6.76625 11.9821C5.96941 12.0745 5.26883 11.8074 4.70637 11.2838C3.86947 10.5047 3.17978 9.0039 3.12781 6.75284C5.37897 6.80508 6.87983 7.49478 7.65897 8.33163C8.18254 8.89398 8.44963 9.59439 8.35725 10.3911L7.29562 9.3295C6.85628 8.89016 6.14397 8.89016 5.70463 9.3295C5.26529 9.76884 5.26529 10.4811 5.70463 10.9205L6.76625 11.9821Z" fill="#556065"/>
</svg>
