<svg width="24" height="24" viewBox="0 0 24 24" fill="none" xmlns="http://www.w3.org/2000/svg">
<path d="M20.25 8.25V5.25H17.25C16.8358 5.25 16.5 4.91421 16.5 4.5C16.5 4.08579 16.8358 3.75 17.25 3.75H21C21.4142 3.75 21.75 4.08579 21.75 4.5V8.25C21.75 8.66421 21.4142 9 21 9C20.5858 9 20.25 8.66421 20.25 8.25Z" fill="#7F8D91"/>
<path d="M2.25 15.75C2.25 15.3358 2.58579 15 3 15C3.41421 15 3.75 15.3358 3.75 15.75V18.75H6.75C7.16421 18.75 7.5 19.0858 7.5 19.5C7.5 19.9142 7.16421 20.25 6.75 20.25H3C2.58579 20.25 2.25 19.9142 2.25 19.5V15.75Z" fill="#7F8D91"/>
<path d="M20.25 15.75C20.25 15.3358 20.5858 15 21 15C21.4142 15 21.75 15.3358 21.75 15.75V19.5C21.75 19.9142 21.4142 20.25 21 20.25H17.25C16.8358 20.25 16.5 19.9142 16.5 19.5C16.5 19.0858 16.8358 18.75 17.25 18.75H20.25V15.75Z" fill="#7F8D91"/>
<path d="M2.25 8.25V4.5C2.25 4.08579 2.58579 3.75 3 3.75H6.75C7.16421 3.75 7.5 4.08579 7.5 4.5C7.5 4.91421 7.16421 5.25 6.75 5.25H3.75V8.25C3.75 8.66421 3.41421 9 3 9C2.58579 9 2.25 8.66421 2.25 8.25Z" fill="#7F8D91"/>
<path d="M6.75 15.75V8.25C6.75 7.83579 7.08579 7.5 7.5 7.5C7.91421 7.5 8.25 7.83579 8.25 8.25V15.75C8.25 16.1642 7.91421 16.5 7.5 16.5C7.08579 16.5 6.75 16.1642 6.75 15.75Z" fill="#7F8D91"/>
<path d="M15.75 15.75V8.25C15.75 7.83579 16.0858 7.5 16.5 7.5C16.9142 7.5 17.25 7.83579 17.25 8.25V15.75C17.25 16.1642 16.9142 16.5 16.5 16.5C16.0858 16.5 15.75 16.1642 15.75 15.75Z" fill="#7F8D91"/>
<path d="M12.75 15.75V8.25C12.75 7.83579 13.0858 7.5 13.5 7.5C13.9142 7.5 14.25 7.83579 14.25 8.25V15.75C14.25 16.1642 13.9142 16.5 13.5 16.5C13.0858 16.5 12.75 16.1642 12.75 15.75Z" fill="#7F8D91"/>
<path d="M9.75 15.75V8.25C9.75 7.83579 10.0858 7.5 10.5 7.5C10.9142 7.5 11.25 7.83579 11.25 8.25V15.75C11.25 16.1642 10.9142 16.5 10.5 16.5C10.0858 16.5 9.75 16.1642 9.75 15.75Z" fill="#7F8D91"/>
</svg>
