<svg width="40" height="40" viewBox="0 0 40 40" fill="none" xmlns="http://www.w3.org/2000/svg">
<rect x="0.5" y="0.5" width="39" height="39" rx="11.5" fill="white"/>
<rect x="0.5" y="0.5" width="39" height="39" rx="11.5" stroke="#CDD3D4"/>
<path fill-rule="evenodd" clip-rule="evenodd" d="M16.159 10.159C16.581 9.73705 17.1533 9.5 17.75 9.5H22.25C22.8467 9.5 23.419 9.73705 23.841 10.159C24.2629 10.581 24.5 11.1533 24.5 11.75V12.5H28.25C28.6642 12.5 29 12.8358 29 13.25C29 13.6642 28.6642 14 28.25 14H27.5V27.5C27.5 27.8978 27.342 28.2794 27.0607 28.5607C26.7794 28.842 26.3978 29 26 29H14C13.6022 29 13.2206 28.842 12.9393 28.5607C12.658 28.2794 12.5 27.8978 12.5 27.5V14H11.75C11.3358 14 11 13.6642 11 13.25C11 12.8358 11.3358 12.5 11.75 12.5H15.5V11.75C15.5 11.1533 15.7371 10.581 16.159 10.159ZM14 14V27.5H26V14H14ZM23 12.5H17V11.75C17 11.5511 17.079 11.3603 17.2197 11.2197C17.3603 11.079 17.5511 11 17.75 11H22.25C22.4489 11 22.6397 11.079 22.7803 11.2197C22.921 11.3603 23 11.5511 23 11.75V12.5ZM17.75 17C18.1642 17 18.5 17.3358 18.5 17.75V23.75C18.5 24.1642 18.1642 24.5 17.75 24.5C17.3358 24.5 17 24.1642 17 23.75V17.75C17 17.3358 17.3358 17 17.75 17ZM21.5 17.75C21.5 17.3358 21.8358 17 22.25 17C22.6642 17 23 17.3358 23 17.75V23.75C23 24.1642 22.6642 24.5 22.25 24.5C21.8358 24.5 21.5 24.1642 21.5 23.75V17.75Z" fill="#556065"/>
</svg>
