<svg width="24" height="24" viewBox="0 0 24 24" fill="none" xmlns="http://www.w3.org/2000/svg">
<path d="M4.5 4.5V19.5H19.5V4.5H4.5ZM21 19.5C21 20.3284 20.3284 21 19.5 21H4.5C3.67157 21 3 20.3284 3 19.5V4.5C3 3.67157 3.67157 3 4.5 3H19.5C20.3284 3 21 3.67157 21 4.5V19.5Z" fill="#7F8D91"/>
<path d="M7.19043 14.25L7.33789 14.2578C7.68072 14.2919 8.00308 14.443 8.24902 14.6885L10.0605 16.5H13.9395L15.751 14.6885C16.0319 14.408 16.4126 14.2503 16.8096 14.25H20.25C20.6642 14.25 21 14.5858 21 15C21 15.4142 20.6642 15.75 20.25 15.75H16.8105L14.999 17.5615C14.7181 17.842 14.3374 17.9997 13.9404 18H10.0596C9.66257 17.9997 9.28194 17.842 9.00098 17.5615L7.18945 15.75H3.75C3.33579 15.75 3 15.4142 3 15C3 14.5858 3.33579 14.25 3.75 14.25H7.19043Z" fill="#7F8D91"/>
</svg>
