<svg width="40" height="40" viewBox="0 0 40 40" fill="none" xmlns="http://www.w3.org/2000/svg">
<path d="M0 20C0 8.95431 8.95431 0 20 0C31.0457 0 40 8.95431 40 20C40 31.0457 31.0457 40 20 40C8.95431 40 0 31.0457 0 20Z" fill="#FFB323"/>
<path d="M27.5 11H12.5C12.1022 11 11.7206 11.158 11.4393 11.4393C11.158 11.7206 11 12.1022 11 12.5V27.5C11 27.8978 11.158 28.2794 11.4393 28.5607C11.7206 28.842 12.1022 29 12.5 29H27.5C27.8978 29 28.2794 28.842 28.5607 28.5607C28.842 28.2794 29 27.8978 29 27.5V12.5C29 12.1022 28.842 11.7206 28.5607 11.4393C28.2794 11.158 27.8978 11 27.5 11ZM27.5 27.5H12.5V23.75H15.1897L17 25.5613C17.139 25.7008 17.3042 25.8115 17.4862 25.8868C17.6682 25.9621 17.8633 26.0006 18.0603 26H21.9397C22.1367 26.0006 22.332 25.9621 22.514 25.8866C22.696 25.8111 22.8612 25.7002 23 25.5603L24.8103 23.75H27.5V27.5Z" fill="white"/>
</svg>
