<svg width="41" height="40" viewBox="0 0 41 40" fill="none" xmlns="http://www.w3.org/2000/svg">
<g clip-path="url(#clip0_5494_46306)">
<path d="M32.2142 23.4357L29.875 22.5H27.375L25.0358 23.4357C24.5613 23.6255 24.25 24.0852 24.25 24.5963V26.3198C25.538 27.0659 27.0294 27.5 28.625 27.5C29.5002 27.5 30.3439 27.3695 31.14 27.1284C32.2498 26.7925 33 25.7558 33 24.5963C33 24.0852 32.6888 23.6255 32.2142 23.4357Z" fill="#60B8FE"/>
<path d="M27.375 20.625V23.125C27.375 23.8153 27.9347 24.375 28.625 24.375C29.3153 24.375 29.875 23.8153 29.875 23.125V20.625H27.375Z" fill="#FFDFCF"/>
<path d="M26.9062 15.625L27.3748 20.9898C27.7576 21.1572 28.1805 21.25 28.625 21.25C30.3509 21.25 31.75 19.8509 31.75 18.125V15.625H26.9062Z" fill="#FFDFCF"/>
<path d="M27.375 16.25H25.5V18.125C25.5 19.4058 26.2723 20.5073 27.375 20.9898V16.25Z" fill="#FFCEBF"/>
<path d="M29.875 13.75H27.375L25.5 15.625V16.25L27.375 16.8093C30.823 16.5516 31.75 15.625 31.75 15.625C31.75 14.5895 30.9105 13.75 29.875 13.75Z" fill="#FFA95F"/>
<path d="M25.168 15.625L25.5 16.875C26.1982 16.875 26.8162 16.8512 27.375 16.8093V13.75C26.7588 13.75 26.212 14.0473 25.8702 14.5062C25.6377 14.8184 25.168 15.2056 25.168 15.625Z" fill="#FF8B5A"/>
<path d="M14.25 14.375C14.25 14.5012 14.6448 14.7831 14.6211 14.9023C14.4498 15.7613 13.2844 16.25 12.375 16.25C11.3395 16.25 10.5 15.4105 10.5 14.375C10.5 13.3395 11.3395 12.5 12.375 12.5C13.4105 12.5 14.25 13.3395 14.25 14.375Z" fill="#6E4848"/>
<path d="M15.434 23.4045L13.625 22.5H11.125L9.31602 23.4045C8.8925 23.6163 8.625 24.0491 8.625 24.5226C8.625 25.5221 9.3168 26.3769 10.2866 26.6187C10.9554 26.7853 11.6543 26.875 12.375 26.875C13.719 26.875 14.9872 26.5631 16.125 26.0216V24.5226C16.125 24.0491 15.8575 23.6163 15.434 23.4045Z" fill="#8ACC19"/>
<path d="M11.125 20V22.5C11.125 23.1903 11.6847 23.75 12.375 23.75C13.0653 23.75 13.625 23.1903 13.625 22.5V20H11.125Z" fill="#FFDFCF"/>
<path d="M12.3746 21.25C11.9301 21.25 11.5072 21.1572 11.1244 20.9898L9.80957 18.125V17.5C9.80957 15.7741 10.6488 14.375 12.3746 14.375C14.1005 14.375 15.4996 15.7741 15.4996 17.5V18.125C15.4996 19.8509 14.1005 21.25 12.3746 21.25Z" fill="#FFDFCF"/>
<path d="M11.125 14.6388C10.0223 15.1215 9.25 16.2192 9.25 17.5V18.125C9.25 19.4057 10.0223 20.5072 11.125 20.9898V14.6388Z" fill="#FFCEBF"/>
<path d="M12.375 14.1562C11.4381 14.1562 10.5683 14.5413 9.92747 15.2395C9.83528 15.3393 9.7895 15.4752 9.80176 15.6122C9.81458 15.7526 9.88598 15.881 9.9977 15.965C11.0157 16.7295 12.751 17.6535 15.2375 17.7158H15.2486C15.3749 17.7158 15.497 17.663 15.5849 17.5696C15.6728 17.4766 15.7179 17.3524 15.7075 17.2281C15.5689 15.5057 14.1053 14.1562 12.375 14.1562Z" fill="#785353"/>
<path d="M27.868 26.184L20.5 22.5L13.132 26.184C12.285 26.6075 11.75 27.4731 11.75 28.4201C11.75 30.6734 13.5766 32.5 15.8299 32.5H19.875H21.125H25.1701C27.4234 32.5 29.25 30.6734 29.25 28.4201C29.25 27.4731 28.715 26.6075 27.868 26.184Z" fill="#FC502A"/>
<path d="M18 23.2245H23V25.625H18V23.2245Z" fill="#FFCEBF"/>
<path d="M18 23.2245C18.7664 23.5605 19.611 23.75 20.5 23.75C21.389 23.75 22.2336 23.5605 23 23.2245V21.25H18V23.2245Z" fill="#FFB09E"/>
<path d="M20.4756 22.4585C17.7141 22.4585 15.9688 20.2614 15.9688 17.5V12.5H25.5V17.5C25.5 20.0477 23.5946 22.1502 21.1312 22.4605C20.9245 22.4866 20.6894 22.4585 20.4756 22.4585Z" fill="#FFCEBF"/>
<path d="M16.75 17.5V14.375H15.5V17.5C15.5 20.2614 17.7386 22.5 20.5 22.5C20.7121 22.5 20.9317 22.4861 21.137 22.4605C18.6712 22.1523 16.75 20.0493 16.75 17.5Z" fill="#FFB09E"/>
<path d="M18 10H16.75C15.3693 10 14.25 11.1193 14.25 12.5V14.375C14.25 15.0654 14.8096 15.625 15.5 15.625C16.1904 15.625 16.75 15.0654 16.75 14.375V13.125L18 11.875V10Z" fill="#3E4B5A"/>
<path d="M16.75 10.625V13.125H23.0688C23.7212 13.125 24.25 13.6538 24.25 14.3062V14.3081C24.25 14.9308 24.6755 15.508 25.2901 15.6079C26.0732 15.7353 26.75 15.1341 26.75 14.375V13.125C26.75 10.7088 24.7913 8.75 22.375 8.75H18.625C17.5895 8.75 16.75 9.58945 16.75 10.625Z" fill="#576574"/>
<path d="M23 23.125L21.3839 24.7411C20.8958 25.2292 20.1043 25.2292 19.6162 24.7411L18 23.125C18 23.125 15.7992 23.6752 17.0762 26.8406C17.2189 27.1942 17.6507 27.3345 17.9777 27.1384L19.875 26H21.125L23.0224 27.1384C23.3493 27.3346 23.7812 27.1943 23.9239 26.8407C25.2009 23.6752 23 23.125 23 23.125Z" fill="#FFC344"/>
<path d="M21.6044 0.0301563C21.238 0.0103125 20.8698 0 20.5 0C9.47219 0 0.5 8.97219 0.5 20C0.5 22.9993 1.14758 25.8838 2.42508 28.5718C2.53188 28.797 2.75648 28.9288 2.99023 28.9288C3.07992 28.9288 3.17148 28.9093 3.25758 28.8684C3.56945 28.7202 3.7025 28.3472 3.55422 28.0359C2.35727 25.5158 1.75 22.8125 1.75 20C1.75 9.66125 10.1613 1.25 20.5 1.25C20.8147 1.25 21.1279 1.25859 21.4399 1.27398C21.498 0.859922 21.5656 0.446797 21.6044 0.0301563Z" fill="#8ACC19"/>
<path d="M32.1939 3.76648C28.9997 1.45711 25.1763 0.136405 21.1404 0.00999862C20.7898 -0.00093888 20.5 0.288905 20.5 0.639764C20.5 0.979139 20.7717 1.24898 21.1109 1.25976C24.8368 1.37867 28.421 2.6239 31.3866 4.73125C31.6886 4.43633 31.9292 4.09375 32.1939 3.76648Z" fill="#8ACC19"/>
<path d="M36.3423 3.99656C36.2934 3.65476 35.9779 3.41609 35.6348 3.46617C35.293 3.515 35.0556 3.8318 35.1045 4.17359L35.4705 6.73656C34.4602 5.59445 33.3352 4.58672 32.1214 3.71922C31.7052 3.42172 31.125 3.71594 31.125 4.2275C31.125 4.42836 31.2232 4.61437 31.3866 4.73125C32.5638 5.57359 33.652 6.5568 34.6255 7.6732L32.4611 6.95187C32.1303 6.84203 31.7799 7.01961 31.6707 7.3468C31.5615 7.67453 31.7384 8.02859 32.0656 8.13719L36.2173 9.52148C36.282 9.54344 36.3485 9.55383 36.415 9.55383C36.5591 9.55383 36.7013 9.50375 36.8154 9.40859C36.982 9.27008 37.0645 9.05523 37.0339 8.84039L36.3423 3.99656Z" fill="#8ACC19"/>
<path d="M38.5749 11.4282C38.4681 11.203 38.2435 11.0712 38.0098 11.0712C37.9201 11.0712 37.8285 11.0907 37.7424 11.1316C37.4305 11.2798 37.2975 11.6528 37.4458 11.9641C38.6427 14.4842 39.25 17.1875 39.25 20C39.25 30.3387 30.8387 38.75 20.5 38.75C20.2987 38.75 20.0981 38.7459 19.8979 38.7395C19.8739 39.157 19.8037 39.5702 19.7336 39.9839C19.9884 39.9934 20.2436 40 20.5 40C31.5278 40 40.5 31.0278 40.5 20C40.5 17.0007 39.8524 14.1162 38.5749 11.4282Z" fill="#8ACC19"/>
<path d="M19.8891 38.7402C16.0393 38.6173 12.397 37.3338 9.37219 35.0946C9.12516 35.4348 8.82594 35.7313 8.5332 36.0344C11.7812 38.4677 15.7084 39.8598 19.8595 39.9899C20.2102 40.0009 20.4999 39.7111 20.4999 39.3602C20.5 39.0209 20.2283 38.7511 19.8891 38.7402Z" fill="#8ACC19"/>
<path d="M4.65773 36.0034C4.70656 36.3452 5.02211 36.5839 5.36516 36.5338C5.70695 36.485 5.94438 36.1682 5.89555 35.8264L5.52945 33.2634C6.53984 34.4055 7.66484 35.4133 8.87859 36.2807C9.29484 36.5782 9.875 36.2841 9.875 35.7724C9.875 35.5716 9.7768 35.3855 9.61344 35.2687C8.43625 34.4263 7.34797 33.4431 6.37453 32.3267L8.53891 33.048C8.86969 33.1579 9.22008 32.9803 9.3293 32.6531C9.43851 32.3254 9.26156 31.9713 8.93438 31.8627L4.78281 30.4785C4.71812 30.4566 4.65156 30.4462 4.58508 30.4462C4.44102 30.4462 4.29883 30.4962 4.18469 30.5914C4.01805 30.7299 3.93563 30.9448 3.96617 31.1596L4.65773 36.0034Z" fill="#8ACC19"/>
</g>
<defs>
<clipPath id="clip0_5494_46306">
<rect width="40" height="40" fill="white" transform="translate(0.5)"/>
</clipPath>
</defs>
</svg>
