<svg width="16" height="16" viewBox="0 0 16 16" fill="none" xmlns="http://www.w3.org/2000/svg">
<path fill-rule="evenodd" clip-rule="evenodd" d="M2.29289 2.29289C2.48043 2.10536 2.73478 2 3 2H13C13.2652 2 13.5196 2.10536 13.7071 2.29289C13.8946 2.48043 14 2.73478 14 3V9.79336C13.9999 10.0582 13.8947 10.3122 13.7075 10.4996L10.4996 13.7075C10.3122 13.8947 10.0582 13.9999 9.79336 14H3C2.73478 14 2.48043 13.8946 2.29289 13.7071C2.10536 13.5196 2 13.2652 2 13V3C2 2.73478 2.10536 2.48043 2.29289 2.29289ZM13 3L3 3L3 13H9.5V9.99938C9.5 9.72323 9.72386 9.49938 10 9.49938H13V3ZM12.2935 10.4994L10.5 12.2929V10.4994H12.2935ZM5.5 6C5.5 5.72386 5.72386 5.5 6 5.5H10C10.2761 5.5 10.5 5.72386 10.5 6C10.5 6.27614 10.2761 6.5 10 6.5H6C5.72386 6.5 5.5 6.27614 5.5 6ZM5.5 8C5.5 7.72386 5.72386 7.5 6 7.5H10C10.2761 7.5 10.5 7.72386 10.5 8C10.5 8.27614 10.2761 8.5 10 8.5H6C5.72386 8.5 5.5 8.27614 5.5 8ZM5.5 10C5.5 9.72386 5.72386 9.5 6 9.5H8C8.27614 9.5 8.5 9.72386 8.5 10C8.5 10.2761 8.27614 10.5 8 10.5H6C5.72386 10.5 5.5 10.2761 5.5 10Z" fill="white"/>
</svg>
