<svg width="40" height="41" viewBox="0 0 40 41" fill="none" xmlns="http://www.w3.org/2000/svg">
<path d="M0 15.5C0 7.21573 6.71573 0.5 15 0.5H25C33.2843 0.5 40 7.21573 40 15.5V25.5C40 33.7843 33.2843 40.5 25 40.5H15C6.71573 40.5 0 33.7843 0 25.5V15.5Z" fill="black" fill-opacity="0.4"/>
<path fill-rule="evenodd" clip-rule="evenodd" d="M14.1406 12.0625C12.7109 12.0625 11.3398 12.6304 10.3289 13.6414C9.31794 14.6523 8.75 16.0234 8.75 17.4531C8.75 19.1384 9.41516 20.8178 10.4953 22.4276C11.574 24.0352 13.0299 25.5181 14.5158 26.7897C15.998 28.0581 17.4849 29.095 18.6034 29.8156C19.1618 30.1753 19.626 30.4547 19.949 30.6433C19.9664 30.6535 19.9834 30.6634 20 30.673C20.0166 30.6634 20.0336 30.6535 20.051 30.6433C20.374 30.4547 20.8382 30.1753 21.3966 29.8156C22.5151 29.095 24.002 28.0581 25.4842 26.7897C26.9701 25.5181 28.426 24.0352 29.5047 22.4276C30.5848 20.8178 31.25 19.1384 31.25 17.4531C31.25 16.0234 30.6821 14.6523 29.6711 13.6414C28.6602 12.6304 27.2891 12.0625 25.8594 12.0625C23.5582 12.0625 21.6553 13.3059 20.8676 15.2302C20.7234 15.5824 20.3806 15.8125 20 15.8125C19.6194 15.8125 19.2766 15.5824 19.1324 15.2302C18.3447 13.3059 16.4418 12.0625 14.1406 12.0625ZM20 31.75C19.5555 32.5754 19.5553 32.5753 19.555 32.5752L19.5542 32.5747L19.5517 32.5734L19.5435 32.5689L19.5141 32.5528C19.4888 32.539 19.4523 32.5188 19.4053 32.4925C19.3114 32.44 19.1755 32.3629 19.0037 32.2625C18.6601 32.062 18.1722 31.7683 17.588 31.3919C16.4214 30.6403 14.8613 29.5532 13.2967 28.2142C11.7357 26.8784 10.1448 25.2704 8.9383 23.4723C7.73328 21.6764 6.875 19.635 6.875 17.4531C6.875 15.5262 7.64048 13.6781 9.00305 12.3156C10.3656 10.953 12.2137 10.1875 14.1406 10.1875C16.516 10.1875 18.664 11.2213 20 12.9927C21.3361 11.2213 23.484 10.1875 25.8594 10.1875C27.7863 10.1875 29.6344 10.953 30.9969 12.3156C32.3595 13.6781 33.125 15.5262 33.125 17.4531C33.125 19.635 32.2667 21.6764 31.0617 23.4723C29.8552 25.2704 28.2643 26.8784 26.7033 28.2142C25.1387 29.5532 23.5786 30.6403 22.412 31.3919C21.8278 31.7683 21.3399 32.062 20.9963 32.2625C20.8245 32.3629 20.6886 32.44 20.5947 32.4925C20.5477 32.5188 20.5112 32.539 20.4859 32.5528L20.4565 32.5689L20.4483 32.5734L20.4458 32.5747L20.445 32.5752C20.4447 32.5753 20.4445 32.5754 20 31.75ZM20 31.75L20.4445 32.5754C20.167 32.7249 19.833 32.7249 19.5555 32.5754L20 31.75Z" fill="white"/>
</svg>
