<svg width="40" height="41" viewBox="0 0 40 41" fill="none" xmlns="http://www.w3.org/2000/svg">
<path d="M0 15.5C0 7.21573 6.71573 0.5 15 0.5H25C33.2843 0.5 40 7.21573 40 15.5V25.5C40 33.7843 33.2843 40.5 25 40.5H15C6.71573 40.5 0 33.7843 0 25.5V15.5Z" fill="black" fill-opacity="0.4"/>
<path fill-rule="evenodd" clip-rule="evenodd" d="M19.3371 7.64959C19.7032 7.28347 20.2968 7.28347 20.6629 7.64959L25.3504 12.3371C25.7165 12.7032 25.7165 13.2968 25.3504 13.6629C24.9843 14.029 24.3907 14.029 24.0246 13.6629L20.9375 10.5758V21.4375C20.9375 21.9553 20.5178 22.375 20 22.375C19.4822 22.375 19.0625 21.9553 19.0625 21.4375V10.5758L15.9754 13.6629C15.6093 14.029 15.0157 14.029 14.6496 13.6629C14.2835 13.2968 14.2835 12.7032 14.6496 12.3371L19.3371 7.64959ZM10.2367 17.2992C10.5883 16.9475 11.0652 16.75 11.5625 16.75H14.375C14.8928 16.75 15.3125 17.1697 15.3125 17.6875C15.3125 18.2053 14.8928 18.625 14.375 18.625H11.5625L11.5625 29.875H28.4375V18.625H25.625C25.1072 18.625 24.6875 18.2053 24.6875 17.6875C24.6875 17.1697 25.1072 16.75 25.625 16.75H28.4375C28.9348 16.75 29.4117 16.9475 29.7633 17.2992C30.115 17.6508 30.3125 18.1277 30.3125 18.625V29.875C30.3125 30.3723 30.115 30.8492 29.7633 31.2008C29.4117 31.5525 28.9348 31.75 28.4375 31.75H11.5625C11.0652 31.75 10.5883 31.5525 10.2367 31.2008C9.88504 30.8492 9.6875 30.3723 9.6875 29.875V18.625C9.6875 18.1277 9.88504 17.6508 10.2367 17.2992Z" fill="white"/>
</svg>
