<svg width="40" height="41" viewBox="0 0 40 41" fill="none" xmlns="http://www.w3.org/2000/svg">
<path d="M0 15.5C0 7.21573 6.71573 0.5 15 0.5H25C33.2843 0.5 40 7.21573 40 15.5V25.5C40 33.7843 33.2843 40.5 25 40.5H15C6.71573 40.5 0 33.7843 0 25.5V15.5Z" fill="black" fill-opacity="0.4"/>
<path d="M30.3125 12.0625C30.8303 12.0625 31.25 12.4822 31.25 13C31.25 13.5178 30.8303 13.9375 30.3125 13.9375H9.6875C9.16973 13.9375 8.75 13.5178 8.75 13C8.75 12.4822 9.16973 12.0625 9.6875 12.0625H30.3125Z" fill="white"/>
<path d="M20.9375 19.5625C21.4553 19.5625 21.875 19.9822 21.875 20.5C21.875 21.0178 21.4553 21.4375 20.9375 21.4375H9.6875C9.16973 21.4375 8.75 21.0178 8.75 20.5C8.75 19.9822 9.16973 19.5625 9.6875 19.5625H20.9375Z" fill="white"/>
<path d="M20.9375 27.0625C21.4553 27.0625 21.875 27.4822 21.875 28C21.875 28.5178 21.4553 28.9375 20.9375 28.9375H9.6875C9.16973 28.9375 8.75 28.5178 8.75 28C8.75 27.4822 9.16973 27.0625 9.6875 27.0625H20.9375Z" fill="white"/>
<path d="M25.1709 18.7422C25.4689 18.5772 25.833 18.5873 26.1218 18.7678L33.6218 23.4553C33.8959 23.6267 34.0625 23.9268 34.0625 24.25C34.0625 24.5732 33.8959 24.8733 33.6218 25.0447L26.1218 29.7322C25.833 29.9127 25.4689 29.9228 25.1709 29.7578C24.8728 29.5926 24.6875 29.2783 24.6875 28.9375V19.5625C24.6875 19.2217 24.8728 18.9074 25.1709 18.7422ZM26.5625 27.2456L31.3562 24.25L26.5625 21.2532V27.2456Z" fill="white"/>
</svg>
