<svg width="24" height="24" viewBox="0 0 24 24" fill="none" xmlns="http://www.w3.org/2000/svg">
<path d="M6.01175 13.8559C6.01429 13.9067 6.00647 13.9575 5.98877 14.0052C5.97107 14.0529 5.94385 14.0964 5.90877 14.1333C5.87369 14.1701 5.83149 14.1994 5.78472 14.2194C5.73796 14.2394 5.68761 14.2497 5.63675 14.2497H1.5005C1.33122 14.2499 1.16683 14.1929 1.03407 14.0879C0.901303 13.9829 0.807971 13.836 0.769249 13.6712C0.745137 13.5584 0.746249 13.4417 0.772504 13.3294C0.798759 13.2171 0.849509 13.1119 0.921124 13.0215C1.58282 12.144 2.46077 11.4531 3.46925 11.0162C3.02649 10.6125 2.68691 10.1086 2.47894 9.54672C2.27098 8.98481 2.20068 8.38124 2.27395 7.78658C2.34721 7.19191 2.5619 6.62346 2.90003 6.12883C3.23817 5.63419 3.6899 5.22779 4.2174 4.94364C4.7449 4.65949 5.33281 4.50588 5.93188 4.49566C6.53096 4.48545 7.12376 4.61893 7.66063 4.88493C8.19751 5.15093 8.66284 5.5417 9.01764 6.02452C9.37244 6.50734 9.60638 7.06814 9.69987 7.65997C9.71195 7.73955 9.69769 7.8209 9.65927 7.89164C9.62086 7.96238 9.56039 8.01863 9.48706 8.05184C8.4468 8.53276 7.56581 9.30119 6.94803 10.2665C6.33026 11.2318 6.00148 12.3536 6.0005 13.4997C6.0005 13.6197 6.0005 13.7378 6.01175 13.8559ZM23.0742 13.0206C22.4141 12.1441 21.5381 11.4535 20.5317 11.0162C20.9745 10.6125 21.3141 10.1086 21.5221 9.54672C21.73 8.98481 21.8003 8.38124 21.727 7.78658C21.6538 7.19191 21.4391 6.62346 21.101 6.12883C20.7628 5.63419 20.3111 5.22779 19.7836 4.94364C19.2561 4.65949 18.6682 4.50588 18.0691 4.49566C17.47 4.48545 16.8772 4.61893 16.3404 4.88493C15.8035 5.15093 15.3382 5.5417 14.9834 6.02452C14.6286 6.50734 14.3946 7.06814 14.3011 7.65997C14.289 7.73955 14.3033 7.8209 14.3417 7.89164C14.3801 7.96238 14.4406 8.01863 14.5139 8.05184C15.5542 8.53276 16.4352 9.30119 17.053 10.2665C17.6707 11.2318 17.9995 12.3536 18.0005 13.4997C18.0005 13.6197 18.0005 13.7378 17.9892 13.8559C17.9867 13.9067 17.9945 13.9575 18.0122 14.0052C18.0299 14.0529 18.0571 14.0964 18.0922 14.1333C18.1273 14.1701 18.1695 14.1994 18.2163 14.2194C18.263 14.2394 18.3134 14.2497 18.3642 14.2497H22.5005C22.6698 14.2499 22.8342 14.1929 22.9669 14.0879C23.0997 13.9829 23.193 13.836 23.2317 13.6712C23.256 13.5582 23.2549 13.4412 23.2285 13.3287C23.202 13.2162 23.151 13.111 23.0789 13.0206H23.0742ZM14.7305 17.0687C15.4773 16.4968 16.026 15.7053 16.2997 14.8054C16.5734 13.9055 16.5582 12.9424 16.2563 12.0516C15.9543 11.1608 15.3808 10.3869 14.6164 9.83887C13.852 9.29081 12.935 8.99607 11.9944 8.99607C11.0538 8.99607 10.1368 9.29081 9.3724 9.83887C8.60796 10.3869 8.03448 11.1608 7.73254 12.0516C7.43061 12.9424 7.41541 13.9055 7.68909 14.8054C7.96276 15.7053 8.51154 16.4968 9.25831 17.0687C7.93319 17.6429 6.82668 18.6262 6.10081 19.8747C6.03498 19.9887 6.00032 20.118 6.00033 20.2497C6.00034 20.3814 6.03501 20.5107 6.10085 20.6247C6.1667 20.7387 6.2614 20.8334 6.37544 20.8992C6.48948 20.9651 6.61883 20.9997 6.7505 20.9997H17.2505C17.3822 20.9997 17.5115 20.9651 17.6256 20.8992C17.7396 20.8334 17.8343 20.7387 17.9001 20.6247C17.966 20.5107 18.0007 20.3814 18.0007 20.2497C18.0007 20.118 17.966 19.9887 17.9002 19.8747C17.1728 18.6254 16.0642 17.642 14.7371 17.0687H14.7305Z" fill="white"/>
</svg>
