<svg width="28" height="20" viewBox="0 0 28 20" fill="none" xmlns="http://www.w3.org/2000/svg">
<g clip-path="url(#clip0_5336_53798)">
<path d="M28 0.66687H0V19.3331H28V0.66687Z" fill="#F0F0F0"/>
<path d="M28 0.66687V10H14L0 0.66687H28Z" fill="#0052B4"/>
<path d="M28 9.99988V19.333H0L14 9.99988H28Z" fill="#D80027"/>
<path d="M8.85426 10.0001L7.36195 9.29815L8.15667 7.85287L6.53617 8.16284L6.33082 6.52588L5.20207 7.72982L4.07337 6.52588L3.86802 8.16284L2.24758 7.85282L3.04224 9.2981L1.54993 10.0001L3.04224 10.702L2.24758 12.1473L3.86813 11.8373L4.07337 13.4743L5.20207 12.2703L6.33082 13.4743L6.53617 11.8373L8.15661 12.1473L7.3619 10.7021L8.85426 10.0001Z" fill="#FFDA44"/>
<path d="M1.19155 2.43164L1.68817 3.12595L2.50187 2.86816L1.99502 3.55503L2.49164 4.24923L1.68177 3.97952L1.17493 4.66634L1.18133 3.81277L0.37146 3.54294L1.18521 3.28526L1.19155 2.43164Z" fill="#FFDA44"/>
<path d="M1.19155 15.3339L1.68817 16.0282L2.50187 15.7704L1.99502 16.4573L2.49164 17.1515L1.68177 16.8817L1.17493 17.5685L1.18133 16.715L0.37146 16.4452L1.18521 16.1875L1.19155 15.3339Z" fill="#FFDA44"/>
<path d="M11.5059 8.88281L11.0093 9.57707L10.1956 9.31933L10.7024 10.0061L10.2058 10.7005L11.0157 10.4307L11.5225 11.1175L11.5161 10.2639L12.326 9.99412L11.5122 9.73638L11.5059 8.88281Z" fill="#FFDA44"/>
</g>
<defs>
<clipPath id="clip0_5336_53798">
<rect y="0.66687" width="28" height="18.6663" rx="2.33333" fill="white"/>
</clipPath>
</defs>
</svg>
