<svg width="24" height="24" viewBox="0 0 24 24" fill="none" xmlns="http://www.w3.org/2000/svg">
<path fill-rule="evenodd" clip-rule="evenodd" d="M11.28 1.68605C11.5008 1.56526 11.7484 1.50195 12 1.50195C12.2516 1.50195 12.4992 1.56526 12.72 1.68605L20.97 6.20292C21.2056 6.33183 21.4023 6.52163 21.5395 6.75251C21.5643 6.79426 21.587 6.83707 21.6075 6.88078C21.6157 6.89737 21.6232 6.91413 21.63 6.93103C21.7085 7.11521 21.7495 7.31388 21.75 7.51542L21.75 16.4832C21.75 16.4833 21.75 16.4833 21.75 16.4834C21.75 16.7525 21.6776 17.0167 21.5404 17.2483C21.4032 17.4798 21.2063 17.6701 20.9702 17.7994C20.9701 17.7994 20.9701 17.7994 20.97 17.7995L12.7202 22.3162L12.72 22.3163C12.4992 22.4371 12.2516 22.5004 12 22.5004C11.7484 22.5004 11.5008 22.4371 11.28 22.3163L11.2798 22.3162L3.03 17.7995C3.02994 17.7994 3.02988 17.7994 3.02982 17.7994C2.7943 17.6704 2.59769 17.4807 2.46052 17.2499C2.32331 17.019 2.25061 16.7555 2.25 16.487L2.25 16.4853V7.51713L2.25 7.51542C2.25046 7.31388 2.29152 7.1152 2.36997 6.93101C2.3768 6.91413 2.3843 6.89738 2.39246 6.8808C2.41301 6.83708 2.43571 6.79426 2.46052 6.75251C2.59769 6.52169 2.7943 6.33193 3.02982 6.20302C3.02988 6.20299 3.02994 6.20296 3.03 6.20292L7.24874 3.89317C7.27285 3.87813 7.29774 3.86452 7.32327 3.85236L11.28 1.68605ZM7.64746 5.38497L4.46951 7.12489L12 11.2465L15.1784 9.50689L7.64746 5.38497ZM16.7405 8.65191L9.20933 4.52985L12 3.00195L19.5305 7.1249L16.7405 8.65191ZM15.75 10.904V14.2503C15.75 14.6645 16.0858 15.0003 16.5 15.0003C16.9142 15.0003 17.25 14.6645 17.25 14.2503V10.083L20.25 8.44106V16.4836L20.2498 16.4836L12.75 20.5898V12.546L15.75 10.904ZM11.25 12.546V20.5898L3.75 16.4835L3.75 8.44106L11.25 12.546Z" fill="white"/>
</svg>
