<svg width="24" height="24" viewBox="0 0 24 24" fill="none" xmlns="http://www.w3.org/2000/svg">
<path fill-rule="evenodd" clip-rule="evenodd" d="M12 3.75C7.44365 3.75 3.75 7.44365 3.75 12C3.75 16.5563 7.44365 20.25 12 20.25C16.5563 20.25 20.25 16.5563 20.25 12C20.25 7.44365 16.5563 3.75 12 3.75ZM2.25 12C2.25 6.61522 6.61522 2.25 12 2.25C17.3848 2.25 21.75 6.61522 21.75 12C21.75 17.3848 17.3848 21.75 12 21.75C6.61522 21.75 2.25 17.3848 2.25 12ZM16.2803 9.21967C16.5732 9.51256 16.5732 9.98744 16.2803 10.2803L11.0303 15.5303C10.7374 15.8232 10.2626 15.8232 9.96967 15.5303L7.71967 13.2803C7.42678 12.9874 7.42678 12.5126 7.71967 12.2197C8.01256 11.9268 8.48744 11.9268 8.78033 12.2197L10.5 13.9393L15.2197 9.21967C15.5126 8.92678 15.9874 8.92678 16.2803 9.21967Z" fill="white"/>
</svg>
