<svg width="22" height="22" viewBox="0 0 22 22" fill="none" xmlns="http://www.w3.org/2000/svg">
<path fill-rule="evenodd" clip-rule="evenodd" d="M9.12415 3.41999C8.84532 3.66024 8.51249 3.91023 8.12843 4.06922L8.12833 4.06926C7.74966 4.22595 7.34051 4.2791 6.98032 4.30245C6.74519 4.3177 6.48258 4.32176 6.24307 4.32547C6.12848 4.32724 6.01917 4.32893 5.92069 4.33173C5.19853 4.35223 4.83088 4.44103 4.63595 4.63595C4.44103 4.83088 4.35223 5.19853 4.33173 5.92069C4.32893 6.01917 4.32724 6.12848 4.32547 6.24307C4.32176 6.48258 4.3177 6.74519 4.30245 6.98032C4.2791 7.34051 4.22595 7.74966 4.06926 8.12833L4.06879 8.12948C3.9097 8.51213 3.65971 8.84419 3.41979 9.12242C3.25548 9.31296 3.06592 9.51082 2.89398 9.6903C2.82159 9.76588 2.75231 9.83819 2.68936 9.90532C2.45757 10.1525 2.2784 10.3623 2.15646 10.56C2.03755 10.7528 2 10.8915 2 11C2 11.1085 2.03755 11.2472 2.15646 11.44C2.2784 11.6377 2.45757 11.8475 2.68936 12.0947C2.75231 12.1618 2.82159 12.2341 2.89398 12.3097C3.06592 12.4892 3.25548 12.687 3.41979 12.8776C3.65971 13.1558 3.9097 13.4879 4.06879 13.8705L4.06935 13.8719C4.22595 14.2507 4.2791 14.6598 4.30245 15.0201C4.3177 15.2552 4.32176 15.5178 4.32547 15.7573C4.32724 15.8719 4.32893 15.9812 4.33173 16.0797C4.35222 16.8016 4.44101 17.1691 4.63595 17.364C4.83088 17.559 5.19853 17.6478 5.92069 17.6683C6.01917 17.6711 6.12847 17.6728 6.24305 17.6745C6.48257 17.6782 6.74518 17.6823 6.98032 17.6975C7.34051 17.7209 7.74966 17.774 8.12833 17.9307L8.12948 17.9312C8.51213 18.0903 8.84419 18.3403 9.12242 18.5802C9.31295 18.7445 9.51082 18.9341 9.6903 19.106C9.76587 19.1784 9.83819 19.2477 9.90532 19.3106C10.1525 19.5424 10.3623 19.7216 10.56 19.8435C10.7528 19.9625 10.8915 20 11 20C11.1085 20 11.2472 19.9625 11.44 19.8435C11.6377 19.7216 11.8475 19.5424 12.0947 19.3106C12.1618 19.2477 12.2341 19.1784 12.3097 19.106C12.4892 18.9341 12.687 18.7445 12.8776 18.5802C13.1558 18.3403 13.4879 18.0903 13.8705 17.9312L13.8719 17.9306C14.2507 17.774 14.6598 17.7209 15.0201 17.6975C15.2552 17.6823 15.5178 17.6782 15.7573 17.6745C15.8719 17.6728 15.9812 17.6711 16.0797 17.6683C16.8016 17.6478 17.1691 17.559 17.364 17.364C17.559 17.1691 17.6478 16.8016 17.6683 16.0797C17.6711 15.9812 17.6728 15.8719 17.6745 15.7573C17.6782 15.5178 17.6823 15.2552 17.6975 15.0201C17.7209 14.6598 17.774 14.2507 17.9306 13.8719L17.9312 13.8705C18.0903 13.4879 18.3403 13.1558 18.5802 12.8776C18.7445 12.687 18.9341 12.4892 19.106 12.3097C19.1784 12.2341 19.2477 12.1618 19.3106 12.0947C19.5424 11.8475 19.7216 11.6377 19.8435 11.44C19.9625 11.2472 20 11.1085 20 11C20 10.8916 19.9625 10.7533 19.8438 10.5611C19.7219 10.3638 19.5429 10.1544 19.3109 9.9074C19.2487 9.84109 19.1803 9.76977 19.1089 9.69525C18.9361 9.51509 18.7455 9.31621 18.58 9.12415C18.3398 8.84532 18.0898 8.51249 17.9308 8.12843L17.9306 8.12811C17.774 7.74933 17.7209 7.34019 17.6975 6.97992C17.6823 6.74477 17.6782 6.48218 17.6745 6.24269C17.6728 6.12811 17.6711 6.01881 17.6683 5.92034C17.6478 5.19838 17.559 4.8309 17.364 4.63595C17.1691 4.44101 16.8016 4.35222 16.0797 4.33173C15.9812 4.32893 15.8719 4.32724 15.7573 4.32547C15.5178 4.32176 15.2552 4.3177 15.0201 4.30245C14.6598 4.2791 14.2507 4.22595 13.8719 4.06935L13.8705 4.06879C13.4879 3.9097 13.1558 3.65971 12.8776 3.41979C12.687 3.25548 12.4892 3.06592 12.3097 2.89398C12.2341 2.82159 12.1618 2.75231 12.0947 2.68936C11.8475 2.45757 11.6377 2.2784 11.44 2.15646C11.2472 2.03755 11.1085 2 11 2C10.8916 2 10.7533 2.03746 10.5611 2.15622C10.3638 2.27808 10.1544 2.45714 9.9074 2.68906C9.84109 2.75131 9.76977 2.81969 9.69525 2.89113C9.51509 3.06385 9.31621 3.25452 9.12415 3.41999ZM9.77271 0.880092C10.1106 0.671365 10.5225 0.5 11 0.5C11.4774 0.5 11.8895 0.671281 12.2276 0.879849C12.5607 1.08539 12.8618 1.35235 13.1207 1.59517C13.2143 1.68291 13.3007 1.76578 13.3833 1.845C13.5476 2.00246 13.6968 2.14552 13.8572 2.28383C14.0905 2.48502 14.2805 2.61464 14.4457 2.68344C14.5975 2.74605 14.8126 2.78586 15.1171 2.80559C15.3181 2.81862 15.5114 2.82144 15.7248 2.82456C15.8487 2.82637 15.9793 2.82828 16.1222 2.83233C16.7873 2.85121 17.7572 2.90774 18.4247 3.57529C19.0923 4.24285 19.1488 5.21271 19.1677 5.87778C19.1717 6.02069 19.1736 6.15133 19.1754 6.27517C19.1786 6.48865 19.1814 6.6819 19.1944 6.88288C19.2142 7.18761 19.254 7.40287 19.3167 7.55469C19.3855 7.72095 19.5152 7.91159 19.7164 8.14505C19.8553 8.30622 19.9992 8.45628 20.1578 8.62153C20.2361 8.70317 20.318 8.78851 20.4045 8.88073C20.6472 9.13924 20.9143 9.43987 21.1199 9.77271C21.3286 10.1106 21.5 10.5225 21.5 11C21.5 11.4774 21.3287 11.8895 21.1202 12.2276C20.9146 12.5607 20.6476 12.8618 20.4048 13.1207C20.3171 13.2143 20.2342 13.3007 20.155 13.3833C19.9975 13.5476 19.8545 13.6968 19.7162 13.8572C19.5149 14.0905 19.3853 14.2806 19.3165 14.4458C19.2539 14.5976 19.2141 14.8127 19.1944 15.1171C19.1814 15.3181 19.1786 15.5113 19.1754 15.7248C19.1736 15.8487 19.1717 15.9793 19.1677 16.1222C19.1488 16.7873 19.0923 17.7572 18.4247 18.4247C17.7572 19.0923 16.7873 19.1488 16.1222 19.1677C15.9793 19.1717 15.8487 19.1736 15.7248 19.1754C15.5113 19.1786 15.3181 19.1814 15.1171 19.1944C14.8127 19.2141 14.5976 19.2539 14.4458 19.3165C14.2806 19.3853 14.0905 19.5149 13.8572 19.7162C13.6968 19.8545 13.5476 19.9975 13.3833 20.155C13.3007 20.2342 13.2143 20.3171 13.1207 20.4048C12.8618 20.6476 12.5607 20.9146 12.2276 21.1202C11.8895 21.3287 11.4774 21.5 11 21.5C10.5226 21.5 10.1105 21.3287 9.77244 21.1202C9.43927 20.9146 9.13824 20.6476 8.87929 20.4048C8.78572 20.3171 8.69929 20.2342 8.61667 20.155C8.45243 19.9975 8.30322 19.8545 8.14283 19.7162C7.90954 19.515 7.71951 19.3854 7.55436 19.3166C7.4029 19.254 7.18791 19.2142 6.88327 19.1944C6.68231 19.1814 6.48904 19.1786 6.27553 19.1754C6.15169 19.1736 6.02104 19.1717 5.87813 19.1677C5.21303 19.1488 4.24287 19.0923 3.57529 18.4247C2.90774 17.7572 2.85121 16.7873 2.83233 16.1222C2.82828 15.9793 2.82637 15.8487 2.82456 15.7248C2.82144 15.5114 2.81862 15.3181 2.80559 15.1171C2.78586 14.8126 2.74605 14.5975 2.68344 14.4457C2.61464 14.2805 2.48502 14.0905 2.28383 13.8572C2.14552 13.6968 2.00246 13.5476 1.845 13.3833C1.76578 13.3007 1.68291 13.2143 1.59517 13.1207C1.35235 12.8618 1.08539 12.5607 0.879849 12.2276C0.671281 11.8895 0.5 11.4774 0.5 11C0.5 10.5226 0.671281 10.1105 0.879849 9.77244C1.08539 9.43927 1.35235 9.13823 1.59517 8.87929C1.68291 8.78572 1.76578 8.69929 1.845 8.61666C2.00246 8.45242 2.14552 8.30321 2.28383 8.14283C2.48505 7.90948 2.61468 7.71941 2.68347 7.55424C2.74602 7.40278 2.78585 7.18782 2.80559 6.88327C2.81862 6.68232 2.82144 6.48906 2.82456 6.27555C2.82637 6.15171 2.82828 6.02105 2.83233 5.87814C2.85121 5.21303 2.90772 4.24287 3.57529 3.57529C4.24287 2.90772 5.21303 2.85121 5.87814 2.83233C6.02105 2.82828 6.15171 2.82637 6.27555 2.82456C6.48906 2.82144 6.68232 2.81862 6.88327 2.80559C7.18813 2.78583 7.40321 2.74594 7.55469 2.68328M9.77271 0.880092C9.43987 1.08571 9.13924 1.35278 8.88073 1.59547L9.77271 0.880092ZM8.88073 1.59547C8.78851 1.68204 8.70317 1.76391 8.62155 1.84223L8.88073 1.59547ZM8.62155 1.84223C8.45628 2.00078 8.30623 2.14475 8.14505 2.28362L8.62155 1.84223ZM8.14505 2.28362C7.91164 2.48472 7.72103 2.6144 7.5548 2.68324L8.14505 2.28362Z" fill="white"/>
<path fill-rule="evenodd" clip-rule="evenodd" d="M8 7.25C7.58579 7.25 7.25 7.58579 7.25 8C7.25 8.41421 7.58579 8.75 8 8.75C8.41421 8.75 8.75 8.41421 8.75 8C8.75 7.58579 8.41421 7.25 8 7.25ZM5.75 8C5.75 6.75736 6.75736 5.75 8 5.75C9.24264 5.75 10.25 6.75736 10.25 8C10.25 9.24264 9.24264 10.25 8 10.25C6.75736 10.25 5.75 9.24264 5.75 8Z" fill="white"/>
<path fill-rule="evenodd" clip-rule="evenodd" d="M14 13.25C13.5858 13.25 13.25 13.5858 13.25 14C13.25 14.4142 13.5858 14.75 14 14.75C14.4142 14.75 14.75 14.4142 14.75 14C14.75 13.5858 14.4142 13.25 14 13.25ZM11.75 14C11.75 12.7574 12.7574 11.75 14 11.75C15.2426 11.75 16.25 12.7574 16.25 14C16.25 15.2426 15.2426 16.25 14 16.25C12.7574 16.25 11.75 15.2426 11.75 14Z" fill="white"/>
<path fill-rule="evenodd" clip-rule="evenodd" d="M15.2803 6.71967C15.5732 7.01256 15.5732 7.48744 15.2803 7.78033L7.78033 15.2803C7.48744 15.5732 7.01256 15.5732 6.71967 15.2803C6.42678 14.9874 6.42678 14.5126 6.71967 14.2197L14.2197 6.71967C14.5126 6.42678 14.9874 6.42678 15.2803 6.71967Z" fill="white"/>
</svg>
