<svg width="24" height="24" viewBox="0 0 24 24" fill="none" xmlns="http://www.w3.org/2000/svg">
<path fill-rule="evenodd" clip-rule="evenodd" d="M4.57918 3.41459C4.70622 3.1605 4.96592 3 5.25 3H18.75C19.0341 3 19.2938 3.1605 19.4208 3.41459L20.9208 6.41459C20.9729 6.51873 21 6.63357 21 6.75V19.5C21 19.8978 20.842 20.2794 20.5607 20.5607C20.2794 20.842 19.8978 21 19.5 21H4.5C4.10218 21 3.72065 20.842 3.43934 20.5607C3.15804 20.2794 3 19.8978 3 19.5V6.75C3 6.63357 3.02711 6.51873 3.07918 6.41459L4.57918 3.41459ZM5.71353 4.5L4.5 6.92705V19.5H19.5V6.92705L18.2865 4.5H5.71353Z" fill="white"/>
<path fill-rule="evenodd" clip-rule="evenodd" d="M3 6.75C3 6.33579 3.33579 6 3.75 6H20.25C20.6642 6 21 6.33579 21 6.75C21 7.16421 20.6642 7.5 20.25 7.5H3.75C3.33579 7.5 3 7.16421 3 6.75Z" fill="white"/>
<path fill-rule="evenodd" clip-rule="evenodd" d="M12 9C12.4142 9 12.75 9.33579 12.75 9.75V17.25C12.75 17.6642 12.4142 18 12 18C11.5858 18 11.25 17.6642 11.25 17.25V9.75C11.25 9.33579 11.5858 9 12 9Z" fill="white"/>
<path fill-rule="evenodd" clip-rule="evenodd" d="M11.4697 9.21967C11.7626 8.92678 12.2374 8.92678 12.5303 9.21967L15.5303 12.2197C15.8232 12.5126 15.8232 12.9874 15.5303 13.2803C15.2374 13.5732 14.7626 13.5732 14.4697 13.2803L12 10.8107L9.53033 13.2803C9.23744 13.5732 8.76256 13.5732 8.46967 13.2803C8.17678 12.9874 8.17678 12.5126 8.46967 12.2197L11.4697 9.21967Z" fill="white"/>
</svg>
