<svg width="24" height="24" viewBox="0 0 24 24" fill="none" xmlns="http://www.w3.org/2000/svg">
<path fill-rule="evenodd" clip-rule="evenodd" d="M13.4902 4.64921C12.0455 4.3564 10.5466 4.49583 9.18062 5.05006C7.81468 5.60429 6.64236 6.54876 5.81012 7.76545C4.97789 8.98214 4.52264 10.4171 4.50128 11.891C4.47991 13.365 4.89336 14.8125 5.68998 16.0528C6.48659 17.2931 7.63105 18.2712 8.98034 18.8648C10.3296 19.4584 11.8239 19.6412 13.2765 19.3904C14.7291 19.1396 16.0756 18.4663 17.1478 17.4546C17.449 17.1704 17.9237 17.1841 18.208 17.4854C18.4922 17.7867 18.4785 18.2613 18.1772 18.5456C16.8907 19.7596 15.2749 20.5676 13.5317 20.8685C11.7886 21.1695 9.99546 20.9501 8.37631 20.2378C6.75716 19.5255 5.38381 18.3518 4.42788 16.8635C3.47194 15.3751 2.97579 13.638 3.00143 11.8693C3.02708 10.1006 3.57337 8.37862 4.57205 6.91859C5.57073 5.45856 6.97752 4.3252 8.61664 3.66012C10.2558 2.99504 12.0545 2.82773 13.7882 3.1791C15.5163 3.52934 17.1034 4.37947 18.3524 5.62374L21 8.04697V5.25012C21 4.8359 21.3358 4.50012 21.75 4.50012C22.1642 4.50012 22.5 4.8359 22.5 5.25012V9.75012C22.5 10.1643 22.1642 10.5001 21.75 10.5001H17.25C16.8358 10.5001 16.5 10.1643 16.5 9.75012C16.5 9.3359 16.8358 9.00012 17.25 9.00012H19.8197L17.3277 6.71931C17.3195 6.71185 17.3115 6.70421 17.3037 6.69639C16.2614 5.65406 14.935 4.94201 13.4902 4.64921Z" fill="white"/>
</svg>
