<svg width="24" height="24" viewBox="0 0 24 24" fill="none" xmlns="http://www.w3.org/2000/svg">
<path fill-rule="evenodd" clip-rule="evenodd" d="M2.25 5.25C2.25 4.83579 2.58579 4.5 3 4.5H21C21.4142 4.5 21.75 4.83579 21.75 5.25V18C21.75 18.3978 21.592 18.7794 21.3107 19.0607C21.0294 19.342 20.6478 19.5 20.25 19.5H3.75C3.35218 19.5 2.97065 19.342 2.68934 19.0607C2.40804 18.7794 2.25 18.3978 2.25 18V5.25ZM4.9281 6L12 12.4826L19.0719 6H4.9281ZM20.25 6.95493L12.5068 14.0529C12.2201 14.3157 11.7799 14.3157 11.4932 14.0529L3.75 6.95493V18H20.25V6.95493Z" fill="#556065"/>
</svg>
