<svg width="24" height="24" viewBox="0 0 24 24" fill="none" xmlns="http://www.w3.org/2000/svg">
<path fill-rule="evenodd" clip-rule="evenodd" d="M3.43934 3.43934C3.72064 3.15804 4.10217 3 4.5 3H19.5C19.8978 3 20.2794 3.15804 20.5607 3.43934C20.842 3.72065 21 4.10218 21 4.5V14.69C20.9998 15.0873 20.842 15.4683 20.5613 15.7494L15.7494 20.5613C15.4683 20.842 15.0873 20.9998 14.69 21H4.5C4.10218 21 3.72065 20.842 3.43934 20.5607C3.15804 20.2794 3 19.8978 3 19.5V4.5C3 4.10217 3.15804 3.72064 3.43934 3.43934ZM19.5 4.5L4.5 4.5L4.5 19.5H14.25V14.9991C14.25 14.5848 14.5858 14.2491 15 14.2491H19.5V4.5ZM18.4403 15.7491L15.75 18.4393V15.7491H18.4403ZM8.25 9C8.25 8.58579 8.58579 8.25 9 8.25H15C15.4142 8.25 15.75 8.58579 15.75 9C15.75 9.41421 15.4142 9.75 15 9.75H9C8.58579 9.75 8.25 9.41421 8.25 9ZM8.25 12C8.25 11.5858 8.58579 11.25 9 11.25H15C15.4142 11.25 15.75 11.5858 15.75 12C15.75 12.4142 15.4142 12.75 15 12.75H9C8.58579 12.75 8.25 12.4142 8.25 12ZM8.25 15C8.25 14.5858 8.58579 14.25 9 14.25H12C12.4142 14.25 12.75 14.5858 12.75 15C12.75 15.4142 12.4142 15.75 12 15.75H9C8.58579 15.75 8.25 15.4142 8.25 15Z" fill="#556065"/>
</svg>
