<svg width="24" height="24" viewBox="0 0 24 24" fill="none" xmlns="http://www.w3.org/2000/svg">
<path fill-rule="evenodd" clip-rule="evenodd" d="M2.52872 9.1666C2.85094 8.90631 3.32315 8.95652 3.58344 9.27874C4.11294 9.93424 4.79102 10.6523 5.63201 11.3074C5.64573 11.3173 5.65903 11.3276 5.67191 11.3383C7.21202 12.5269 9.29259 13.5 12 13.5C14.7074 13.5 16.788 12.5269 18.3281 11.3383C18.341 11.3276 18.3543 11.3173 18.368 11.3073C19.209 10.6523 19.8871 9.93423 20.4166 9.27874C20.6769 8.95652 21.1491 8.90631 21.4713 9.1666C21.7935 9.42688 21.8437 9.89909 21.5834 10.2213C21.104 10.8149 20.5036 11.4669 19.7741 12.0934L21.6512 15.3779C21.8567 15.7375 21.7318 16.1957 21.3721 16.4012C21.0125 16.6067 20.5544 16.4818 20.3488 16.1222L18.5708 13.0109C17.6124 13.655 16.4891 14.215 15.1897 14.5753L15.7398 17.8768C15.8079 18.2853 15.5319 18.6717 15.1233 18.7398C14.7147 18.8079 14.3283 18.5319 14.2602 18.1233L13.7199 14.8809C13.1733 14.9581 12.6002 15 12 15C11.3998 15 10.8267 14.9581 10.2801 14.8809L9.73981 18.1233C9.67173 18.5319 9.28532 18.8079 8.87674 18.7398C8.46815 18.6717 8.19213 18.2853 8.26021 17.8768L8.81033 14.5753C7.51088 14.215 6.38764 13.655 5.42925 13.0109L3.65117 16.1222C3.44564 16.4818 2.9875 16.6067 2.62787 16.4012C2.26824 16.1957 2.14332 15.7375 2.34884 15.3779L4.22592 12.0934C3.49641 11.4669 2.89605 10.8149 2.41658 10.2213C2.15629 9.89909 2.2065 9.42688 2.52872 9.1666Z" fill="#556065"/>
</svg>
