<svg width="24" height="24" viewBox="0 0 24 24" fill="none" xmlns="http://www.w3.org/2000/svg">
<path fill-rule="evenodd" clip-rule="evenodd" d="M12 2.25C11.2044 2.25 10.4413 2.56607 9.87868 3.12868C9.31607 3.69129 9 4.45435 9 5.25V7.5H15V5.25C15 4.45435 14.6839 3.69129 14.1213 3.12868C13.5587 2.56607 12.7956 2.25 12 2.25ZM16.5 7.5V5.25C16.5 4.05653 16.0259 2.91193 15.182 2.06802C14.3381 1.22411 13.1935 0.75 12 0.75C10.8065 0.75 9.66193 1.22411 8.81802 2.06802C7.97411 2.91193 7.5 4.05653 7.5 5.25V7.5H4.5C3.67157 7.5 3 8.17157 3 9V19.5C3 20.3284 3.67157 21 4.5 21H19.5C20.3284 21 21 20.3284 21 19.5V9C21 8.17157 20.3284 7.5 19.5 7.5H16.5ZM4.5 9V19.5H19.5V9H4.5ZM12 12C11.3787 12 10.875 12.5037 10.875 13.125C10.875 13.7463 11.3787 14.25 12 14.25C12.6213 14.25 13.125 13.7463 13.125 13.125C13.125 12.5037 12.6213 12 12 12ZM9.375 13.125C9.375 11.6753 10.5503 10.5 12 10.5C13.4497 10.5 14.625 11.6753 14.625 13.125C14.625 14.3141 13.8343 15.3186 12.75 15.6413V17.25C12.75 17.6642 12.4142 18 12 18C11.5858 18 11.25 17.6642 11.25 17.25V15.6413C10.1657 15.3186 9.375 14.3141 9.375 13.125Z" fill="#556065"/>
</svg>
