<svg width="24" height="24" viewBox="0 0 24 24" fill="none" xmlns="http://www.w3.org/2000/svg">
<path fill-rule="evenodd" clip-rule="evenodd" d="M12 3.75C7.44365 3.75 3.75 7.44365 3.75 12C3.75 14.103 4.53689 16.0223 5.83229 17.4794C6.42269 16.626 7.18598 15.9013 8.07661 15.3547C8.44013 15.1315 8.82049 14.9407 9.21329 14.7835C8.16975 13.9594 7.5 12.6829 7.5 11.25C7.5 8.76472 9.51472 6.75 12 6.75C14.4853 6.75 16.5 8.76472 16.5 11.25C16.5 12.6829 15.8302 13.9594 14.7867 14.7835C15.1795 14.9407 15.5599 15.1315 15.9234 15.3547C16.814 15.9013 17.5773 16.626 18.1677 17.4794C19.4631 16.0223 20.25 14.103 20.25 12C20.25 7.44365 16.5563 3.75 12 3.75ZM17.0576 18.5184C16.5703 17.755 15.9149 17.1095 15.1387 16.6331C14.2321 16.0766 13.1946 15.7716 12.1327 15.7481C12.0886 15.7494 12.0444 15.75 12 15.75C11.9556 15.75 11.9114 15.7494 11.8673 15.7481C10.8054 15.7716 9.76787 16.0766 8.86128 16.6331C8.08505 17.1095 7.42973 17.755 6.94244 18.5184C8.33923 19.6038 10.0941 20.25 12 20.25C13.9059 20.25 15.6608 19.6038 17.0576 18.5184ZM12.1213 14.2476C13.7219 14.184 15 12.8662 15 11.25C15 9.59315 13.6569 8.25 12 8.25C10.3431 8.25 9 9.59315 9 11.25C9 12.8662 10.2781 14.184 11.8787 14.2476C11.9191 14.2469 11.9595 14.2466 12 14.2466C12.0405 14.2466 12.0809 14.2469 12.1213 14.2476ZM2.25 12C2.25 6.61522 6.61522 2.25 12 2.25C17.3848 2.25 21.75 6.61522 21.75 12C21.75 17.3848 17.3848 21.75 12 21.75C6.61522 21.75 2.25 17.3848 2.25 12Z" fill="#556065"/>
</svg>
