<svg width="16" height="16" viewBox="0 0 16 16" fill="none" xmlns="http://www.w3.org/2000/svg">
<path fill-rule="evenodd" clip-rule="evenodd" d="M5.37596 2.08397C5.51506 1.87533 5.74924 1.75 6 1.75H10C10.2508 1.75 10.4849 1.87533 10.624 2.08397L11.4014 3.25H13C13.4641 3.25 13.9092 3.43437 14.2374 3.76256C14.5656 4.09075 14.75 4.53587 14.75 5V12C14.75 12.4641 14.5656 12.9092 14.2374 13.2374C13.9092 13.5656 13.4641 13.75 13 13.75H3C2.53587 13.75 2.09075 13.5656 1.76256 13.2374C1.43437 12.9092 1.25 12.4641 1.25 12V5C1.25 4.53587 1.43437 4.09075 1.76256 3.76256C2.09075 3.43437 2.53587 3.25 3 3.25H4.59861L5.37596 2.08397ZM6.40139 3.25L5.62404 4.41603C5.48494 4.62467 5.25076 4.75 5 4.75H3C2.9337 4.75 2.87011 4.77634 2.82322 4.82322C2.77634 4.87011 2.75 4.9337 2.75 5V12C2.75 12.0663 2.77634 12.1299 2.82322 12.1768C2.87011 12.2237 2.9337 12.25 3 12.25H13C13.0663 12.25 13.1299 12.2237 13.1768 12.1768C13.2237 12.1299 13.25 12.0663 13.25 12V5C13.25 4.9337 13.2237 4.87011 13.1768 4.82322C13.1299 4.77634 13.0663 4.75 13 4.75H11C10.7492 4.75 10.5151 4.62467 10.376 4.41603L9.59861 3.25H6.40139Z" fill="#539461"/>
<path fill-rule="evenodd" clip-rule="evenodd" d="M8 6.75C7.17157 6.75 6.5 7.42157 6.5 8.25C6.5 9.07843 7.17157 9.75 8 9.75C8.82843 9.75 9.5 9.07843 9.5 8.25C9.5 7.42157 8.82843 6.75 8 6.75ZM5 8.25C5 6.59315 6.34315 5.25 8 5.25C9.65685 5.25 11 6.59315 11 8.25C11 9.90685 9.65685 11.25 8 11.25C6.34315 11.25 5 9.90685 5 8.25Z" fill="#539461"/>
</svg>
