<svg width="18" height="19" viewBox="0 0 18 19" fill="none" xmlns="http://www.w3.org/2000/svg">
<path d="M8.25 11.5V1C8.25 0.585786 8.58579 0.25 9 0.25C9.41421 0.25 9.75 0.585786 9.75 1V11.5C9.75 11.9142 9.41421 12.25 9 12.25C8.58579 12.25 8.25 11.9142 8.25 11.5Z" fill="#556065"/>
<path d="M0 11.5C0 11.0858 0.335786 10.75 0.75 10.75C1.16421 10.75 1.5 11.0858 1.5 11.5V16.75H16.5V11.5C16.5 11.0858 16.8358 10.75 17.25 10.75C17.6642 10.75 18 11.0858 18 11.5V17.5C18 17.9142 17.6642 18.25 17.25 18.25H0.75C0.335786 18.25 0 17.9142 0 17.5V11.5Z" fill="#556065"/>
<path d="M12.2197 7.21973C12.5126 6.92683 12.9874 6.92683 13.2803 7.21973C13.5732 7.51262 13.5732 7.98738 13.2803 8.28027L9.53027 12.0303C9.23738 12.3232 8.76262 12.3232 8.46973 12.0303L4.71973 8.28027C4.42683 7.98738 4.42683 7.51262 4.71973 7.21973C5.01262 6.92683 5.48738 6.92683 5.78027 7.21973L9 10.4395L12.2197 7.21973Z" fill="#556065"/>
</svg>
