<svg width="24" height="24" viewBox="0 0 24 24" fill="none" xmlns="http://www.w3.org/2000/svg">
<path d="M22.0612 7.62871L16.3744 1.93902C15.7894 1.35496 14.8387 1.35496 14.2528 1.93902L9.22311 6.98277C8.22373 6.66965 5.9428 6.2909 3.56248 8.21184C2.91655 8.7284 2.81248 9.67434 3.32905 10.3203C3.36373 10.3634 3.40123 10.4056 3.44061 10.444L7.9678 14.9712L3.9703 18.9687C3.6778 19.2612 3.6778 19.7365 3.9703 20.029C4.11655 20.1753 4.30873 20.2484 4.50092 20.2484C4.69311 20.2484 4.88436 20.1753 5.03155 20.029L9.02905 16.0315L13.5581 20.5606C13.8497 20.8503 14.2322 20.9956 14.6147 20.9956C14.9972 20.9956 15.3872 20.8475 15.6806 20.5521C15.7265 20.5062 15.7697 20.4565 15.8109 20.4021C16.665 19.2659 17.8969 17.089 17.0484 14.7781L22.0612 9.74934C22.6453 9.16434 22.6453 8.21371 22.0612 7.62871ZM21 8.68902L15.6281 14.0778C15.4003 14.3065 15.344 14.6543 15.4884 14.9431C16.3753 16.715 15.3197 18.559 14.6165 19.4984L4.50186 9.38277C5.63342 8.46965 6.71717 8.22871 7.54592 8.22871C8.43561 8.22871 9.03186 8.50621 9.07592 8.52777C9.36467 8.67215 9.71436 8.61496 9.94217 8.38621L15.3131 3.00027L21.0009 8.68902H21Z" fill="#556065"/>
<path d="M22.0612 9.74895L17.0484 14.7777C17.8969 17.0886 16.665 19.2655 15.8109 20.4018C15.7687 20.4571 15.7266 20.5058 15.6806 20.5527C15.3872 20.848 15.0009 20.9961 14.6137 20.9961C14.2266 20.9961 13.8497 20.8508 13.5581 20.5611L3.44062 10.4446C3.40124 10.4061 3.36374 10.3639 3.32906 10.3208C2.81249 9.67488 2.91749 8.72895 3.56249 8.21238C5.94281 6.29145 8.22374 6.6702 9.22312 6.98332L14.2528 1.93957C14.8387 1.35363 15.7894 1.35363 16.3744 1.93863L22.0612 7.62832C22.6462 8.21332 22.6462 9.16395 22.0612 9.74895Z" fill="#539461"/>
</svg>
