<svg width="24" height="24" viewBox="0 0 24 24" fill="none" xmlns="http://www.w3.org/2000/svg">
<path fill-rule="evenodd" clip-rule="evenodd" d="M12.0709 13.9064C10.7319 11.3126 11.0539 8.66119 12.8757 6.70451C14.7653 4.67497 18.1394 3.52894 22.5093 3.78597C22.8887 3.80828 23.1914 4.11085 23.2139 4.49022C23.4734 8.8604 22.3274 12.2347 20.2971 14.1243C18.3538 15.933 15.7252 16.2634 13.149 14.9574C12.8414 15.3422 12.5889 15.7691 12.3997 16.2259C12.1358 16.863 11.9999 17.5458 11.9999 18.2353V21C11.9999 21.4142 11.6642 21.75 11.2499 21.75C10.8357 21.75 10.4999 21.4142 10.4999 21V18.3106L8.15806 15.9688C6.28342 16.8692 4.35936 16.6131 2.92858 15.2812C1.4155 13.8725 0.589826 11.389 0.775605 8.23033C0.79793 7.85073 1.1008 7.54791 1.48039 7.52565C4.63904 7.34036 7.12248 8.16603 8.53108 9.67896C9.8631 11.1096 10.1191 13.0335 9.21872 14.9081L10.7447 16.4341C10.8182 16.1686 10.908 15.9074 11.0139 15.6518C11.2762 15.0187 11.6329 14.4304 12.0709 13.9064ZM8.07067 13.7601C8.46353 12.583 8.19291 11.517 7.43324 10.7011C6.5171 9.71709 4.77755 8.98014 2.24995 9.0001C2.22965 11.5276 2.96659 13.2671 3.95066 14.1833C4.7667 14.943 5.8329 15.2136 7.01001 14.8207L4.71961 12.5303C4.42672 12.2374 4.42672 11.7625 4.71961 11.4697C5.01251 11.1768 5.48738 11.1768 5.78027 11.4697L8.07067 13.7601ZM14.2457 13.8148C16.1605 14.6261 17.9396 14.2694 19.2752 13.0263C20.7737 11.6316 21.8365 9.00352 21.745 5.25529C17.9966 5.16573 15.3683 6.22852 13.9735 7.72664C12.7306 9.06161 12.3738 10.8397 13.1851 12.7542L18.2196 7.71966C18.5125 7.42676 18.9874 7.42676 19.2803 7.71966C19.5732 8.01255 19.5732 8.48742 19.2803 8.78032L14.2457 13.8148Z" fill="#539461"/>
</svg>
