<svg width="24" height="24" viewBox="0 0 24 24" fill="none" xmlns="http://www.w3.org/2000/svg">
<path fill-rule="evenodd" clip-rule="evenodd" d="M11.4697 1.71967C11.7626 1.42678 12.2374 1.42678 12.5303 1.71967L16.2803 5.46967C16.5732 5.76256 16.5732 6.23744 16.2803 6.53033C15.9874 6.82322 15.5126 6.82322 15.2197 6.53033L12.75 4.06066V12.75C12.75 13.1642 12.4142 13.5 12 13.5C11.5858 13.5 11.25 13.1642 11.25 12.75V4.06066L8.78033 6.53033C8.48744 6.82322 8.01256 6.82322 7.71967 6.53033C7.42678 6.23744 7.42678 5.76256 7.71967 5.46967L11.4697 1.71967ZM4.18934 9.43934C4.47064 9.15804 4.85217 9 5.25 9H7.5C7.91421 9 8.25 9.33579 8.25 9.75C8.25 10.1642 7.91421 10.5 7.5 10.5H5.25L5.25 19.5H18.75V10.5H16.5C16.0858 10.5 15.75 10.1642 15.75 9.75C15.75 9.33579 16.0858 9 16.5 9H18.75C19.1478 9 19.5294 9.15804 19.8107 9.43934C20.092 9.72064 20.25 10.1022 20.25 10.5V19.5C20.25 19.8978 20.092 20.2794 19.8107 20.5607C19.5294 20.842 19.1478 21 18.75 21H5.25C4.85218 21 4.47065 20.842 4.18934 20.5607C3.90804 20.2794 3.75 19.8978 3.75 19.5V10.5C3.75 10.1022 3.90804 9.72064 4.18934 9.43934Z" fill="#539461"/>
</svg>
