<svg width="24" height="24" viewBox="0 0 24 24" fill="none" xmlns="http://www.w3.org/2000/svg">
<path fill-rule="evenodd" clip-rule="evenodd" d="M2.25 5.25C2.25 4.42157 2.92157 3.75 3.75 3.75H20.25C21.0784 3.75 21.75 4.42157 21.75 5.25V16.6902V16.6961V18.75C21.75 19.5784 21.0784 20.25 20.25 20.25H17.9367H17.934H3.75C2.92157 20.25 2.25 19.5784 2.25 18.75V5.25ZM3.75 16.1253V18.75H16.1248L13.2955 15.9205C13.2902 15.9154 13.2849 15.9103 13.2797 15.905C13.2746 15.9 13.2697 15.8949 13.2648 15.8897L8.62527 11.2497L3.75 16.1253ZM14.8715 15.3751L18.246 18.75H20.25V17.0036L16.7489 13.4999L14.8715 15.3751ZM20.25 14.8815V5.25H3.75V14.0038L7.56375 10.1893C7.70301 10.05 7.8686 9.93919 8.05059 9.86375C8.23269 9.78827 8.42788 9.74941 8.625 9.74941C8.82212 9.74941 9.01731 9.78827 9.19941 9.86375C9.38139 9.93919 9.54673 10.0497 9.68598 10.1891L13.8109 14.3144L15.6886 12.4389C15.9699 12.1579 16.3513 11.9999 16.7489 11.9999C17.1466 11.9999 17.5279 12.1578 17.8092 12.4389L20.25 14.8815Z" fill="#7F8D91"/>
<path d="M14.625 10.5C15.2463 10.5 15.75 9.99632 15.75 9.375C15.75 8.75368 15.2463 8.25 14.625 8.25C14.0037 8.25 13.5 8.75368 13.5 9.375C13.5 9.99632 14.0037 10.5 14.625 10.5Z" fill="#7F8D91"/>
</svg>
