<svg width="40" height="40" viewBox="0 0 40 40" fill="none" xmlns="http://www.w3.org/2000/svg">
<rect x="0.5" y="0.5" width="39" height="39" rx="11.5" fill="white"/>
<rect x="0.5" y="0.5" width="39" height="39" rx="11.5" stroke="#CDD3D4"/>
<path fill-rule="evenodd" clip-rule="evenodd" d="M25.4697 10.4697C25.7626 10.1768 26.2374 10.1768 26.5303 10.4697L29.5303 13.4697C29.8232 13.7626 29.8232 14.2374 29.5303 14.5303L20.5303 23.5303C20.3897 23.671 20.1989 23.75 20 23.75H17C16.5858 23.75 16.25 23.4142 16.25 23V20C16.25 19.8011 16.329 19.6103 16.4697 19.4697L25.4697 10.4697ZM23.75 14.3107L17.75 20.3107V22.25H19.6893L25.6893 16.25L23.75 14.3107ZM26.75 15.1893L24.8107 13.25L26 12.0607L27.9393 14L26.75 15.1893ZM11.4393 11.4393C11.7206 11.158 12.1022 11 12.5 11H20C20.4142 11 20.75 11.3358 20.75 11.75C20.75 12.1642 20.4142 12.5 20 12.5L12.5 12.5L12.5 27.5H27.5V20C27.5 19.5858 27.8358 19.25 28.25 19.25C28.6642 19.25 29 19.5858 29 20V27.5C29 27.8978 28.842 28.2794 28.5607 28.5607C28.2794 28.842 27.8978 29 27.5 29H12.5C12.1022 29 11.7206 28.842 11.4393 28.5607C11.158 28.2794 11 27.8978 11 27.5V12.5C11 12.1022 11.158 11.7206 11.4393 11.4393Z" fill="#556065"/>
</svg>
