<svg width="40" height="40" viewBox="0 0 40 40" fill="none" xmlns="http://www.w3.org/2000/svg">
<rect x="0.5" y="0.5" width="39" height="39" rx="11.5" fill="white"/>
<rect x="0.5" y="0.5" width="39" height="39" rx="11.5" stroke="#CDD3D4"/>
<path d="M20 21.125C20.6213 21.125 21.125 20.6213 21.125 20C21.125 19.3787 20.6213 18.875 20 18.875C19.3787 18.875 18.875 19.3787 18.875 20C18.875 20.6213 19.3787 21.125 20 21.125Z" fill="#556065"/>
<path d="M26.375 21.125C26.9963 21.125 27.5 20.6213 27.5 20C27.5 19.3787 26.9963 18.875 26.375 18.875C25.7537 18.875 25.25 19.3787 25.25 20C25.25 20.6213 25.7537 21.125 26.375 21.125Z" fill="#556065"/>
<path d="M13.625 21.125C14.2463 21.125 14.75 20.6213 14.75 20C14.75 19.3787 14.2463 18.875 13.625 18.875C13.0037 18.875 12.5 19.3787 12.5 20C12.5 20.6213 13.0037 21.125 13.625 21.125Z" fill="#556065"/>
</svg>
