<svg width="25" height="24" viewBox="0 0 25 24" fill="none" xmlns="http://www.w3.org/2000/svg">
<path fill-rule="evenodd" clip-rule="evenodd" d="M8.65901 2.15901C9.08097 1.73705 9.65326 1.5 10.25 1.5H14.75C15.3467 1.5 15.919 1.73705 16.341 2.15901C16.7629 2.58097 17 3.15326 17 3.75V4.5H20.75C21.1642 4.5 21.5 4.83579 21.5 5.25C21.5 5.66421 21.1642 6 20.75 6H20V19.5C20 19.8978 19.842 20.2794 19.5607 20.5607C19.2794 20.842 18.8978 21 18.5 21H6.5C6.10218 21 5.72065 20.842 5.43934 20.5607C5.15804 20.2794 5 19.8978 5 19.5V6H4.25C3.83579 6 3.5 5.66421 3.5 5.25C3.5 4.83579 3.83579 4.5 4.25 4.5H8V3.75C8 3.15326 8.23705 2.58097 8.65901 2.15901ZM6.5 6V19.5H18.5V6H6.5ZM15.5 4.5H9.5V3.75C9.5 3.55109 9.57902 3.36032 9.71967 3.21967C9.86032 3.07902 10.0511 3 10.25 3H14.75C14.9489 3 15.1397 3.07902 15.2803 3.21967C15.421 3.36032 15.5 3.55109 15.5 3.75V4.5ZM10.25 9C10.6642 9 11 9.33579 11 9.75V15.75C11 16.1642 10.6642 16.5 10.25 16.5C9.83579 16.5 9.5 16.1642 9.5 15.75V9.75C9.5 9.33579 9.83579 9 10.25 9ZM14 9.75C14 9.33579 14.3358 9 14.75 9C15.1642 9 15.5 9.33579 15.5 9.75V15.75C15.5 16.1642 15.1642 16.5 14.75 16.5C14.3358 16.5 14 16.1642 14 15.75V9.75Z" fill="#202325"/>
</svg>
