<svg width="16" height="11" viewBox="0 0 16 11" fill="none" xmlns="http://www.w3.org/2000/svg">
<path d="M4.00653 6.2376C4.00823 6.27146 4.00301 6.30532 3.99121 6.33711C3.97941 6.3689 3.96126 6.39795 3.93788 6.42251C3.91449 6.44706 3.88635 6.46661 3.85518 6.47994C3.824 6.49328 3.79044 6.50014 3.75653 6.5001H0.99903C0.886177 6.50027 0.776586 6.46226 0.688076 6.39224C0.599567 6.32223 0.537345 6.22433 0.51153 6.11447C0.495456 6.03928 0.496197 5.96146 0.5137 5.88658C0.531204 5.8117 0.565037 5.74162 0.61278 5.68134C1.05391 5.09633 1.63921 4.63572 2.31153 4.34447C2.01636 4.07535 1.78997 3.73941 1.65133 3.36481C1.51268 2.9902 1.46582 2.58782 1.51466 2.19138C1.56351 1.79493 1.70663 1.41596 1.93205 1.08621C2.15748 0.756455 2.45863 0.485516 2.8103 0.296084C3.16196 0.106652 3.5539 0.00424306 3.95329 -0.00256634C4.35267 -0.00937573 4.74787 0.0796128 5.10579 0.256946C5.46371 0.43428 5.77392 0.694795 6.01046 1.01667C6.24699 1.33855 6.40295 1.71242 6.46528 2.10697C6.47333 2.16003 6.46382 2.21426 6.43821 2.26142C6.4126 2.30858 6.37229 2.34608 6.32341 2.36822C5.6299 2.68883 5.04257 3.20112 4.63072 3.84464C4.21887 4.48817 3.99969 5.23607 3.99903 6.0001C3.99903 6.0801 3.99903 6.15885 4.00653 6.2376ZM15.3815 5.68072C14.9414 5.09639 14.3575 4.63602 13.6865 4.34447C13.9817 4.07535 14.2081 3.73941 14.3467 3.36481C14.4854 2.9902 14.5322 2.58782 14.4834 2.19138C14.4346 1.79493 14.2914 1.41596 14.066 1.08621C13.8406 0.756455 13.5394 0.485516 13.1878 0.296084C12.8361 0.106652 12.4442 0.00424306 12.0448 -0.00256634C11.6454 -0.00937573 11.2502 0.0796128 10.8923 0.256946C10.5344 0.43428 10.2241 0.694795 9.9876 1.01667C9.75107 1.33855 9.59511 1.71242 9.53278 2.10697C9.52473 2.16003 9.53424 2.21426 9.55985 2.26142C9.58546 2.30858 9.62577 2.34608 9.67465 2.36822C10.3682 2.68883 10.9555 3.20112 11.3673 3.84464C11.7792 4.48817 11.9984 5.23607 11.999 6.0001C11.999 6.0801 11.999 6.15885 11.9915 6.2376C11.9898 6.27146 11.995 6.30532 12.0068 6.33711C12.0187 6.3689 12.0368 6.39795 12.0602 6.42251C12.0836 6.44706 12.1117 6.46661 12.1429 6.47994C12.1741 6.49328 12.2076 6.50014 12.2415 6.5001H14.999C15.1119 6.50027 15.2215 6.46226 15.31 6.39224C15.3985 6.32223 15.4607 6.22433 15.4865 6.11447C15.5027 6.03914 15.502 5.96115 15.4843 5.88615C15.4667 5.81114 15.4327 5.74098 15.3847 5.68072H15.3815ZM9.81903 8.37947C10.3169 7.9982 10.6827 7.47051 10.8652 6.87057C11.0476 6.27063 11.0375 5.6286 10.8362 5.03471C10.6349 4.44083 10.2526 3.92495 9.74297 3.55957C9.23334 3.1942 8.62204 2.99771 7.99497 2.99771C7.3679 2.99771 6.75659 3.1942 6.24697 3.55957C5.73734 3.92495 5.35502 4.44083 5.15373 5.03471C4.95244 5.6286 4.94231 6.27063 5.12476 6.87057C5.30721 7.47051 5.67306 7.9982 6.17091 8.37947C5.28749 8.76224 4.54982 9.41778 4.06591 10.2501C4.02202 10.3261 3.99891 10.4123 3.99892 10.5001C3.99892 10.5879 4.02204 10.6741 4.06593 10.7501C4.10983 10.8262 4.17297 10.8893 4.24899 10.9332C4.32502 10.977 4.41125 11.0001 4.49903 11.0001H11.499C11.5868 11.0001 11.673 10.977 11.7491 10.9332C11.8251 10.8893 11.8882 10.8262 11.9321 10.7501C11.976 10.6741 11.9991 10.5879 11.9991 10.5001C11.9991 10.4123 11.976 10.3261 11.9322 10.2501C11.4472 9.41723 10.7082 8.76164 9.82341 8.37947H9.81903Z" fill="white"/>
</svg>
