<svg width="17" height="16" viewBox="0 0 17 16" fill="none" xmlns="http://www.w3.org/2000/svg">
<path d="M15.8378 13.0769C15.8784 13.1886 15.8863 13.3097 15.8606 13.4258C15.8349 13.5419 15.7765 13.6482 15.6925 13.7323L13.8175 15.6073C13.7594 15.6655 13.6905 15.7117 13.6147 15.7432C13.5388 15.7747 13.4574 15.7909 13.3753 15.7909C13.3547 15.7921 13.3341 15.7921 13.3136 15.7909C13.2215 15.7819 13.1327 15.7525 13.0534 15.705C12.9741 15.6574 12.9063 15.5928 12.855 15.5159L9.412 10.3503L7.75028 12.0089V13.9159C7.7502 14.0815 7.68446 14.2402 7.56747 14.3573C7.56747 14.3573 6.47372 15.4558 6.32684 15.598C6.26579 15.6619 6.19172 15.712 6.10966 15.7448C5.9567 15.8071 5.7853 15.8064 5.63291 15.7427C5.48052 15.679 5.35953 15.5576 5.29637 15.405L5.29169 15.3933L4.14325 12.5214L1.26591 11.3706C1.16992 11.3322 1.08496 11.2706 1.01863 11.1913C0.952304 11.112 0.906685 11.0175 0.885859 10.9162C0.865034 10.815 0.869653 10.7101 0.899302 10.6111C0.928952 10.512 0.982706 10.4219 1.05575 10.3487L2.30575 9.09874C2.36411 9.04044 2.43344 8.99427 2.50974 8.9629C2.58603 8.93152 2.66779 8.91556 2.75028 8.91593H4.65653L6.31825 7.25421L1.15341 3.81046C1.07637 3.75918 1.01169 3.69144 0.964024 3.61212C0.916359 3.53279 0.886903 3.44388 0.877784 3.35179C0.868665 3.2597 0.880109 3.16673 0.911291 3.0796C0.942473 2.99247 0.992614 2.91336 1.05809 2.84796L2.93309 0.972963C3.0172 0.888891 3.12355 0.830561 3.23966 0.804822C3.35576 0.779082 3.4768 0.787002 3.58856 0.827651L10.3026 3.26906L12.7659 0.805776C13.1762 0.395519 13.7326 0.165039 14.3128 0.165039C14.6001 0.165039 14.8845 0.221623 15.1499 0.331561C15.4154 0.441499 15.6565 0.602637 15.8597 0.805776C16.0628 1.00891 16.2239 1.25007 16.3339 1.51549C16.4438 1.7809 16.5004 2.06537 16.5004 2.35265C16.5004 2.63993 16.4438 2.9244 16.3339 3.18981C16.2239 3.45523 16.0628 3.69639 15.8597 3.89953L13.3964 6.36281L15.8378 13.0769Z" fill="#539461"/>
</svg>
