<svg width="56" height="56" viewBox="0 0 56 56" fill="none" xmlns="http://www.w3.org/2000/svg">
<g clip-path="url(#clip0_1747_24362)">
<path d="M42.6014 4.71853C42.2713 4.38855 41.7363 4.38844 41.4063 4.71842L36.4731 9.65047C35.7712 10.3522 35.2059 11.1539 34.7886 12.0229C34.3713 11.1539 33.806 10.3522 33.1042 9.65047L28.1711 4.71842C27.8409 4.38844 27.3061 4.38844 26.976 4.71853C26.646 5.04852 26.646 5.58358 26.9761 5.91367L31.9091 10.8457C33.2211 12.1573 33.9436 13.9014 33.9436 15.7564V36.5895C33.9436 37.0563 34.3219 37.4346 34.7886 37.4346C35.2553 37.4346 35.6337 37.0562 35.6337 36.5895V15.7563C35.6337 13.9012 36.3562 12.1572 37.6682 10.8456L42.6013 5.91356C42.9314 5.58358 42.9314 5.04862 42.6014 4.71853Z" fill="#909BA6"/>
<path d="M47.0696 0.705961C47.0067 0.484258 46.8328 0.310461 46.6111 0.247461C44.4194 -0.374773 41.965 0.176368 40.2396 1.90165C38.5143 3.62704 37.9631 6.08152 38.5853 8.27307C38.6482 8.49477 38.8221 8.66857 39.0439 8.73157C41.2355 9.35381 43.6899 8.80266 45.4153 7.07727C47.1406 5.3521 47.6917 2.89762 47.0696 0.705961Z" fill="#80E29E"/>
<path d="M22.5053 0.705961C22.5682 0.484258 22.7421 0.310461 22.9638 0.247461C25.1554 -0.374773 27.6098 0.176368 29.3352 1.90165C31.0606 3.62704 31.6117 6.08152 30.9895 8.27307C30.9266 8.49477 30.7527 8.66857 30.531 8.73157C28.3393 9.35381 25.885 8.80266 24.1596 7.07727C22.4342 5.3521 21.883 2.89762 22.5053 0.705961Z" fill="#80E29E"/>
<path d="M34.7882 43.9297C40.3839 43.9297 44.9202 39.3934 44.9202 33.7977C44.9202 28.202 40.3839 23.6658 34.7882 23.6658C29.1925 23.6658 24.6562 28.202 24.6562 33.7977C24.6562 39.3934 29.1925 43.9297 34.7882 43.9297Z" fill="#C7865B"/>
<path d="M34.7884 23.6658C34.068 23.6658 33.3654 23.7416 32.6875 23.8844C37.275 24.8518 40.7187 28.9223 40.7187 33.7977C40.7187 38.673 37.275 42.7436 32.6875 43.711C33.3653 43.854 34.0679 43.9297 34.7884 43.9297C40.3841 43.9297 44.9203 39.3933 44.9203 33.7976C44.9203 28.202 40.3841 23.6658 34.7884 23.6658Z" fill="#B36D3C"/>
<path d="M22.7422 33.5142L25.0037 49.305C25.1291 50.1801 25.8786 50.8299 26.7626 50.8299H42.8136C43.6976 50.8299 44.4472 50.18 44.5725 49.305L46.8341 33.5142H22.7422Z" fill="#909BA6"/>
<path d="M43.8485 33.5142L41.587 49.305C41.4616 50.18 40.7121 50.8299 39.8281 50.8299H42.8127C43.6967 50.8299 44.4464 50.18 44.5716 49.305L46.8332 33.5142H43.8485Z" fill="#5F6C75"/>
<path d="M23.169 36.4941H46.4073L46.8341 33.5142H22.7422L23.169 36.4941Z" fill="#5F6C75"/>
<path d="M29.623 49.1889L27.48 47.2537C26.3065 46.1941 27.0562 44.2456 28.6372 44.2456H33.3642C34.9876 44.2456 36.3037 42.9295 36.3037 41.306C36.3037 39.6826 34.9876 38.3665 33.3642 38.3665H11.293V48.599H13.9169C14.5717 48.599 15.2125 48.7877 15.7629 49.1425L24.2524 54.6158C25.6541 55.5196 27.2865 56.0002 28.9543 56.0002H45.6092C47.059 56.0002 48.2344 54.8249 48.2344 53.375C48.2344 51.9251 47.059 50.7498 45.6092 50.7498H33.6807C32.1815 50.7499 30.7357 50.1936 29.623 49.1889Z" fill="#FFCDBE"/>
<path d="M5.91666 52.5756H10.6931C11.0246 52.5756 11.2933 52.3069 11.2933 51.9754V36.2494C11.2933 35.9179 11.0246 35.6492 10.6931 35.6492H5.91666C5.58514 35.6492 5.31641 35.9179 5.31641 36.2494V51.9754C5.31641 52.3069 5.58514 52.5756 5.91666 52.5756Z" fill="#DC4955"/>
<path d="M10.6932 49.474H5.91666C5.58514 49.474 5.31641 49.2053 5.31641 48.8738V51.9753C5.31641 52.3068 5.58514 52.5756 5.91666 52.5756H10.6931C11.0246 52.5756 11.2933 52.3068 11.2933 51.9753V48.8738C11.2933 49.2053 11.0247 49.474 10.6932 49.474Z" fill="#C42430"/>
<path d="M49.8011 29.5876H19.7769C19.2885 29.5876 18.8926 29.9836 18.8926 30.4719V32.6299C18.8926 33.1183 19.2885 33.5142 19.7769 33.5142H49.8011C50.2894 33.5142 50.6854 33.1183 50.6854 32.6299V30.4719C50.6854 29.9836 50.2894 29.5876 49.8011 29.5876Z" fill="#909BA6"/>
</g>
<defs>
<clipPath id="clip0_1747_24362">
<rect width="56" height="56" fill="white"/>
</clipPath>
</defs>
</svg>
