<svg width="23" height="19" viewBox="0 0 23 19" fill="none" xmlns="http://www.w3.org/2000/svg">
<path d="M4.5 11.125C5.12132 11.125 5.625 11.6286 5.625 12.25C5.625 12.8713 5.12132 13.375 4.5 13.375H2.25V16.375H4.5C5.12132 16.375 5.625 16.8786 5.625 17.5C5.625 18.1213 5.12132 18.625 4.5 18.625H1.875C1.37772 18.625 0.90046 18.4278 0.548828 18.0761C0.241195 17.7685 0.0514439 17.3647 0.00878906 16.9355L0 16.75V13C0 12.5027 0.197197 12.0254 0.548828 11.6738L0.686523 11.5498C1.0202 11.2763 1.43979 11.125 1.875 11.125H4.5Z" fill="#393D40"/>
<path d="M13.875 11.125C13.875 10.926 13.7959 10.7353 13.6553 10.5947C13.5146 10.454 13.3239 10.375 13.125 10.375H8.43457C8.28681 10.3746 8.14055 10.4037 8.00391 10.4599C7.86777 10.516 7.74312 10.5974 7.63867 10.7011L7.63965 10.7021L5.625 12.7167V16.375H11.1104L16.8896 14.9296L20.3994 13.4335C20.4653 13.3978 20.521 13.3461 20.5605 13.2822C20.6025 13.2144 20.6249 13.1363 20.625 13.0566L20.6133 12.958C20.6057 12.926 20.5948 12.8948 20.5801 12.8652C20.5505 12.8056 20.5079 12.7531 20.4551 12.7128C20.4023 12.6726 20.3406 12.6454 20.2754 12.6328C20.2429 12.6264 20.2096 12.6237 20.1768 12.625L20.0781 12.6406C20.0633 12.6446 20.0482 12.6479 20.0332 12.6513L13.752 14.0966C13.6693 14.1156 13.5848 14.125 13.5 14.125H10.5C9.87868 14.125 9.375 13.6213 9.375 13C9.375 12.4175 9.81758 11.9385 10.3848 11.8808L10.5 11.875H13.125C13.3239 11.875 13.5146 11.7959 13.6553 11.6552C13.7959 11.5146 13.875 11.3239 13.875 11.125ZM16.1191 11.2421L19.5293 10.4589C19.9134 10.3608 20.3146 10.3481 20.7041 10.4238C21.109 10.5024 21.4903 10.6738 21.8184 10.9238C22.1464 11.1737 22.4125 11.4958 22.5957 11.8652C22.7789 12.2346 22.8745 12.6413 22.875 13.0537L22.8682 13.2412C22.8382 13.674 22.7037 14.0941 22.4746 14.4648C22.2454 14.8356 21.9297 15.1448 21.5557 15.3652L21.3916 15.4541C21.3717 15.464 21.3516 15.4736 21.3311 15.4824L17.6914 17.0351C17.6368 17.0584 17.58 17.0774 17.5225 17.0917L11.5225 18.5917C11.4334 18.614 11.3418 18.625 11.25 18.625L4.5 18.625C3.87868 18.625 3.375 18.1213 3.375 17.5V12.25C3.375 11.9516 3.49312 11.665 3.7041 11.4541L6.04785 9.1103L6.0498 9.10933L6.16992 8.99507C6.45738 8.73548 6.78759 8.52668 7.14648 8.37886C7.55584 8.2103 7.99482 8.12521 8.4375 8.12593L13.125 8.12495C13.9206 8.12495 14.6835 8.44125 15.2461 9.00386C15.8087 9.56647 16.125 10.3293 16.125 11.125C16.125 11.1641 16.1207 11.2031 16.1191 11.2421Z" fill="#393D40"/>
<path d="M20.625 5.49971C20.6249 4.06596 19.4506 2.87479 18.0508 2.87471H18.0371C17.5311 2.86883 17.0343 3.01387 16.6113 3.2917C16.1885 3.56948 15.8587 3.9677 15.6631 4.43428C15.4879 4.85241 15.0784 5.12471 14.625 5.12471C14.2285 5.12471 13.866 4.91667 13.6641 4.58467L13.5869 4.43428C13.3913 3.9677 13.0615 3.56948 12.6387 3.2917C12.2684 3.04847 11.8414 2.90715 11.4014 2.87959L11.2129 2.87471H11.1992C9.79945 2.87479 8.62514 4.06596 8.625 5.49971C8.625 6.4929 9.10178 7.4807 9.9502 8.55146C10.3359 9.03832 10.2542 9.74564 9.76758 10.1315C9.28063 10.5174 8.5724 10.4358 8.18652 9.94893L7.8291 9.47529C7.01519 8.34299 6.375 7.01958 6.375 5.49971C6.37514 2.87105 8.50694 0.632822 11.1865 0.625683C11.1885 0.62566 11.1904 0.625703 11.1924 0.625683C11.1947 0.625679 11.1969 0.624706 11.1992 0.624706C12.1487 0.616147 13.0792 0.890444 13.873 1.41182C14.1457 1.59088 14.3963 1.79799 14.625 2.02607C14.8537 1.79799 15.1043 1.59088 15.377 1.41182C16.1708 0.890444 17.1013 0.617124 18.0508 0.625683C18.0527 0.625683 18.0547 0.62568 18.0566 0.625683C18.0589 0.625706 18.0612 0.62468 18.0635 0.624706L18.0625 0.625683C20.7425 0.632281 22.8749 2.87073 22.875 5.49971C22.875 7.23352 22.0432 8.76958 21.0459 10.0056C20.0409 11.2511 18.7782 12.3039 17.71 13.0915C17.21 13.4601 16.5055 13.3539 16.1367 12.8542C15.7681 12.3542 15.8742 11.6497 16.374 11.281C17.3719 10.5452 18.4626 9.62398 19.2949 8.59248C20.135 7.55132 20.625 6.50617 20.625 5.49971Z" fill="#393D40"/>
</svg>
