<svg width="12" height="10" viewBox="0 0 12 10" fill="none" xmlns="http://www.w3.org/2000/svg">
<path d="M5.67 9.58605C5.77 9.63605 5.88 9.66605 6 9.66605C6.11 9.66605 6.22 9.63605 6.33 9.58605C6.54 9.48605 11.25 7.08605 11.25 3.66605C11.25 2.86605 10.94 2.11605 10.37 1.54605C9.25 0.426055 7.25 0.426055 6.13 1.54605C6.08 1.59605 6.04 1.63606 6 1.68606C5.96 1.63606 5.91 1.58605 5.87 1.54605C4.75 0.426055 2.75 0.426055 1.63 1.54605C1.06 2.11605 0.75 2.86605 0.75 3.66605C0.75 7.08605 5.47 9.48605 5.67 9.58605Z" fill="#E7522F"/>
</svg>
