<svg width="36" height="36" viewBox="0 0 36 36" fill="none" xmlns="http://www.w3.org/2000/svg">
<path d="M0 18C0 8.05888 8.05888 0 18 0C27.9411 0 36 8.05888 36 18C36 27.9411 27.9411 36 18 36C8.05888 36 0 27.9411 0 18Z" fill="#539461"/>
<path d="M26.9475 9.75667C26.9367 9.57319 26.859 9.40003 26.7291 9.27007C26.5991 9.1401 26.4259 9.06239 26.2425 9.05167C19.1053 8.63261 13.3884 10.7814 10.9509 14.8126C10.106 16.1916 9.68964 17.7904 9.75465 19.4064C9.79708 20.4397 10.0073 21.4593 10.3771 22.4251C10.3989 22.4845 10.4353 22.5375 10.483 22.5791C10.5307 22.6207 10.5882 22.6495 10.6501 22.6629C10.7119 22.6763 10.7762 22.6738 10.8368 22.6556C10.8974 22.6375 10.9525 22.6043 10.9968 22.5592L18.9656 14.4685C19.0353 14.3989 19.118 14.3436 19.209 14.3059C19.3001 14.2682 19.3977 14.2488 19.4962 14.2488C19.5948 14.2488 19.6923 14.2682 19.7834 14.3059C19.8744 14.3436 19.9572 14.3989 20.0268 14.4685C20.0965 14.5382 20.1518 14.621 20.1895 14.712C20.2272 14.803 20.2466 14.9006 20.2466 14.9992C20.2466 15.0977 20.2272 15.1953 20.1895 15.2863C20.1518 15.3774 20.0965 15.4601 20.0268 15.5298L11.3184 24.3695L9.98809 25.6998C9.84973 25.8345 9.76714 26.0163 9.75672 26.2091C9.74629 26.4019 9.80881 26.5916 9.93184 26.7404C9.99921 26.8184 10.0819 26.8817 10.1749 26.9264C10.2678 26.971 10.3689 26.996 10.472 26.9997C10.575 27.0035 10.6777 26.986 10.7736 26.9483C10.8696 26.9107 10.9567 26.8536 11.0296 26.7807L12.6037 25.2067C13.9293 25.8479 15.2671 26.1976 16.5937 26.2445C16.6981 26.2482 16.8021 26.2501 16.9059 26.2501C18.4166 26.254 19.8986 25.8379 21.1865 25.0482C25.2178 22.6107 27.3675 16.8948 26.9475 9.75667Z" fill="white"/>
</svg>
