<svg width="24" height="20" viewBox="0 0 24 20" fill="none" xmlns="http://www.w3.org/2000/svg">
<path fill-rule="evenodd" clip-rule="evenodd" d="M15.3008 11.0405L18.7956 7.54567C19.235 7.10633 19.235 6.39402 18.7956 5.95468C18.3563 5.51534 17.644 5.51534 17.2046 5.95468L13.7098 9.44956C13.2232 7.87162 13.6052 6.45072 14.6232 5.35736C15.878 4.00959 18.2654 2.98661 21.7506 3.00029C21.7659 6.48508 20.7429 8.87229 19.3948 10.127C18.3009 11.1452 16.8791 11.5272 15.3008 11.0405ZM13.6386 12.8045C16.2516 14.0108 18.9292 13.6342 20.9278 11.774C23.0688 9.78127 24.2268 6.27853 23.9635 1.84319C23.9297 1.27412 23.4756 0.820275 22.9065 0.786803C18.4715 0.525952 14.9691 1.6839 12.9764 3.82416C11.0872 5.85329 10.7282 8.58225 12.0031 11.2334C11.6112 11.7368 11.2878 12.2916 11.0426 12.8835C10.9737 13.0499 10.9112 13.2186 10.8552 13.3893L9.66767 12.2017C10.4934 10.2771 10.1956 8.29147 8.80573 6.79862C7.29406 5.17498 4.6823 4.33738 1.45862 4.52648C0.889227 4.55988 0.434929 5.01411 0.401441 5.5835C0.211836 8.80729 1.04944 11.4191 2.67325 12.9308C4.1662 14.3207 6.152 14.6185 8.07668 13.7927L10.5001 16.2162V18.3752C10.5001 18.9965 11.0038 19.5002 11.6251 19.5002C12.2464 19.5002 12.7501 18.9965 12.7501 18.3752V15.6105C12.7501 14.9702 12.8763 14.3362 13.1213 13.7446C13.2589 13.4124 13.4326 13.0972 13.6386 12.8045ZM6.26625 11.9823C5.46941 12.0747 4.76883 11.8076 4.20637 11.284C3.36947 10.5049 2.67978 9.00408 2.62781 6.75302C4.87897 6.80527 6.37983 7.49496 7.15897 8.33181C7.68254 8.89416 7.94963 9.59458 7.85725 10.3913L6.79562 9.32968C6.35628 8.89034 5.64397 8.89034 5.20463 9.32968C4.76529 9.76902 4.76529 10.4813 5.20463 10.9207L6.26625 11.9823Z" fill="#393D40"/>
</svg>
