<svg width="22" height="21" viewBox="0 0 22 21" fill="none" xmlns="http://www.w3.org/2000/svg">
<path d="M19.375 10.2501C19.375 9.55391 19.0987 8.8859 18.6064 8.39363C18.1758 7.96295 17.6106 7.69749 17.0098 7.63777L16.75 7.62507H13C12.9851 7.62507 12.9699 7.62469 12.9551 7.6241H12.9512C12.9495 7.62403 12.9475 7.62322 12.9453 7.62312C12.9406 7.6229 12.934 7.62349 12.9268 7.62312C12.9123 7.62237 12.8931 7.62076 12.8691 7.61921C12.821 7.61611 12.7537 7.61131 12.6689 7.60359C12.4995 7.58816 12.2594 7.56176 11.959 7.51667C11.3581 7.42647 10.5132 7.26101 9.51074 6.96101C7.66453 6.40847 5.27135 5.39291 2.875 3.53328V16.9669C5.27135 15.1069 7.66456 14.0908 9.51074 13.5382C10.5132 13.2381 11.3581 13.0737 11.959 12.9835C12.2594 12.9384 12.4995 12.912 12.6689 12.8966C12.7537 12.8888 12.821 12.884 12.8691 12.8809C12.8931 12.8794 12.9123 12.8778 12.9268 12.877C12.934 12.8767 12.9406 12.8763 12.9453 12.876H12.9541C12.9545 12.876 12.9549 12.8758 12.9912 13.7901L12.9541 12.876C12.969 12.8755 12.9851 12.8751 13 12.8751H16.75C17.4462 12.8751 18.1142 12.5988 18.6064 12.1065C19.0987 11.6143 19.375 10.9462 19.375 10.2501ZM21.625 10.2501C21.625 11.543 21.1115 12.7831 20.1973 13.6973C19.283 14.6115 18.0429 15.1251 16.75 15.1251H13.0293C13.0249 15.1253 13.0196 15.1257 13.0137 15.126C12.9846 15.1279 12.9373 15.1309 12.873 15.1368C12.7442 15.1485 12.5475 15.1699 12.293 15.2081C11.7832 15.2846 11.044 15.4287 10.1562 15.6944C8.37988 16.2261 6.02111 17.2435 3.70605 19.1856C3.43313 19.4149 3.10041 19.5615 2.74707 19.6085C2.3931 19.6554 2.03272 19.6 1.70898 19.4493C1.38527 19.2986 1.11094 19.0589 0.918945 18.7579C0.751033 18.4945 0.652119 18.194 0.629883 17.8839L0.625 17.7501V2.74812L0.629883 2.61531C0.652397 2.30511 0.751692 2.00453 0.919922 1.74128L0.996094 1.63191C1.18172 1.38246 1.42672 1.18247 1.70996 1.05085L1.83301 0.999096C2.08203 0.904286 2.34829 0.863712 2.61426 0.879955L2.74707 0.89265L2.87891 0.915111C3.1829 0.977849 3.46734 1.11495 3.70605 1.3155L4.14062 1.66804C6.31385 3.38171 8.49086 4.30736 10.1562 4.80574C11.044 5.07139 11.7832 5.21456 12.293 5.29109C12.5475 5.32929 12.7442 5.35064 12.873 5.36238C12.9373 5.36823 12.9846 5.37222 13.0137 5.3741C13.0191 5.37445 13.0242 5.37482 13.0283 5.37507H16.75L16.9922 5.38093C18.1969 5.44081 19.3403 5.94581 20.1973 6.80281C21.1115 7.71704 21.625 8.95717 21.625 10.2501Z" fill="#393D40"/>
<path d="M11.5 6.469C11.5 5.84768 12.0037 5.344 12.625 5.344C13.2463 5.344 13.75 5.84768 13.75 6.469V17.5696L14.5361 17.9543L15.6621 13.7112C15.8214 13.1109 16.4377 12.7533 17.0381 12.9124C17.6386 13.0716 17.9971 13.6878 17.8379 14.2883L16.5996 18.9524L16.6006 18.9534C16.5278 19.2449 16.3853 19.5142 16.1865 19.7395C15.9877 19.9648 15.7382 20.1398 15.458 20.2483C15.1777 20.3567 14.8749 20.3964 14.5762 20.3635C14.3222 20.3356 14.0788 20.2528 13.8574 20.1272L12.4648 19.4465C12.4198 19.4245 12.3757 19.4001 12.334 19.3723C12.0776 19.2012 11.8672 18.9693 11.7217 18.6975C11.5762 18.4257 11.5002 18.122 11.5 17.8137V6.469Z" fill="#393D40"/>
</svg>
