<svg width="18" height="20" viewBox="0 0 18 20" fill="none" xmlns="http://www.w3.org/2000/svg">
<path d="M7.69 19.666H1.5C1.1 19.666 0.72 19.506 0.44 19.226C0.16 18.946 0 18.566 0 18.166V2.16602C0 1.76602 0.16 1.38602 0.44 1.10602C0.73 0.826016 1.1 0.666016 1.5 0.666016H16.5C16.89 0.666016 17.28 0.826016 17.56 1.10602C17.84 1.38602 18 1.77602 18 2.16602V8.69602C18 9.10602 17.66 9.44602 17.25 9.44602C16.84 9.44602 16.5 9.10602 16.5 8.69602V2.16602H1.5V18.166H7.69C8.1 18.166 8.44 18.506 8.44 18.916C8.44 19.326 8.1 19.666 7.69 19.666ZM8 12.416H5C4.59 12.416 4.25 12.076 4.25 11.666C4.25 11.256 4.59 10.916 5 10.916H8C8.41 10.916 8.75 11.256 8.75 11.666C8.75 12.076 8.41 12.416 8 12.416ZM11 9.41602H5C4.59 9.41602 4.25 9.07602 4.25 8.66602C4.25 8.25602 4.59 7.91602 5 7.91602H11C11.41 7.91602 11.75 8.25602 11.75 8.66602C11.75 9.07602 11.41 9.41602 11 9.41602ZM13 6.41602H5C4.59 6.41602 4.25 6.07602 4.25 5.66602C4.25 5.25602 4.59 4.91602 5 4.91602H13C13.41 4.91602 13.75 5.25602 13.75 5.66602C13.75 6.07602 13.41 6.41602 13 6.41602Z" fill="#556065"/>
</svg>
