<svg width="40" height="27" viewBox="0 0 40 27" fill="none" xmlns="http://www.w3.org/2000/svg">
<g clip-path="url(#clip0_3942_22131)">
<path d="M40 0H0V26.6661H40V0Z" fill="#F0F0F0"/>
<path d="M40 0V13.333H20L0 0H40Z" fill="#0052B4"/>
<path d="M40 13.333V26.6661H0L20 13.333H40Z" fill="#D80027"/>
<path d="M12.6496 13.333L10.5177 12.3303L11.653 10.2656L9.33805 10.7084L9.04469 8.36987L7.43219 10.0898L5.81977 8.36987L5.52641 10.7084L3.21148 10.2655L4.34672 12.3302L2.21484 13.333L4.34672 14.3357L3.21148 16.4004L5.52656 15.9576L5.81977 18.2961L7.43219 16.5762L9.04469 18.2961L9.33805 15.9576L11.653 16.4005L10.5177 14.3359L12.6496 13.333Z" fill="#FFDA44"/>
<path d="M1.70281 2.52124L2.41227 3.51311L3.57469 3.14483L2.85062 4.12608L3.56008 5.1178L2.40312 4.73249L1.67906 5.71366L1.6882 4.49429L0.53125 4.10882L1.69375 3.74069L1.70281 2.52124Z" fill="#FFDA44"/>
<path d="M1.70281 20.9526L2.41227 21.9445L3.57469 21.5762L2.85062 22.5575L3.56008 23.5493L2.40312 23.1639L1.67906 24.145L1.6882 22.9257L0.53125 22.5402L1.69375 22.1721L1.70281 20.9526Z" fill="#FFDA44"/>
<path d="M16.4383 11.7371L15.7288 12.7289L14.5664 12.3607L15.2905 13.3418L14.581 14.3337L15.738 13.9483L16.462 14.9294L16.4529 13.7101L17.6098 13.3246L16.4473 12.9564L16.4383 11.7371Z" fill="#FFDA44"/>
</g>
<defs>
<clipPath id="clip0_3942_22131">
<rect width="40" height="26.6661" rx="3.33333" fill="white"/>
</clipPath>
</defs>
</svg>
