<svg width="19" height="19" viewBox="0 0 19 19" fill="none" xmlns="http://www.w3.org/2000/svg">
<path fill-rule="evenodd" clip-rule="evenodd" d="M13.8759 0.875916C14.4393 0.312575 15.2033 -0.00390625 16 -0.00390625C16.7967 -0.00390625 17.5608 0.312575 18.1241 0.875916C18.6874 1.43926 19.0039 2.20331 19.0039 3C19.0039 3.79668 18.6874 4.56074 18.1241 5.12408C18.1186 5.1296 18.113 5.13504 18.1073 5.14038L15.3738 7.70821L18.2049 15.4937C18.3044 15.7675 18.2364 16.0743 18.0303 16.2803L15.7803 18.5303C15.6215 18.6892 15.3997 18.7685 15.1761 18.7463C14.9525 18.7242 14.7506 18.603 14.626 18.416L10.6334 12.4272L9.25001 13.8107V15.75C9.25001 15.9489 9.17099 16.1397 9.03034 16.2803L6.78034 18.5303C6.60208 18.7086 6.34617 18.7854 6.09921 18.7347C5.85225 18.684 5.64728 18.5126 5.55365 18.2785L4.17303 14.827L0.72147 13.4464C0.487394 13.3527 0.316019 13.1478 0.265329 12.9008C0.214639 12.6538 0.291416 12.3979 0.469682 12.2197L2.71968 9.96967C2.86033 9.82901 3.0511 9.75 3.25001 9.75H5.18935L6.57278 8.36656L0.583987 4.37403C0.39703 4.2494 0.275803 4.0475 0.253663 3.8239C0.231522 3.6003 0.310799 3.37855 0.469682 3.21967L2.71968 0.969666C2.92573 0.76362 3.23247 0.69557 3.50632 0.795151L11.2918 3.62623L13.8596 0.89274C13.865 0.887048 13.8704 0.881439 13.8759 0.875916ZM14.9441 1.92915L12.0466 5.0135C11.8413 5.23207 11.5255 5.30733 11.2437 5.20484L3.4426 2.36807L2.17724 3.63343L8.16604 7.62596C8.35299 7.7506 8.47422 7.95249 8.49636 8.17609C8.5185 8.39969 8.43923 8.62144 8.28034 8.78033L6.03034 11.0303C5.88969 11.171 5.69892 11.25 5.50001 11.25H3.56067L2.33461 12.4761L5.02856 13.5536C5.21913 13.6299 5.37014 13.7809 5.44637 13.9715L6.52395 16.6654L7.75001 15.4393V13.5C7.75001 13.3011 7.82903 13.1103 7.96968 12.9697L10.2197 10.7197C10.3786 10.5608 10.6003 10.4815 10.8239 10.5036C11.0475 10.5258 11.2494 10.647 11.3741 10.834L15.3666 16.8228L16.6319 15.5574L13.7952 7.7563C13.6927 7.47447 13.7679 7.15868 13.9865 6.95336L17.0708 4.05596C17.3482 3.77465 17.5039 3.39535 17.5039 3C17.5039 2.60114 17.3455 2.21861 17.0634 1.93658C16.7814 1.65454 16.3989 1.49609 16 1.49609C15.6047 1.49609 15.2254 1.65176 14.9441 1.92915Z" fill="#556065"/>
</svg>
