<svg width="36" height="36" viewBox="0 0 36 36" fill="none" xmlns="http://www.w3.org/2000/svg">
<path d="M0 18C0 8.05888 8.05888 0 18 0C27.9411 0 36 8.05888 36 18C36 27.9411 27.9411 36 18 36C8.05888 36 0 27.9411 0 18Z" fill="#6B4EFF"/>
<path d="M24.7499 19.5H17.5593L19.6602 17.399C20.4198 17.7815 21.2567 17.9855 22.1071 17.9953C22.9631 17.9975 23.803 17.7633 24.5343 17.3184C26.758 15.9721 27.9496 12.8559 27.7218 8.98214C27.7111 8.79866 27.6334 8.6255 27.5034 8.49553C27.3734 8.36557 27.2003 8.28785 27.0168 8.27714C23.143 8.04933 20.0268 9.24089 18.6796 11.4646C17.803 12.9131 17.7805 14.6625 18.599 16.3396L17.2499 17.6887L16.1052 16.544C16.6677 15.3018 16.6274 14.0128 15.9749 12.9365C14.9559 11.25 12.6196 10.3509 9.7246 10.5206C9.54144 10.5315 9.36863 10.6092 9.23888 10.7389C9.10914 10.8687 9.03145 11.0415 9.02054 11.2246C8.84991 14.1187 9.74991 16.455 11.4374 17.475C12.002 17.8197 12.6509 18.0014 13.3124 18C13.9125 17.994 14.5044 17.8601 15.0487 17.6071L16.1896 18.75L15.4396 19.5H11.2499C11.051 19.5 10.8602 19.579 10.7196 19.7196C10.5789 19.8603 10.4999 20.051 10.4999 20.25C10.4999 20.4489 10.5789 20.6396 10.7196 20.7803C10.8602 20.9209 11.051 21 11.2499 21H12.149L13.3874 26.5753C13.4597 26.9093 13.6447 27.2084 13.9113 27.4223C14.1779 27.6362 14.51 27.7519 14.8518 27.75H21.149C21.4907 27.7515 21.8226 27.6357 22.0891 27.4219C22.3557 27.2081 22.5408 26.9092 22.6134 26.5753L23.8518 21H24.7499C24.9488 21 25.1396 20.9209 25.2802 20.7803C25.4209 20.6396 25.4999 20.4489 25.4999 20.25C25.4999 20.051 25.4209 19.8603 25.2802 19.7196C25.1396 19.579 24.9488 19.5 24.7499 19.5Z" fill="white"/>
</svg>
