<svg width="22" height="22" viewBox="0 0 22 22" fill="none" xmlns="http://www.w3.org/2000/svg">
<path fill-rule="evenodd" clip-rule="evenodd" d="M9.36893 3.70409C9.07875 3.95411 8.71037 4.23418 8.27186 4.4157L8.27171 4.41577C7.83625 4.59596 7.37859 4.65242 7.00458 4.67667C6.76043 4.6925 6.47852 4.6969 6.23419 4.70072C6.12311 4.70245 6.0198 4.70407 5.93133 4.70658C5.19491 4.72748 4.97788 4.82436 4.90112 4.90112C4.82436 4.97788 4.72748 5.19491 4.70658 5.93133C4.70407 6.0198 4.70245 6.12311 4.70072 6.23419C4.6969 6.47852 4.6925 6.76043 4.67667 7.00458C4.65242 7.37859 4.59596 7.83625 4.41577 8.27171L4.41505 8.27343C4.23338 8.71042 3.95332 9.07794 3.70378 9.36731C3.53271 9.56569 3.3306 9.77668 3.15618 9.95878C3.086 10.032 3.0203 10.1006 2.96291 10.1618C2.73388 10.4061 2.57666 10.5931 2.47561 10.7569C2.37911 10.9133 2.375 10.9837 2.375 11C2.375 11.0163 2.37911 11.0867 2.47561 11.2431C2.57666 11.4069 2.73388 11.5939 2.96291 11.8382C3.0203 11.8994 3.086 11.968 3.15618 12.0412C3.3306 12.2233 3.53271 12.4343 3.70378 12.6327C3.95332 12.9221 4.23338 13.2896 4.41505 13.7266L4.4159 13.7286C4.59596 14.1641 4.65241 14.6217 4.67667 14.9958C4.6925 15.24 4.6969 15.5219 4.70072 15.7662C4.70245 15.8773 4.70407 15.9806 4.70658 16.069C4.72748 16.8052 4.82432 17.0221 4.90112 17.0989C4.97788 17.1756 5.19491 17.2725 5.93133 17.2934C6.01979 17.2959 6.1231 17.2975 6.23416 17.2993C6.4785 17.3031 6.76042 17.3075 7.00458 17.3233C7.37859 17.3476 7.83625 17.404 8.27171 17.5842L8.27343 17.5849C8.71042 17.7666 9.07794 18.0467 9.36731 18.2962C9.56569 18.4673 9.77669 18.6694 9.95879 18.8438C10.032 18.914 10.1006 18.9797 10.1618 19.0371C10.4061 19.2661 10.5931 19.4233 10.7569 19.5244C10.9133 19.6209 10.9837 19.625 11 19.625C11.0163 19.625 11.0867 19.6209 11.2431 19.5244C11.4069 19.4233 11.5939 19.2661 11.8382 19.0371C11.8994 18.9797 11.968 18.914 12.0412 18.8438C12.2233 18.6694 12.4343 18.4673 12.6327 18.2962C12.9221 18.0467 13.2896 17.7666 13.7266 17.5849L13.7286 17.5841C14.1641 17.404 14.6217 17.3476 14.9958 17.3233C15.24 17.3075 15.5219 17.3031 15.7662 17.2993C15.8773 17.2975 15.9806 17.2959 16.069 17.2934C16.8052 17.2725 17.0221 17.1757 17.0989 17.0989C17.1757 17.0221 17.2725 16.8052 17.2934 16.069C17.2959 15.9806 17.2975 15.8773 17.2993 15.7662C17.3031 15.5219 17.3075 15.24 17.3233 14.9958C17.3476 14.6217 17.404 14.1641 17.5841 13.7286L17.5849 13.7266C17.7666 13.2896 18.0467 12.9221 18.2962 12.6327C18.4673 12.4343 18.6694 12.2233 18.8438 12.0412C18.914 11.968 18.9797 11.8994 19.0371 11.8382C19.2661 11.5939 19.4233 11.4069 19.5244 11.2431C19.6209 11.0867 19.625 11.0163 19.625 11C19.625 10.9839 19.621 10.914 19.5248 10.7582C19.4238 10.5948 19.2668 10.4082 19.0375 10.1641C18.9807 10.1036 18.9159 10.0359 18.8467 9.96372C18.6715 9.78103 18.4683 9.56901 18.2959 9.36893C18.0459 9.07875 17.7658 8.71037 17.5843 8.27186L17.5841 8.27138C17.404 7.83587 17.3476 7.37828 17.3233 7.00418C17.3075 6.76 17.3031 6.4781 17.2993 6.23379C17.2975 6.12273 17.2959 6.01943 17.2934 5.93099C17.2725 5.1948 17.1757 4.97792 17.0989 4.90112C17.0221 4.82432 16.8052 4.72748 16.069 4.70658C15.9806 4.70407 15.8773 4.70245 15.7662 4.70072C15.5219 4.6969 15.24 4.6925 14.9958 4.67667C14.6217 4.65241 14.1641 4.59596 13.7286 4.4159L13.7266 4.41505C13.2896 4.23338 12.9221 3.95332 12.6327 3.70378C12.4343 3.53271 12.2233 3.3306 12.0412 3.15618C11.968 3.086 11.8994 3.0203 11.8382 2.96291C11.5939 2.73388 11.4069 2.57666 11.2431 2.47561C11.0867 2.37911 11.0163 2.375 11 2.375C10.9839 2.375 10.914 2.37899 10.7582 2.47525C10.5948 2.57617 10.4082 2.73323 10.1641 2.96246C10.1036 3.01926 10.0359 3.0841 9.96371 3.15333C9.78102 3.32846 9.56901 3.5317 9.36893 3.70409ZM9.57562 0.561061C9.9499 0.32984 10.4302 0.125 11 0.125C11.5696 0.125 12.05 0.329714 12.4245 0.560696C12.7915 0.787132 13.1153 1.07605 13.3772 1.32163C13.4781 1.41626 13.5679 1.5023 13.6517 1.58267C13.811 1.73547 13.949 1.8678 14.1021 1.99984C14.3238 2.19104 14.4783 2.29064 14.5892 2.33699C14.6845 2.37616 14.8512 2.41257 15.1414 2.43138C15.3342 2.44388 15.5119 2.44642 15.7175 2.44936C15.8425 2.45115 15.9777 2.45308 16.1329 2.45748C16.7837 2.47596 17.9042 2.52443 18.6899 3.31013C19.4756 4.09583 19.524 5.21629 19.5425 5.86714C19.5469 6.02231 19.5489 6.15754 19.5506 6.28247C19.5536 6.48806 19.5561 6.66577 19.5686 6.85862C19.5875 7.14949 19.624 7.31636 19.6633 7.41151C19.7096 7.52329 19.8092 7.67832 20.0005 7.90027C20.1329 8.054 20.2661 8.19276 20.42 8.35317C20.4995 8.43601 20.5846 8.52462 20.6779 8.62406C20.9233 8.88544 21.2124 9.20888 21.4389 9.57562C21.6702 9.9499 21.875 10.4302 21.875 11C21.875 11.5696 21.6703 12.05 21.4393 12.4245C21.2129 12.7915 20.924 13.1153 20.6784 13.3772C20.5837 13.4782 20.4977 13.5679 20.4173 13.6517C20.2645 13.811 20.1322 13.949 20.0002 14.1021C19.8089 14.3238 19.7093 14.4784 19.663 14.5893C19.6238 14.6845 19.5874 14.8513 19.5686 15.1414C19.5561 15.3342 19.5536 15.5119 19.5506 15.7175C19.5489 15.8425 19.5469 15.9777 19.5425 16.1329C19.524 16.7837 19.4756 17.9042 18.6899 18.6899C17.9042 19.4756 16.7837 19.524 16.1329 19.5425C15.9777 19.5469 15.8425 19.5489 15.7175 19.5506C15.5119 19.5536 15.3342 19.5561 15.1414 19.5686C14.8513 19.5874 14.6845 19.6238 14.5893 19.663C14.4784 19.7093 14.3238 19.8089 14.1021 20.0002C13.949 20.1322 13.811 20.2645 13.6517 20.4173C13.5679 20.4977 13.4782 20.5837 13.3772 20.6784C13.1153 20.924 12.7915 21.2129 12.4245 21.4393C12.05 21.6703 11.5696 21.875 11 21.875C10.4304 21.875 9.94996 21.6703 9.57555 21.4393C9.20851 21.2129 8.88467 20.924 8.62278 20.6784C8.52185 20.5837 8.43215 20.4977 8.34835 20.4173C8.18902 20.2645 8.05105 20.1322 7.89793 20.0002C7.67596 19.8087 7.52136 19.7091 7.41043 19.6629C7.31557 19.6238 7.14911 19.5874 6.859 19.5686C6.6662 19.5561 6.48848 19.5536 6.28288 19.5506C6.15793 19.5489 6.02269 19.5469 5.8675 19.5425C5.21665 19.524 4.09587 19.4756 3.31013 18.6899C2.52443 17.9042 2.47596 16.7837 2.45748 16.1329C2.45308 15.9777 2.45115 15.8425 2.44936 15.7175C2.44642 15.5119 2.44388 15.3342 2.43138 15.1414C2.41257 14.8512 2.37616 14.6845 2.33699 14.5892C2.29064 14.4783 2.19104 14.3238 1.99984 14.1021C1.8678 13.949 1.73547 13.811 1.58267 13.6517C1.5023 13.5679 1.41626 13.4781 1.32163 13.3772C1.07605 13.1153 0.787132 12.7915 0.560696 12.4245C0.329714 12.05 0.125 11.5696 0.125 11C0.125 10.4304 0.329714 9.94996 0.560696 9.57555C0.787132 9.20851 1.07605 8.88467 1.32163 8.62278C1.41626 8.52186 1.50229 8.43215 1.58266 8.34835C1.73547 8.18903 1.86779 8.05105 1.99984 7.89793C2.19118 7.67604 2.29079 7.52148 2.33709 7.41055C2.37614 7.31571 2.41256 7.14924 2.43138 6.859C2.44388 6.66619 2.44642 6.48847 2.44936 6.28285C2.45115 6.15791 2.45308 6.02267 2.45748 5.8675C2.47596 5.21665 2.52439 4.09587 3.31013 3.31013C4.09587 2.52439 5.21665 2.47596 5.8675 2.45748C6.02267 2.45308 6.15791 2.45115 6.28285 2.44936C6.48847 2.44642 6.66619 2.44388 6.859 2.43138C7.14996 2.41252 7.31654 2.37596 7.41126 2.3368M9.57562 0.561061C9.20888 0.787621 8.88544 1.07669 8.62406 1.32207L9.57562 0.561061ZM8.62406 1.32207C8.52462 1.41542 8.43601 1.50046 8.35317 1.57996L8.62406 1.32207ZM8.35317 1.57996C8.19275 1.73391 8.054 1.86707 7.90027 1.99952L8.35317 1.57996ZM7.90027 1.99952C7.67827 2.1908 7.52321 2.29042 7.41142 2.33673L7.90027 1.99952Z" fill="#393D40"/>
<path d="M8 9.5C8.82843 9.5 9.5 8.82843 9.5 8C9.5 7.17157 8.82843 6.5 8 6.5C7.17157 6.5 6.5 7.17157 6.5 8C6.5 8.82843 7.17157 9.5 8 9.5Z" fill="#393D40"/>
<path d="M14 15.5C14.8284 15.5 15.5 14.8284 15.5 14C15.5 13.1716 14.8284 12.5 14 12.5C13.1716 12.5 12.5 13.1716 12.5 14C12.5 14.8284 13.1716 15.5 14 15.5Z" fill="#393D40"/>
<path fill-rule="evenodd" clip-rule="evenodd" d="M15.5455 6.4545C15.9848 6.89384 15.9848 7.60616 15.5455 8.0455L8.0455 15.5455C7.60616 15.9848 6.89384 15.9848 6.4545 15.5455C6.01516 15.1062 6.01516 14.3938 6.4545 13.9545L13.9545 6.4545C14.3938 6.01516 15.1062 6.01516 15.5455 6.4545Z" fill="#393D40"/>
</svg>
