<svg width="22" height="26" viewBox="0 0 22 26" fill="none" xmlns="http://www.w3.org/2000/svg">
<path fill-rule="evenodd" clip-rule="evenodd" d="M10.2929 0.292893C10.6834 -0.0976311 11.3166 -0.0976311 11.7071 0.292893L16.7071 5.29289C17.0976 5.68342 17.0976 6.31658 16.7071 6.70711C16.3166 7.09763 15.6834 7.09763 15.2929 6.70711L12 3.41421V15C12 15.5523 11.5523 16 11 16C10.4477 16 10 15.5523 10 15V3.41421L6.70711 6.70711C6.31658 7.09763 5.68342 7.09763 5.29289 6.70711C4.90237 6.31658 4.90237 5.68342 5.29289 5.29289L10.2929 0.292893ZM0.585787 10.5858C0.960859 10.2107 1.46957 10 2 10H5C5.55228 10 6 10.4477 6 11C6 11.5523 5.55228 12 5 12H2L2 24H20V12H17C16.4477 12 16 11.5523 16 11C16 10.4477 16.4477 10 17 10H20C20.5304 10 21.0391 10.2107 21.4142 10.5858C21.7893 10.9609 22 11.4696 22 12V24C22 24.5304 21.7893 25.0391 21.4142 25.4142C21.0391 25.7893 20.5304 26 20 26H2C1.46957 26 0.960861 25.7893 0.585787 25.4142C0.210714 25.0391 0 24.5304 0 24V12C0 11.4696 0.210714 10.9609 0.585787 10.5858Z" fill="#7F8D91"/>
</svg>
