<svg width="24" height="24" viewBox="0 0 24 24" fill="none" xmlns="http://www.w3.org/2000/svg">
<path fill-rule="evenodd" clip-rule="evenodd" d="M2.625 3.75C2.625 3.12868 3.12868 2.625 3.75 2.625H12.4402C12.9368 2.62523 13.4131 2.82247 13.7644 3.17344L23.0761 12.4851L23.0764 12.4854C23.4277 12.837 23.6251 13.3137 23.6251 13.8108C23.6251 14.3078 23.4277 14.7846 23.0764 15.1362L15.139 23.0764C14.7874 23.4277 14.3107 23.6251 13.8136 23.6251C13.3165 23.6251 12.8398 23.4277 12.4882 23.0764L12.4881 23.0762L3.17344 13.7644C2.82247 13.4131 2.62523 12.9368 2.625 12.4402L2.625 3.75ZM4.875 4.875V12.284L13.8135 21.2198L21.2198 13.8108L12.284 4.875H4.875Z" fill="#393D40"/>
<path d="M8.25 9.75C9.07843 9.75 9.75 9.07843 9.75 8.25C9.75 7.42157 9.07843 6.75 8.25 6.75C7.42157 6.75 6.75 7.42157 6.75 8.25C6.75 9.07843 7.42157 9.75 8.25 9.75Z" fill="#393D40"/>
</svg>
