<svg width="23" height="16" viewBox="0 0 23 16" fill="none" xmlns="http://www.w3.org/2000/svg">
<path fill-rule="evenodd" clip-rule="evenodd" d="M0.93934 0.68934C1.22064 0.408036 1.60217 0.25 2 0.25H16.25C16.6642 0.25 17 0.585786 17 1V1.75H20.2415C20.2416 1.75 20.2417 1.75 20.2417 1.75C20.2418 1.75 20.2418 1.75 20.2419 1.75C20.5407 1.74993 20.8327 1.83909 21.0805 2.00607C21.3284 2.17311 21.5207 2.4104 21.6328 2.6875L21.6339 2.69021L22.9464 5.97146C22.9818 6.06005 23 6.15459 23 6.25V12.25C23 12.6478 22.842 13.0294 22.5607 13.3107C22.2794 13.592 21.8978 13.75 21.5 13.75H19.9055C19.5725 15.0439 18.3979 16 17 16C15.6021 16 14.4275 15.0439 14.0945 13.75H9.40549C9.07245 15.0439 7.89788 16 6.5 16C5.10212 16 3.92755 15.0439 3.59451 13.75H2C1.60218 13.75 1.22065 13.592 0.93934 13.3107C0.658035 13.0294 0.5 12.6478 0.5 12.25V1.75C0.5 1.35218 0.658035 0.970644 0.93934 0.68934ZM2 9.25V12.25H3.59451C3.92755 10.9561 5.10212 10 6.5 10C7.89788 10 9.07245 10.9561 9.40549 12.25H14.0945C14.2974 11.4619 14.8124 10.7991 15.5 10.4013V9.25H2ZM15.5 7.75H2V1.75L15.5 1.75V7.75ZM17 10C18.3979 10 19.5725 10.9561 19.9055 12.25H21.5V7H17V10ZM17 5.5H21.1422L20.2422 3.25H17V5.5ZM16.4815 11.592C16.494 11.588 16.5062 11.5836 16.5184 11.579C16.6695 11.5278 16.8315 11.5 17 11.5C17.8284 11.5 18.5 12.1716 18.5 13C18.5 13.8284 17.8284 14.5 17 14.5C16.1716 14.5 15.5 13.8284 15.5 13C15.5 12.3538 15.9086 11.8031 16.4815 11.592ZM6.5 11.5C5.67157 11.5 5 12.1716 5 13C5 13.8284 5.67157 14.5 6.5 14.5C7.32843 14.5 8 13.8284 8 13C8 12.1716 7.32843 11.5 6.5 11.5Z" fill="#556065"/>
</svg>
