<svg width="36" height="36" viewBox="0 0 36 36" fill="none" xmlns="http://www.w3.org/2000/svg">
<path d="M0 18C0 8.05888 8.05888 0 18 0C27.9411 0 36 8.05888 36 18C36 27.9411 27.9411 36 18 36C8.05888 36 0 27.9411 0 18Z" fill="#48A7F8"/>
<path d="M29.9466 16.9688L28.6341 13.6875C28.5227 13.4097 28.3304 13.1718 28.0821 13.0047C27.8339 12.8375 27.5412 12.7488 27.2419 12.75H24V12C24 11.8011 23.921 11.6103 23.7803 11.4697C23.6397 11.329 23.4489 11.25 23.25 11.25H9C8.60218 11.25 8.22064 11.408 7.93934 11.6893C7.65804 11.9706 7.5 12.3522 7.5 12.75V23.25C7.5 23.6478 7.65804 24.0294 7.93934 24.3107C8.22064 24.592 8.60218 24.75 9 24.75H10.5938C10.759 25.3953 11.1343 25.9673 11.6605 26.3757C12.1867 26.7842 12.8339 27.0059 13.5 27.0059C14.1661 27.0059 14.8133 26.7842 15.3395 26.3757C15.8657 25.9673 16.241 25.3953 16.4062 24.75H21.0938C21.259 25.3953 21.6343 25.9673 22.1605 26.3757C22.6867 26.7842 23.3339 27.0059 24 27.0059C24.6661 27.0059 25.3133 26.7842 25.8395 26.3757C26.3657 25.9673 26.741 25.3953 26.9062 24.75H28.5C28.8978 24.75 29.2794 24.592 29.5607 24.3107C29.842 24.0294 30 23.6478 30 23.25V17.25C30.0001 17.1537 29.982 17.0583 29.9466 16.9688ZM13.5 25.5C13.2033 25.5 12.9133 25.412 12.6666 25.2472C12.42 25.0824 12.2277 24.8481 12.1142 24.574C12.0006 24.2999 11.9709 23.9983 12.0288 23.7074C12.0867 23.4164 12.2296 23.1491 12.4393 22.9393C12.6491 22.7296 12.9164 22.5867 13.2074 22.5288C13.4983 22.4709 13.7999 22.5006 14.074 22.6142C14.3481 22.7277 14.5824 22.92 14.7472 23.1666C14.912 23.4133 15 23.7033 15 24C15 24.3978 14.842 24.7794 14.5607 25.0607C14.2794 25.342 13.8978 25.5 13.5 25.5ZM9 18.75V12.75H22.5V18.75H9ZM24 25.5C23.7033 25.5 23.4133 25.412 23.1666 25.2472C22.92 25.0824 22.7277 24.8481 22.6142 24.574C22.5006 24.2999 22.4709 23.9983 22.5288 23.7074C22.5867 23.4164 22.7296 23.1491 22.9393 22.9393C23.1491 22.7296 23.4164 22.5867 23.7074 22.5288C23.9983 22.4709 24.2999 22.5006 24.574 22.6142C24.8481 22.7277 25.0824 22.92 25.2472 23.1666C25.412 23.4133 25.5 23.7033 25.5 24C25.5 24.3978 25.342 24.7794 25.0607 25.0607C24.7794 25.342 24.3978 25.5 24 25.5ZM24 16.5V14.25H27.2419L28.1419 16.5H24Z" fill="white"/>
</svg>
