<svg width="23" height="22" viewBox="0 0 23 22" fill="none" xmlns="http://www.w3.org/2000/svg">
<path d="M15.3749 10.25C15.3749 9.62868 15.8786 9.125 16.4999 9.125C17.1213 9.125 17.6249 9.62868 17.6249 10.25C17.6249 11.7418 17.0324 13.1726 15.9775 14.2275C14.9226 15.2824 13.4918 15.875 11.9999 15.875C11.3786 15.875 10.8749 15.3713 10.8749 14.75C10.8749 14.1287 11.3786 13.625 11.9999 13.625C12.895 13.625 13.7537 13.2697 14.3867 12.6367C15.0196 12.0038 15.3749 11.1451 15.3749 10.25Z" fill="#393D40"/>
<path d="M11.9999 10.25C12.8284 10.25 13.4999 9.57843 13.4999 8.75C13.4999 7.92157 12.8284 7.25 11.9999 7.25C11.1715 7.25 10.4999 7.92157 10.4999 8.75C10.4999 9.57843 11.1715 10.25 11.9999 10.25Z" fill="#393D40"/>
<path d="M11.9999 0.875L12.5029 0.887695C13.6729 0.945884 14.8251 1.20697 15.9081 1.66016C17.1461 2.17818 18.2689 2.93685 19.2109 3.89258C20.1529 4.84834 20.8954 5.98222 21.3955 7.22754C21.8329 8.31699 22.0778 9.47283 22.1191 10.6436L22.124 11.1465C22.0478 16.5783 17.6373 21.0193 12.204 21.125C10.8243 21.1511 9.50112 20.9096 8.28901 20.4424C8.24508 20.4281 8.20161 20.4116 8.15912 20.3916C7.23215 20.0194 6.37156 19.5144 5.60346 18.8896L5.24994 18.5879L5.16791 18.5068C4.78379 18.0856 4.77364 17.434 5.16205 17C5.55054 16.566 6.19996 16.5034 6.66108 16.8389L6.74994 16.9121L7.0224 17.1436C7.40809 17.4573 7.82535 17.7325 8.2685 17.9668L10.288 15.1865C8.4761 14.5667 6.55317 14.8387 5.18744 15.0732C4.56504 15.1796 3.92419 15.1092 3.33979 14.8701C2.82849 14.6609 2.3775 14.3298 2.02533 13.9072L1.87983 13.7207L1.83979 13.6602L0.546818 11.5977C0.221294 11.0783 0.371717 10.394 0.884708 10.0586L10.1249 4.0166V2L10.1308 1.88477C10.1885 1.31758 10.6675 0.875 11.2499 0.875H11.9999ZM12.3749 4.625C12.3749 5.00471 12.183 5.35861 11.8652 5.56641L3.03901 11.3369L3.71674 12.4189C3.83877 12.5825 4.00231 12.7107 4.19135 12.7881C4.38594 12.8677 4.59932 12.8908 4.80658 12.8555L5.48725 12.7441C7.23605 12.48 10.0489 12.2635 12.579 13.7812C12.8496 13.9436 13.0395 14.2124 13.1025 14.5215C13.1655 14.8306 13.0955 15.152 12.9101 15.4072L10.4902 18.7363C11.0282 18.8364 11.5864 18.8858 12.1601 18.875L12.5527 18.8574C16.5901 18.5763 19.8168 15.2029 19.874 11.1143L19.8701 10.7227C19.838 9.81207 19.6478 8.9128 19.3076 8.06543C18.9186 7.09692 18.341 6.215 17.6083 5.47168C16.8757 4.72846 16.0027 4.13822 15.04 3.73535C14.1926 3.38076 13.2906 3.17744 12.3749 3.13379V4.625Z" fill="#393D40"/>
</svg>
