<svg width="24" height="16" viewBox="0 0 24 16" fill="none" xmlns="http://www.w3.org/2000/svg">
  <!-- Red stripes -->
  <rect width="24" height="16" fill="#B22234"/>
  
  <!-- White stripes -->
  <rect y="1.23" width="24" height="1.23" fill="white"/>
  <rect y="3.69" width="24" height="1.23" fill="white"/>
  <rect y="6.15" width="24" height="1.23" fill="white"/>
  <rect y="8.62" width="24" height="1.23" fill="white"/>
  <rect y="11.08" width="24" height="1.23" fill="white"/>
  <rect y="13.54" width="24" height="1.23" fill="white"/>
  
  <!-- Blue canton -->
  <rect width="9.6" height="8.62" fill="#3C3B6E"/>
  
  <!-- Stars (simplified pattern) -->
  <g fill="white">
    <!-- Row 1 (6 stars) -->
    <circle cx="1.2" cy="1" r="0.3"/>
    <circle cx="2.4" cy="1" r="0.3"/>
    <circle cx="3.6" cy="1" r="0.3"/>
    <circle cx="4.8" cy="1" r="0.3"/>
    <circle cx="6" cy="1" r="0.3"/>
    <circle cx="7.2" cy="1" r="0.3"/>
    
    <!-- Row 2 (5 stars) -->
    <circle cx="1.8" cy="2" r="0.3"/>
    <circle cx="3" cy="2" r="0.3"/>
    <circle cx="4.2" cy="2" r="0.3"/>
    <circle cx="5.4" cy="2" r="0.3"/>
    <circle cx="6.6" cy="2" r="0.3"/>
    
    <!-- Row 3 (6 stars) -->
    <circle cx="1.2" cy="3" r="0.3"/>
    <circle cx="2.4" cy="3" r="0.3"/>
    <circle cx="3.6" cy="3" r="0.3"/>
    <circle cx="4.8" cy="3" r="0.3"/>
    <circle cx="6" cy="3" r="0.3"/>
    <circle cx="7.2" cy="3" r="0.3"/>
    
    <!-- Row 4 (5 stars) -->
    <circle cx="1.8" cy="4" r="0.3"/>
    <circle cx="3" cy="4" r="0.3"/>
    <circle cx="4.2" cy="4" r="0.3"/>
    <circle cx="5.4" cy="4" r="0.3"/>
    <circle cx="6.6" cy="4" r="0.3"/>
    
    <!-- Row 5 (6 stars) -->
    <circle cx="1.2" cy="5" r="0.3"/>
    <circle cx="2.4" cy="5" r="0.3"/>
    <circle cx="3.6" cy="5" r="0.3"/>
    <circle cx="4.8" cy="5" r="0.3"/>
    <circle cx="6" cy="5" r="0.3"/>
    <circle cx="7.2" cy="5" r="0.3"/>
    
    <!-- Row 6 (5 stars) -->
    <circle cx="1.8" cy="6" r="0.3"/>
    <circle cx="3" cy="6" r="0.3"/>
    <circle cx="4.2" cy="6" r="0.3"/>
    <circle cx="5.4" cy="6" r="0.3"/>
    <circle cx="6.6" cy="6" r="0.3"/>
    
    <!-- Row 7 (6 stars) -->
    <circle cx="1.2" cy="7" r="0.3"/>
    <circle cx="2.4" cy="7" r="0.3"/>
    <circle cx="3.6" cy="7" r="0.3"/>
    <circle cx="4.8" cy="7" r="0.3"/>
    <circle cx="6" cy="7" r="0.3"/>
    <circle cx="7.2" cy="7" r="0.3"/>
    
    <!-- Row 8 (5 stars) -->
    <circle cx="1.8" cy="8" r="0.3"/>
    <circle cx="3" cy="8" r="0.3"/>
    <circle cx="4.2" cy="8" r="0.3"/>
    <circle cx="5.4" cy="8" r="0.3"/>
    <circle cx="6.6" cy="8" r="0.3"/>
    
    <!-- Row 9 (6 stars) -->
    <circle cx="1.2" cy="8.6" r="0.2"/>
    <circle cx="2.4" cy="8.6" r="0.2"/>
    <circle cx="3.6" cy="8.6" r="0.2"/>
    <circle cx="4.8" cy="8.6" r="0.2"/>
    <circle cx="6" cy="8.6" r="0.2"/>
    <circle cx="7.2" cy="8.6" r="0.2"/>
  </g>
</svg>