<svg width="71" height="13" viewBox="0 0 71 13" fill="currentColor" xmlns="http://www.w3.org/2000/svg">
<path d="M11.6336 0C12.1115 0.762377 12.3269 1.54763 12.3269 2.53957C12.3269 5.70332 9.531 9.81328 7.26178 12.6992H2.0787L0 0.692693L4.53834 0.276487L5.63737 8.81991C6.6643 7.20388 7.93153 4.66435 7.93153 2.9329C7.93153 1.98517 7.76347 1.33964 7.50076 0.808124L11.6336 0Z" />
<path d="M17.5164 5.28776C18.3515 5.28776 20.454 4.91872 20.454 3.76441C20.454 3.21015 20.0483 2.93366 19.5702 2.93366C18.7337 2.93366 17.636 3.9026 17.5164 5.28776ZM17.4207 7.57385C17.4207 8.9833 18.232 9.53626 19.3076 9.53626C20.4789 9.53626 21.6004 9.25976 23.0581 8.5442L22.509 12.1455C21.482 12.6302 19.8814 12.9536 18.3278 12.9536C14.387 12.9536 12.9766 10.645 12.9766 7.75894C12.9766 4.01829 15.2708 0.0463867 20.0008 0.0463867C22.605 0.0463867 24.0612 1.45572 24.0612 3.41812C24.0614 6.58178 19.8579 7.55096 17.4207 7.57385Z" />
<path d="M37.1586 2.77161C37.1586 3.23332 37.0863 3.90301 37.0139 4.34068L35.6523 12.6533H31.2331L32.4753 5.03326C32.4989 4.82659 32.5713 4.41051 32.5713 4.17964C32.5713 3.62534 32.2128 3.48706 31.7818 3.48706C31.2093 3.48706 30.6355 3.74077 30.2534 3.92603L28.8444 12.6534H24.4004L26.4306 0.207986H30.2769L30.3256 1.20134C31.233 0.624195 32.4279 3.80855e-08 34.1231 3.80855e-08C36.3693 -0.000237259 37.1586 1.10843 37.1586 2.77161Z" />
<path d="M50.2772 1.40879C51.5429 0.532281 52.738 0.0463867 54.3856 0.0463867C56.6547 0.0463867 57.444 1.15506 57.444 2.81824C57.444 3.27997 57.3717 3.94967 57.2997 4.38734L55.9394 12.6999H51.519L52.7851 4.91885C52.8083 4.71084 52.8574 4.45713 52.8574 4.29619C52.8574 3.67209 52.4988 3.53368 52.0678 3.53368C51.519 3.53368 50.9703 3.76454 50.5628 3.97265L49.1541 12.7H44.7351L46.0008 4.91895C46.024 4.71097 46.0718 4.45726 46.0718 4.29632C46.0718 3.67222 45.7128 3.53381 45.2835 3.53381C44.7098 3.53381 44.1372 3.78753 43.755 3.97278L42.3449 12.7002H37.9023L39.9325 0.254727H43.7318L43.8512 1.29371C44.7351 0.671057 45.9288 0.0468603 47.5293 0.0468603C48.9152 0.0463864 49.8223 0.623653 50.2772 1.40879Z" />
<path d="M66.2377 5.03376C66.2377 4.01777 65.9746 3.32509 65.1869 3.32509C63.4431 3.32509 63.0848 6.30337 63.0848 7.82695C63.0848 8.98278 63.4195 9.69812 64.2072 9.69812C65.8555 9.69812 66.2377 6.55721 66.2377 5.03376ZM58.5938 7.64303C58.5938 3.71829 60.7434 0.0458984 65.6889 0.0458984C69.4155 0.0458984 70.7778 2.17067 70.7778 5.10346C70.7778 8.98265 68.6514 12.9999 63.5864 12.9999C59.8359 12.9999 58.5938 10.6214 58.5938 7.64303Z" />
</svg>
