<svg width="57" height="56" viewBox="0 0 57 56" fill="none" xmlns="http://www.w3.org/2000/svg">
<path d="M38.1645 7.41742C38.1645 7.02521 37.8453 6.70648 37.4536 6.70648C37.0613 6.70648 36.7426 7.02521 36.7426 7.41742V16.1811C35.1545 14.138 34.2548 11.3541 34.2548 8.4223C34.2548 5.21625 35.3301 2.18707 37.2053 0.110229C37.2686 0.0401612 37.3587 0 37.4536 0C37.548 0 37.6381 0.0401612 37.7014 0.110229C39.5765 2.18707 40.6523 5.21667 40.6523 8.4223C40.6523 11.3541 39.7521 14.138 38.1645 16.1807V7.41742Z" fill="#99CE19"/>
<path d="M38.2739 12.6841C38.7079 11.3524 38.9412 9.90698 38.9412 8.4223C38.9412 5.58154 38.0953 2.88049 36.5978 0.856628C36.79 0.596863 36.9917 0.346497 37.2053 0.110229C37.2686 0.0401612 37.3587 0 37.4536 0C37.548 0 37.6381 0.0401612 37.7014 0.110229C39.5765 2.18707 40.6523 5.21667 40.6523 8.4223C40.6523 11.2861 39.7936 14.0081 38.2739 16.0371V12.6841Z" fill="#81AA00"/>
<path d="M38.1641 38.3123V7.41724C38.1641 7.02502 37.8449 6.7063 37.4531 6.7063C37.0609 6.7063 36.7422 7.02502 36.7422 7.41724V38.3123H38.1641Z" fill="#7F441C"/>
<path d="M27.5254 12.7448C27.5374 12.6499 27.5891 12.5649 27.6677 12.5106C27.7241 12.4722 27.7903 12.4517 27.8574 12.4517C27.8843 12.4517 27.9112 12.4551 27.9377 12.4615C30.1543 13.0101 32.2743 14.558 33.7551 16.7083C35.0774 18.6292 35.7657 20.8543 35.6986 22.9213L32.7541 18.6446C32.6216 18.4519 32.402 18.3365 32.1679 18.3365C32.0239 18.3365 31.8846 18.3801 31.7654 18.4622C31.4424 18.6843 31.3608 19.1278 31.583 19.4508L34.5267 23.7271C32.5708 23.0504 30.7375 21.6127 29.4151 19.6918C27.9343 17.5414 27.2456 15.0092 27.5254 12.7448Z" fill="#99CE19"/>
<path d="M27.5243 12.7448C27.5363 12.6499 27.588 12.5649 27.6666 12.5106C27.723 12.4722 27.7892 12.4517 27.8563 12.4517C27.8832 12.4517 27.9101 12.4551 27.9366 12.4615C30.1531 13.0101 32.2731 14.558 33.754 16.7083C35.037 18.572 35.724 20.7219 35.7026 22.7359L32.8431 18.5822C32.7974 18.5156 32.7431 18.4587 32.6833 18.41C32.6034 18.2836 32.5214 18.158 32.4359 18.0341C31.1456 16.1602 29.37 14.7447 27.4683 14.0483C27.4534 13.6074 27.4717 13.1711 27.5243 12.7448Z" fill="#81AA00"/>
<path d="M43.3656 19.4508C43.5882 19.1278 43.5062 18.6843 43.1832 18.4622C43.064 18.3801 42.9251 18.3365 42.7812 18.3365C42.5466 18.3365 42.3274 18.4519 42.1946 18.6446L39.25 22.9218C39.1829 20.8547 39.8712 18.6296 41.1939 16.7083C42.6743 14.558 44.7948 13.0101 47.0109 12.4615C47.0378 12.4551 47.0647 12.4517 47.0916 12.4517C47.1587 12.4517 47.2245 12.4722 47.2809 12.5106C47.3595 12.5649 47.4117 12.6499 47.4232 12.7448C47.703 15.0092 47.0143 17.5414 45.5339 19.6918C44.2116 21.6127 42.3778 23.0504 40.4219 23.7271L43.3656 19.4508Z" fill="#99CE19"/>
<path d="M43.4558 19.5128C43.5835 19.3278 43.6241 19.1082 43.5874 18.9031C43.7566 18.6912 43.9189 18.4724 44.0744 18.2464C45.2387 16.5554 45.9103 14.6293 46.0094 12.7823C46.3401 12.6542 46.6742 12.5448 47.0109 12.4615C47.0378 12.4551 47.0647 12.4517 47.0916 12.4517C47.1587 12.4517 47.2245 12.4722 47.2809 12.5106C47.3595 12.5649 47.4117 12.6499 47.4232 12.7448C47.703 15.0092 47.0143 17.5414 45.5339 19.6918C44.2509 21.5554 42.4872 22.9649 40.5971 23.6652L43.4558 19.5128Z" fill="#81AA00"/>
<path d="M26.1703 22.2297C26.1822 22.1362 26.2339 22.0516 26.3121 21.9977C26.3681 21.9593 26.4343 21.9392 26.5014 21.9392C26.5274 21.9392 26.5539 21.9422 26.5796 21.9482C29.1721 22.5715 31.6523 24.3711 33.3835 26.8859C34.9592 29.1746 35.7594 31.8295 35.6312 34.2802L32.1304 29.1947C31.9975 29.002 31.7783 28.8867 31.5437 28.8867C31.3998 28.8867 31.2605 28.9302 31.1413 29.0123C30.8187 29.2344 30.7367 29.6779 30.9588 30.0009L34.4593 35.0851C32.1235 34.3289 29.9279 32.6328 28.3522 30.3444C26.621 27.8297 25.8255 24.8718 26.1703 22.2297Z" fill="#99CE19"/>
<path d="M26.1689 22.2297C26.1808 22.1362 26.2325 22.0516 26.3107 21.9977C26.3667 21.9593 26.4329 21.9392 26.5 21.9392C26.526 21.9392 26.5525 21.9422 26.5782 21.9482C29.1707 22.5715 31.6509 24.3711 33.3821 26.8859C34.9189 29.1178 35.7174 31.6984 35.6371 34.0978L33.4124 30.8665C33.0509 29.9582 32.5801 29.0708 32.0029 28.233C30.4712 26.0079 28.3538 24.3438 26.0911 23.5576C26.0868 23.109 26.112 22.6651 26.1689 22.2297Z" fill="#81AA00"/>
<path d="M43.9895 30.0009C44.0976 29.8445 44.1378 29.6557 44.1032 29.469C44.069 29.2823 43.9639 29.1199 43.8075 29.0123C43.6883 28.9302 43.549 28.8871 43.405 28.8871C43.1705 28.8871 42.9513 29.002 42.8184 29.1947L39.3176 34.2802C39.1894 31.83 39.9896 29.1746 41.5653 26.8863C43.2965 24.3711 45.7767 22.5715 48.3688 21.9486C48.3948 21.9422 48.4209 21.9392 48.447 21.9392C48.514 21.9392 48.5803 21.9593 48.6367 21.9982C48.7149 22.0516 48.7661 22.1362 48.7785 22.2302C49.1233 24.8723 48.3278 27.8297 46.5961 30.3448C45.0209 32.6332 42.8253 34.3293 40.4891 35.0856L43.9895 30.0009Z" fill="#99CE19"/>
<path d="M44.0797 30.0629C44.1202 30.0043 44.151 29.942 44.1741 29.8783C44.4039 29.5959 44.6253 29.3041 44.8346 29.0003C46.2509 26.9427 47.0405 24.5886 47.0922 22.3536C47.513 22.1879 47.9394 22.0516 48.3688 21.9482C48.3948 21.9422 48.4209 21.9392 48.447 21.9392C48.514 21.9392 48.5803 21.9593 48.6367 21.9977C48.7149 22.0516 48.7661 22.1362 48.7785 22.2297C49.1233 24.8718 48.3278 27.8297 46.5961 30.3444C45.0598 32.5764 42.9334 34.2443 40.6621 35.027L44.0797 30.0629Z" fill="#81AA00"/>
<path d="M31.7024 18.3722C32.0754 18.115 32.5864 18.2094 32.8431 18.5828L36.7422 24.2459V27.0953C36.6922 27.0512 36.6469 27.0008 36.6076 26.944L31.4918 19.5129C31.235 19.1399 31.3294 18.6289 31.7024 18.3722Z" fill="#9B5729"/>
<path d="M38.1638 24.3081L42.1056 18.583C42.3624 18.21 42.8729 18.1156 43.2464 18.3724C43.6193 18.6291 43.7138 19.1401 43.457 19.5131L38.3411 26.9442C38.2912 27.0168 38.2305 27.0775 38.1638 27.1288V24.3081Z" fill="#9B5729"/>
<path d="M31.0786 28.9224C31.452 28.6656 31.9626 28.76 32.2194 29.133L36.7422 35.7019V38.4218H36.6226L30.868 30.0631C30.6112 29.6902 30.7056 29.1792 31.0786 28.9224Z" fill="#9B5729"/>
<path d="M38.1632 35.7644L42.7283 29.1332C42.9855 28.7597 43.4961 28.6657 43.8695 28.9225C44.2425 29.1797 44.3369 29.6903 44.0797 30.0633L38.3251 38.4219H38.1632V35.7644Z" fill="#9B5729"/>
<path d="M31.094 51.0321L29.949 41.9446H45L43.8546 51.0321H31.094Z" fill="#EAC092"/>
<path d="M40.96 51.0321L42.1054 41.9446H45L43.8546 51.0321H40.96Z" fill="#E0AA68"/>
<path d="M44.7454 54.4686H30.2075C29.2996 53.8012 28.7087 52.7267 28.7087 51.5167V51.2198C28.7087 51.0557 28.842 50.9229 29.006 50.9229H45.9468C46.1113 50.9229 46.2441 51.0562 46.2441 51.2198V51.5167C46.2441 52.7267 45.6537 53.8012 44.7454 54.4686Z" fill="#B57A4E"/>
<path d="M44.7454 54.4686H39.6009C40.5088 53.8012 41.0992 52.7267 41.0992 51.5167V51.2198C41.0992 51.0557 40.9664 50.9229 40.8023 50.9229H45.9468C46.1113 50.9229 46.2441 51.0562 46.2441 51.2198V51.5167C46.2441 52.7267 45.6537 53.8012 44.7454 54.4686Z" fill="#9B5729"/>
<path d="M20.4355 38.4216H17.5862C18.2536 35.6065 18.6116 32.2603 18.6116 28.7043C18.6116 28.6339 18.6108 28.5638 18.6108 28.4937C19.549 25.6893 20.6846 23.2258 21.9335 21.3203C21.9963 21.2245 22.1018 21.1694 22.2124 21.1694C22.2368 21.1694 22.2616 21.172 22.2864 21.1776C22.4222 21.2083 22.5243 21.3203 22.5427 21.4583C23.0075 24.9138 22.6696 29.4345 21.5904 34.1872C21.2567 35.6569 20.8688 37.0758 20.4355 38.4216Z" fill="#009E2F"/>
<path d="M20.4355 38.4219H18.7295C19.1628 37.0761 19.5507 35.6572 19.8844 34.1875C20.8171 30.08 21.1952 26.1472 20.9807 22.9236C21.2896 22.3541 21.6075 21.8179 21.9335 21.3206C21.9958 21.2253 22.1014 21.1702 22.2124 21.1702C22.2368 21.1702 22.2616 21.1727 22.2864 21.1783C22.4218 21.209 22.5243 21.321 22.5427 21.4586C23.0075 24.9146 22.6696 29.4348 21.5904 34.1875C21.2567 35.6572 20.8688 37.0761 20.4355 38.4219Z" fill="#00752C"/>
<path d="M15.4551 38.4218H12.3845C11.9717 37.064 11.606 35.6328 11.2958 34.1511C10.2969 29.3813 10.035 24.8555 10.5576 21.408C10.5785 21.2704 10.6827 21.1606 10.819 21.132C10.8417 21.1273 10.8647 21.1248 10.8874 21.1248C11.0002 21.1248 11.107 21.182 11.1689 21.2803C12.4127 23.249 13.5278 25.7993 14.4293 28.6964V28.7045C14.4297 32.2605 14.7877 35.6067 15.4551 38.4218Z" fill="#009E2F"/>
<path d="M15.4551 38.4218H14.6856C14.5203 36.7598 14.2515 35.0222 13.8807 33.25C13.0548 29.3057 11.8342 25.7177 10.3841 22.9265C10.4268 22.4005 10.4841 21.8934 10.5576 21.408C10.5785 21.2704 10.6827 21.1606 10.819 21.132C10.8417 21.1273 10.8647 21.1248 10.8874 21.1248C11.0002 21.1248 11.107 21.182 11.1689 21.2803C12.4127 23.249 13.5278 25.7993 14.4293 28.6964V28.7045C14.4297 32.2605 14.7877 35.6067 15.4551 38.4218Z" fill="#00752C"/>
<path d="M15.3419 38.4217C14.6766 35.6031 14.3195 32.2578 14.3195 28.7044C14.3195 23.8308 14.9902 19.3473 16.2087 16.0801C16.2574 15.9498 16.3822 15.8635 16.5211 15.8635C16.6603 15.8635 16.7851 15.9498 16.8334 16.0801C18.0519 19.3473 18.7227 23.8308 18.7227 28.7044C18.7227 32.2578 18.3655 35.6031 17.7003 38.4217H15.3419Z" fill="#009E2F"/>
<path d="M15.9686 38.4217C16.6343 35.6031 16.9919 32.2578 16.9915 28.7044C16.9919 24.6281 16.5219 20.8256 15.6555 17.7784C15.8251 17.1824 16.0092 16.6146 16.2087 16.0801C16.2574 15.9498 16.3818 15.8635 16.5211 15.8635C16.6603 15.8635 16.7847 15.9498 16.8334 16.0801C18.0519 19.3473 18.7227 23.8308 18.7227 28.7044C18.7227 32.2578 18.3655 35.6031 17.6998 38.4217H15.9686Z" fill="#00752C"/>
<path d="M24.1193 41.8647C24.124 41.9083 24.1248 41.9532 24.1188 41.9998L22.5474 54.4689H10.4961L8.9251 41.9998C8.91912 41.9532 8.91955 41.9083 8.92425 41.8647H24.1193Z" fill="#EAC092"/>
<path d="M20.4889 41.8647H24.1193C24.124 41.9083 24.1248 41.9532 24.1188 41.9998L22.5474 54.4689H18.9171L20.4885 41.9998C20.4945 41.9532 20.4941 41.9083 20.4889 41.8647Z" fill="#E0AA68"/>
<path d="M7.77148 41.3878C7.77148 41.7103 8.0351 41.9739 8.35767 41.9739H24.6853C25.0074 41.9739 25.2715 41.7103 25.2715 41.3878V38.8982C25.2715 38.576 25.0074 38.312 24.6853 38.312H8.35767C8.0351 38.312 7.77148 38.576 7.77148 38.8982V41.3878Z" fill="#B57A4E"/>
<path d="M21.7083 41.3878V38.8982C21.7083 38.576 21.4446 38.312 21.1221 38.312H24.6853C25.0074 38.312 25.2715 38.576 25.2715 38.8982V41.3878C25.2715 41.7103 25.0074 41.9739 24.6853 41.9739H21.1221C21.4446 41.9739 21.7083 41.7103 21.7083 41.3878Z" fill="#9B5729"/>
<path d="M7.99164 56H49.0957C49.5486 56 49.916 55.6326 49.916 55.1797C49.916 54.7268 49.5486 54.3594 49.0957 54.3594H7.99164C7.53833 54.3594 7.17133 54.7268 7.17133 55.1797C7.17133 55.6326 7.53833 56 7.99164 56Z" fill="#7F441C"/>
<path d="M36.6328 38.4216V7.41724C36.6328 6.96393 36.9998 6.59692 37.4531 6.59692C37.906 6.59692 38.2734 6.96393 38.2734 7.41724V38.4216H36.6328Z" fill="#7F441C"/>
<path d="M28.5323 41.4991C28.5323 41.8041 28.7823 42.0541 29.0878 42.0541H45.8606C46.1661 42.0541 46.416 41.8041 46.416 41.4991V38.8672C46.416 38.5618 46.1661 38.3123 45.8606 38.3123H29.0878C28.7823 38.3123 28.5323 38.5618 28.5323 38.8672V41.4991Z" fill="#B57A4E"/>
<path d="M42.9835 41.4991V38.8672C42.9835 38.5618 42.7336 38.3123 42.4277 38.3123H45.8606C46.1661 38.3123 46.416 38.5618 46.416 38.8672V41.4991C46.416 41.8041 46.1661 42.0541 45.8606 42.0541H42.4281C42.7336 42.0541 42.9835 41.8041 42.9835 41.4991Z" fill="#9B5729"/>
</svg>
