<svg width="21" height="21" viewBox="0 0 21 21" fill="none" xmlns="http://www.w3.org/2000/svg">
<path d="M15 20.666C14.88 20.666 14.77 20.636 14.67 20.586C14.47 20.486 9.75 18.086 9.75 14.666C9.75 13.866 10.06 13.116 10.63 12.546C11.75 11.426 13.75 11.426 14.87 12.546C14.91 12.586 14.96 12.636 15 12.686C15.04 12.636 15.08 12.596 15.13 12.546C16.25 11.426 18.25 11.426 19.37 12.546C19.94 13.116 20.25 13.866 20.25 14.666C20.25 18.086 15.54 20.486 15.33 20.586C15.22 20.636 15.11 20.666 15 20.666ZM12.75 13.166C12.35 13.166 11.97 13.326 11.69 13.606C11.41 13.886 11.25 14.266 11.25 14.666C11.25 16.556 13.71 18.336 15 19.066C16.29 18.336 18.75 16.556 18.75 14.666C18.75 14.266 18.59 13.886 18.31 13.606C17.75 13.046 16.75 13.046 16.19 13.606C15.91 13.886 15.75 14.266 15.75 14.666C15.75 15.066 15.41 15.416 15 15.416C14.59 15.416 14.25 15.076 14.25 14.666C14.25 14.256 14.09 13.886 13.81 13.606C13.53 13.326 13.15 13.166 12.75 13.166ZM7.69 19.666H1.5C1.1 19.666 0.72 19.506 0.44 19.226C0.16 18.946 0 18.566 0 18.166V2.16602C0 1.76602 0.16 1.38602 0.44 1.10602C0.73 0.826016 1.1 0.666016 1.5 0.666016H16.5C16.89 0.666016 17.28 0.826016 17.56 1.10602C17.84 1.38602 18 1.77602 18 2.16602V8.69602C18 9.10602 17.66 9.44602 17.25 9.44602C16.84 9.44602 16.5 9.10602 16.5 8.69602V2.16602H1.5V18.166H7.69C8.1 18.166 8.44 18.506 8.44 18.916C8.44 19.326 8.1 19.666 7.69 19.666ZM8 12.416H5C4.59 12.416 4.25 12.076 4.25 11.666C4.25 11.256 4.59 10.916 5 10.916H8C8.41 10.916 8.75 11.256 8.75 11.666C8.75 12.076 8.41 12.416 8 12.416ZM11 9.41602H5C4.59 9.41602 4.25 9.07602 4.25 8.66602C4.25 8.25602 4.59 7.91602 5 7.91602H11C11.41 7.91602 11.75 8.25602 11.75 8.66602C11.75 9.07602 11.41 9.41602 11 9.41602ZM13 6.41602H5C4.59 6.41602 4.25 6.07602 4.25 5.66602C4.25 5.25602 4.59 4.91602 5 4.91602H13C13.41 4.91602 13.75 5.25602 13.75 5.66602C13.75 6.07602 13.41 6.41602 13 6.41602Z" fill="#556065"/>
</svg>
