<svg width="24" height="25" viewBox="0 0 24 25" fill="none" xmlns="http://www.w3.org/2000/svg">
<path d="M9.69 21.666H3.5C3.1 21.666 2.72 21.506 2.44 21.226C2.16 20.946 2 20.566 2 20.166V4.16602C2 3.76602 2.16 3.38602 2.44 3.10602C2.73 2.82602 3.1 2.66602 3.5 2.66602H18.5C18.89 2.66602 19.28 2.82602 19.56 3.10602C19.84 3.38602 20 3.77602 20 4.16602V10.696C20 11.106 19.66 11.446 19.25 11.446C18.84 11.446 18.5 11.106 18.5 10.696V4.16602H3.5V20.166H9.69C10.1 20.166 10.44 20.506 10.44 20.916C10.44 21.326 10.1 21.666 9.69 21.666ZM10 14.416H7C6.59 14.416 6.25 14.076 6.25 13.666C6.25 13.256 6.59 12.916 7 12.916H10C10.41 12.916 10.75 13.256 10.75 13.666C10.75 14.076 10.41 14.416 10 14.416ZM13 11.416H7C6.59 11.416 6.25 11.076 6.25 10.666C6.25 10.256 6.59 9.91602 7 9.91602H13C13.41 9.91602 13.75 10.256 13.75 10.666C13.75 11.076 13.41 11.416 13 11.416ZM15 8.41602H7C6.59 8.41602 6.25 8.07602 6.25 7.66602C6.25 7.25602 6.59 6.91602 7 6.91602H15C15.41 6.91602 15.75 7.25602 15.75 7.66602C15.75 8.07602 15.41 8.41602 15 8.41602Z" fill="#556065"/>
<path d="M16.67 22.5861C16.77 22.6361 16.88 22.6661 17 22.6661C17.11 22.6661 17.22 22.6361 17.33 22.5861C17.54 22.4861 22.25 20.0861 22.25 16.6661C22.25 15.8661 21.94 15.1161 21.37 14.5461C20.25 13.4261 18.25 13.4261 17.13 14.5461C17.08 14.5961 17.04 14.6361 17 14.6861C16.96 14.6361 16.91 14.5861 16.87 14.5461C15.75 13.4261 13.75 13.4261 12.63 14.5461C12.06 15.1161 11.75 15.8661 11.75 16.6661C11.75 20.0861 16.47 22.4861 16.67 22.5861Z" fill="#E7522F"/>
</svg>
