<svg width="40" height="40" viewBox="0 0 40 40" fill="none" xmlns="http://www.w3.org/2000/svg">
<rect x="0.5" y="0.5" width="39" height="39" rx="11.5" fill="white"/>
<rect x="0.5" y="0.5" width="39" height="39" rx="11.5" stroke="#CDD3D4"/>
<path d="M25 30C24.88 30 24.77 29.97 24.67 29.92C24.47 29.82 19.75 27.42 19.75 24C19.75 23.2 20.06 22.45 20.63 21.88C21.75 20.76 23.75 20.76 24.87 21.88C24.91 21.92 24.96 21.97 25 22.02C25.04 21.97 25.08 21.93 25.13 21.88C26.25 20.76 28.25 20.76 29.37 21.88C29.94 22.45 30.25 23.2 30.25 24C30.25 27.42 25.54 29.82 25.33 29.92C25.22 29.97 25.11 30 25 30ZM22.75 22.5C22.35 22.5 21.97 22.66 21.69 22.94C21.41 23.22 21.25 23.6 21.25 24C21.25 25.89 23.71 27.67 25 28.4C26.29 27.67 28.75 25.89 28.75 24C28.75 23.6 28.59 23.22 28.31 22.94C27.75 22.38 26.75 22.38 26.19 22.94C25.91 23.22 25.75 23.6 25.75 24C25.75 24.4 25.41 24.75 25 24.75C24.59 24.75 24.25 24.41 24.25 24C24.25 23.59 24.09 23.22 23.81 22.94C23.53 22.66 23.15 22.5 22.75 22.5ZM17.69 29H11.5C11.1 29 10.72 28.84 10.44 28.56C10.16 28.28 10 27.9 10 27.5V11.5C10 11.1 10.16 10.72 10.44 10.44C10.73 10.16 11.1 10 11.5 10H26.5C26.89 10 27.28 10.16 27.56 10.44C27.84 10.72 28 11.11 28 11.5V18.03C28 18.44 27.66 18.78 27.25 18.78C26.84 18.78 26.5 18.44 26.5 18.03V11.5H11.5V27.5H17.69C18.1 27.5 18.44 27.84 18.44 28.25C18.44 28.66 18.1 29 17.69 29ZM18 21.75H15C14.59 21.75 14.25 21.41 14.25 21C14.25 20.59 14.59 20.25 15 20.25H18C18.41 20.25 18.75 20.59 18.75 21C18.75 21.41 18.41 21.75 18 21.75ZM21 18.75H15C14.59 18.75 14.25 18.41 14.25 18C14.25 17.59 14.59 17.25 15 17.25H21C21.41 17.25 21.75 17.59 21.75 18C21.75 18.41 21.41 18.75 21 18.75ZM23 15.75H15C14.59 15.75 14.25 15.41 14.25 15C14.25 14.59 14.59 14.25 15 14.25H23C23.41 14.25 23.75 14.59 23.75 15C23.75 15.41 23.41 15.75 23 15.75Z" fill="#556065"/>
</svg>
