<svg width="53" height="52" viewBox="0 0 53 52" fill="none" xmlns="http://www.w3.org/2000/svg">
<g clip-path="url(#clip0_227_7215)">
<path d="M40.0585 4.38127C39.7519 4.07485 39.2551 4.07475 38.9487 4.38117L34.3679 8.96092C33.7161 9.61255 33.1912 10.357 32.8037 11.1639C32.4162 10.357 31.8913 9.61255 31.2396 8.96092L26.6589 4.38117C26.3523 4.07475 25.8556 4.07475 25.5491 4.38127C25.2427 4.68768 25.2427 5.18452 25.5492 5.49104L30.1299 10.0708C31.3482 11.2887 32.0191 12.9083 32.0191 14.6308V33.9758C32.0191 34.4092 32.3704 34.7604 32.8037 34.7604C33.2371 34.7604 33.5884 34.4091 33.5884 33.9758V14.6307C33.5884 12.908 34.2593 11.2886 35.4776 10.0707L40.0584 5.49094C40.3649 5.18452 40.3649 4.68778 40.0585 4.38127Z" fill="#539461"/>
<path d="M44.2086 0.655536C44.1502 0.449668 43.9887 0.288286 43.7828 0.229786C41.7477 -0.348004 39.4687 0.16377 37.8665 1.76582C36.2644 3.36797 35.7526 5.64713 36.3304 7.68214C36.3888 7.888 36.5503 8.04939 36.7561 8.10789C38.7912 8.68568 41.0703 8.1739 42.6724 6.57175C44.2745 4.96981 44.7863 2.69064 44.2086 0.655536Z" fill="#80E29E"/>
<path d="M21.3987 0.655536C21.4571 0.449668 21.6186 0.288286 21.8245 0.229786C23.8596 -0.348004 26.1386 0.16377 27.7408 1.76582C29.3429 3.36797 29.8547 5.64713 29.2769 7.68214C29.2185 7.888 29.057 8.04939 28.8512 8.10789C26.8161 8.68568 24.537 8.1739 22.9349 6.57175C21.3327 4.96981 20.8209 2.69064 21.3987 0.655536Z" fill="#80E29E"/>
<path d="M32.8033 40.7921C37.9993 40.7921 42.2115 36.5799 42.2115 31.3838C42.2115 26.1878 37.9993 21.9756 32.8033 21.9756C27.6072 21.9756 23.395 26.1878 23.395 31.3838C23.395 36.5799 27.6072 40.7921 32.8033 40.7921Z" fill="#C7865B"/>
<path d="M32.8034 21.9756C32.1345 21.9756 31.482 22.046 30.8525 22.1786C35.1124 23.0769 38.3101 26.8567 38.3101 31.3838C38.3101 35.9109 35.1124 39.6907 30.8525 40.589C31.4819 40.7218 32.1344 40.7921 32.8034 40.7921C37.9994 40.7921 42.2116 36.5798 42.2116 31.3837C42.2116 26.1878 37.9994 21.9756 32.8034 21.9756Z" fill="#B36D3C"/>
<path d="M21.6177 31.1206L23.7177 45.7835C23.8341 46.5961 24.5301 47.1995 25.3509 47.1995H40.2554C41.0762 47.1995 41.7723 46.596 41.8886 45.7835L43.9887 31.1206H21.6177Z" fill="#909BA6"/>
<path d="M41.2176 31.1206L39.1176 45.7835C39.0012 46.596 38.3052 47.1995 37.4844 47.1995H40.2558C41.0766 47.1995 41.7728 46.596 41.889 45.7835L43.989 31.1206H41.2176Z" fill="#5F6C75"/>
<path d="M22.014 33.8877H43.5925L43.9887 31.1206H21.6177L22.014 33.8877Z" fill="#5F6C75"/>
<path d="M28.0061 45.6754L26.0162 43.8784C24.9265 42.8945 25.6226 41.0852 27.0907 41.0852H31.4801C32.9876 41.0852 34.2097 39.8631 34.2097 38.3556C34.2097 36.8481 32.9876 35.626 31.4801 35.626H10.9854V45.1277H13.4218C14.0299 45.1277 14.6249 45.3029 15.136 45.6323L23.0191 50.7146C24.3207 51.5539 25.8365 52.0002 27.3852 52.0002H42.8504C44.1967 52.0002 45.2881 50.9088 45.2881 49.5625C45.2881 48.2162 44.1967 47.1248 42.8504 47.1248H31.774C30.3819 47.1249 29.0393 46.6083 28.0061 45.6754Z" fill="#FFCDBE"/>
<path d="M5.99292 48.8204H10.4282C10.736 48.8204 10.9855 48.5709 10.9855 48.2631V33.6604C10.9855 33.3526 10.736 33.103 10.4282 33.103H5.99292C5.68509 33.103 5.43555 33.3526 5.43555 33.6604V48.2631C5.43555 48.5709 5.68509 48.8204 5.99292 48.8204Z" fill="#DC4955"/>
<path d="M10.4283 45.9402H5.99292C5.68509 45.9402 5.43555 45.6906 5.43555 45.3828V48.2628C5.43555 48.5707 5.68509 48.8202 5.99292 48.8202H10.4282C10.736 48.8202 10.9855 48.5707 10.9855 48.2628V45.3828C10.9855 45.6906 10.7361 45.9402 10.4283 45.9402Z" fill="#C42430"/>
<path d="M46.7437 27.4746H18.8641C18.4106 27.4746 18.043 27.8423 18.043 28.2957V30.2996C18.043 30.753 18.4106 31.1207 18.8641 31.1207H46.7437C47.1972 31.1207 47.5649 30.753 47.5649 30.2996V28.2957C47.5649 27.8423 47.1972 27.4746 46.7437 27.4746Z" fill="#909BA6"/>
</g>
<defs>
<clipPath id="clip0_227_7215">
<rect width="52" height="52" fill="white" transform="translate(0.5)"/>
</clipPath>
</defs>
</svg>
