<svg width="52" height="52" viewBox="0 0 52 52" fill="none" xmlns="http://www.w3.org/2000/svg">
<g clip-path="url(#clip0_227_7199)">
<path d="M33.7351 26.0051C33.7351 26.0051 33.4379 26.2527 33.2115 26.665C33.3553 28.1832 33.9749 28.1468 34.528 28.0542C35.8614 27.8309 38.2041 27.0904 39.3922 25.3696C39.4975 25.2171 39.9161 24.5708 38.9967 23.4167C37.4657 22.4107 36.0179 22.1238 34.7946 22.3287C33.3597 22.5689 32.2448 23.4693 32.4134 24.4768C32.5968 25.5729 33.7351 26.0051 33.7351 26.0051Z" fill="#539461"/>
<path d="M5.32306 22.3974C6.25591 24.2531 6.61747 24.3246 7.39697 24.4435C9.03029 24.6928 11.0175 24.2325 13.1003 23.7901C14.2868 23.538 17.9638 24.6198 19.1645 24.5138C20.6528 24.3823 21.0428 24.0894 20.9952 22.3609L20.1805 21.7323C19.7886 21.4299 20.1147 20.8104 20.5859 20.9624L23.8506 22.015C24.0124 22.0672 24.1787 21.9461 24.178 21.776C24.1763 21.349 24.091 20.9264 23.9102 20.5185C23.2491 19.0267 21.9609 18.2918 21.0362 17.9426C20.5231 17.7489 20.2654 17.1674 20.4666 16.6571C20.8292 15.7375 21.1503 14.2896 20.4893 12.7978C20.0334 11.7689 19.1028 11.1235 17.9356 10.8487C17.7985 10.8164 17.661 10.9026 17.6317 11.0404L16.9977 14.0235C16.8948 14.5078 16.1952 14.482 16.1281 13.9915L15.718 10.9927C15.699 10.854 15.5702 10.7588 15.4317 10.7791C14.6442 10.895 13.8294 11.1303 13.0318 11.4837C12.3415 11.7895 11.6667 12.186 11.0168 12.6751C10.9367 12.7353 10.9009 12.8386 10.925 12.9358L11.4984 15.2454C11.6147 15.7137 11.0031 16.0026 10.7153 15.6153L9.70568 14.2569C9.61082 14.1292 9.42344 14.1221 9.31731 14.2405C8.27751 15.4 7.34415 16.8617 6.57126 18.6507C6.52871 18.7491 6.5542 18.8647 6.63382 18.9365L8.1856 20.3351C8.53091 20.6464 8.22277 21.2112 7.77407 21.0893L6.07879 20.6286C5.9496 20.5935 5.81503 20.6656 5.77461 20.7932C5.61221 21.3064 5.46129 21.841 5.32275 22.3975L5.32306 22.3974Z" fill="#4F8980"/>
<path d="M33.277 12.1969C33.1848 12.7009 33.1323 13.3422 33.2321 14.0288C35.0887 15.0111 35.5981 14.21 36.0305 14.0288C38.9713 12.7964 41.1417 12.4335 42.4986 10.5953C43.3671 9.41846 43.7877 6.82171 44.2393 5.67751C44.6249 4.70038 45.888 4.09699 46.092 3.29191C46.2751 2.56898 46.3149 2.39765 45.5341 1.14152C44.4606 0.797632 43.4334 0.535398 42.4535 0.350757C42.2434 0.311148 42.0461 0.463796 42.033 0.677179L41.9806 1.52878C41.9521 1.99282 41.3181 2.10332 41.1342 1.67635L40.5266 0.265953C40.4746 0.145296 40.3598 0.0623197 40.2288 0.052265C38.2627 -0.0985553 36.521 0.0826322 35.0097 0.523515C34.7787 0.590851 34.6835 0.866695 34.8202 1.06454L35.852 2.5571C36.1263 2.95401 35.6565 3.44039 35.2504 3.17998L32.8365 1.63227C32.7244 1.56037 32.5807 1.5563 32.4664 1.62466C32.2624 1.74653 32.0644 1.87389 31.8738 2.00755C30.6522 2.86423 29.7008 3.9417 29.1407 5.05412C29.0529 5.2283 29.1263 5.44087 29.3008 5.52791L32.5765 7.16195C33.0195 7.38295 32.8193 8.05366 32.3277 7.99567L29.0674 7.61126C28.8221 7.58231 28.6207 7.80778 28.6813 8.04727C28.7729 8.40903 28.9276 8.75394 29.1517 9.07366C30.0886 10.4097 31.4946 10.8817 32.4695 11.0456C33.0105 11.1366 33.3757 11.6574 33.277 12.1969Z" fill="#4F8980"/>
<path d="M45.5339 1.1416C44.8263 3.90126 42.1842 10.9358 33.2319 14.0288C33.3248 14.667 33.5491 15.3442 34.0006 15.9879C34.6274 16.8818 35.6229 17.3351 36.776 17.4017C36.9751 17.4131 37.1426 17.2523 37.1455 17.0527L37.1895 14.1104C37.1969 13.6154 37.8883 13.5055 38.0488 13.9737L38.9963 16.7363C39.0606 16.9239 39.2666 17.0235 39.4526 16.9549C40.1699 16.6904 40.8887 16.3145 41.5714 15.8358C42.1722 15.4145 42.742 14.9121 43.2722 14.3285C43.3676 14.2235 43.3888 14.0702 43.3287 13.9417L42.3489 11.8487C42.1443 11.4117 42.6885 11.0101 43.0457 11.3345L44.2036 12.3858C44.3704 12.5372 44.635 12.4973 44.7482 12.3026C45.5037 11.0033 46.1077 9.44952 46.5091 7.6284C46.5418 7.48002 46.4747 7.32686 46.3443 7.24886L44.6157 6.21485C44.2166 5.97618 44.4099 5.36234 44.8736 5.39534L46.5266 5.51265C46.7157 5.52606 46.8833 5.38844 46.9037 5.19994C47.0148 4.17507 47.0696 3.08185 47.0613 1.91795C47.0603 1.77109 46.9677 1.63875 46.8299 1.58787C46.3902 1.42537 45.9588 1.2777 45.5339 1.1416Z" fill="#3D6B73"/>
<path d="M9.86539 25.4417C9.9831 24.9919 10.6264 25.006 10.7244 25.4605L11.0611 27.0232C11.0806 27.1138 11.1491 27.187 11.2383 27.2122C13.2343 27.7741 15.0591 27.9292 16.6895 27.7581C16.8404 27.7422 16.9331 27.5853 16.8726 27.4462L16.0769 25.6173C15.8845 25.1749 16.4395 24.7885 16.7877 25.1224L18.9029 27.1516C18.9708 27.2167 19.0698 27.239 19.1586 27.2078C19.4032 27.1218 19.6421 27.0281 19.874 26.9254C21.2761 26.3041 22.4433 25.3988 23.2073 24.382C23.29 24.2719 23.2699 24.116 23.1609 24.0319L20.9953 22.3608C15.7665 24.059 8.7161 23.0549 5.3232 22.3974C5.18356 22.9585 5.0563 23.5416 4.94275 24.1477C4.92356 24.2501 4.97017 24.3553 5.05894 24.4099C6.5317 25.3158 7.94281 26.0215 9.28739 26.5513C9.42643 26.6061 9.58182 26.5256 9.6196 26.3811L9.86539 25.4417Z" fill="#3D6B73"/>
<path d="M38.9963 23.4165C37.7453 25.4572 36.2203 26.4571 34.7688 26.7C34.2157 26.7926 33.6758 26.7766 33.2111 26.6647C33.0357 26.9839 32.9028 27.4018 32.9828 27.8801C33.1515 28.8876 34.4989 29.3758 35.9338 29.1356C37.5271 28.8689 39.209 27.6912 40.5199 25.225C40.6422 24.9949 40.5935 24.709 40.4029 24.5314C39.9291 24.0897 39.459 23.7205 38.9963 23.4165Z" fill="#3D6B73"/>
<path d="M29.0218 33.59C28.6441 33.59 28.3095 33.3191 28.242 32.9343C28.1858 32.6144 26.8871 24.997 28.6745 16.2008C29.9895 9.72994 40.3455 5.23235 40.7857 5.04405C41.1882 4.8719 41.6539 5.05858 41.8262 5.46117C41.9983 5.86356 41.8118 6.32933 41.4093 6.50158C41.3091 6.54454 31.3777 10.8596 30.2281 16.5165C28.5 25.0213 29.7902 32.5849 29.8034 32.6602C29.8792 33.0914 29.5909 33.5024 29.1598 33.578C29.1134 33.5862 29.0673 33.59 29.0218 33.59Z" fill="#95D6A4"/>
<path d="M28.596 24.0894C28.2511 24.0894 27.9339 23.8626 27.8342 23.5145C27.3137 21.6949 26.1837 20.2774 24.5665 19.4151C22.6809 18.4099 20.2781 18.2602 17.9745 19.0043L12.0912 20.905C11.6752 21.0401 11.2279 20.8112 11.0933 20.3945C10.9587 19.9779 11.1873 19.5311 11.6038 19.3965L17.4871 17.4958C20.1975 16.6202 23.0497 16.8099 25.3124 18.0162C27.3178 19.0854 28.7169 20.8359 29.3585 23.0786C29.4788 23.4994 29.2353 23.9382 28.8143 24.0587C28.7415 24.0796 28.6681 24.0894 28.596 24.0894Z" fill="#95D6A4"/>
<path d="M28.7292 31.1546C28.6953 31.1546 28.6608 31.1524 28.6263 31.148C28.1921 31.0921 27.8858 30.6912 27.9416 30.257C27.9618 30.0995 28.4962 26.3849 33.5595 25.2327C33.9864 25.1361 34.4112 25.4029 34.5083 25.8297C34.6054 26.2566 34.338 26.6813 33.9112 26.7785C29.9693 27.6754 29.5298 30.3528 29.513 30.4664C29.4616 30.8659 29.1215 31.1546 28.7292 31.1546Z" fill="#95D6A4"/>
<path d="M17.7535 49.947C17.6772 49.7609 17.614 49.5657 17.564 49.3619C17.4814 49.0258 17.7364 48.7007 18.0825 48.7007H40.2242C40.5702 48.7007 40.8253 49.0258 40.7428 49.3619C40.6927 49.5657 40.6295 49.7609 40.5533 49.947C40.038 51.2037 38.7848 51.9997 37.4266 51.9997H20.88C19.5219 51.9997 18.2686 51.2037 17.7535 49.947Z" fill="#9D6B6B"/>
<path d="M40.2236 48.7007H37.7179C38.064 48.7007 38.3191 49.0258 38.2365 49.3619C38.1865 49.5657 38.1233 49.7609 38.047 49.947C37.5318 51.2036 36.2786 51.9996 34.9204 51.9996H37.4261C38.7842 51.9996 40.0374 51.2036 40.5526 49.9469C40.6288 49.7608 40.692 49.5656 40.7421 49.3618C40.8247 49.0258 40.5696 48.7007 40.2236 48.7007Z" fill="#8B5E5E"/>
<path d="M21.0433 48.7009C17.3726 43.8776 16.0314 40.2811 17.0194 33.3459C17.1073 32.7286 17.6334 32.2681 18.257 32.2681H40.0498C40.6735 32.2681 41.1995 32.7286 41.2874 33.3459C42.2755 40.2811 40.9342 43.8776 37.2635 48.7009H21.0433Z" fill="#C6865C"/>
<path d="M41.2872 33.3459C41.1993 32.7286 40.6732 32.2681 40.0496 32.2681H37.3956C38.0193 32.2681 38.5453 32.7286 38.6333 33.3459C39.6214 40.2811 38.28 43.8776 34.6094 48.7009H37.2633C40.934 43.8776 42.2753 40.2811 41.2872 33.3459Z" fill="#C17D4F"/>
</g>
<defs>
<clipPath id="clip0_227_7199">
<rect width="52" height="52" fill="white"/>
</clipPath>
</defs>
</svg>
