<svg width="261" height="52" viewBox="0 0 261 52" fill="none" xmlns="http://www.w3.org/2000/svg">
<g clip-path="url(#clip0_573_14645)">
<path d="M141.73 7.14786C141.73 6.78366 142.026 6.4877 142.39 6.4877C142.754 6.4877 143.05 6.78366 143.05 7.14786V15.2856C144.525 13.3884 145.361 10.8033 145.361 8.08096C145.361 5.10391 144.362 2.29111 142.621 0.36261C142.562 0.297546 142.478 0.260254 142.39 0.260254C142.303 0.260254 142.219 0.297546 142.16 0.36261C140.419 2.29111 139.42 5.10431 139.42 8.08096C139.42 10.8033 140.256 13.3884 141.73 15.2852V7.14786Z" fill="#99CE19"/>
<path d="M141.629 12.0383C141.225 10.8017 141.009 9.4596 141.009 8.08096C141.009 5.44312 141.794 2.935 143.185 1.05569C143.006 0.814484 142.819 0.582001 142.621 0.36261C142.562 0.297546 142.478 0.260254 142.39 0.260254C142.303 0.260254 142.219 0.297546 142.16 0.36261C140.419 2.29111 139.42 5.10431 139.42 8.08096C139.42 10.7402 140.217 13.2678 141.629 15.1519V12.0383Z" fill="#81AA00"/>
<path d="M141.73 35.8357V7.14746C141.73 6.78326 142.026 6.4873 142.39 6.4873C142.754 6.4873 143.05 6.78326 143.05 7.14746V35.8357H141.73Z" fill="#7F441C"/>
<path d="M151.61 12.0949C151.599 12.0068 151.551 11.9279 151.478 11.8775C151.426 11.8418 151.364 11.8228 151.302 11.8228C151.277 11.8228 151.252 11.8259 151.227 11.8319C149.169 12.3413 147.201 13.7786 145.825 15.7754C144.598 17.5591 143.958 19.6252 144.021 21.5446L146.755 17.5733C146.878 17.3944 147.082 17.2873 147.299 17.2873C147.433 17.2873 147.562 17.3278 147.673 17.4039C147.973 17.6102 148.049 18.022 147.842 18.322L145.109 22.2928C146.925 21.6644 148.628 20.3294 149.855 18.5457C151.231 16.549 151.87 14.1976 151.61 12.0949Z" fill="#99CE19"/>
<path d="M151.61 12.0949C151.599 12.0068 151.551 11.9279 151.478 11.8775C151.425 11.8418 151.364 11.8228 151.302 11.8228C151.277 11.8228 151.252 11.8259 151.227 11.8319C149.169 12.3413 147.2 13.7786 145.825 15.7754C144.634 17.5059 143.996 19.5022 144.016 21.3724L146.671 17.5154C146.713 17.4535 146.764 17.4008 146.819 17.3555C146.893 17.2381 146.97 17.1215 147.049 17.0064C148.247 15.2664 149.896 13.952 151.662 13.3053C151.676 12.8959 151.659 12.4908 151.61 12.0949Z" fill="#81AA00"/>
<path d="M136.899 18.322C136.693 18.022 136.769 17.6102 137.069 17.4039C137.179 17.3278 137.308 17.2873 137.442 17.2873C137.66 17.2873 137.863 17.3944 137.987 17.5733L140.721 21.545C140.783 19.6256 140.144 17.5594 138.916 15.7754C137.541 13.7786 135.572 12.3413 133.514 11.8319C133.489 11.8259 133.464 11.8228 133.439 11.8228C133.377 11.8228 133.316 11.8418 133.264 11.8775C133.191 11.9279 133.142 12.0068 133.132 12.0949C132.872 14.1976 133.511 16.549 134.886 18.5457C136.114 20.3294 137.816 21.6644 139.633 22.2928L136.899 18.322Z" fill="#99CE19"/>
<path d="M136.816 18.3795C136.697 18.2077 136.659 18.0038 136.693 17.8134C136.536 17.6166 136.385 17.4135 136.241 17.2036C135.16 15.6333 134.536 13.8449 134.444 12.1298C134.137 12.0108 133.827 11.9092 133.514 11.8319C133.489 11.8259 133.464 11.8228 133.439 11.8228C133.377 11.8228 133.316 11.8418 133.264 11.8775C133.191 11.9279 133.142 12.0068 133.132 12.0949C132.872 14.1976 133.511 16.549 134.886 18.5457C136.077 20.2762 137.715 21.5851 139.47 22.2353L136.816 18.3795Z" fill="#81AA00"/>
<path d="M152.868 20.9021C152.857 20.8152 152.809 20.7367 152.736 20.6867C152.684 20.651 152.623 20.6323 152.56 20.6323C152.536 20.6323 152.512 20.6351 152.488 20.6407C150.08 21.2195 147.777 22.8905 146.17 25.2256C144.707 27.3509 143.964 29.8162 144.083 32.0918L147.333 27.3696C147.457 27.1906 147.66 27.0835 147.878 27.0835C148.012 27.0835 148.141 27.124 148.252 27.2002C148.551 27.4065 148.628 27.8183 148.421 28.1182L145.171 32.8393C147.34 32.1371 149.379 30.562 150.842 28.4372C152.449 26.102 153.188 23.3555 152.868 20.9021Z" fill="#99CE19"/>
<path d="M152.868 20.9021C152.857 20.8152 152.809 20.7367 152.736 20.6867C152.684 20.651 152.623 20.6323 152.56 20.6323C152.536 20.6323 152.512 20.6351 152.488 20.6407C150.08 21.2195 147.777 22.8905 146.17 25.2256C144.743 27.2982 144.001 29.6944 144.076 31.9224L146.142 28.922C146.477 28.0785 146.915 27.2545 147.45 26.4765C148.873 24.4104 150.839 22.8651 152.94 22.1351C152.944 21.7186 152.921 21.3064 152.868 20.9021Z" fill="#81AA00"/>
<path d="M136.32 28.1182C136.22 27.973 136.182 27.7976 136.214 27.6243C136.246 27.4509 136.344 27.3001 136.489 27.2002C136.6 27.124 136.729 27.0839 136.863 27.0839C137.081 27.0839 137.284 27.1906 137.407 27.3696L140.658 32.0918C140.777 29.8166 140.034 27.3509 138.571 25.226C136.964 22.8905 134.66 21.2195 132.254 20.6411C132.229 20.6351 132.205 20.6323 132.181 20.6323C132.119 20.6323 132.057 20.651 132.005 20.6871C131.932 20.7367 131.885 20.8152 131.873 20.9025C131.553 23.3559 132.292 26.102 133.9 28.4376C135.362 30.5624 137.401 32.1375 139.57 32.8397L136.32 28.1182Z" fill="#99CE19"/>
<path d="M136.236 28.1757C136.199 28.1214 136.17 28.0634 136.149 28.0043C135.935 27.7421 135.73 27.4711 135.535 27.1891C134.22 25.2784 133.487 23.0924 133.439 21.0172C133.048 20.8632 132.652 20.7367 132.254 20.6407C132.229 20.6351 132.205 20.6323 132.181 20.6323C132.119 20.6323 132.057 20.651 132.005 20.6867C131.932 20.7367 131.885 20.8152 131.873 20.9021C131.553 23.3555 132.292 26.102 133.9 28.4372C135.326 30.5097 137.301 32.0585 139.41 32.7853L136.236 28.1757Z" fill="#81AA00"/>
<path d="M147.73 17.3201C147.384 17.0812 146.909 17.1689 146.671 17.5157L143.05 22.7743V25.4201C143.097 25.3792 143.139 25.3324 143.175 25.2796L147.926 18.3793C148.164 18.033 148.076 17.5585 147.73 17.3201Z" fill="#9B5729"/>
<path d="M141.73 22.8315L138.07 17.5154C137.831 17.169 137.357 17.0814 137.01 17.3198C136.664 17.5582 136.576 18.0327 136.815 18.3791L141.565 25.2794C141.612 25.3468 141.668 25.4031 141.73 25.4507V22.8315Z" fill="#9B5729"/>
<path d="M148.309 27.1167C147.963 26.8782 147.488 26.9659 147.25 27.3123L143.05 33.412V35.9375H143.161L148.505 28.1759C148.743 27.8296 148.656 27.3551 148.309 27.1167Z" fill="#9B5729"/>
<path d="M141.73 33.47L137.491 27.3124C137.252 26.9656 136.778 26.8783 136.431 27.1168C136.085 27.3556 135.997 27.8297 136.236 28.176L141.58 35.9376H141.73V33.47Z" fill="#9B5729"/>
<path d="M148.295 47.6474L149.358 39.209H135.382L136.446 47.6474H148.295Z" fill="#EAC092"/>
<path d="M139.134 47.6474L138.07 39.209H135.382L136.446 47.6474H139.134Z" fill="#E0AA68"/>
<path d="M135.621 50.8383H149.12C149.963 50.2187 150.512 49.2209 150.512 48.0974V47.8216C150.512 47.6693 150.388 47.5459 150.236 47.5459H134.505C134.352 47.5459 134.229 47.6697 134.229 47.8216V48.0974C134.229 49.2209 134.777 50.2187 135.621 50.8383Z" fill="#B57A4E"/>
<path d="M135.621 50.8383H140.398C139.555 50.2187 139.006 49.2209 139.006 48.0974V47.8216C139.006 47.6693 139.13 47.5459 139.282 47.5459H134.505C134.352 47.5459 134.229 47.6697 134.229 47.8216V48.0974C134.229 49.2209 134.777 50.2187 135.621 50.8383Z" fill="#9B5729"/>
<path d="M143.152 35.9373V7.14746C143.152 6.72653 142.811 6.38574 142.39 6.38574C141.97 6.38574 141.628 6.72653 141.628 7.14746V35.9373H143.152Z" fill="#7F441C"/>
<path d="M150.674 38.7956C150.674 39.0789 150.442 39.311 150.158 39.311H134.583C134.299 39.311 134.067 39.0789 134.067 38.7956V36.3518C134.067 36.0681 134.299 35.8364 134.583 35.8364H150.158C150.442 35.8364 150.674 36.0681 150.674 36.3518V38.7956Z" fill="#B57A4E"/>
<path d="M137.255 38.7956V36.3518C137.255 36.0681 137.487 35.8364 137.771 35.8364H134.583C134.299 35.8364 134.067 36.0681 134.067 36.3518V38.7956C134.067 39.0789 134.299 39.311 134.583 39.311H137.77C137.487 39.311 137.255 39.0789 137.255 38.7956Z" fill="#9B5729"/>
<path d="M36.1885 36.5468H38.8343C38.2146 33.9327 37.8821 30.8255 37.8821 27.5236C37.8821 27.4581 37.8829 27.393 37.8829 27.328C37.0117 24.7238 35.9572 22.4363 34.7976 20.6669C34.7392 20.578 34.6413 20.5269 34.5385 20.5269C34.5159 20.5269 34.4929 20.5292 34.4699 20.5344C34.3437 20.563 34.2489 20.6669 34.2318 20.795C33.8002 24.0038 34.114 28.2016 35.1161 32.6148C35.426 33.9795 35.7862 35.2971 36.1885 36.5468Z" fill="#009E2F"/>
<path d="M36.1885 36.5464H37.7726C37.3703 35.2967 37.0101 33.9791 36.7003 32.6144C35.8342 28.8002 35.4831 25.1483 35.6823 22.155C35.3954 21.6262 35.1003 21.1283 34.7976 20.6665C34.7396 20.578 34.6416 20.5269 34.5385 20.5269C34.5159 20.5269 34.4929 20.5292 34.4699 20.5344C34.3441 20.563 34.2489 20.6669 34.2318 20.7946C33.8002 24.0038 34.114 28.2012 35.1161 32.6144C35.426 33.9791 35.7862 35.2967 36.1885 36.5464Z" fill="#00752C"/>
<path d="M40.8159 36.5469H43.6672C44.0504 35.2861 44.39 33.9571 44.6781 32.5812C45.6056 28.1521 45.8488 23.9496 45.3636 20.7484C45.3442 20.6206 45.2474 20.5187 45.1208 20.4921C45.0998 20.4877 45.0784 20.4854 45.0573 20.4854C44.9526 20.4854 44.8534 20.5385 44.7959 20.6298C43.641 22.4579 42.6056 24.826 41.7685 27.5162V27.5237C41.7681 30.8257 41.4356 33.9329 40.8159 36.5469Z" fill="#009E2F"/>
<path d="M40.8159 36.5469H41.5304C41.684 35.0036 41.9335 33.3901 42.2779 31.7445C43.0447 28.0819 44.1782 24.7502 45.5247 22.1584C45.485 21.67 45.4319 21.1991 45.3636 20.7484C45.3442 20.6206 45.2474 20.5187 45.1208 20.4921C45.0998 20.4877 45.0784 20.4854 45.0573 20.4854C44.9526 20.4854 44.8534 20.5385 44.7959 20.6298C43.641 22.4579 42.6056 24.826 41.7685 27.5162V27.5237C41.7681 30.8257 41.4356 33.9329 40.8159 36.5469Z" fill="#00752C"/>
<path d="M40.9201 36.547C41.5378 33.9298 41.8694 30.8234 41.8694 27.5238C41.8694 22.9983 41.2466 18.835 40.1151 15.8012C40.0699 15.6802 39.954 15.6001 39.8251 15.6001C39.6958 15.6001 39.5799 15.6802 39.5351 15.8012C38.4036 18.835 37.7808 22.9983 37.7808 27.5238C37.7808 30.8234 38.1124 33.9298 38.7301 36.547H40.9201Z" fill="#009E2F"/>
<path d="M40.3381 36.547C39.72 33.9298 39.3879 30.8234 39.3883 27.5238C39.3879 23.7386 39.8243 20.2077 40.6289 17.3782C40.4714 16.8248 40.3004 16.2975 40.1151 15.8012C40.0699 15.6802 39.9544 15.6001 39.8251 15.6001C39.6958 15.6001 39.5803 15.6802 39.5351 15.8012C38.4036 18.835 37.7808 22.9983 37.7808 27.5238C37.7808 30.8234 38.1124 33.9298 38.7305 36.547H40.3381Z" fill="#00752C"/>
<path d="M32.7706 39.7441C32.7662 39.7846 32.7655 39.8263 32.771 39.8695L34.2302 51.448H45.4207L46.8795 39.8695C46.885 39.8263 46.8846 39.7846 46.8803 39.7441H32.7706Z" fill="#EAC092"/>
<path d="M36.1416 39.7441H32.7706C32.7662 39.7846 32.7655 39.8263 32.771 39.8695L34.2302 51.448H37.6012L36.142 39.8695C36.1365 39.8263 36.1369 39.7846 36.1416 39.7441Z" fill="#E0AA68"/>
<path d="M47.9502 39.3014C47.9502 39.6009 47.7054 39.8457 47.4059 39.8457H32.2445C31.9454 39.8457 31.7002 39.6009 31.7002 39.3014V36.9896C31.7002 36.6905 31.9454 36.4453 32.2445 36.4453H47.4059C47.7054 36.4453 47.9502 36.6905 47.9502 36.9896V39.3014Z" fill="#B57A4E"/>
<path d="M35.0089 39.3014V36.9896C35.0089 36.6905 35.2537 36.4453 35.5532 36.4453H32.2445C31.9454 36.4453 31.7002 36.6905 31.7002 36.9896V39.3014C31.7002 39.6009 31.9454 39.8457 32.2445 39.8457H35.5532C35.2537 39.8457 35.0089 39.6009 35.0089 39.3014Z" fill="#9B5729"/>
<path d="M110.666 20.2579L112.495 17.0167C115.542 11.6146 121.736 8.80822 127.807 10.0803L128.691 10.2657C128.974 10.3249 128.995 10.721 128.719 10.8091L128.323 10.936C123.057 12.6198 118.498 16.0021 115.36 20.5534L110.666 27.3606V20.2579Z" fill="#5EA570"/>
<path d="M109.083 20.2579L107.254 17.0167C104.207 11.6146 98.0124 8.80822 91.942 10.0803L91.0576 10.2657C90.7747 10.3249 90.7542 10.721 91.0296 10.8091L91.4262 10.936C96.6919 12.6198 101.251 16.0021 104.389 20.5534L109.083 27.3606V20.2579Z" fill="#5EA570"/>
<path d="M112.379 28.0658L114.185 24.3125C117.194 18.0568 123.73 15.0976 129.024 16.8665L129.947 17.1752C130.199 17.2594 130.205 17.6137 129.956 17.7059L129.43 17.9008C124.675 19.6626 120.447 23.4637 117.406 28.7092L112.859 36.5546L112.379 28.0658Z" fill="#5EA570"/>
<path d="M110.631 23.8678L113.14 21.7324C117.322 18.1733 123.864 20.0562 128.52 22.9672L129.095 23.3266C129.34 23.4797 129.223 23.8586 128.934 23.8463L128.688 23.8358C123.797 23.6271 118.44 22.7227 114.442 25.5467L108.462 29.7705L110.631 23.8678Z" fill="#69AF81"/>
<path d="M107.37 28.0658L105.564 24.3125C102.555 18.0568 96.0195 15.0976 90.7254 16.8665L89.8016 17.1752C89.5497 17.2594 89.544 17.6137 89.793 17.7059L90.3191 17.9008C95.0739 19.6626 99.3025 23.4637 102.343 28.7092L106.891 36.5546L107.37 28.0658Z" fill="#5EA570"/>
<path d="M109.117 23.9571L106.608 21.8217C102.426 18.2627 95.8847 20.1455 91.2283 23.0566L90.6534 23.416C90.4083 23.5691 90.5258 23.948 90.8145 23.9357L91.0609 23.9252C95.9512 23.7165 101.309 22.8121 105.307 25.6361L111.287 29.8599L109.117 23.9571Z" fill="#69AF81"/>
<path d="M110.153 8.03766C111.528 16.7962 112.483 24.9019 112.199 31.0826H107.55C107.266 24.9018 108.221 16.7961 109.596 8.03766C109.646 7.72052 110.103 7.72052 110.153 8.03766Z" fill="#69AF81"/>
<path d="M116.575 33.9228L120.255 33.1206L122.205 27.5803C122.309 27.2849 122.245 26.9564 122.037 26.7217C121.83 26.487 121.512 26.3828 121.206 26.4495L119.039 26.9219L116.575 33.9228Z" fill="#78C2A4"/>
<path d="M103.174 33.9228L99.4936 33.1206L97.5441 27.5803C97.4401 27.2849 97.5042 26.9564 97.7116 26.7217C97.919 26.487 98.2371 26.3828 98.5431 26.4495L100.71 26.9219L103.174 33.9228Z" fill="#78C2A4"/>
<path d="M123.208 26.3018C124.959 27.0206 130.789 30.0308 130.489 38.1551C130.48 38.3916 130.157 38.4524 130.062 38.2358C129.064 35.962 125.883 29.9686 119.038 26.922L122.262 26.2195C122.579 26.1504 122.908 26.1787 123.208 26.3018Z" fill="#95D6A4"/>
<path d="M96.541 26.3018C94.7902 27.0206 88.9599 30.0308 89.2605 38.1551C89.2692 38.3916 89.5925 38.4524 89.6876 38.2358C90.6856 35.962 93.8664 29.9686 100.711 26.922L97.4876 26.2195C97.1707 26.1504 96.841 26.1787 96.541 26.3018Z" fill="#95D6A4"/>
<path d="M118.646 47.9229C123.821 44.0924 125.164 39.4029 123.872 32.9394C123.656 31.8605 122.709 31.083 121.609 31.083H98.1405C97.0401 31.083 96.0928 31.8605 95.8772 32.9394C94.5855 39.403 95.928 44.0924 101.103 47.9229L102.758 49.7923L116.575 49.3057L118.646 47.9229Z" fill="#C6865C"/>
<path d="M98.1403 31.0825H98.8203C96.882 38.5199 97.9588 43.7346 103.616 47.9224H101.102C95.9277 44.0919 94.5853 39.4025 95.877 32.939C96.0926 31.86 97.0399 31.0825 98.1403 31.0825Z" fill="#C17D4F"/>
<path d="M109.146 31.0826H112.912L115.467 27.6303C115.661 27.368 115.691 27.0189 115.544 26.7275C115.397 26.4362 115.099 26.2524 114.772 26.2524H112.72L109.146 31.0826Z" fill="#78C2A4"/>
<path d="M110.603 31.0826H106.836L104.282 27.6303C104.088 27.368 104.058 27.0189 104.205 26.7275C104.352 26.4362 104.65 26.2524 104.976 26.2524H107.029L110.603 31.0826Z" fill="#78C2A4"/>
<path d="M116.019 26.2524C116.343 26.2524 116.659 26.3503 116.926 26.5345C118.483 27.6096 123.539 31.7924 121.515 39.6664C121.456 39.8956 121.127 39.8862 121.081 39.6543C120.59 37.2201 118.758 30.6868 112.72 26.2525L116.019 26.2524Z" fill="#95D6A4"/>
<path d="M103.73 26.2524C103.405 26.2524 103.089 26.3503 102.822 26.5345C101.265 27.6096 96.2093 31.7924 98.2332 39.6664C98.2921 39.8956 98.6208 39.8862 98.6677 39.6543C99.1585 37.2201 100.99 30.6868 107.029 26.2525L103.73 26.2524Z" fill="#95D6A4"/>
<path d="M122.193 48.9642C122.257 48.8069 122.311 48.6419 122.353 48.4696C122.423 48.1855 122.207 47.9106 121.915 47.9106H97.8345C97.5419 47.9106 97.3263 48.1855 97.3961 48.4696C97.4385 48.6419 97.4919 48.8069 97.5563 48.9642C97.9919 50.0267 99.0514 50.6996 100.2 50.6996H119.55C120.698 50.6996 121.757 50.0267 122.193 48.9642Z" fill="#9D6B6B"/>
<path d="M97.8345 47.9106H99.9528C99.6603 47.9106 99.4446 48.1855 99.5145 48.4696C99.5569 48.6419 99.6102 48.8069 99.6747 48.9642C100.11 50.0267 101.17 50.6996 102.318 50.6996H100.2C99.0514 50.6996 97.9918 50.0267 97.5563 48.9642C97.4918 48.8069 97.4384 48.6419 97.396 48.4696C97.3263 48.1855 97.542 47.9106 97.8345 47.9106Z" fill="#8B5E5E"/>
<path d="M158.372 50.6998H174.349C174.638 50.6998 174.884 50.4909 174.93 50.2063L176.534 40.395H156.187L157.79 50.2063C157.837 50.4909 158.083 50.6998 158.372 50.6998Z" fill="#BE652B"/>
<path d="M158.465 40.3951L160.148 50.6998H158.371C158.083 50.6998 157.837 50.4909 157.79 50.2063L156.187 40.395H158.465V40.3951Z" fill="#A75224"/>
<path d="M162.729 16.9098C162.729 18.795 161.609 19.8269 160.227 19.8269C158.845 19.8269 157.725 18.795 157.725 16.9098C157.725 15.0246 159.534 13 160.227 13C160.92 13 162.729 15.0247 162.729 16.9098Z" fill="#6DE470"/>
<path d="M160.227 13C160.495 13 160.931 13.3044 161.364 13.786C160.679 14.5479 160 15.7547 160 16.9098C160 18.2361 160.554 19.1394 161.364 19.5588C161.023 19.7355 160.637 19.8269 160.227 19.8269C158.845 19.8269 157.725 18.795 157.725 16.9098C157.725 15.0246 159.534 13 160.227 13Z" fill="#4DCC68"/>
<path d="M168.23 22.8901C166.444 23.4904 165.11 22.7566 164.669 21.4461C164.229 20.1356 164.85 18.7446 166.637 18.1442C168.423 17.5439 170.917 18.6148 171.138 19.2721C171.359 19.9295 170.016 22.2898 168.23 22.8901Z" fill="#6DE470"/>
<path d="M166.637 18.144C167.379 17.8945 168.243 17.9341 169.016 18.1123C168.981 18.1226 168.946 18.1324 168.911 18.144C167.125 18.7443 166.504 20.1353 166.944 21.4458C167.166 22.1053 167.614 22.6185 168.232 22.8893C168.231 22.8895 168.231 22.8897 168.23 22.8899C166.444 23.4902 165.11 22.7564 164.67 21.4458C164.23 20.1353 164.851 18.7443 166.637 18.144Z" fill="#4DCC68"/>
<path d="M174.165 29.2138C172.345 28.7286 171.636 27.38 171.992 26.0441C172.348 24.7082 173.632 23.8908 175.453 24.3759C177.274 24.8611 178.764 27.1311 178.586 27.8011C178.407 28.4713 175.986 29.699 174.165 29.2138Z" fill="#6DE470"/>
<path d="M171.992 26.0441C172.347 24.7081 173.632 23.8907 175.453 24.376C175.518 24.3933 175.582 24.4135 175.646 24.4351C174.946 24.7236 174.463 25.304 174.266 26.0441C173.921 27.339 174.577 28.6458 176.275 29.1666C175.585 29.3385 174.835 29.3921 174.165 29.2137C172.345 28.7286 171.636 27.38 171.992 26.0441Z" fill="#4DCC68"/>
<path d="M163.043 29.7061C164.373 28.3714 165.895 28.4323 166.873 29.4087C167.851 30.3851 167.916 31.9072 166.585 33.2418C165.255 34.5765 162.545 34.7318 162.054 34.2421C161.563 33.7525 161.712 31.0409 163.043 29.7061Z" fill="#6DE470"/>
<path d="M163.043 29.7062C164.137 28.6089 165.359 28.4555 166.303 28.9779C165.97 29.1441 165.638 29.3842 165.317 29.7062C163.986 31.0409 163.838 33.7524 164.329 34.2421C164.363 34.2761 164.408 34.3067 164.463 34.3343C163.381 34.5933 162.34 34.5276 162.054 34.2421C161.563 33.7524 161.712 31.0409 163.043 29.7062Z" fill="#4DCC68"/>
<path d="M155.479 24.2264C156.839 22.9223 158.359 23.0178 159.315 24.0162C160.271 25.0145 160.301 26.5377 158.94 27.8418C157.579 29.1459 154.867 29.2395 154.387 28.7388C153.908 28.2381 154.118 25.5305 155.479 24.2264Z" fill="#6DE470"/>
<path d="M155.479 24.2266C156.578 23.1731 157.781 23.0334 158.707 23.5448C158.386 23.7026 158.066 23.9274 157.753 24.2266C156.393 25.5307 156.183 28.2382 156.662 28.7389C156.71 28.7886 156.78 28.8322 156.868 28.8696C155.754 29.1246 154.673 29.0376 154.388 28.7389C153.908 28.2382 154.118 25.5307 155.479 24.2266Z" fill="#4DCC68"/>
<path d="M156.613 25.5924C157.153 24.7564 157.913 24.2303 158.871 24.0292C159.626 23.8707 160.429 23.9351 161.188 24.1067C160.448 23.1089 160.031 22.0497 159.8 21.1101C159.213 18.7307 159.668 16.6479 159.687 16.5605C159.754 16.2631 160.049 16.0768 160.347 16.1426C160.644 16.2088 160.832 16.5038 160.766 16.8013C160.762 16.8205 160.346 18.7505 160.882 20.8828C161.156 21.9726 161.621 22.9153 162.271 23.7093C162.318 23.2488 162.466 22.8159 162.715 22.4141C163.956 20.4149 167.286 20.0032 167.427 19.9865C167.729 19.9517 168.004 20.1675 168.04 20.4701C168.075 20.7728 167.859 21.0473 167.556 21.0834C167.527 21.0869 164.612 21.4511 163.654 22.998C163.324 23.5298 163.271 24.1435 163.492 24.8689C163.634 24.9745 163.782 25.0757 163.935 25.1728C164.213 25.3226 164.424 25.4495 164.546 25.5255C165.181 25.8553 165.89 26.1227 166.674 26.327C167.036 26.4212 167.378 26.5261 167.701 26.6408C167.82 25.8308 168.225 25.3901 168.591 25.1537C170.507 23.9131 174.693 26.1422 175.164 26.4005C175.431 26.5471 175.529 26.8827 175.382 27.1501C175.236 27.4175 174.9 27.5154 174.632 27.3689C173.076 26.5167 170.222 25.4134 169.191 26.081C169.083 26.1506 168.78 26.3476 168.771 27.0922C170.181 27.7968 171.093 28.7609 171.491 29.9736C172.481 32.9962 169.845 36.3753 169.617 36.6597L168.668 37.9885C168.56 38.1396 168.39 38.2201 168.218 38.2201C168.107 38.2201 167.995 38.1868 167.897 38.1174C167.649 37.9402 167.591 37.5953 167.768 37.3471L168.727 36.005C168.734 35.9955 168.741 35.9862 168.748 35.9772C168.769 35.9518 170.442 33.8687 170.596 31.7295C170.37 31.3729 169.619 30.3397 168.412 30.1423C167.291 29.9592 166.028 30.5216 164.657 31.8142C164.435 32.0234 164.085 32.0133 163.875 31.7916C163.666 31.5697 163.676 31.2202 163.898 31.0108C165.538 29.4651 167.12 28.8067 168.603 29.0543C169.214 29.1562 169.73 29.4013 170.156 29.6945C169.537 28.6575 168.276 27.8858 166.395 27.3955C164.94 27.0163 163.791 26.4518 162.883 25.7862C161.981 25.3654 160.464 24.8222 159.097 25.1103C158.43 25.2509 157.921 25.6044 157.542 26.1911C157.377 26.4474 157.035 26.5211 156.778 26.3557C156.522 26.1905 156.448 25.8486 156.613 25.5924Z" fill="#1EB073"/>
<path d="M156.035 40.5735H176.686C177.189 40.5735 177.597 40.1658 177.597 39.6629V37.2363C177.597 36.7334 177.189 36.3257 176.686 36.3257H156.035C155.532 36.3257 155.125 36.7334 155.125 37.2363V39.6629C155.125 40.1658 155.532 40.5735 156.035 40.5735Z" fill="#D67B42"/>
<path d="M156.035 36.3257H158.313C157.81 36.3257 157.402 36.7332 157.402 37.2359V39.6633C157.402 40.166 157.81 40.5736 158.313 40.5736H156.035C155.532 40.5736 155.124 40.166 155.124 39.6633V37.2359C155.124 36.7332 155.532 36.3257 156.035 36.3257Z" fill="#BE652B"/>
<path d="M9.47937 46.0262C9.06706 46.0262 8.70965 45.7194 8.65679 45.2997C8.33833 42.7695 8.93399 40.36 10.291 38.6889C10.5787 38.3347 10.8887 38.0284 11.2139 37.7744C11.86 37.2696 14.1315 37.2163 14.1688 37.6732C14.2061 38.1302 13.8659 38.5309 13.4089 38.5681C12.818 38.6164 12.1343 39.0528 11.5798 39.7356C10.5068 41.0568 10.0418 43.0093 10.304 45.0924C10.3613 45.5473 10.0389 45.9625 9.58407 46.0197C9.54888 46.0241 9.51391 46.0262 9.47937 46.0262Z" fill="#9BD069"/>
<path d="M13.488 37.38C12.923 37.427 12.3552 37.5598 12.0812 37.7745C11.7558 38.0286 11.4459 38.3346 11.1581 38.6888C9.80113 40.3602 9.20563 42.7698 9.52388 45.2995C9.55708 45.5601 9.70653 45.7765 9.91405 45.9038C9.81666 45.9641 9.70486 46.0045 9.58421 46.0194C9.5488 46.0238 9.51394 46.0261 9.47907 46.0261C9.06676 46.0261 8.70984 45.7195 8.65671 45.2995C8.33846 42.7698 8.93396 40.3602 10.291 38.6888C10.5787 38.3346 10.8887 38.0286 11.2141 37.7745C11.6363 37.4442 12.7547 37.3069 13.488 37.38Z" fill="#8BC852"/>
<path d="M23.4716 48.6022C23 48.6022 22.6178 48.22 22.6178 47.7484C22.6178 45.5144 23.9194 44.1987 25.0678 43.0379C26.0949 41.9997 26.982 41.1031 26.982 39.6422C26.982 38.3917 26.1726 37.6115 24.8521 36.4421C23.6051 35.3378 22.0963 34.0017 21.6948 31.7784C21.6287 31.4126 22.9625 30.1343 23.4341 30.1343C23.9057 30.1343 23.3002 30.1343 23.3002 30.6058C23.3003 32.787 24.604 33.9414 25.9841 35.1637C27.3142 36.3415 28.6895 37.5595 28.6895 39.6423C28.6895 41.8051 27.4103 43.0981 26.2817 44.2389C25.232 45.3 24.3254 46.2163 24.3254 47.7484C24.3254 48.22 23.9431 48.6022 23.4716 48.6022Z" fill="#9BD069"/>
<path d="M26.0492 43.0372C24.9005 44.1984 23.5993 45.5139 23.5993 47.748C23.5993 48.0366 23.7427 48.2921 23.9624 48.4464C23.8236 48.5443 23.6545 48.6019 23.4712 48.6019C22.9999 48.6019 22.6174 48.2194 22.6174 47.7481C22.6174 45.5139 23.9192 44.1985 25.0673 43.0373C26.0947 41.9991 26.9816 41.1025 26.9816 39.6419C26.9816 38.3914 26.1722 37.611 24.8516 36.4418C23.605 35.3376 22.096 34.0016 21.6947 31.7783C21.6287 31.4123 22.9624 30.1338 23.4337 30.1338C23.9056 30.1338 23.2999 30.1338 23.2999 30.6057C23.2999 30.6905 23.3017 30.7736 23.3062 30.855C22.9396 31.2107 22.6442 31.6012 22.6761 31.7783C23.078 34.0016 24.5864 35.3376 25.8336 36.4418C27.1541 37.6109 27.9635 38.3914 27.9635 39.6419C27.9634 41.1025 27.0761 41.999 26.0492 43.0372Z" fill="#8BC852"/>
<path d="M18.8075 33.8932C20.9887 33.8932 22.757 32.9463 22.757 31.7781C22.757 30.61 20.9887 29.6631 18.8075 29.6631C16.6262 29.6631 14.8579 30.61 14.8579 31.7781C14.8579 32.9463 16.6262 33.8932 18.8075 33.8932Z" fill="#9BD069"/>
<path d="M26.4891 30.483C28.0312 28.9409 28.6119 27.0212 27.7861 26.1954C26.9602 25.3695 25.0405 25.9502 23.4984 27.4923C21.9562 29.0345 21.3755 30.9542 22.2014 31.78C23.0273 32.6059 24.9469 32.0252 26.4891 30.483Z" fill="#AAD880"/>
<path d="M12.7002 38.185C13.491 37.3253 12.8307 35.4312 11.2252 33.9545C9.61983 32.4778 7.6773 31.9776 6.88649 32.8374C6.09567 33.6971 6.75604 35.5912 8.36145 37.0679C9.96687 38.5446 11.9094 39.0448 12.7002 38.185Z" fill="#9BD069"/>
<path d="M16.1823 40.1274C18.3614 40.0358 20.0882 39.0155 20.0391 37.8486C19.99 36.6816 18.1838 35.8099 16.0047 35.9015C13.8256 35.9931 12.0989 37.0134 12.1479 38.1803C12.197 39.3473 14.0032 40.219 16.1823 40.1274Z" fill="#AAD880"/>
<path d="M14.4488 47.5485C14.3967 48.1829 14.2595 49.0409 13.9133 49.8646C13.7254 50.3119 13.2863 50.602 12.801 50.602H6.16082C5.67555 50.602 5.23638 50.3119 5.04852 49.8646C4.70234 49.0409 4.56508 48.1829 4.51302 47.5485C4.46505 46.9621 4.48976 46.5669 4.48976 46.5669H14.472C14.472 46.5669 14.4968 46.9621 14.4488 47.5485Z" fill="#365E7D"/>
<path d="M8.03743 50.602H6.16121C5.67595 50.602 5.23678 50.3119 5.04854 49.8646C4.38239 48.2796 4.48978 46.5669 4.48978 46.5669H7.31112C7.31112 46.5669 7.26428 48.2796 7.55394 49.8646C7.63554 50.3119 7.82674 50.602 8.03743 50.602Z" fill="#2B4D66"/>
<path d="M14.4487 47.5492C11.137 47.6256 7.82478 47.6256 4.51302 47.5492C4.46505 46.9628 4.48976 46.5675 4.48976 46.5675L9.48085 45.1968L14.4719 46.5675C14.472 46.5675 14.4967 46.9628 14.4487 47.5492Z" fill="#2B4D66"/>
<path d="M27.9737 47.5485C27.9216 48.1829 27.7844 49.0409 27.4382 49.8646C27.2503 50.3119 26.8112 50.602 26.3259 50.602H19.6857C19.2005 50.602 18.7613 50.3119 18.5734 49.8646C18.2272 49.0409 18.09 48.1829 18.0379 47.5485C17.99 46.9621 18.0147 46.5669 18.0147 46.5669H27.9969C27.9969 46.5669 28.0217 46.9621 27.9737 47.5485Z" fill="#365E7D"/>
<path d="M21.5623 50.602H19.6861C19.2009 50.602 18.7617 50.3119 18.5734 49.8646C17.9073 48.2796 18.0147 46.5669 18.0147 46.5669H20.836C20.836 46.5669 20.7892 48.2796 21.0788 49.8646C21.1604 50.3119 21.3516 50.602 21.5623 50.602Z" fill="#2B4D66"/>
<path d="M27.9736 47.5492C24.6619 47.6256 21.3497 47.6256 18.0379 47.5492C17.99 46.9628 18.0147 46.5675 18.0147 46.5675L23.0058 45.1968L27.9968 46.5675C27.9969 46.5675 28.0216 46.9628 27.9736 47.5492Z" fill="#2B4D66"/>
<path d="M28.6324 43.8396C20.3725 43.7488 12.1125 43.7488 3.85256 43.8396C3.33415 43.8453 2.85211 44.1368 2.63303 44.6067C2.44329 45.0137 2.44329 45.4207 2.63303 45.8276C2.85211 46.2975 3.33415 46.589 3.85256 46.5947C4.64194 46.4906 6.20255 46.2945 6.20255 46.2945C6.20255 46.2945 8.36779 46.4579 9.30748 46.6415C15.7496 46.6811 22.1919 46.6655 28.634 46.5947C29.1524 46.589 29.6345 46.2975 29.8535 45.8276C30.034 45.4405 30.0429 45.0534 29.88 44.6663C29.6698 44.1665 29.1746 43.8455 28.6324 43.8396Z" fill="#365E7D"/>
<path d="M9.50396 46.6426C7.62011 46.6315 5.73627 46.6155 3.85237 46.595C3.33379 46.5895 2.85175 46.2978 2.63262 45.828C2.44277 45.4212 2.44277 45.0139 2.63262 44.6071C2.85175 44.1373 3.33379 43.8456 3.85237 43.8401C5.73621 43.8196 7.62006 43.8035 9.50396 43.7925C9.01252 43.8389 8.56921 44.1317 8.35894 44.5828C8.16136 45.0062 8.16136 45.4289 8.35894 45.8523C8.56921 46.3034 9.01252 46.5961 9.50396 46.6426Z" fill="#2B4D66"/>
<path d="M81.633 37.061H55.0926C54.774 37.061 54.5156 37.3194 54.5156 37.638C54.5156 45.2735 60.7276 51.4852 68.3628 51.4852C75.9983 51.4852 82.2099 45.2735 82.2099 37.638C82.2099 37.3194 81.9516 37.061 81.633 37.061Z" fill="#BFA774"/>
<path d="M58.5544 37.638C58.5544 37.3194 58.8127 37.061 59.1313 37.061H55.0926C54.774 37.061 54.5156 37.3194 54.5156 37.638C54.5156 45.2735 60.7276 51.4852 68.3628 51.4852C69.0488 51.4852 69.7229 51.4342 70.3822 51.3375C63.7006 50.3569 58.5544 44.5875 58.5544 37.638Z" fill="#AF9151"/>
<path d="M68.3628 17.1866C67.1215 16.7519 65.7715 17.1962 64.6415 18.3783C64.2127 17.803 63.4943 17.0683 62.5478 16.9255C61.7082 16.7987 60.8918 17.1438 60.1216 17.9504C58.4789 19.6706 58.0754 22.2883 58.955 25.5202C59.6125 27.9354 60.8259 30.1314 61.4395 31.0479C62.2615 32.2767 63.4943 33.0216 64.6604 33.0216C64.7759 33.0216 64.8906 33.0143 65.0044 32.9996C65.8611 32.8875 67.0316 32.3187 67.7419 30.245C67.8255 30.001 67.9963 29.5483 68.2123 28.975C69.3736 25.8955 70.6168 22.4912 70.6675 21.0693C70.7326 19.2525 69.8063 17.692 68.3628 17.1866Z" fill="#7CBC59"/>
<path d="M64.3243 30.4715C63.711 29.5548 62.4973 27.359 61.8401 24.9438C60.9603 21.7119 61.3637 19.0942 63.0064 17.374C63.0842 17.2926 63.1622 17.2173 63.2408 17.1455C63.0258 17.041 62.7948 16.9627 62.5478 16.9255C61.7082 16.7987 60.8918 17.1435 60.1216 17.9504C58.4789 19.6706 58.0754 22.2883 58.955 25.5202C59.6125 27.9354 60.8259 30.1312 61.4395 31.0479C62.2615 32.2768 63.4943 33.0216 64.6604 33.0216C64.7759 33.0216 64.8906 33.0143 65.0044 32.9994C65.463 32.9396 66.0118 32.7484 66.5316 32.2652C65.7028 31.9753 64.9097 31.3462 64.3243 30.4715Z" fill="#5BAB30"/>
<path d="M65.0042 32.9997C65.0873 32.9887 65.1733 32.9735 65.2614 32.9532C63.7514 28.8865 64.7253 21.0769 65.2248 17.8487C65.0254 18.0045 64.8301 18.1808 64.6414 18.3783C64.4878 18.1721 64.2963 17.9456 64.0709 17.7329C63.5635 20.9854 62.629 28.5316 64.0422 32.9537C64.2487 32.9983 64.4554 33.0216 64.6605 33.0216C64.7758 33.0216 64.8907 33.0143 65.0042 32.9997Z" fill="#A6CA3C"/>
<path d="M67.1504 39.9462C67.0721 39.9462 66.9926 39.9302 66.9163 39.8964C66.6253 39.767 66.494 39.4259 66.6233 39.1349C66.6684 39.0332 71.1035 28.8929 68.3488 22.282C67.1484 19.4006 64.9642 18.967 64.8721 18.9498C64.558 18.896 64.3487 18.5982 64.4025 18.2841C64.4566 17.97 64.7563 17.7593 65.0704 17.8131C65.1876 17.8334 67.9589 18.3455 69.414 21.838C70.6578 24.8226 70.7404 28.7261 69.6602 33.4399C68.8635 36.916 67.7259 39.4952 67.6778 39.6034C67.5823 39.8183 67.3713 39.9462 67.1504 39.9462Z" fill="#7AA110"/>
<path d="M71.825 38.2151C71.5064 38.2151 71.248 37.9568 71.248 37.6382C71.248 34.6483 71.3182 31.5257 71.827 28.9443C72.5009 25.5247 73.859 23.791 75.8638 23.791C76.9225 23.791 77.8012 24.1654 78.4759 24.9044C80.2358 26.8314 79.9149 30.607 79.9003 30.7667C79.8715 31.0842 79.5915 31.318 79.2734 31.289C78.9562 31.2603 78.7224 30.98 78.7511 30.6628C78.7539 30.6287 79.0396 27.2306 77.6226 25.6811C77.1695 25.1858 76.5943 24.9449 75.8638 24.9449C72.402 24.9449 72.402 33.8397 72.402 37.6382C72.402 37.9568 72.1436 38.2151 71.825 38.2151Z" fill="#7AA110"/>
<path d="M86.773 34.8409C86.5084 31.5017 85.2441 29.1744 83.1165 28.1106C82.1189 27.6117 81.2343 27.5632 80.4869 27.9661C79.6443 28.4205 79.2164 29.3547 79.0073 30.0412C77.5443 29.3104 76.1236 29.3485 75.1024 30.177C73.9146 31.1411 73.5701 32.9227 74.2454 34.6107C74.7739 35.9317 77.0944 38.7157 79.2282 41.2213C79.6254 41.6876 79.9392 42.0561 80.1001 42.2575C81.1901 43.6196 82.2322 43.9861 83.0376 43.9861C83.2441 43.9861 83.4354 43.9622 83.6078 43.9245C84.8511 43.6532 85.9092 42.4592 86.3033 40.883C86.5707 39.813 86.9707 37.3361 86.773 34.8409Z" fill="#7CBC59"/>
<path d="M84.9981 42.9659C84.1924 42.9659 83.1506 42.5994 82.0606 41.237C81.8995 41.0355 81.5859 40.6671 81.1887 40.2008C79.0549 37.6952 76.7341 34.9112 76.2056 33.5902C75.6117 32.1055 75.8072 30.5485 76.671 29.5391C76.0901 29.5965 75.5565 29.8084 75.1024 30.1769C73.9146 31.1406 73.5701 32.9225 74.2454 34.6106C74.7739 35.9316 77.0944 38.7153 79.2282 41.2209C79.6254 41.6874 79.9392 42.0559 80.1001 42.2571C81.1901 43.6195 82.2322 43.986 83.0376 43.986C83.2441 43.986 83.4354 43.9621 83.6078 43.9243C84.2042 43.7942 84.7578 43.451 85.2162 42.9558C85.1455 42.9617 85.0731 42.9659 84.9981 42.9659Z" fill="#5BAB30"/>
<path d="M82.7738 43.9726C82.8642 43.9816 82.9524 43.9858 83.0378 43.9858C83.2443 43.9858 83.4356 43.9619 83.6077 43.9241C83.7153 43.9008 83.8212 43.87 83.9257 43.8331C83.8866 42.7201 83.7514 40.466 83.2823 37.9646C82.5078 33.8329 81.188 30.8883 79.3537 29.187C79.1993 29.4808 79.0872 29.7789 79.0075 30.0409C78.7342 29.9043 78.462 29.7944 78.1938 29.7119C82.1264 32.7964 82.6927 41.6081 82.7738 43.9726Z" fill="#BCD76D"/>
<path d="M66.6316 42.6735C66.3434 42.6735 66.0946 42.4583 66.0594 42.1653C66.0549 42.1295 65.6191 38.5393 64.77 34.8617C63.2737 28.3835 61.815 27.2518 61.2569 27.0659C60.5405 26.827 59.9522 26.8616 59.459 27.1715C58.2585 27.9251 57.9757 30.0316 57.9732 30.0527C57.9326 30.3685 57.6435 30.5922 57.3283 30.5522C57.0125 30.5122 56.7888 30.2245 56.8282 29.9087C56.8418 29.8006 57.179 27.2445 58.8414 26.1968C59.635 25.6964 60.5703 25.6207 61.622 25.9711C63.2844 26.5253 64.6826 29.3512 65.8963 34.6107C66.7586 38.348 67.2007 41.9915 67.2052 42.0281C67.2429 42.3445 67.0173 42.6315 66.7009 42.6696C66.6775 42.6721 66.6544 42.6735 66.6316 42.6735Z" fill="#7AA110"/>
<path d="M61.6234 29.0227C60.6024 28.1942 59.1814 28.1561 57.7184 28.8869C57.5097 28.2004 57.0815 27.2659 56.2391 26.8118C55.4917 26.4089 54.6068 26.4574 53.6092 26.9563C51.4817 28.0201 50.2173 30.3474 49.9528 33.6866C49.7553 36.1818 50.1553 38.6584 50.4227 39.7284C50.8168 41.3049 51.875 42.4989 53.1182 42.7702C53.2906 42.8076 53.4816 42.8319 53.6884 42.8319C54.4938 42.8319 55.5359 42.4653 56.6256 41.1029C56.7868 40.9015 57.1006 40.5333 57.4978 40.0668C59.6313 37.5611 61.9521 34.7772 62.4806 33.4562C63.1556 31.7684 62.8114 29.9865 61.6234 29.0227Z" fill="#7CBC59"/>
<path d="M52.7307 40.3044C52.463 39.2345 52.063 36.7576 52.2608 34.2624C52.5253 30.9231 53.7897 28.5958 55.9172 27.532C56.2125 27.3844 56.4976 27.2774 56.7723 27.2086C56.6162 27.0557 56.4395 26.9199 56.239 26.8117C55.4918 26.4088 54.6069 26.4576 53.6094 26.9562C51.4818 28.02 50.2174 30.3473 49.9529 33.6865C49.7551 36.182 50.1552 38.6586 50.4228 39.7286C50.8169 41.3048 51.8748 42.4988 53.1183 42.7701C53.2907 42.8075 53.4818 42.8318 53.6883 42.8318C53.8635 42.8318 54.0497 42.8143 54.2452 42.7734C53.5423 42.2215 52.9913 41.3468 52.7307 40.3044Z" fill="#5BAB30"/>
<path d="M58.5341 28.5573C58.2653 28.6401 57.9929 28.75 57.7188 28.8869C57.652 28.6677 57.5627 28.4232 57.4449 28.1772C57.0131 28.9542 52.8768 36.5556 52.7441 42.6583C52.8667 42.7048 52.9918 42.7425 53.1185 42.7701C53.291 42.8079 53.482 42.8318 53.6885 42.8318C53.7558 42.8318 53.8248 42.829 53.8955 42.8237C53.9623 36.8005 58.4327 28.7748 58.4805 28.6894C58.5045 28.6469 58.5217 28.6024 58.5341 28.5573Z" fill="#A6CA3C"/>
<path d="M71.9889 35.2257C71.2187 34.4191 70.4025 34.0743 69.5627 34.2008C68.6161 34.3436 67.8977 35.0783 67.4689 35.6539C66.3392 34.4718 64.989 34.0272 63.7477 34.4619C62.3042 34.9676 61.3779 36.5281 61.4426 38.3449C61.4936 39.7667 62.7366 43.1711 63.8978 46.2503C64.1142 46.8239 64.2849 47.2766 64.3683 47.5206C65.0788 49.5943 66.2491 50.1631 67.1061 50.2749C67.2196 50.2899 67.3343 50.2972 67.4498 50.2972C68.6158 50.2972 69.8486 49.552 70.671 48.3235C71.2843 47.4067 72.498 45.211 73.1552 42.7958C74.035 39.5636 73.6316 36.9459 71.9889 35.2257Z" fill="#7CBC59"/>
<path d="M66.6227 46.9774C66.539 46.7334 66.3683 46.2807 66.1519 45.7074C64.991 42.6279 63.7477 39.2236 63.6967 37.8017C63.6449 36.3475 64.2283 35.0581 65.2037 34.3419C64.7146 34.2583 64.2233 34.2954 63.7477 34.4619C62.3039 34.9673 61.3776 36.5278 61.4427 38.3449C61.4934 39.7668 62.7366 43.1711 63.8979 46.2503C64.114 46.8236 64.285 47.2766 64.3683 47.5206C65.0786 49.5943 66.2491 50.1631 67.1058 50.275C67.2196 50.2899 67.3343 50.2972 67.4498 50.2972C68.0617 50.2972 68.6922 50.0916 69.2717 49.7188C68.4243 49.5797 67.3087 48.981 66.6227 46.9774Z" fill="#5BAB30"/>
<path d="M66.6328 50.1687C66.7973 50.2216 66.9565 50.2557 67.1061 50.2752C67.2199 50.2901 67.3346 50.2974 67.4501 50.2974C67.5622 50.2974 67.6749 50.2901 67.7879 50.2766C68.877 44.7027 68.0975 37.2458 67.8482 35.1997C67.7042 35.3532 67.5771 35.5087 67.469 35.6538C67.2078 35.3806 66.9345 35.1473 66.6539 34.9546C66.7954 36.0539 67.7983 44.3553 66.6328 50.1687Z" fill="#A6CA3C"/>
<path d="M214.013 40.1419L222.337 39.5142L230.406 40.1419L228.808 49.3955C228.678 50.1496 228.024 50.7004 227.258 50.7004H217.16C216.395 50.7004 215.741 50.1496 215.611 49.3955L214.013 40.1419Z" fill="#C86D36"/>
<path d="M216.221 40.1419L217.494 47.5122C217.624 48.2662 218.278 48.817 219.043 48.817H228.908L228.808 49.3955C228.678 50.1495 228.024 50.7003 227.258 50.7003H217.16C216.395 50.7003 215.741 50.1495 215.61 49.3955L214.013 40.1419L214.995 39.5142L216.221 40.1419Z" fill="#AC5E2E"/>
<path d="M220.91 28.6754C220.91 28.6754 224.669 29.171 226.049 25.4408C227.071 22.6805 228.969 20.8421 229.887 20.0727C230.069 19.9201 229.969 19.6244 229.732 19.6127C227.182 19.4865 218.448 19.6887 220.91 28.6754Z" fill="#02905D"/>
<path d="M220.735 35.4638C220.735 35.4638 225.875 36.6617 228.295 31.6817C230.085 27.9964 232.965 25.7077 234.342 24.7667C234.615 24.5801 234.516 24.1569 234.189 24.1084C230.673 23.5867 218.546 22.679 220.735 35.4638Z" fill="#97D729"/>
<path d="M223.906 28.7494C223.906 28.7494 220.138 29.1674 218.835 25.4095C217.87 22.6287 216.01 20.7515 215.108 19.9633C214.929 19.807 215.036 19.5135 215.273 19.5067C217.825 19.4331 226.553 19.8155 223.906 28.7494Z" fill="#57BE92"/>
<path d="M224.008 36.9354C224.008 36.9354 218.416 37.4788 216.561 31.8842C215.188 27.7441 212.47 24.9251 211.149 23.739C210.887 23.5039 211.051 23.071 211.403 23.0657C215.186 23.0082 228.111 23.7509 224.008 36.9354Z" fill="#BBEC6C"/>
<path d="M222.337 37.9117C222.337 37.9117 222.286 33.4318 226.856 32.3387C230.239 31.5298 232.663 29.5621 233.695 28.5936C233.9 28.4015 234.233 28.5606 234.213 28.8406C234.001 31.8503 232.532 42.0679 222.337 37.9117Z" fill="#09A76D"/>
<path d="M224.574 38.6605C224.574 38.6605 224.637 33.1475 219.012 31.8023C214.85 30.8069 211.866 28.3854 210.596 27.1935C210.344 26.9572 209.934 27.153 209.959 27.4975C210.219 31.2013 212.027 43.7751 224.574 38.6605Z" fill="#57BE92"/>
<path d="M213.414 40.1415H231.004C231.106 40.1415 231.188 40.0593 231.188 39.9579V37.3878C231.188 37.2863 231.106 37.2041 231.004 37.2041H213.414C213.313 37.2041 213.23 37.2864 213.23 37.3878V39.9579C213.23 40.0593 213.313 40.1415 213.414 40.1415Z" fill="#E19974"/>
<path d="M213.419 37.2041H216.439C216.335 37.2041 216.25 37.2888 216.25 37.3933V39.9523C216.25 40.0568 216.335 40.1415 216.439 40.1415H213.419C213.315 40.1415 213.23 40.0568 213.23 39.9523V37.3933C213.23 37.2888 213.315 37.2041 213.419 37.2041Z" fill="#DC8758"/>
<path d="M207.119 22.0548C206.014 22.3016 204.971 22.7438 204.127 23.1761C204.042 25.4431 203.53 28.052 202.074 30.4795H204.653C207.402 28.2785 208.002 24.6657 208.126 22.9099C208.166 22.3586 207.659 21.9343 207.119 22.0548Z" fill="#6DC82A"/>
<path d="M204.127 23.176C204.042 25.443 203.53 28.052 202.074 30.4794H203.507C205.105 27.8168 205.565 24.9358 205.574 22.5273C205.051 22.7275 204.563 22.9529 204.127 23.176Z" fill="#67AF28"/>
<path d="M181.061 22.0931C180.439 21.9425 179.85 22.4501 179.903 23.0881C180.056 24.9006 180.703 28.3505 183.363 30.4796H185.942C184.485 28.052 183.975 25.4433 183.889 23.1763C183.088 22.7654 182.105 22.3456 181.061 22.0931Z" fill="#67AF28"/>
<path d="M181.319 23.0881C181.29 22.7509 181.443 22.4513 181.683 22.2649C181.479 22.2019 181.271 22.144 181.061 22.0931C180.439 21.9425 179.85 22.4501 179.903 23.0881C180.056 24.9006 180.703 28.3505 183.363 30.4796H184.779C182.119 28.3504 181.471 24.9006 181.319 23.0881Z" fill="#5E9B24"/>
<path d="M202.594 17.3624C200.591 18.1917 199.196 19.5417 198.358 20.5667C199.099 22.1742 199.513 23.9633 199.513 25.8494C199.513 27.4838 199.202 29.0456 198.638 30.4794H202.145C205.055 25.6299 204.192 20.0558 203.702 17.9319C203.589 17.4402 203.061 17.1694 202.594 17.3624Z" fill="#8DCE55"/>
<path d="M199.31 19.5342C198.937 19.8929 198.62 20.2456 198.358 20.5665C199.099 22.174 199.513 23.9631 199.513 25.8492C199.513 27.4836 199.202 29.0454 198.638 30.4792H200.124C200.689 29.0454 200.999 27.4836 200.999 25.8492C200.999 23.5489 200.384 21.3922 199.31 19.5342Z" fill="#6DC82A"/>
<path d="M189.658 20.5672C188.829 19.5524 187.454 18.2191 185.482 17.3878C184.986 17.1785 184.418 17.4721 184.299 17.9976C183.808 20.1686 182.991 25.6792 185.872 30.4797H189.379C188.814 29.0459 188.504 27.4841 188.504 25.8497C188.504 23.9638 188.918 22.1747 189.658 20.5672Z" fill="#8DCE55"/>
<path d="M185.725 17.9976C185.761 17.8403 185.837 17.7043 185.939 17.5958C185.79 17.5239 185.639 17.4538 185.482 17.3878C184.986 17.1785 184.418 17.4722 184.299 17.9976C183.808 20.1687 182.991 25.6792 185.872 30.4797H187.297C184.417 25.6794 185.233 20.1687 185.725 17.9976Z" fill="#6DC82A"/>
<path d="M204.324 34.436C204.119 34.436 184.074 34.436 183.693 34.436C182.078 37.4391 182.02 41.0526 183.537 44.1075L186.015 49.0953C186.503 50.0794 187.499 50.7005 188.587 50.7005H193.709H194.308H199.43C200.518 50.7005 201.514 50.0794 202.003 49.0953L204.48 44.1075C205.997 41.0526 205.939 37.439 204.324 34.436Z" fill="#996459"/>
<path d="M187.466 49.0953L184.989 44.1075C183.471 41.0526 183.53 37.4391 185.145 34.436H183.693C182.078 37.4391 182.02 41.0526 183.537 44.1075L186.014 49.0953C186.503 50.0794 187.499 50.7005 188.587 50.7005H190.039C188.95 50.7005 187.955 50.0794 187.466 49.0953Z" fill="#7E5C62"/>
<path d="M194.62 15.8077C194.258 15.5309 193.758 15.5309 193.396 15.8077C190.379 18.1173 188.433 21.756 188.433 25.8494C188.433 27.4837 188.743 29.0456 189.308 30.4793H198.708C199.273 29.0456 199.583 27.4837 199.583 25.8494C199.583 21.756 197.637 18.1172 194.62 15.8077Z" fill="#D0EF6F"/>
<path d="M194.716 15.8833C194.684 15.8582 194.652 15.8325 194.62 15.8077C194.258 15.5309 193.758 15.5309 193.396 15.8077C190.379 18.1173 188.433 21.756 188.433 25.8494C188.433 27.4837 188.743 29.0456 189.308 30.4793H190.723C190.158 29.0456 189.848 27.4837 189.848 25.8494C189.848 21.8 191.753 18.1962 194.716 15.8833Z" fill="#B5EF14"/>
<path d="M196.107 26.0579L194.536 27.1723V24.8127L196.721 23.2626C196.96 23.093 197.016 22.7616 196.847 22.5225C196.677 22.2835 196.346 22.227 196.107 22.3967L194.536 23.5112V21.0063C194.536 20.7132 194.298 20.4756 194.005 20.4756C193.712 20.4756 193.474 20.7132 193.474 21.0063V23.5088L191.906 22.3967C191.667 22.2271 191.336 22.2835 191.166 22.5225C190.997 22.7616 191.053 23.093 191.292 23.2626L193.474 24.8104V27.17L191.906 26.0579C191.667 25.8883 191.336 25.9447 191.166 26.1838C190.997 26.4229 191.053 26.7542 191.292 26.9238L193.474 28.4715V31.0271C193.474 31.3203 193.712 31.5579 194.005 31.5579C194.298 31.5579 194.535 31.3203 194.535 31.0271V28.4738L196.721 26.9237C196.96 26.7541 197.016 26.4228 196.846 26.1837C196.677 25.9447 196.346 25.8883 196.107 26.0579Z" fill="#AEDB75"/>
<path d="M206.036 33.3872V31.6498C206.036 30.9644 205.48 30.4087 204.795 30.4087H183.222C182.537 30.4087 181.981 30.9643 181.981 31.6498V33.3872C181.981 34.0727 182.537 34.6283 183.222 34.6283H204.795C205.48 34.6283 206.036 34.0727 206.036 33.3872Z" fill="#CC905E"/>
<path d="M204.795 32.5893H183.222C182.588 32.5893 182.066 32.1131 181.991 31.499C181.985 31.5485 181.981 31.5986 181.981 31.6498V33.3873C181.981 34.0727 182.537 34.6283 183.222 34.6283H204.795C205.48 34.6283 206.036 34.0727 206.036 33.3873V31.6498C206.036 31.5986 206.032 31.5485 206.026 31.499C205.951 32.1131 205.429 32.5893 204.795 32.5893Z" fill="#BA7958"/>
<path d="M254.706 37.173C256.173 36.3492 257.79 35.8034 259.474 35.5739C259.615 35.5547 259.711 35.7121 259.63 35.8283C258.766 37.0607 257.708 38.1321 256.502 39.0049L248.703 42.4384L248.381 40.5427L254.706 37.173Z" fill="#68CA44"/>
<path d="M252.768 39.0047C255.221 37.0318 257.073 34.4046 258.104 31.4214C258.162 31.2543 257.993 31.0985 257.831 31.1695C255.473 32.204 253.395 33.764 251.749 35.7172L246.765 41.3916L247.698 41.6342L252.768 39.0047Z" fill="#80D261"/>
<path d="M249.653 39.0049L251.498 36.1228C253.315 33.2871 254.235 29.9701 254.138 26.604C254.133 26.4273 253.92 26.3413 253.794 26.465C251.694 28.5215 250.177 31.0886 249.386 33.9039L246.765 41.3919L247.698 41.6345L249.653 39.0049Z" fill="#97DA7B"/>
<path d="M248.433 39.0049L249.301 34.3922C250.053 30.3938 249.584 25.9746 247.954 22.2469C247.869 22.0512 247.591 22.0512 247.505 22.2469C245.875 25.9746 245.406 30.3938 246.158 34.3922L247.026 39.0049L247.414 40.5427H248.268L248.433 39.0049Z" fill="#ADE194"/>
<path d="M245.807 39.0049L243.961 36.1228C242.145 33.2871 241.225 29.9701 241.321 26.604C241.326 26.4273 241.539 26.3413 241.665 26.465C243.765 28.5215 245.282 31.0886 246.073 33.9039L248.504 42.7531H247.493L245.807 39.0049Z" fill="#97DA7B"/>
<path d="M240.753 37.173C239.286 36.3492 237.67 35.8034 235.985 35.5739C235.844 35.5547 235.748 35.7121 235.83 35.8283C236.693 37.0607 237.752 38.1321 238.957 39.0049L246.586 44.0426L247.086 42.6209L240.753 37.173Z" fill="#68CA44"/>
<path d="M242.692 39.0047C240.238 37.0318 238.387 34.4046 237.355 31.4214C237.297 31.2543 237.466 31.0985 237.628 31.1695C239.986 32.204 242.064 33.764 243.71 35.7172L248.066 41.3916H246.073L242.692 39.0047Z" fill="#80D261"/>
<path d="M237.083 39.6958L237.543 41.392L238.536 48.6521C238.697 49.8259 239.699 50.7007 240.884 50.7007H254.519C255.703 50.7007 256.706 49.8259 256.866 48.6521L257.86 41.392L258.395 39.6958H237.083Z" fill="#F3F0F3"/>
<path d="M258.394 39.6958H237.083L237.542 41.392L238.536 48.6521C238.696 49.8259 239.699 50.7007 240.883 50.7007H245.046C244.574 50.3319 244.243 49.7869 244.157 49.1549L243.702 45.83C243.485 44.2415 244.719 42.8266 246.323 42.8266H257.663L257.859 41.3921L258.236 40.1986L258.394 39.6958Z" fill="#E2DEE2"/>
<path d="M258.203 39.0044H237.198C236.778 39.0044 236.438 39.3451 236.438 39.7653V40.6305C236.438 40.8226 236.509 40.9975 236.627 41.1315L240.511 41.229L242.821 41.3914H258.203C258.624 41.3914 258.964 41.0507 258.964 40.6305V39.7653C258.964 39.3451 258.624 39.0044 258.203 39.0044Z" fill="#F3F0F3"/>
<path d="M242.06 40.6305V39.7653C242.06 39.3451 242.401 39.0044 242.821 39.0044H237.198C236.778 39.0044 236.438 39.3451 236.438 39.7653V40.6305C236.438 41.0507 236.778 41.3914 237.198 41.3914H242.821C242.401 41.3914 242.06 41.0507 242.06 40.6305Z" fill="#E2DEE2"/>
<path d="M247.954 22.2469C247.868 22.0512 247.591 22.0512 247.505 22.2469C247.434 22.4096 247.366 22.574 247.299 22.7393V31.8038C247.299 32.0415 247.492 32.2342 247.73 32.2342C247.967 32.2342 248.16 32.0415 248.16 31.8038V22.7393C248.093 22.5741 248.025 22.4096 247.954 22.2469Z" fill="#97DA7B"/>
<path d="M241.665 26.465C241.539 26.3413 241.326 26.4273 241.321 26.604C241.315 26.8171 241.313 27.0301 241.315 27.2427L243.966 33.8105C244.033 33.9781 244.195 34.0799 244.365 34.0799C244.419 34.0799 244.473 34.0698 244.526 34.0485C244.746 33.9595 244.853 33.7087 244.764 33.4883L242.113 26.9216C241.967 26.7669 241.818 26.6145 241.665 26.465Z" fill="#80D261"/>
<path d="M254.139 26.604C254.134 26.4273 253.92 26.3413 253.794 26.465C253.642 26.6144 253.492 26.7669 253.346 26.9216L250.695 33.4883C250.606 33.7087 250.713 33.9595 250.933 34.0485C250.986 34.0698 251.041 34.0799 251.094 34.0799C251.265 34.0799 251.426 33.9781 251.494 33.8105L254.145 27.2427C254.147 27.0301 254.145 26.8171 254.139 26.604Z" fill="#80D261"/>
<path d="M255.51 52.0002H5.48966C2.73495 52.0002 0.5 51.709 0.5 51.3502C0.5 50.9913 2.73495 50.7002 5.48966 50.7002H255.51C258.268 50.7002 260.5 50.9913 260.5 51.3502C260.5 51.709 258.268 52.0002 255.51 52.0002Z" fill="#7F441C"/>
</g>
<defs>
<clipPath id="clip0_573_14645">
<rect width="260" height="52" fill="white" transform="translate(0.5)"/>
</clipPath>
</defs>
</svg>
