<svg width="24" height="24" viewBox="0 0 24 24" fill="none" xmlns="http://www.w3.org/2000/svg">
<path fill-rule="evenodd" clip-rule="evenodd" d="M11.28 1.68581C11.5008 1.56502 11.7484 1.50171 12 1.50171C12.2516 1.50171 12.4992 1.56502 12.72 1.68581L20.97 6.20268C21.2056 6.33159 21.4023 6.52139 21.5395 6.75227C21.5643 6.79401 21.587 6.83682 21.6075 6.88054C21.6157 6.89713 21.6232 6.91389 21.63 6.93078C21.7085 7.11497 21.7495 7.31364 21.75 7.51518L21.75 16.483C21.75 16.483 21.75 16.4831 21.75 16.4831C21.75 16.7523 21.6776 17.0165 21.5404 17.248C21.4032 17.4795 21.2063 17.6699 20.9702 17.7991C20.9701 17.7991 20.9701 17.7992 20.97 17.7992L12.7202 22.316L12.72 22.3161C12.4992 22.4369 12.2516 22.5002 12 22.5002C11.7484 22.5002 11.5008 22.4369 11.28 22.3161L11.2798 22.316L3.03 17.7992C3.02994 17.7992 3.02988 17.7991 3.02982 17.7991C2.7943 17.6702 2.59769 17.4804 2.46052 17.2496C2.32331 17.0188 2.25061 16.7553 2.25 16.4867L2.25 16.485V7.51688L2.25 7.51518C2.25046 7.31363 2.29152 7.11495 2.36997 6.93077C2.3768 6.91388 2.3843 6.89713 2.39246 6.88055C2.41301 6.83683 2.43571 6.79402 2.46052 6.75227C2.59769 6.52145 2.7943 6.33169 3.02982 6.20278C3.02988 6.20274 3.02994 6.20271 3.03 6.20268L7.24874 3.89292C7.27285 3.87789 7.29774 3.86427 7.32327 3.85212L11.28 1.68581ZM7.64746 5.38472L4.46951 7.12465L12 11.2463L15.1784 9.50665L7.64746 5.38472ZM16.7405 8.65166L9.20933 4.5296L12 3.00171L19.5305 7.12465L16.7405 8.65166ZM15.75 10.9038V14.25C15.75 14.6642 16.0858 15 16.5 15C16.9142 15 17.25 14.6642 17.25 14.25V10.0828L20.25 8.44082V16.4833L20.2498 16.4834L12.75 20.5896V12.5458L15.75 10.9038ZM11.25 12.5458V20.5896L3.75 16.4833L3.75 8.44082L11.25 12.5458Z" fill="#7F8D91"/>
</svg>
