<svg width="24" height="24" viewBox="0 0 24 24" fill="none" xmlns="http://www.w3.org/2000/svg">
<path fill-rule="evenodd" clip-rule="evenodd" d="M7.5 1.5C7.91421 1.5 8.25 1.83579 8.25 2.25V3H15.75V2.25C15.75 1.83579 16.0858 1.5 16.5 1.5C16.9142 1.5 17.25 1.83579 17.25 2.25V3H19.5C20.3284 3 21 3.67157 21 4.5V19.5C21 20.3284 20.3284 21 19.5 21H4.5C3.67157 21 3 20.3284 3 19.5V4.5C3 3.67157 3.67157 3 4.5 3H6.75V2.25C6.75 1.83579 7.08579 1.5 7.5 1.5ZM6.75 4.5H4.5V7.5H19.5V4.5H17.25V5.25C17.25 5.66421 16.9142 6 16.5 6C16.0858 6 15.75 5.66421 15.75 5.25V4.5H8.25V5.25C8.25 5.66421 7.91421 6 7.5 6C7.08579 6 6.75 5.66421 6.75 5.25V4.5ZM19.5 9H4.5V19.5H19.5V9Z" fill="#7F8D91"/>
</svg>
