<svg width="18" height="18" viewBox="0 0 18 18" fill="none" xmlns="http://www.w3.org/2000/svg">
<path fill-rule="evenodd" clip-rule="evenodd" d="M6.21985 0.21967C6.51274 -0.0732233 6.98761 -0.0732233 7.28051 0.21967L9.00018 1.93934L10.7198 0.21967C11.0127 -0.0732233 11.4876 -0.0732233 11.7805 0.21967C12.0734 0.512563 12.0734 0.987437 11.7805 1.28033L9.75018 3.31066V7.70101L13.5527 5.50583L14.2757 2.80598C14.3829 2.40586 14.7941 2.16838 15.1942 2.27553C15.5943 2.38269 15.8318 2.79391 15.7246 3.19402L15.1193 5.45431L17.4291 6.02165C17.8313 6.12045 18.0773 6.52664 17.9785 6.9289C17.8797 7.33116 17.4735 7.57715 17.0713 7.47835L14.3106 6.80026L10.5003 9L14.3106 11.1997L17.0713 10.5216C17.4735 10.4228 17.8797 10.6688 17.9785 11.0711C18.0773 11.4734 17.8313 11.8795 17.4291 11.9784L15.1193 12.5457L15.7246 14.806C15.8318 15.2061 15.5943 15.6173 15.1942 15.7245C14.7941 15.8316 14.3829 15.5941 14.2757 15.194L13.5527 12.4942L9.75018 10.299V14.6893L11.7805 16.7197C12.0734 17.0126 12.0734 17.4874 11.7805 17.7803C11.4876 18.0732 11.0127 18.0732 10.7198 17.7803L9.00018 16.0607L7.28051 17.7803C6.98761 18.0732 6.51274 18.0732 6.21985 17.7803C5.92695 17.4874 5.92695 17.0126 6.21985 16.7197L8.25018 14.6893V10.299L4.4477 12.4942L3.72464 15.194C3.61749 15.5941 3.20627 15.8316 2.80615 15.7245C2.40604 15.6173 2.16855 15.2061 2.27571 14.806L2.88104 12.5457L0.571274 11.9784C0.169017 11.8795 -0.0769797 11.4734 0.0218245 11.0711C0.120629 10.6688 0.526819 10.4228 0.929076 10.5216L3.68973 11.1997L7.50009 9L3.68973 6.80026L0.929076 7.47835C0.526819 7.57715 0.120629 7.33116 0.0218245 6.9289C-0.0769797 6.52664 0.169017 6.12045 0.571274 6.02165L2.88104 5.45431L2.27571 3.19402C2.16855 2.79391 2.40604 2.38269 2.80615 2.27553C3.20627 2.16838 3.61749 2.40586 3.72464 2.80598L4.4477 5.50582L8.25018 7.70101V3.31066L6.21985 1.28033C5.92695 0.987437 5.92695 0.512563 6.21985 0.21967Z" fill="#556065"/>
</svg>
