<svg width="24" height="24" viewBox="0 0 24 24" fill="none" xmlns="http://www.w3.org/2000/svg">
<path fill-rule="evenodd" clip-rule="evenodd" d="M7.3125 5.25C6.16875 5.25 5.07185 5.70435 4.2631 6.5131C3.45435 7.32185 3 8.41875 3 9.5625C3 10.9107 3.53213 12.2542 4.39624 13.5421C5.25918 14.8282 6.42391 16.0145 7.61264 17.0317C8.79843 18.0465 9.98789 18.876 10.8827 19.4525C11.3294 19.7403 11.7008 19.9638 11.9592 20.1146C11.9731 20.1228 11.9867 20.1307 12 20.1384C12.0133 20.1307 12.0269 20.1228 12.0408 20.1146C12.2992 19.9638 12.6706 19.7403 13.1173 19.4525C14.0121 18.876 15.2016 18.0465 16.3874 17.0317C17.5761 16.0145 18.7408 14.8282 19.6038 13.5421C20.4679 12.2542 21 10.9107 21 9.5625C21 8.41875 20.5456 7.32185 19.7369 6.5131C18.9281 5.70435 17.8312 5.25 16.6875 5.25C14.8465 5.25 13.3242 6.24471 12.6941 7.78413C12.5787 8.06591 12.3045 8.25 12 8.25C11.6955 8.25 11.4213 8.06591 11.3059 7.78413C10.6758 6.24471 9.15347 5.25 7.3125 5.25ZM12 21C11.6444 21.6604 11.6442 21.6602 11.644 21.6601L11.6433 21.6598L11.6414 21.6587L11.6348 21.6551L11.6112 21.6423C11.591 21.6312 11.5618 21.615 11.5242 21.594C11.4491 21.552 11.3404 21.4903 11.2029 21.41C10.9281 21.2496 10.5378 21.0146 10.0704 20.7135C9.13711 20.1123 7.88907 19.2426 6.63736 18.1714C5.38859 17.1027 4.11582 15.8163 3.15064 14.3778C2.18662 12.9411 1.5 11.308 1.5 9.5625C1.5 8.02093 2.11239 6.5425 3.20244 5.45244C4.2925 4.36239 5.77093 3.75 7.3125 3.75C9.21276 3.75 10.9312 4.57707 12 5.99418C13.0688 4.57707 14.7872 3.75 16.6875 3.75C18.2291 3.75 19.7075 4.36239 20.7976 5.45244C21.8876 6.5425 22.5 8.02093 22.5 9.5625C22.5 11.308 21.8134 12.9411 20.8494 14.3778C19.8842 15.8163 18.6114 17.1027 17.3626 18.1714C16.1109 19.2426 14.8629 20.1123 13.9296 20.7135C13.4622 21.0146 13.0719 21.2496 12.7971 21.41C12.6596 21.4903 12.5509 21.552 12.4758 21.594C12.4382 21.615 12.409 21.6312 12.3888 21.6423L12.3652 21.6551L12.3586 21.6587L12.3567 21.6598L12.356 21.6601C12.3558 21.6602 12.3556 21.6604 12 21ZM12 21L12.3556 21.6604C12.1336 21.7799 11.8664 21.7799 11.6444 21.6604L12 21Z" fill="#7F8D91"/>
</svg>
