<svg width="24" height="24" viewBox="0 0 24 24" fill="none" xmlns="http://www.w3.org/2000/svg">
<path fill-rule="evenodd" clip-rule="evenodd" d="M4.18934 4.18934C4.47064 3.90804 4.85217 3.75 5.25 3.75H6.75C7.16421 3.75 7.5 4.08579 7.5 4.5C7.5 4.91421 7.16421 5.25 6.75 5.25L5.25 5.25L5.25 7.5C5.25 7.91421 4.91421 8.25 4.5 8.25C4.08579 8.25 3.75 7.91421 3.75 7.5V5.25C3.75 4.85217 3.90804 4.47064 4.18934 4.18934ZM9.75 4.5C9.75 4.08579 10.0858 3.75 10.5 3.75H13.5C13.9142 3.75 14.25 4.08579 14.25 4.5C14.25 4.91421 13.9142 5.25 13.5 5.25H10.5C10.0858 5.25 9.75 4.91421 9.75 4.5ZM16.5 4.5C16.5 4.08579 16.8358 3.75 17.25 3.75H18.75C19.1478 3.75 19.5294 3.90804 19.8107 4.18934C20.092 4.47065 20.25 4.85218 20.25 5.25V6.75C20.25 7.16421 19.9142 7.5 19.5 7.5C19.0858 7.5 18.75 7.16421 18.75 6.75L18.75 5.25L17.25 5.25C16.8358 5.25 16.5 4.91421 16.5 4.5ZM19.5 9.75C19.9142 9.75 20.25 10.0858 20.25 10.5V13.5C20.25 13.9142 19.9142 14.25 19.5 14.25C19.0858 14.25 18.75 13.9142 18.75 13.5V10.5C18.75 10.0858 19.0858 9.75 19.5 9.75ZM3.75 11.25C3.75 10.8358 4.08579 10.5 4.5 10.5H12.75C13.1642 10.5 13.5 10.8358 13.5 11.25V19.5C13.5 19.9142 13.1642 20.25 12.75 20.25H4.5C4.08579 20.25 3.75 19.9142 3.75 19.5V11.25ZM5.25 12V18.75H12V12H5.25ZM19.5 16.5C19.9142 16.5 20.25 16.8358 20.25 17.25V18.75C20.25 19.1478 20.092 19.5294 19.8107 19.8107C19.5294 20.092 19.1478 20.25 18.75 20.25H16.5C16.0858 20.25 15.75 19.9142 15.75 19.5C15.75 19.0858 16.0858 18.75 16.5 18.75H18.75V17.25C18.75 16.8358 19.0858 16.5 19.5 16.5Z" fill="#556065"/>
</svg>
