<svg width="32" height="32" viewBox="0 0 32 32" fill="none" xmlns="http://www.w3.org/2000/svg">
<path d="M22.6667 29.3332C22.5067 29.3332 22.36 29.2932 22.2267 29.2265C21.96 29.0932 15.6667 25.8932 15.6667 21.3332C15.6667 20.2665 16.08 19.2665 16.84 18.5065C18.3334 17.0132 21 17.0132 22.4934 18.5065C22.5467 18.5598 22.6134 18.6265 22.6667 18.6932C22.72 18.6265 22.7734 18.5732 22.84 18.5065C24.3334 17.0132 27 17.0132 28.4934 18.5065C29.2534 19.2665 29.6667 20.2665 29.6667 21.3332C29.6667 25.8932 23.3867 29.0932 23.1067 29.2265C22.96 29.2932 22.8134 29.3332 22.6667 29.3332ZM19.6667 19.3332C19.1334 19.3332 18.6267 19.5465 18.2534 19.9198C17.88 20.2932 17.6667 20.7998 17.6667 21.3332C17.6667 23.8532 20.9467 26.2265 22.6667 27.1998C24.3867 26.2265 27.6667 23.8532 27.6667 21.3332C27.6667 20.7998 27.4534 20.2932 27.08 19.9198C26.3334 19.1732 25 19.1732 24.2534 19.9198C23.88 20.2932 23.6667 20.7998 23.6667 21.3332C23.6667 21.8665 23.2134 22.3332 22.6667 22.3332C22.12 22.3332 21.6667 21.8798 21.6667 21.3332C21.6667 20.7865 21.4534 20.2932 21.08 19.9198C20.7067 19.5465 20.2 19.3332 19.6667 19.3332ZM12.92 27.9998H4.66669C4.13335 27.9998 3.62669 27.7865 3.25335 27.4132C2.88002 27.0398 2.66669 26.5332 2.66669 25.9998V4.6665C2.66669 4.13317 2.88002 3.6265 3.25335 3.25317C3.64002 2.87984 4.13335 2.6665 4.66669 2.6665H24.6667C25.1867 2.6665 25.7067 2.87984 26.08 3.25317C26.4534 3.6265 26.6667 4.1465 26.6667 4.6665V13.3732C26.6667 13.9198 26.2134 14.3732 25.6667 14.3732C25.12 14.3732 24.6667 13.9198 24.6667 13.3732V4.6665H4.66669V25.9998H12.92C13.4667 25.9998 13.92 26.4532 13.92 26.9998C13.92 27.5465 13.4667 27.9998 12.92 27.9998ZM13.3334 18.3332H9.33335C8.78669 18.3332 8.33335 17.8798 8.33335 17.3332C8.33335 16.7865 8.78669 16.3332 9.33335 16.3332H13.3334C13.88 16.3332 14.3334 16.7865 14.3334 17.3332C14.3334 17.8798 13.88 18.3332 13.3334 18.3332ZM17.3334 14.3332H9.33335C8.78669 14.3332 8.33335 13.8798 8.33335 13.3332C8.33335 12.7865 8.78669 12.3332 9.33335 12.3332H17.3334C17.88 12.3332 18.3334 12.7865 18.3334 13.3332C18.3334 13.8798 17.88 14.3332 17.3334 14.3332ZM20 10.3332H9.33335C8.78669 10.3332 8.33335 9.87984 8.33335 9.33317C8.33335 8.7865 8.78669 8.33317 9.33335 8.33317H20C20.5467 8.33317 21 8.7865 21 9.33317C21 9.87984 20.5467 10.3332 20 10.3332Z" fill="#7F8D91"/>
</svg>
