<svg width="32" height="32" viewBox="0 0 32 32" fill="none" xmlns="http://www.w3.org/2000/svg">
<path d="M29.4151 10.1713L21.8326 2.58504C21.0526 1.80629 19.7851 1.80629 19.0038 2.58504L12.2976 9.31004C10.9651 8.89254 7.92381 8.38754 4.75006 10.9488C3.88881 11.6375 3.75006 12.8988 4.43881 13.76C4.48506 13.8175 4.53506 13.8738 4.58756 13.925L10.6238 19.9613L5.29381 25.2913C4.90381 25.6813 4.90381 26.315 5.29381 26.705C5.48881 26.9 5.74506 26.9975 6.00131 26.9975C6.25756 26.9975 6.51256 26.9 6.70881 26.705L12.0388 21.375L18.0776 27.4138C18.4663 27.8 18.9763 27.9938 19.4863 27.9938C19.9963 27.9938 20.5163 27.7963 20.9076 27.4025C20.9688 27.3413 21.0263 27.275 21.0813 27.2025C22.2201 25.6875 23.8626 22.785 22.7313 19.7038L29.4151 12.9988C30.1938 12.2188 30.1938 10.9513 29.4151 10.1713ZM28.0001 11.585L20.8376 18.77C20.5338 19.075 20.4588 19.5388 20.6513 19.9238C21.8338 22.2863 20.4263 24.745 19.4888 25.9975L6.00256 12.51C7.51131 11.2925 8.95631 10.9713 10.0613 10.9713C11.2476 10.9713 12.0426 11.3413 12.1013 11.37C12.4863 11.5625 12.9526 11.4863 13.2563 11.1813L20.4176 4.00004L28.0013 11.585H28.0001Z" fill="#7F8D91"/>
</svg>
