<svg width="20" height="20" viewBox="0 0 20 20" fill="none" xmlns="http://www.w3.org/2000/svg">
<path d="M19.0612 6.62822L13.3744 0.938535C12.7894 0.354473 11.8387 0.354473 11.2528 0.938535L6.22311 5.98229C5.22373 5.66916 2.9428 5.29041 0.562484 7.21135C-0.0834536 7.72791 -0.187516 8.67385 0.329046 9.31979C0.363734 9.36291 0.401234 9.4051 0.440609 9.44353L4.9678 13.9707L0.970296 17.9682C0.677796 18.2607 0.677796 18.736 0.970296 19.0285C1.11655 19.1748 1.30873 19.2479 1.50092 19.2479C1.69311 19.2479 1.88436 19.1748 2.03155 19.0285L6.02905 15.031L10.5581 19.5601C10.8497 19.8498 11.2322 19.9951 11.6147 19.9951C11.9972 19.9951 12.3872 19.847 12.6806 19.5517C12.7265 19.5057 12.7697 19.456 12.8109 19.4017C13.665 18.2654 14.8969 16.0885 14.0484 13.7776L19.0612 8.74885C19.6453 8.16385 19.6453 7.21322 19.0612 6.62822ZM18 7.68854L12.6281 13.0773C12.4003 13.306 12.344 13.6538 12.4884 13.9426C13.3753 15.7145 12.3197 17.5585 11.6165 18.4979L1.50186 8.38229C2.63342 7.46916 3.71717 7.22822 4.54592 7.22822C5.43561 7.22822 6.03186 7.50572 6.07592 7.52729C6.36467 7.67166 6.71436 7.61447 6.94217 7.38572L12.3131 1.99979L18.0009 7.68854H18Z" fill="#556065"/>
</svg>
