<svg width="24" height="24" viewBox="0 0 24 24" fill="none" xmlns="http://www.w3.org/2000/svg">
<path d="M19.2572 14.9129C18.3581 15.4594 17.3254 15.7469 16.2732 15.7435C15.3916 15.7365 14.5201 15.5562 13.7082 15.2129C13.0824 16.0963 12.7475 17.1528 12.75 18.2354V21.0001C12.7503 21.1029 12.7293 21.2046 12.6886 21.299C12.6478 21.3934 12.5881 21.4784 12.5131 21.5488C12.4381 21.6191 12.3495 21.6733 12.2526 21.7079C12.1558 21.7425 12.0529 21.7569 11.9503 21.7501C11.7576 21.7333 11.5783 21.6442 11.4484 21.5008C11.3185 21.3574 11.2477 21.1701 11.25 20.9766V19.8104L7.62941 16.1897C7.09119 16.3905 6.52197 16.4956 5.94753 16.5001C5.15673 16.502 4.38073 16.2856 3.70503 15.8747C1.66222 14.6335 0.562535 11.7769 0.775347 8.23037C0.786062 8.04689 0.863779 7.87373 0.993742 7.74376C1.1237 7.6138 1.29686 7.53608 1.48035 7.52537C5.02691 7.31631 7.88347 8.41224 9.12097 10.4551C9.60717 11.2558 9.81944 12.193 9.72566 13.1251C9.71983 13.1973 9.69321 13.2663 9.64901 13.3237C9.60481 13.3811 9.54493 13.4244 9.4766 13.4485C9.40828 13.4726 9.33444 13.4764 9.264 13.4594C9.19357 13.4425 9.12957 13.4054 9.07972 13.3529L7.27972 11.4685C7.13793 11.3338 6.94911 11.2598 6.75354 11.2623C6.55797 11.2648 6.37111 11.3436 6.23281 11.4819C6.09451 11.6202 6.01571 11.8071 6.0132 12.0026C6.0107 12.1982 6.08469 12.387 6.21941 12.5288L11.2707 17.7085C11.2763 17.6354 11.2828 17.5622 11.2903 17.4901C11.4544 16.0995 12.068 14.8006 13.0378 13.7907L17.7807 8.77881C17.9214 8.6382 18.0005 8.44745 18.0006 8.24851C18.0007 8.04958 17.9217 7.85876 17.7811 7.71803C17.6405 7.5773 17.4498 7.49819 17.2508 7.4981C17.0519 7.49801 16.8611 7.57695 16.7203 7.71756L12.1266 12.5757C12.0806 12.6244 12.0224 12.6599 11.9581 12.6785C11.8937 12.6971 11.8256 12.6981 11.7607 12.6815C11.6958 12.6648 11.6366 12.6311 11.5892 12.5838C11.5417 12.5365 11.5078 12.4774 11.491 12.4126C11.0466 10.7738 11.2425 9.14256 12.091 7.74193C13.7653 4.97818 17.6616 3.49881 22.5141 3.78381C22.6976 3.79452 22.8707 3.87224 23.0007 4.0022C23.1307 4.13216 23.2084 4.30533 23.2191 4.48881C23.5003 9.34225 22.021 13.2385 19.2572 14.9129Z" fill="#7F8D91"/>
</svg>
