<svg width="22" height="18" viewBox="0 0 22 18" fill="none" xmlns="http://www.w3.org/2000/svg">
<path fill-rule="evenodd" clip-rule="evenodd" d="M4.25 0.75C4.25 0.335786 4.58579 0 5 0H17C17.4142 0 17.75 0.335786 17.75 0.75V3.75H19.1253C20.3791 3.75 21.5 4.70164 21.5 6V13.5C21.5 13.9142 21.1642 14.25 20.75 14.25H17.75V17.25C17.75 17.6642 17.4142 18 17 18H5C4.58579 18 4.25 17.6642 4.25 17.25V14.25H1.25C0.835786 14.25 0.5 13.9142 0.5 13.5V6C0.5 4.70164 1.62094 3.75 2.87469 3.75H4.25V0.75ZM2.87469 5.25C2.33406 5.25 2 5.64086 2 6V12.75H4.25V11.25C4.25 10.8358 4.58579 10.5 5 10.5H17C17.4142 10.5 17.75 10.8358 17.75 11.25V12.75H20V6C20 5.64086 19.6659 5.25 19.1253 5.25H2.87469ZM16.25 3.75H5.75V1.5H16.25V3.75ZM16.25 12H5.75V16.5H16.25V12Z" fill="#202325"/>
<path d="M16.625 9C17.2463 9 17.75 8.49632 17.75 7.875C17.75 7.25368 17.2463 6.75 16.625 6.75C16.0037 6.75 15.5 7.25368 15.5 7.875C15.5 8.49632 16.0037 9 16.625 9Z" fill="#202325"/>
</svg>
