<svg width="18" height="18" viewBox="0 0 18 18" fill="none" xmlns="http://www.w3.org/2000/svg">
<path fill-rule="evenodd" clip-rule="evenodd" d="M4.93934 0.43934C5.22064 0.158036 5.60217 0 6 0H16.5C16.8978 0 17.2794 0.158035 17.5607 0.43934C17.842 0.720645 18 1.10218 18 1.5V11.25C18 11.6478 17.842 12.0294 17.5607 12.3107C17.2794 12.592 16.8978 12.75 16.5 12.75H6.31066L7.28033 13.7197C7.57322 14.0126 7.57322 14.4874 7.28033 14.7803C6.98744 15.0732 6.51256 15.0732 6.21967 14.7803L3.96967 12.5303C3.67678 12.2374 3.67678 11.7626 3.96967 11.4697L6.21967 9.21967C6.51256 8.92678 6.98744 8.92678 7.28033 9.21967C7.57322 9.51256 7.57322 9.98744 7.28033 10.2803L6.31066 11.25H16.5V1.5H6L6 2.25C6 2.66421 5.66421 3 5.25 3C4.83579 3 4.5 2.66421 4.5 2.25V1.5C4.5 1.10217 4.65804 0.720644 4.93934 0.43934ZM10.7197 3.21967C11.0126 2.92678 11.4874 2.92678 11.7803 3.21967L14.0303 5.46967C14.3232 5.76256 14.3232 6.23744 14.0303 6.53033L11.7803 8.78033C11.4874 9.07322 11.0126 9.07322 10.7197 8.78033C10.4268 8.48744 10.4268 8.01256 10.7197 7.71967L11.6893 6.75L1.5 6.75L1.5 16.5H12V15.75C12 15.3358 12.3358 15 12.75 15C13.1642 15 13.5 15.3358 13.5 15.75V16.5C13.5 16.8978 13.342 17.2794 13.0607 17.5607C12.7794 17.842 12.3978 18 12 18H1.5C1.10218 18 0.720645 17.842 0.43934 17.5607C0.158035 17.2794 0 16.8978 0 16.5V6.75C0 6.35217 0.158036 5.97064 0.43934 5.68934C0.720644 5.40804 1.10217 5.25 1.5 5.25H11.6893L10.7197 4.28033C10.4268 3.98744 10.4268 3.51256 10.7197 3.21967Z" fill="#556065"/>
</svg>
