<svg width="24" height="24" viewBox="0 0 24 24" fill="none" xmlns="http://www.w3.org/2000/svg">
<path fill-rule="evenodd" clip-rule="evenodd" d="M5.05954 3.00001L5.0625 3H18.9376C19.2635 3.00006 19.5804 3.10623 19.8406 3.30243C20.1007 3.49864 20.2899 3.77422 20.3795 4.0875L21.7213 8.7944C21.7403 8.86127 21.75 8.93046 21.75 9V10.5C21.75 11.4946 21.3549 12.4484 20.6516 13.1516C20.5254 13.2779 20.3911 13.3942 20.25 13.5V20.25C20.25 20.6642 19.9142 21 19.5 21H4.5C4.08579 21 3.75 20.6642 3.75 20.25V13.5C3.60885 13.3942 3.47457 13.2779 3.34835 13.1516C2.64509 12.4484 2.25 11.4946 2.25 10.5V9C2.25 8.93033 2.25971 8.86099 2.27885 8.794L3.62329 4.08751C3.71263 3.77515 3.90096 3.50024 4.15997 3.30413C4.41898 3.10801 4.73466 3.00129 5.05954 3.00001ZM4.96407 12.4973C4.90857 12.4536 4.84672 12.4175 4.78015 12.3906C4.64717 12.3048 4.52264 12.2046 4.40901 12.091C3.98705 11.669 3.75 11.0967 3.75 10.5V9.75H8.25V10.5C8.25 11.0967 8.01295 11.669 7.59099 12.091C7.16903 12.5129 6.59674 12.75 6 12.75C5.63608 12.75 5.28126 12.6618 4.96407 12.4973ZM5.25 14.1742V19.5H18.75V14.1742C18.505 14.2243 18.2538 14.25 18 14.25C17.0054 14.25 16.0516 13.8549 15.3483 13.1516C15.2221 13.0254 15.1059 12.8912 15 12.75C14.8941 12.8912 14.7779 13.0254 14.6517 13.1516C13.9484 13.8549 12.9946 14.25 12 14.25C11.0054 14.25 10.0516 13.8549 9.34835 13.1516C9.22214 13.0254 9.10586 12.8912 9 12.75C8.89414 12.8912 8.77786 13.0254 8.65165 13.1516C7.94839 13.8549 6.99456 14.25 6 14.25C5.74618 14.25 5.49502 14.2243 5.25 14.1742ZM9.75 10.5C9.75 11.0967 9.98705 11.669 10.409 12.091C10.831 12.5129 11.4033 12.75 12 12.75C12.5967 12.75 13.169 12.5129 13.591 12.091C14.0129 11.669 14.25 11.0967 14.25 10.5V9.75H9.75V10.5ZM20.0063 8.25L18.9374 4.5H5.06546L3.99424 8.25H20.0063ZM20.25 9.75H15.75V10.5C15.75 11.0967 15.9871 11.669 16.409 12.091C16.831 12.5129 17.4033 12.75 18 12.75C18.3639 12.75 18.7187 12.6618 19.0359 12.4973C19.0914 12.4536 19.1533 12.4175 19.2199 12.3906C19.3528 12.3048 19.4774 12.2046 19.591 12.091C20.0129 11.669 20.25 11.0967 20.25 10.5V9.75Z" fill="#7F8D91"/>
</svg>
