<svg width="21" height="21" viewBox="0 0 21 21" fill="none" xmlns="http://www.w3.org/2000/svg">
<path fill-rule="evenodd" clip-rule="evenodd" d="M0 0.75C0 0.335786 0.335786 0 0.75 0H9.44003C9.83733 0.000184223 10.2183 0.157977 10.4994 0.43875L19.811 9.7503C20.092 10.0316 20.2501 10.4131 20.2501 10.8108C20.2501 11.2084 20.0922 11.5898 19.8111 11.8711L11.8742 19.8109C11.5929 20.092 11.2112 20.2501 10.8136 20.2501C10.4159 20.2501 10.0346 20.0922 9.75328 19.8111L0.43875 10.4994C0.157977 10.2183 0.000184223 9.83733 8.9407e-08 9.44003L0 0.75ZM1.5 1.5V9.43934L10.8136 18.7501L18.7501 10.8108L9.43934 1.5L1.5 1.5Z" fill="#7F8D91"/>
<path d="M4.875 6C5.49632 6 6 5.49632 6 4.875C6 4.25368 5.49632 3.75 4.875 3.75C4.25368 3.75 3.75 4.25368 3.75 4.875C3.75 5.49632 4.25368 6 4.875 6Z" fill="#7F8D91"/>
</svg>
