<svg width="86" height="86" viewBox="0 0 86 86" fill="none" xmlns="http://www.w3.org/2000/svg">
<g filter="url(#filter0_dd_3791_3297)">
<rect x="11" y="10" width="64" height="64" rx="32" fill="#539461"/>
<rect x="9.5" y="8.5" width="67" height="67" rx="33.5" stroke="#96BF9C" stroke-width="3"/>
<path d="M27.6456 45.9941C27.7566 45.8503 34.0666 44.9759 33.7187 44.5106V41.7521C33.7187 41.5852 33.5815 41.4464 33.4107 41.4452C32.8308 41.3039 30.5849 42.1357 30.5388 41.4305L30.4328 35.9962C30.429 35.8184 30.2731 35.682 30.0923 35.6966C29.3167 35.76 28.5335 35.8087 27.7641 35.9037C27.5322 35.9317 26.2714 35.9682 26.0856 36.1923C25.8923 36.4261 26.1579 37.5576 26.1853 37.7951C26.3612 39.3589 26.6779 40.9251 26.8887 42.4865C27.0159 42.495 26.9573 46.3071 27.6456 45.9941Z" fill="white"/>
<path d="M41.0949 45.0502C41.4042 44.9174 41.933 44.7067 41.9916 44.3474C42.1499 43.3439 42.236 42.4779 42.2347 41.6059C42.2285 41.517 42.1287 41.4683 42.0527 41.5146C40.8243 42.2624 38.9002 43.0979 37.9537 41.6388C37.9075 41.5669 37.9512 41.4732 38.036 41.4598L43.0765 40.6523C43.71 38.6354 42.7236 35.8294 40.4702 35.1413C31.7085 33.0708 32.3569 48.3142 41.0949 45.0502ZM37.6868 39.4527C37.7342 37.9035 40.0549 37.23 40.0362 39.2005C40.0312 39.2554 39.9863 39.298 39.9302 39.3041C39.8641 39.2602 37.592 39.7035 37.6868 39.4527Z" fill="white"/>
<path d="M61.5664 36.4006L54.3759 35.6041C54.2462 35.5894 54.129 35.6808 54.114 35.8087L53.059 45.144C53.0441 45.2731 53.1413 45.3875 53.2735 45.3997L56.4971 45.6823C57.0882 45.8881 56.8937 41.6839 57.4885 41.8946C60.2956 42.0188 59.8766 42.9176 60.4864 40.0799C60.363 39.6463 57.5072 39.9033 57.6357 39.3808C57.6656 39.1896 57.5808 38.6951 57.9188 38.7304L60.883 38.9777C60.9977 38.9874 61.1025 38.9156 61.1311 38.8072C61.2633 38.1227 61.8756 36.565 61.5664 36.4006Z" fill="white"/>
<path d="M36.9972 33.4386C37.5259 33.3485 39.5748 33.4593 40.0848 33.1768C40.2607 29.6509 40.4066 26.4344 40.7882 22.7539C40.7794 22.3678 41.0201 22.095 40.6797 22L36.6991 22.2131C36.5881 22.2192 36.5009 22.3081 36.5009 22.4165V33.3595C36.5507 33.5117 36.6555 33.4532 36.9972 33.4386Z" fill="white"/>
<path d="M45.8907 38.8991L45.8864 39.1512L49.4549 39.2096L49.4593 38.9575L45.8907 38.8991Z" fill="white"/>
<path d="M46.5021 38.5782C46.9111 38.6391 48.2131 38.6525 48.6333 38.6123C48.9513 38.5819 48.955 38.3602 48.6383 38.32C48.4986 38.3078 45.5681 38.0849 46.5021 38.5782Z" fill="white"/>
<path d="M46.9473 37.5442C47.0097 37.5332 48.4961 37.6063 48.4974 37.5235C48.5385 37.4602 48.4674 37.297 48.4001 37.2762L46.9523 37.2531C46.8288 37.2507 46.8238 37.5418 46.9473 37.5442Z" fill="white"/>
<path d="M51.9592 44.5898C51.9404 44.3146 52.0065 43.6642 51.6374 43.6873C51.6038 43.6484 51.6723 43.3548 51.6175 43.2355C51.4204 42.9054 51.2384 42.9006 50.8855 42.8433C50.9478 41.9238 50.8007 40.919 49.9926 40.3503C50.0312 40.036 50.1584 39.7048 49.8317 39.5209C50.0474 39.3114 50.1933 38.8936 49.9302 38.6854C49.9078 38.4406 49.6746 38.3967 49.5287 38.2932C49.6409 37.6416 49.4077 37.7074 49.1521 37.342C49.0847 37.1057 49.2344 36.7525 49.1895 36.5723C49.0536 36.1728 48.7879 36.118 48.5074 35.9889C48.4413 35.7794 48.4787 35.5919 48.2068 35.5164C48.0996 35.4068 48.127 35.2387 47.819 35.2691L47.824 34.4653C47.794 34.3691 47.6594 34.3959 47.5758 34.3935L47.5621 35.2034C47.4037 35.3386 47.2715 35.2643 47.2054 35.4993C46.9261 35.57 46.9473 35.7673 46.8899 35.9633C46.6518 36.0644 46.3263 36.1339 46.1966 36.4895C46.3637 37.9741 45.6604 37.1191 45.7888 38.2323C45.275 38.3992 45.0269 39.0544 45.4434 39.449C45.1117 39.6219 45.2276 39.9581 45.2538 40.2735C44.4245 40.8045 44.2462 41.8227 44.2774 42.7349C43.9133 42.7788 43.7137 42.7922 43.5179 43.1307C43.4843 43.2318 43.5279 43.5217 43.4967 43.5546C43.0765 43.4986 43.1713 44.4729 43.1401 44.7384C42.7622 45.3644 51.7422 45.01 51.8108 45.1622C51.9804 45.0855 51.9604 44.7518 51.9592 44.5898ZM45.6267 38.9618C45.7489 38.8912 45.7364 38.7451 45.7975 38.6659C46.3225 38.4369 46.1517 38.3237 46.2053 37.8523C46.8538 37.3201 46.4747 37.2117 46.6343 36.5504C46.7428 36.3153 47.1755 36.3677 47.279 36.2496C47.3339 36.185 47.2778 35.9962 47.3613 35.8891C47.4025 35.8367 47.6382 35.6382 47.7043 35.6382C47.7691 35.6394 47.9973 35.8464 48.0372 35.9012C48.117 36.0096 48.0547 36.1972 48.1083 36.2629C48.2068 36.3847 48.642 36.3458 48.7418 36.5857C48.879 37.2482 48.4974 37.353 49.1259 37.8998C49.1596 38.3712 48.9949 38.4844 49.5062 38.7268C49.5636 38.8072 49.5461 38.9533 49.6659 39.0288C48.955 39.9898 50.045 39.6305 49.4726 40.2955C49.3678 40.0799 49.2207 39.8935 49.0448 39.7401L49.2755 39.7437L49.2793 39.4953C48.3764 39.5343 47.5621 38.8754 46.6617 39.4514L45.9173 39.4393L45.9135 39.6889L46.3138 39.695C46.0993 39.8741 45.9185 40.0884 45.8 40.3076C45.7776 40.1578 45.6005 40.0312 45.603 39.913C45.6055 39.7547 45.7589 39.7791 45.8063 39.6487C45.9397 39.2834 45.6155 39.0069 45.6267 38.9618ZM44.538 43.9504L46.4747 43.9821L46.4635 44.6677L46.3986 44.7286L43.5678 44.6824L43.5803 43.9346C44.0704 43.8883 43.8621 43.5339 43.9719 43.2087C44.0666 43.0991 44.5405 43.16 44.639 42.9529C44.7039 42.0456 44.639 40.8983 45.704 40.5171C45.4322 41.2491 45.6978 42.1162 46.0981 42.8531L44.9832 42.8348C44.8984 42.8336 44.8947 43.0832 44.9782 43.0845L46.2427 43.1052C46.3238 43.2391 46.4073 43.3658 46.4909 43.4864C46.4896 43.5789 46.4722 43.6666 46.4148 43.7312L44.4782 43.6995C44.437 43.8079 44.4333 43.8883 44.538 43.9504ZM48.4201 44.7627L46.7178 44.7347L46.7328 43.8116C47.5608 44.8188 47.5783 44.9138 48.4338 43.9346L48.4201 44.7627ZM47.6045 44.306C46.2764 43.1685 44.8086 40.2333 47.2578 39.5489C50.57 39.3674 49.3229 43.0747 47.6045 44.306ZM51.5277 44.8127L48.7393 44.7676L48.6769 44.7043L48.6869 44.0807L48.753 44.0186L50.6685 44.0503C50.752 44.0515 50.757 43.8018 50.6722 43.8006L48.7568 43.7701C48.7293 43.7324 48.7094 43.6776 48.6981 43.6167C48.8154 43.4669 48.9264 43.311 49.0274 43.1502L50.2145 43.1697C50.2969 43.1709 50.3442 42.9225 50.2195 42.92L49.1758 42.903C49.5848 42.1783 49.8043 41.3709 49.5885 40.6085C50.5724 40.9811 50.4864 42.1966 50.5151 43.0491C50.6074 43.2586 51.0837 43.2148 51.1748 43.3268L51.2247 43.8919L51.5402 44.0649L51.5277 44.8127Z" fill="white"/>
<path d="M47.9661 36.2459C48.011 35.9974 47.7105 36.0474 47.5347 36.0644C47.1531 36.1692 47.7928 36.4749 47.9661 36.2459Z" fill="white"/>
<path d="M48.5111 42.0687C47.5222 43.3305 45.8337 41.4951 47.0483 40.5402C48.0696 39.7766 49.1571 41.1456 48.5111 42.0687Z" fill="white"/>
<path d="M40.9752 56.4206C40.6286 54.2149 40.949 51.9582 40.9104 49.7343C40.9129 49.5041 40.9129 49.2641 40.8942 49.0376C40.878 48.4226 40.9004 47.5956 40.4203 47.1559C40.4689 47.24 40.5512 47.3313 40.6074 47.419C40.6099 47.4336 40.6273 47.4507 40.6236 47.4689C40.4851 47.497 40.4353 47.5749 40.3031 47.6005V47.5518C40.3555 47.5347 40.4178 47.2704 40.4041 47.2546C40.2981 47.2607 40.121 47.1584 40.0998 47.0561C40.1659 47.0561 40.237 47.0549 40.3031 47.0561C40.3031 47.0561 40.3268 47.0682 40.3368 47.0731C39.5723 46.3826 37.1568 46.374 36.6854 47.4361C36.4871 47.7832 36.4348 48.218 36.5009 48.615C36.5757 51.2457 36.2677 53.8179 36.5682 56.4315C36.6655 56.4206 40.8817 56.4522 40.9752 56.4206ZM37.6656 50.3408C37.3339 50.5125 37.4237 50.549 37.4798 50.8693C37.4686 50.8693 37.4573 50.8681 37.4461 50.8693C37.1069 50.5697 37.1917 50.7208 36.8725 50.8852C36.8725 50.6842 37.057 50.4845 36.7702 50.3907C36.7802 50.3432 36.7602 50.3298 36.7203 50.3578L36.6692 50.275C36.7029 50.3055 36.7365 50.3298 36.754 50.275C37.1468 50.2933 36.9972 50.258 37.193 50.0107C37.2316 50.096 37.2616 50.1922 37.3114 50.275C37.4 50.286 37.5696 50.2701 37.6656 50.275C37.6544 50.3006 37.6544 50.3225 37.6656 50.3408ZM36.754 52.371C37.1518 52.3942 37.0483 52.3649 37.1593 52.041C37.2167 52.0264 37.1842 52.0824 37.198 52.1275C37.3015 52.3199 37.2628 52.4039 37.5309 52.371C37.5621 52.4051 37.6057 52.4149 37.6431 52.399C37.5746 52.449 37.5022 52.4965 37.4274 52.5428C37.3289 52.583 37.4361 52.997 37.5147 52.9654C37.4997 52.9739 37.4798 52.9824 37.4636 52.9812L37.4661 52.941C37.4099 52.8911 37.1057 52.6292 37.1256 52.8168C37.0795 52.8375 36.9411 52.8947 36.9224 52.9325H36.88C36.9099 52.7681 37.0196 52.5306 36.7702 52.5026C36.7989 52.4575 36.749 52.4112 36.7029 52.4368L36.6692 52.371C36.6979 52.4064 36.7378 52.4234 36.754 52.371ZM37.6831 54.517C37.6506 54.4853 37.6369 54.489 37.6494 54.5328C37.5646 54.556 37.501 54.6546 37.4137 54.6924C37.4474 54.8093 37.4336 54.9737 37.5147 55.0614C37.4424 55.0638 37.4012 55.0188 37.3451 54.9835L37.3426 54.9822C37.2753 54.9274 37.1418 54.7983 37.1256 54.9128C37.0608 54.9177 36.976 55.0054 36.9086 54.9908C36.9161 54.8592 37.0109 54.679 36.8376 54.6327C36.8326 54.6278 36.8263 54.6205 36.8213 54.6156C36.8425 54.5669 36.7503 54.4914 36.7029 54.517C36.6231 54.4062 37.0059 54.5085 37.0408 54.4512C37.1406 54.3903 37.0845 54.0895 37.193 54.1382C37.198 54.1541 37.1755 54.1979 37.2266 54.1869C37.2628 54.5377 37.3451 54.4634 37.6419 54.4671C37.693 54.4707 37.6855 54.4585 37.6831 54.517ZM37.4798 48.3434C37.2167 48.3385 37.5509 48.7039 37.3962 48.6905C37.2728 48.6625 37.1905 48.5005 37.0745 48.6406C37.0184 48.6564 36.9261 48.7928 36.8737 48.7136C36.8737 48.5906 37.0533 48.3446 36.7877 48.2947C36.7952 48.2496 36.7765 48.2606 36.7365 48.2618C36.7415 48.246 36.7353 48.2411 36.7203 48.2448C36.6991 48.2216 36.6729 48.1936 36.6692 48.1619C36.6904 48.2021 36.7615 48.2119 36.7702 48.1619C36.7802 48.2204 36.9672 48.2265 36.9735 48.1619C36.986 48.2082 37.0408 48.2131 37.0408 48.1619C37.0807 48.1534 37.0745 48.1108 37.0745 48.0803C37.1119 48.0925 37.1992 47.8794 37.1942 47.8672C37.1992 47.866 37.2029 47.866 37.2104 47.8648C37.1468 47.9025 37.2628 48.313 37.3451 48.1619C37.3476 48.2338 37.5347 48.2216 37.5484 48.1619C37.5683 48.2021 37.6357 48.2058 37.6756 48.1826C37.6793 48.1863 37.6855 48.1899 37.7005 48.1948C37.6282 48.2387 37.5534 48.3069 37.4798 48.3434ZM37.8265 47.0804C37.8626 47.0938 37.8988 47.0865 37.9362 47.0561C38.1307 47.2254 38.2505 46.8917 38.2779 46.7467C38.2929 46.7857 38.3141 46.8064 38.3427 46.8088C38.2517 46.9538 38.4687 47.1864 38.6121 47.0561L38.6607 47.0902C38.7044 47.0768 38.7268 47.0926 38.7306 47.1389C38.3365 47.2789 38.5946 47.3715 38.5959 47.6346C38.3103 47.5591 38.3851 47.313 38.0721 47.5846C38.0385 47.5883 38.006 47.6005 37.9911 47.6297L37.9873 47.6346C37.9674 47.6358 37.9562 47.6382 37.9537 47.6175C38.0235 47.5676 38.0472 47.3654 38.0522 47.2997C38.0422 47.2692 37.8926 47.1486 37.8526 47.1559C37.8813 47.1121 37.8589 47.0902 37.8177 47.1231C37.8302 47.106 37.8327 47.0914 37.8265 47.0804ZM37.9537 49.1192C38.1681 49.1643 38.2155 49.0461 38.2579 48.872C38.4325 49.0437 38.2529 49.2215 38.6557 49.1691C38.7081 49.1728 38.6994 49.1606 38.6969 49.2191C38.4662 49.3457 38.5061 49.4663 38.5959 49.6807C38.5423 49.7367 38.4749 49.66 38.4101 49.6307C38.3053 49.4383 38.117 49.6466 38.0098 49.7294H37.9873C37.9911 49.7014 38.0646 49.5577 38.0547 49.5004C38.1407 49.3981 38.0322 49.2495 37.92 49.2848C37.915 49.2824 37.91 49.2629 37.8863 49.252L37.8826 49.2447C37.925 49.2179 37.8763 49.1898 37.8302 49.174C37.8339 49.1399 37.824 49.1216 37.8015 49.1192H37.9537ZM37.9873 51.2323C38.1557 51.2664 38.1943 51.1556 38.2243 51.0179C38.228 50.996 38.218 50.9242 38.2243 50.9181C38.2342 50.9083 38.3215 50.9132 38.3253 50.9522C38.3502 51.2432 38.4674 51.2506 38.7306 51.2323C38.7468 51.2615 38.7592 51.264 38.7642 51.2323C38.7468 51.4345 38.3589 51.3115 38.5622 51.7109L38.546 51.7743C38.5024 51.756 38.4138 51.7073 38.3589 51.6939C38.2679 51.5502 38.112 51.7633 38.0048 51.8096L37.9699 51.7937C38.031 51.5806 38.1395 51.4564 37.8863 51.348C37.8813 51.3102 37.8526 51.2725 37.8015 51.2323C37.8626 51.2311 37.9262 51.2347 37.9873 51.2323ZM38.6969 55.523C38.3477 55.7252 38.6071 55.7678 38.5959 56.0357C38.4188 55.998 38.45 55.8348 38.2405 55.853C38.1445 55.8762 38.0584 56.026 37.9537 56.0516C37.9537 55.9225 38.1869 55.6387 37.9025 55.5729C37.9474 55.5193 37.8489 55.4865 37.8165 55.456C37.8165 55.456 37.8177 55.4475 37.8177 55.4414C37.9175 55.4402 38.0559 55.445 38.1544 55.4389C38.2056 55.3147 38.1918 55.1625 38.3078 55.0784C38.4176 55.3756 38.2966 55.4779 38.6807 55.4414C38.6932 55.4706 38.7168 55.4755 38.7443 55.4694C38.7418 55.4743 38.743 55.4804 38.748 55.4901C38.7256 55.4962 38.7131 55.5096 38.6969 55.523ZM38.7518 53.4075L38.748 53.4111C38.7119 53.3795 38.6532 53.4197 38.6807 53.4598C38.2829 53.5646 38.7518 53.9226 38.5448 53.9385C38.5472 53.9287 38.5448 53.9166 38.5448 53.9068C38.2031 53.7436 38.3215 53.6815 38.0048 53.9385H37.9611C37.9948 53.6815 38.1981 53.5902 37.8689 53.4598C37.8776 53.4331 37.8751 53.4123 37.8626 53.3953C37.8888 53.3953 38.3178 53.4136 38.1557 53.3283C38.2118 53.2102 38.1931 53.064 38.3078 52.9812C38.3078 53.0762 38.3988 53.2552 38.4126 53.3588L38.7817 53.3612C38.7817 53.3612 38.7605 53.3965 38.7518 53.4075ZM39.0012 48.1619C39.0673 48.207 39.1383 48.2082 39.2044 48.1619C39.2256 48.2082 39.3566 48.2058 39.3902 48.1826C39.4015 48.1741 39.4863 47.9464 39.4401 47.9317C39.4738 47.922 39.4738 47.9074 39.4401 47.8976C39.4476 47.8928 39.475 47.8818 39.475 47.8818C39.4938 47.8976 39.5274 47.9147 39.5424 47.9317C39.4888 47.9549 39.5224 48.0036 39.5561 47.9853C39.5324 48.0267 39.5474 48.1096 39.5923 48.1132C39.5985 48.1364 39.596 48.1558 39.6272 48.1619C39.6409 48.2167 39.7394 48.2119 39.7619 48.1619C39.813 48.2131 39.9128 48.2094 39.9651 48.1619C39.9664 48.1729 39.9701 48.1778 39.9739 48.1814C39.9489 48.1948 39.929 48.218 39.9477 48.2448C39.6234 48.2533 39.6671 48.6016 39.8292 48.7892C39.5237 48.5992 39.5486 48.52 39.2082 48.7234C39.2044 48.6795 39.2331 48.6369 39.2381 48.5919C39.2344 48.6016 39.2231 48.6223 39.2182 48.632C39.2867 48.4749 39.278 48.3239 39.086 48.2947C39.0885 48.2508 39.0336 48.2301 39.0012 48.2119C39.0124 48.1985 39.0087 48.1863 38.9974 48.1814C38.9974 48.1814 38.9999 48.1717 39.0012 48.1619ZM39.2044 50.275C39.2593 50.2738 39.3154 50.2787 39.3703 50.2726C39.389 50.1727 39.4439 50.0777 39.4401 49.9778C39.4501 49.973 39.4788 49.9571 39.4913 49.9608C39.5299 50.0058 39.5374 50.04 39.5761 50.0765C39.5673 50.2202 39.6209 50.3091 39.7781 50.275C39.798 50.3262 39.9402 50.3201 39.9651 50.275C39.9664 50.3018 39.9764 50.3103 39.9938 50.3103C39.9838 50.3128 39.9539 50.3456 39.9564 50.3542C39.8018 50.342 39.5948 50.5661 39.7444 50.6879C39.7494 50.7366 39.7693 50.7853 39.7619 50.8365C39.7045 50.8024 39.6234 50.778 39.5761 50.7366C39.5224 50.5101 39.3491 50.8231 39.2244 50.8194L39.2207 50.817C39.1957 50.7281 39.3603 50.5015 39.2207 50.4735C39.1521 50.4224 39.1383 50.4053 39.0523 50.3737C39.0535 50.3371 39.0311 50.3042 38.985 50.275C39.0573 50.2738 39.1309 50.275 39.2044 50.275ZM39.2044 52.371C39.2606 52.3698 39.3167 52.3722 39.3728 52.3698C39.3715 52.2687 39.4326 52.1835 39.4576 52.0909H39.475C39.48 52.1189 39.5224 52.1201 39.5249 52.1238C39.5474 52.1445 39.5449 52.1786 39.5761 52.1896C39.5873 52.3406 39.5923 52.3942 39.7619 52.371C39.8167 52.4198 39.9078 52.4185 39.9651 52.371C39.9714 52.3954 39.9714 52.4234 39.9651 52.4538C39.9252 52.4185 39.823 52.466 39.8292 52.5196C39.8105 52.5318 39.798 52.5367 39.7781 52.5525C39.6284 52.4819 39.7269 52.8241 39.7581 52.8777C39.7544 52.913 39.7594 52.9434 39.7718 52.9678C39.7357 52.9337 39.6771 52.9337 39.6434 52.8996C39.5249 52.6585 39.3491 52.8935 39.2044 52.9812C39.2007 52.6158 39.4052 52.6719 39.0348 52.4538C39.0535 52.4222 39.0149 52.3796 38.985 52.371C39.0573 52.3698 39.1309 52.3723 39.2044 52.371ZM39.9477 54.5499C39.7693 54.6351 39.6708 54.7155 39.7781 54.9128C39.7519 54.9323 39.7469 54.9652 39.7631 55.0127C39.7145 54.9688 39.6746 54.9579 39.6434 54.9786L39.6097 54.9457C39.6122 54.9286 39.6072 54.9226 39.5923 54.9299C39.4763 54.7837 39.3503 54.981 39.2381 55.0443C39.091 55.048 39.3054 54.7679 39.2518 54.6924C39.2182 54.6522 39.066 54.5389 39.0012 54.5328C38.9949 54.5292 38.9912 54.5206 38.985 54.517C39.0835 54.4646 39.3192 54.5596 39.3566 54.4512C39.4015 54.4049 39.4389 54.2405 39.4401 54.1699L39.5249 54.137C39.5736 54.2356 39.5673 54.3769 39.6259 54.4646V54.4585L39.6272 54.4671C39.6459 54.4805 39.9302 54.4585 40.015 54.4671C39.9801 54.4731 39.9202 54.5133 39.9477 54.5499ZM40.8605 51.4138C40.8069 51.5587 40.8692 51.5307 40.8605 51.661C40.8929 51.8985 40.7832 51.7353 40.6747 51.6939C40.5899 51.5782 40.4802 51.6939 40.434 51.7621C40.4066 51.7998 40.3791 51.8096 40.353 51.7937C40.1509 51.9679 40.3405 51.5185 40.3293 51.4795C40.2931 51.4479 40.252 51.4223 40.2058 51.404L40.2008 51.3638L40.0824 51.2652C40.1572 51.1556 40.4303 51.32 40.4714 51.1823C40.5251 51.1081 40.5799 50.7269 40.6273 50.94C40.6984 50.9972 40.6622 51.1702 40.742 51.2323C40.7869 51.2664 40.868 51.2396 40.8767 51.2481C40.8904 51.2615 40.8692 51.3833 40.8605 51.4138ZM40.0998 49.1192C40.1073 49.0681 40.2395 49.0705 40.252 49.1192C40.6348 49.1801 40.4253 48.9146 40.6236 48.7892C40.6435 48.8379 40.6947 49.1034 40.7096 49.118C40.7183 49.1277 40.8468 49.1143 40.8767 49.118C40.8842 49.1972 40.9341 49.3141 40.8343 49.3652C40.7869 49.4334 40.979 49.7002 40.8605 49.7294C40.8381 49.7148 40.7183 49.6478 40.7134 49.6417C40.6909 49.6173 40.7271 49.6198 40.6572 49.5808C40.5475 49.4663 40.4253 49.6746 40.3031 49.6794C40.3405 49.5735 40.3667 49.4821 40.3592 49.3701C40.3318 49.3177 40.2295 49.2873 40.1846 49.2507H40.1672C40.1709 49.1862 40.0312 49.1716 40.0998 49.1192ZM40.0911 53.3612C40.1734 53.3575 40.3841 53.3795 40.4378 53.3454C40.4078 53.304 40.4353 53.2942 40.4714 53.2954C40.4752 53.2869 40.4677 53.2698 40.4714 53.2625C40.5226 53.2236 40.5438 53.1371 40.5724 53.0811C40.7171 53.1054 40.6547 53.4002 40.8094 53.3612C40.8044 53.4647 40.848 53.7546 40.7757 53.8569C40.7645 53.8447 40.6797 53.8033 40.6572 53.7899C40.636 53.7777 40.6373 53.74 40.5687 53.7607C40.5512 53.7753 40.3916 53.8447 40.4041 53.8898C40.3791 53.9007 40.3018 53.936 40.2694 53.9555C40.2407 53.8289 40.4602 53.6389 40.3193 53.5597C40.333 53.5134 40.2794 53.5317 40.252 53.5098C40.2258 53.472 40.1721 53.4343 40.1335 53.4111C40.1248 53.388 40.1085 53.377 40.0824 53.3782C40.0799 53.3697 40.04 53.3636 40.0911 53.3612ZM40.8942 56.0357L40.843 56.0187C40.7707 55.9736 40.6772 55.8993 40.5824 55.8871C40.545 55.9151 40.5138 55.92 40.4889 55.903C40.4839 55.9553 40.4166 55.998 40.3704 55.9687C40.3442 55.9894 40.333 56.0211 40.2682 56.0516C40.3717 55.646 40.4378 55.6984 40.0661 55.4657C40.1297 55.3634 40.4851 55.5486 40.4714 55.3586C40.5313 55.3123 40.5325 55.2051 40.5724 55.1442C40.6136 55.1333 40.6086 55.1795 40.641 55.1929C40.6448 55.2063 40.641 55.2209 40.6572 55.2258C40.6722 55.3257 40.7258 55.495 40.843 55.4572C40.8393 55.6192 40.8555 55.8762 40.8942 56.0357Z" fill="white"/>
<path d="M40.353 47.089C40.3467 47.0865 40.343 47.078 40.3368 47.0731C40.3193 47.1011 40.328 47.1097 40.353 47.089Z" fill="white"/>
<path d="M40.3704 47.106C40.3704 47.106 40.3592 47.0926 40.353 47.089C40.3367 47.1182 40.3467 47.1291 40.3704 47.106Z" fill="white"/>
<path d="M40.3866 47.1231C40.3816 47.117 40.3754 47.1109 40.3704 47.106C40.3679 47.1231 40.3729 47.1291 40.3866 47.1231Z" fill="white"/>
<path d="M40.4041 47.1389C40.3991 47.1328 40.3929 47.1279 40.3866 47.1231C40.3829 47.1377 40.3879 47.1438 40.4041 47.1389Z" fill="white"/>
<path d="M40.4203 47.1559C40.4203 47.1559 40.4091 47.145 40.4041 47.1389C40.3991 47.1547 40.4053 47.1596 40.4203 47.1559Z" fill="white"/>
<path d="M50.6548 56.6849C50.7583 56.3767 50.762 56.0272 50.752 55.7057C50.6959 55.4085 50.6548 55.065 50.4178 54.8483C50.5874 54.517 50.7059 54.1504 50.5762 53.7838C50.6024 53.8508 50.6261 53.9202 50.646 53.9896C50.752 53.7936 50.454 53.3588 50.242 53.3722C50.2357 53.3612 50.2295 53.3612 50.2245 53.3722C50.1896 53.3685 50.0961 53.3673 50.1198 53.4063C50.1023 53.4099 50.0961 53.4014 50.0836 53.3892C50.1322 53.2893 50.1933 53.1907 50.2071 53.0799C50.237 53.064 50.237 53.0592 50.2594 53.0799C50.2657 53.0604 50.2806 52.9605 50.2956 52.9593C50.2956 52.9593 50.2931 52.98 50.3131 52.9763C50.3081 52.9398 50.3293 52.8826 50.2956 52.857C50.2944 52.7535 50.2981 52.6633 50.2594 52.5647C50.2295 52.6049 50.217 52.5476 50.1896 52.5306C50.1884 52.5196 50.1921 52.5062 50.1896 52.4965C50.1958 52.4904 50.2021 52.4855 50.2071 52.4794C50.1871 52.4295 49.9838 52.1396 49.9789 52.2383C49.9215 52.2164 49.9115 52.1786 49.8554 52.136C49.8629 52.097 49.8142 52.0666 49.7856 52.0666C49.823 52.0227 49.7432 51.9874 49.697 51.9813C49.6983 51.9752 49.697 51.9703 49.697 51.9642C49.596 51.9289 49.5736 51.8887 49.4688 51.8607C49.4539 51.8571 49.4376 51.8376 49.4252 51.8266C49.4015 51.868 49.409 51.801 49.3815 51.7925C49.3441 51.7121 49.3254 51.7682 49.293 51.7584C49.2693 51.7158 49.2344 51.6878 49.2232 51.6378C49.3528 51.5234 49.5611 51.7134 49.7145 51.7243C49.8055 51.8425 49.9651 51.9509 50.0836 52.0495C50.0861 52.0909 50.121 52.1165 50.1547 52.136C50.1809 52.2249 50.3006 52.276 50.3131 52.3759C50.4216 52.477 50.3754 52.2858 50.3829 52.2212C50.3679 52.0824 50.4141 51.8887 50.3654 51.7755C50.3767 51.6586 50.2881 51.555 50.3654 51.4491C50.338 51.4052 50.3405 51.337 50.2956 51.2944V51.2773C50.343 51.2579 50.0961 50.9047 50.0662 50.9509C50.0499 50.9339 49.9913 50.873 49.9789 50.8657V50.8486L49.9963 50.8316C49.9776 50.8219 49.9539 50.7853 49.9439 50.7792C49.9963 50.7585 49.8928 50.683 49.8729 50.694C49.8629 50.6087 49.7793 50.5478 49.7145 50.4711H49.697C49.4401 50.3042 49.1658 50.2214 48.854 50.1788C48.7455 50.1374 48.5597 50.1532 48.45 50.1958L48.4325 50.1788C48.425 50.1958 48.3889 50.2287 48.3789 50.247L48.3614 50.2299C48.3278 50.2799 48.3028 50.3761 48.2392 50.3846C48.1894 50.2519 48.0971 50.1362 48.0098 50.0412C47.9998 49.9632 47.8215 49.7708 47.7292 49.8183C47.7292 49.7988 47.7242 49.7854 47.7429 49.7744C47.6943 49.7209 47.5796 49.7062 47.5184 49.6466C47.5621 49.6295 47.4972 49.621 47.486 49.6173C47.3701 49.5905 47.2853 49.5869 47.1668 49.6125L47.1842 49.6295V49.6466C47.072 49.6563 46.9286 49.6989 46.8675 49.8012C46.744 49.7586 46.7066 49.8658 46.6567 49.9389C46.6156 49.9316 46.5807 49.9657 46.552 50.0412C46.2627 50.4516 46.1667 50.6769 46.1642 51.1921C46.1629 51.2372 46.1841 51.309 46.1292 51.3285C46.0706 51.3358 46.0108 51.3602 45.9709 51.415C45.9534 51.4174 45.9347 51.4211 45.9185 51.432C45.8773 51.3918 46.0532 51.3297 46.0582 51.3029C46.0582 51.3029 46.0282 51.2798 46.0245 51.2506C46.007 51.0606 46.0644 50.9704 45.8137 50.9339C45.7589 50.9083 45.6229 50.8669 45.5731 50.8535C45.5357 50.8474 45.4646 50.8937 45.4259 50.8486C44.3136 51.3102 43.5903 51.253 43.3533 52.6426C43.4169 52.6451 43.5391 52.5318 43.5628 52.4794C43.9482 52.3004 44.3909 52.0751 44.8286 52.153C44.8311 52.164 44.8261 52.1786 44.8286 52.1871C44.4707 52.343 44.0093 52.2919 43.6863 52.5647C43.2274 52.846 43.1152 53.5098 43.3172 53.9555C43.3059 53.8678 43.4082 53.8094 43.4057 53.7144C43.508 53.578 43.6439 53.4769 43.7574 53.3539C43.9108 53.2613 44.0629 53.142 44.2313 53.0799L44.3373 53.0628C44.3348 53.0786 44.341 53.1006 44.3373 53.114C44.1751 53.2345 43.9781 53.3502 43.8272 53.4915C43.5978 53.662 43.3159 53.9507 43.4232 54.2466C43.4618 54.5146 43.6489 54.7545 43.7212 55.02C43.7349 55.1211 43.7898 55.0833 43.8272 55.02C44.0155 54.9189 44.1864 54.819 44.3722 54.7277C44.4245 54.7082 44.462 54.6936 44.5131 54.6765C44.5131 54.7557 44.4046 54.8458 44.4071 54.9335C44.1502 55.0163 43.8197 55.1466 43.7038 55.4146C43.5217 55.5802 43.4506 55.903 43.4232 56.1526C43.4818 56.149 43.5055 56.0844 43.5454 56.0491C43.8359 55.8372 44.3185 55.495 44.6889 55.7239V55.7751C44.664 55.7836 44.6365 55.7897 44.6178 55.8092C44.1315 55.847 43.4868 56.0808 43.4406 56.6325C43.3783 56.7823 43.4543 56.9808 43.4755 57.1306C43.5017 57.3596 43.5167 57.608 43.6165 57.8175C43.609 57.8553 43.6414 57.8833 43.6339 57.921C43.5441 57.9966 43.4905 58.2048 43.4356 58.312C43.271 58.3193 43.1039 58.3059 42.9393 58.3132C42.534 58.2633 42.125 58.1561 41.7895 57.9003C40.7969 57.6872 37.9449 57.9101 36.855 57.8346C36.9847 58.3303 37.1892 58.8101 37.4149 59.2668C37.5459 59.2754 42.847 59.2681 43.1276 59.2705C43.1114 59.3764 43.0877 59.5287 43.1152 59.6371C43.16 59.6091 43.1314 59.5494 43.1413 59.5165C43.1912 59.4422 43.276 59.3424 43.3409 59.2705H43.4793C43.4531 59.2888 43.402 59.307 43.4057 59.3448C43.372 59.3643 43.3371 59.3898 43.3346 59.4313C43.1937 59.5969 43.0964 59.8551 43.1588 60.0658C43.17 60.1681 43.1314 60.324 43.1763 60.4092C43.1837 60.5262 43.2137 60.6053 43.2448 60.7137C43.1438 60.7137 38.7443 60.7222 38.6458 60.7222C39.9764 61.7964 41.8332 62.0449 43.4967 61.9937C44.5081 62.0339 45.512 61.7173 46.4635 61.5602C46.5034 61.548 46.5894 61.5845 46.6044 61.5419C46.633 61.5346 46.7054 61.5626 46.7091 61.5248C47.3239 61.4225 48.011 61.2667 48.5198 60.9074C48.7243 60.8306 48.9388 60.676 49.0648 60.4957C49.2493 60.3508 49.389 60.1169 49.4514 59.8941C49.5012 59.9062 49.4713 59.9696 49.5037 59.9976C49.5112 60.0597 49.5212 60.123 49.5224 60.1864C49.5698 60.1303 49.621 60.039 49.6447 59.9635C50.0063 59.4848 50.2432 58.9088 50.0312 58.3157L50.0425 58.2998L50.0662 58.3157C50.1447 58.463 50.2046 58.6287 50.2245 58.7955C50.3318 58.4557 50.3854 58.0891 50.2594 57.7493C50.1609 57.6239 50.2881 57.5642 50.3305 57.457C50.4577 57.2853 50.5824 57.0064 50.5064 56.8042C50.4739 56.3987 50.121 56.0844 49.803 55.9127C50.2046 55.9541 50.54 56.3183 50.6548 56.6849ZM49.8554 50.694L49.8529 50.7074L49.8479 50.7037C49.8479 50.7037 49.8542 50.7001 49.8554 50.694ZM43.0403 58.3315V58.3291H43.0453L43.0403 58.3315ZM43.8621 60.1182C43.7125 60.2899 43.594 60.4933 43.5491 60.7137H43.3384C43.4581 60.3264 43.7599 60.0098 44.144 59.86C44.0429 59.9501 43.9519 60.0146 43.8621 60.1182ZM44.6852 57.457H44.6702C44.6777 57.4558 44.6839 57.4522 44.6902 57.4473C44.6902 57.4473 44.6877 57.4534 44.6852 57.457ZM44.7849 57.3706C44.7762 57.3888 44.7413 57.429 44.7762 57.44C44.765 57.4388 44.755 57.4424 44.745 57.4509C44.7588 57.4132 44.7388 57.3949 44.7139 57.4168C44.7164 57.4034 44.7101 57.3925 44.6889 57.3888C44.6989 57.3413 44.7176 57.4144 44.7375 57.3596C44.77 57.2122 44.7687 57.021 44.7238 56.8907C44.7226 56.8688 44.7238 56.8432 44.7238 56.8225C44.7587 56.7628 44.74 56.6008 44.6702 56.5814C44.6677 56.5692 44.6552 56.5679 44.6528 56.5643C44.654 56.557 44.654 56.5533 44.6528 56.5485C44.6914 56.5387 44.7251 56.4937 44.7064 56.462C44.7712 56.4376 44.7962 56.3731 44.8822 56.3926C44.8872 56.3987 44.9121 56.5692 44.9221 56.5704C44.8897 56.585 44.8909 56.6033 44.9346 56.6155C45.0069 56.9248 44.9159 57.105 44.7849 57.3706ZM44.8997 54.4354C44.8847 54.5292 44.7987 54.5645 44.7064 54.556C44.7675 54.5474 44.8223 54.4671 44.7762 54.4183C44.78 54.4062 44.7924 54.3611 44.7937 54.3501L44.8111 54.3928C44.8847 54.081 44.7313 53.7753 44.8111 53.4745C44.8423 53.4598 44.8947 53.4391 44.9171 53.4745C44.962 53.7948 45.0256 54.1187 44.8997 54.4354ZM45.2601 60.7113H45.0942C45.2127 60.3934 45.0206 59.9793 45.1279 59.6712C45.1615 60.0573 45.2887 60.3532 45.2601 60.7113ZM49.293 56.6155C49.177 56.6751 49.061 56.719 48.9775 56.8225H48.9588V56.8042C48.7131 56.9735 48.6969 57.3157 48.7655 57.5776C48.6832 57.5398 48.5784 57.4278 48.4849 57.457C48.4562 57.4485 48.4263 57.4424 48.3964 57.44C48.3727 57.4059 48.3116 57.4278 48.2742 57.4229L48.2392 57.4059C48.2954 57.4022 48.3565 57.4083 48.4138 57.4059V57.3888C48.3802 57.4034 48.3427 57.373 48.3265 57.3718C48.3502 57.3706 48.3677 57.3791 48.3614 57.3547C48.137 57.3486 47.915 57.4375 47.7641 57.6032L47.7816 57.6117C47.7716 57.6202 47.7666 57.6409 47.7467 57.6458V57.6629C47.6856 57.6763 47.7379 57.6628 47.6768 57.6458C47.6731 57.6129 47.6806 57.5739 47.6768 57.5423C47.7317 57.4643 47.6419 57.3827 47.5883 57.3194C47.5584 57.2987 47.5484 57.3072 47.5708 57.3365C47.5571 57.3389 47.5421 57.3206 47.5359 57.3194V57.3023C47.5733 57.2756 47.506 57.2622 47.4835 57.2512C47.3788 57.1684 47.2291 57.0234 47.0957 57.0454C46.9373 56.965 46.7677 56.8639 46.5869 56.9759C46.5794 56.9613 46.5744 56.9613 46.5695 56.9759C46.4148 57.0027 46.022 57.1757 46.042 57.3365C45.8898 57.3632 45.8137 57.6336 45.7601 57.7664H45.7364C45.7165 57.8127 45.719 57.7944 45.6728 57.7834C45.6716 57.7956 45.6741 57.8066 45.6778 57.8163H45.6479C45.6392 57.7993 45.6267 57.7773 45.6205 57.7664C45.8025 57.7664 45.3511 57.4217 45.2688 57.4911C45.2638 57.4631 45.2401 57.44 45.1977 57.4229C45.3773 57.2427 45.4147 56.9345 45.3985 56.6958L45.3561 56.6678C45.3823 56.596 45.371 56.5558 45.3212 56.5472C45.3112 56.3889 45.0331 56.2148 45.2326 56.0832L45.2763 56.0881C45.3349 56.0101 45.3835 55.9651 45.4209 56.082C45.4496 56.0954 45.4746 56.1246 45.497 56.1697C45.4696 56.2001 45.4733 56.2598 45.5219 56.2562C45.5406 56.3244 45.5556 56.3926 45.5668 56.462C45.6367 56.6824 45.5269 57.0149 45.497 57.2341C45.4883 57.25 45.4621 57.2646 45.4795 57.2853C45.406 57.2427 45.3935 57.3389 45.4795 57.3194C45.5307 57.3559 45.598 57.3072 45.6017 57.2512C46.2041 56.9163 46.2839 56.7531 46.3225 56.0832C46.3001 56.1039 46.3076 56.1271 46.3051 56.1526C46.2839 56.1149 46.2801 56.0613 46.2702 56.015C46.3163 56.0004 46.3051 55.9505 46.3051 55.9127C46.3986 55.5547 45.9671 55.154 45.6017 55.3452C45.6067 55.2855 45.5618 55.2867 45.5431 55.2599C45.5307 55.2441 45.5406 55.1759 45.497 55.1564C45.5095 55.0419 45.4247 54.7947 45.3224 54.7667C45.2937 54.6644 45.1179 54.6083 45.0219 54.573C45.0368 54.5669 45.0381 54.5608 45.0219 54.556C45.1541 54.4524 45.3399 54.4062 45.4446 54.2819C45.4758 54.2856 45.4484 54.3282 45.4708 54.3331C45.5307 54.2917 45.5943 54.2539 45.6554 54.2125L45.6641 54.2296C45.8063 54.1455 45.9235 54.0639 45.9883 53.9044C46.0482 53.8995 46.0133 53.9616 46.0594 53.9896C45.9684 54.26 45.9696 54.5608 46.0232 54.841L46.042 54.8312C46.0432 54.8422 46.0719 54.8787 46.0769 54.9165C46.037 54.9567 46.0694 55.0346 46.0594 55.0882H46.0769V55.0029C46.0831 55.0176 46.0893 55.0176 46.0943 55.0029C46.0918 55.0443 46.0931 55.087 46.1292 55.1052C46.1592 54.9981 46.1268 54.8787 46.1829 54.7788C46.254 54.6838 46.224 54.7557 46.2465 54.7618C46.4373 54.7496 46.3013 54.7715 46.3936 54.8824C46.2577 55.1125 46.1492 55.5352 46.4111 55.7057C46.426 55.7312 46.4635 55.7605 46.4809 55.7921C46.4747 55.797 46.4684 55.8031 46.4635 55.8092C46.5221 55.8689 46.5158 55.9675 46.5869 56.015C46.6206 56.1392 46.6917 56.2379 46.7278 56.3585C46.7528 56.328 46.7602 56.3536 46.7802 56.3755C46.739 55.9225 46.8974 55.4974 47.1493 55.1223H47.1668C47.1817 55.0991 47.2017 55.076 47.2192 55.0541C47.2391 55.0614 47.2478 55.0541 47.2366 55.037C47.2578 55.0395 47.284 55.0212 47.2715 55.0029C47.2977 54.9786 47.3314 54.9554 47.3601 54.9335C47.3638 54.9469 47.3763 54.9469 47.395 54.9335C47.4424 54.9372 47.4499 54.9286 47.4125 54.8994C47.4536 54.8641 47.4985 54.8507 47.5534 54.8483C47.5633 54.8702 47.602 54.8726 47.6057 54.8483L47.6095 54.8665C47.8963 54.953 47.5721 55.1613 47.4648 55.2599V55.277C47.4162 55.2965 47.2441 55.4122 47.2715 55.4657L47.2017 55.5339C47.2005 55.5461 47.2029 55.5583 47.2017 55.5693C47.1693 55.5583 47.163 55.5948 47.1493 55.6034V55.6204C46.9885 55.8981 46.9236 56.3329 47.1144 56.6155C47.1169 56.6301 47.1119 56.6459 47.0957 56.6508C47.2217 56.7945 47.395 56.909 47.5184 57.0624C47.5297 57.0758 47.5546 57.1708 47.5883 57.1306H47.6057C47.6282 57.1623 47.6469 57.1915 47.6768 57.2171C47.6606 57.2232 47.6606 57.2293 47.6768 57.2341C47.7043 57.2366 47.7192 57.2341 47.7467 57.2171L47.7816 57.2341C47.814 57.2 47.8788 57.1793 47.9225 57.1477C47.9811 57.1574 48.0011 57.1038 48.0459 57.0795C47.8876 57.3121 48.0784 57.1915 48.1507 57.1136C48.4961 56.9613 48.6844 56.3463 48.556 55.9712C48.4188 55.7775 48.4163 55.6874 48.3964 55.4657C48.8253 55.607 48.8503 56.1709 48.8017 56.5302H48.8179L48.8366 56.4961C48.8391 56.518 48.8266 56.5546 48.854 56.5643C49.0461 56.4133 49.2818 56.2172 49.2581 55.9639C49.2743 55.9821 49.293 55.9639 49.293 55.9639C49.298 55.9748 49.303 55.9773 49.3067 55.9724C49.3005 55.9821 49.3005 55.9882 49.303 55.9919C49.2643 56.0211 49.2631 56.1088 49.2942 56.1417C49.2518 56.2111 49.3865 56.4218 49.399 56.5472C49.3541 56.5546 49.3242 56.5887 49.293 56.6155ZM49.9776 54.7411C50.0125 54.7654 50.0063 54.791 49.9577 54.8178C49.9053 54.7715 49.8167 54.7204 49.7868 54.7995C49.8729 55.0212 49.6833 55.199 49.6621 55.3975C49.6422 55.4292 49.6309 55.4572 49.6272 55.4828C49.6272 55.4231 49.6409 55.3488 49.6621 55.294C49.6496 55.2733 49.6384 55.2782 49.6272 55.3111C49.6334 55.1588 49.5648 54.7557 49.4164 54.7277C49.4177 54.6242 49.2306 54.4512 49.1172 54.3842C49.0972 54.3489 49.0623 54.3221 49.0299 54.299L49.0473 54.2649C48.864 54.2223 48.7044 54.0883 48.5198 54.0749V54.0578C48.4724 54.0213 47.9474 53.9336 48.1432 54.0042C48.0347 53.9982 48.0011 54.0883 47.9399 54.1443C47.9574 53.9434 47.9587 53.6596 48.0272 53.4745C48.0584 53.5171 48.1046 53.5134 48.1332 53.5256C48.228 53.6608 48.4625 53.6547 48.5984 53.7497C48.6271 53.712 48.6009 53.7168 48.5722 53.7144V53.6632H48.5547C48.4886 53.5366 48.3951 53.3819 48.3789 53.2345C48.4038 53.131 48.4213 52.9568 48.3789 52.857C48.3602 52.7486 48.4886 52.5781 48.45 52.4794C48.4974 52.4855 48.5086 52.4685 48.4849 52.4271C48.5161 52.399 48.5186 52.393 48.5547 52.3418L48.5946 52.3467C48.6869 52.1469 48.8017 52.4307 48.7418 52.5233L48.7655 52.5647C48.7094 52.6877 48.6084 52.8716 48.6433 52.9946C48.6084 52.9922 48.5984 52.9946 48.6096 53.0104L48.6084 53.3722H48.6258C48.6508 53.4769 48.6894 53.595 48.7917 53.6462L48.8017 53.6291C48.8141 53.6401 48.8278 53.6571 48.8366 53.6632C48.7979 53.7034 48.8154 53.7473 48.8715 53.7497C48.9999 53.8764 49.2144 53.8861 49.3728 53.9787L49.4339 53.9726C49.4963 54.0079 49.5511 54.0225 49.5923 54.0932C49.5898 54.0822 49.5948 54.0651 49.5923 54.0578H49.6272C49.6696 54.1772 49.7232 54.3051 49.8367 54.3781C49.8741 54.4439 49.828 54.4975 49.9614 54.4878L49.9439 54.3331C49.9676 54.383 49.9913 54.4439 50.0138 54.4878C49.9128 54.5133 49.9651 54.6668 49.9776 54.7411Z" fill="white"/>
<path d="M49.3641 48.1364C49.49 48.2046 49.6908 48.3142 49.803 48.4274C50.0026 48.6929 50.1672 48.995 50.2245 49.3202C50.4777 48.6053 50.4876 47.637 49.9265 47.0549C49.7407 46.7626 49.2905 46.4629 48.9239 46.5908C48.8677 46.564 48.7767 46.6006 48.7306 46.6432C48.7343 46.6408 48.7405 46.6432 48.7455 46.6432C48.5011 46.7065 48.3764 46.9331 48.2742 47.1401C47.7454 46.4325 46.6979 46.7504 46.5869 47.6041C46.4273 47.6918 46.2614 47.8416 46.0943 47.8964C46.2003 47.6955 46.3774 47.475 46.2876 47.2436C46.1841 46.6176 45.2713 46.8101 44.8286 46.9513C44.442 47.095 44.0629 47.3983 43.9145 47.7759L43.8621 47.8441C43.9245 47.8355 43.9881 47.7953 44.038 47.7588C44.4158 47.6187 44.8199 47.6236 45.1977 47.7247C45.2389 47.7795 45.4409 47.8027 45.391 47.8964C45.0032 47.9159 44.5692 47.8368 44.1963 47.9476C44.2038 47.9476 44.2038 47.9537 44.2038 47.9537L44.1963 47.9476C43.7412 48.0133 43.4706 48.4993 43.493 48.9256C43.4631 48.9633 43.4643 49.0632 43.493 49.0973C43.5092 49.2361 43.5117 49.3336 43.5628 49.4578C43.5828 49.5089 43.5666 49.5954 43.6165 49.6125C43.695 49.3336 43.9145 49.0839 44.1253 48.8744C44.2936 48.7563 44.4906 48.6467 44.6702 48.5821C44.8573 48.5675 44.9994 48.5906 44.9695 48.8062L44.9171 48.9085C44.6702 49.118 44.3023 49.1326 44.0729 49.3725C43.7087 49.5845 43.5579 50.1593 43.7212 50.5052C43.7225 50.6794 43.8347 50.8072 43.897 50.968C43.9207 51.0642 43.9831 51.1154 43.9681 51.2091C44.3485 50.8718 45.3062 50.8596 45.1628 50.1617C45.1915 49.9571 45.0817 49.5832 45.3212 49.4919C45.376 49.5796 45.3586 49.7123 45.4085 49.7842C45.4346 50.1642 45.2813 50.5296 45.1366 50.8657C45.3386 50.7768 45.5132 50.6806 45.7077 50.5904C45.7501 50.5819 45.7601 50.5904 45.7601 50.5904C45.7526 50.6355 46.0158 50.5125 45.9883 50.4881C46.0607 50.4516 46.1193 50.3944 46.1467 50.3164C46.1529 50.3176 46.1592 50.314 46.1642 50.3164C46.3649 50.0375 46.2739 49.6721 46.3225 49.3725C46.3762 49.4797 46.3886 49.5674 46.446 49.6636C46.4809 49.7805 46.5021 49.9157 46.4984 50.0412C46.5258 50.0326 46.5794 49.9937 46.5333 49.973C46.6243 49.8841 46.7303 49.8037 46.7615 49.6734L46.7453 49.6636C46.7503 49.6222 46.8101 49.5418 46.8326 49.5089L46.8762 49.5784C46.9398 49.5321 46.9535 49.4566 47.0084 49.4066C47.1019 49.3823 47.2217 49.1472 47.2715 49.0461C47.3501 48.984 47.3451 48.7636 47.3077 48.6856C47.3314 48.6893 47.3414 48.6771 47.3426 48.6515C47.3426 48.6515 47.3464 48.6722 47.3601 48.6686C47.3376 48.5297 47.4873 48.3081 47.395 48.2046C47.4124 48.1875 47.4174 48.1753 47.4125 48.1692C47.4249 48.1619 47.4224 48.1449 47.395 48.1364C47.4224 48.0791 47.4075 48.0767 47.395 48.0158C47.501 48.0816 47.4237 48.2557 47.4623 48.3592C47.4461 48.6381 47.5621 48.9231 47.6407 49.1838C47.5746 49.3555 47.8452 49.4919 47.9749 49.5613C48.0085 49.5832 48.0734 49.6904 48.1158 49.6466H48.1332C48.142 49.6527 48.1569 49.6587 48.1682 49.6636V49.6807L48.1332 49.6892C48.2542 49.7964 48.4101 49.8573 48.546 49.9364C48.6109 49.8889 48.6408 49.7781 48.5722 49.716C48.5759 49.3823 48.43 48.9804 48.4325 48.6345C48.4874 48.5919 48.5111 48.4652 48.4674 48.4104C48.5024 48.4408 48.5348 48.4372 48.5547 48.3933C48.5498 48.4384 48.5597 48.4469 48.5897 48.4104C48.5909 48.4226 48.5884 48.4335 48.5897 48.4457C48.551 48.4591 48.5572 48.4822 48.6084 48.5139C48.9002 48.9304 48.4537 49.5504 48.9949 49.8865C49.0648 49.8962 49.1596 49.9766 49.2232 49.9389C49.2518 49.9462 49.2768 49.9632 49.3104 49.9559C49.3279 49.9669 49.3366 49.9803 49.3641 49.973C49.3815 49.9182 49.2456 49.8962 49.2232 49.8524L49.2406 49.8353C49.2818 49.8682 49.3653 49.8999 49.4164 49.9218L49.4027 49.9425L49.5661 50.0071C49.596 49.9839 49.5574 49.9644 49.5399 49.9559C49.5736 49.9498 49.5199 49.8816 49.5037 49.8524C49.5623 49.8853 49.5786 49.9084 49.6097 49.973C49.5711 49.9839 49.6135 50.0217 49.6235 50.0363C49.6596 50.0899 49.6808 50.1593 49.7058 50.1958C49.7369 50.2531 49.7768 50.1033 49.7856 50.0753C49.9028 50.0351 49.9464 49.9048 50.0138 49.8012C50.0599 49.7416 50.0474 49.6466 50.0836 49.5613L50.1023 49.6125C50.1647 49.325 50.1048 49.012 49.909 48.7879C49.8043 48.5638 49.5748 48.4469 49.3865 48.2935C49.3778 48.2874 49.3316 48.2423 49.3279 48.274C49.2917 48.2192 49.1808 48.1985 49.2581 48.1364H49.3641ZM49.9963 48.995C49.9963 48.9779 49.9938 48.9621 49.9901 48.9451C50.0025 48.9536 49.9963 48.9804 49.9963 48.995Z" fill="white"/>
</g>
<defs>
<filter id="filter0_dd_3791_3297" x="0" y="0" width="86" height="86" filterUnits="userSpaceOnUse" color-interpolation-filters="sRGB">
<feFlood flood-opacity="0" result="BackgroundImageFix"/>
<feColorMatrix in="SourceAlpha" type="matrix" values="0 0 0 0 0 0 0 0 0 0 0 0 0 0 0 0 0 0 127 0" result="hardAlpha"/>
<feOffset dy="1"/>
<feGaussianBlur stdDeviation="4"/>
<feColorMatrix type="matrix" values="0 0 0 0 0.0784314 0 0 0 0 0.0784314 0 0 0 0 0.0784314 0 0 0 0.08 0"/>
<feBlend mode="normal" in2="BackgroundImageFix" result="effect1_dropShadow_3791_3297"/>
<feColorMatrix in="SourceAlpha" type="matrix" values="0 0 0 0 0 0 0 0 0 0 0 0 0 0 0 0 0 0 127 0" result="hardAlpha"/>
<feOffset/>
<feGaussianBlur stdDeviation="0.5"/>
<feColorMatrix type="matrix" values="0 0 0 0 0.0784314 0 0 0 0 0.0784314 0 0 0 0 0.0784314 0 0 0 0.04 0"/>
<feBlend mode="normal" in2="effect1_dropShadow_3791_3297" result="effect2_dropShadow_3791_3297"/>
<feBlend mode="normal" in="SourceGraphic" in2="effect2_dropShadow_3791_3297" result="shape"/>
</filter>
</defs>
</svg>
