<svg width="22" height="20" viewBox="0 0 22 20" fill="none" xmlns="http://www.w3.org/2000/svg">
<path d="M11 9.875C10.3785 9.875 9.87502 10.3794 9.87502 11V14.75C9.87502 15.3716 10.3785 15.875 11 15.875C11.6216 15.875 12.125 15.3716 12.125 14.75V11C12.125 10.3794 11.6206 9.875 11 9.875ZM11 9.875C10.3785 9.875 9.87502 10.3794 9.87502 11V14.75C9.87502 15.3716 10.3785 15.875 11 15.875C11.6216 15.875 12.125 15.3716 12.125 14.75V11C12.125 10.3794 11.6206 9.875 11 9.875ZM11 9.875C10.3785 9.875 9.87502 10.3794 9.87502 11V14.75C9.87502 15.3716 10.3785 15.875 11 15.875C11.6216 15.875 12.125 15.3716 12.125 14.75V11C12.125 10.3794 11.6206 9.875 11 9.875ZM15.9866 9.88062C15.3678 9.81969 14.8175 10.2706 14.7556 10.8884L14.3806 14.6384C14.3188 15.2562 14.7697 15.8075 15.3875 15.8694C15.426 15.8731 15.4635 15.875 15.501 15.875C16.0719 15.875 16.5613 15.4428 16.6194 14.8625L16.9944 11.1125C17.0563 10.4937 16.6044 9.9425 15.9866 9.88062ZM15.9866 9.88062C15.3678 9.81969 14.8175 10.2706 14.7556 10.8884L14.3806 14.6384C14.3188 15.2562 14.7697 15.8075 15.3875 15.8694C15.426 15.8731 15.4635 15.875 15.501 15.875C16.0719 15.875 16.5613 15.4428 16.6194 14.8625L16.9944 11.1125C17.0563 10.4937 16.6044 9.9425 15.9866 9.88062ZM11 9.875C10.3785 9.875 9.87502 10.3794 9.87502 11V14.75C9.87502 15.3716 10.3785 15.875 11 15.875C11.6216 15.875 12.125 15.3716 12.125 14.75V11C12.125 10.3794 11.6206 9.875 11 9.875ZM21.5956 6.50937C21.3828 6.26562 21.0744 6.125 20.75 6.125H16.76L11.8466 0.509375C11.6328 0.265625 11.3244 0.125 11 0.125C10.6756 0.125 10.3663 0.265625 10.1535 0.509375L5.24002 6.125H1.25002C0.925644 6.125 0.617207 6.26562 0.403457 6.50937C0.189707 6.75312 0.0922065 7.0775 0.134394 7.39906L1.54721 17.9984C1.67189 18.9266 2.47064 19.625 3.40627 19.625H18.5938C19.5294 19.625 20.3281 18.9266 20.4519 17.9984L21.8647 7.39906C21.9078 7.0775 21.8094 6.75312 21.5956 6.50937ZM11 2.95906L13.7703 6.125H8.22971L11 2.95906ZM18.2656 17.375H3.73439L2.53439 8.375H19.4647L18.2656 17.375ZM15.3875 15.8694C15.426 15.8731 15.4635 15.875 15.501 15.875C16.0719 15.875 16.5613 15.4428 16.6194 14.8625L16.9944 11.1125C17.0563 10.4937 16.6044 9.9425 15.9866 9.88062C15.3678 9.81969 14.8175 10.2706 14.7556 10.8884L14.3806 14.6384C14.3188 15.2562 14.7697 15.8075 15.3875 15.8694ZM11 15.875C11.6206 15.875 12.125 15.3716 12.125 14.75V11C12.125 10.3794 11.6206 9.875 11 9.875C10.3794 9.875 9.87502 10.3794 9.87502 11V14.75C9.87502 15.3716 10.3785 15.875 11 15.875ZM11 9.875C10.3785 9.875 9.87502 10.3794 9.87502 11V14.75C9.87502 15.3716 10.3785 15.875 11 15.875C11.6216 15.875 12.125 15.3716 12.125 14.75V11C12.125 10.3794 11.6206 9.875 11 9.875ZM15.9866 9.88062C15.3678 9.81969 14.8175 10.2706 14.7556 10.8884L14.3806 14.6384C14.3188 15.2562 14.7697 15.8075 15.3875 15.8694C15.426 15.8731 15.4635 15.875 15.501 15.875C16.0719 15.875 16.5613 15.4428 16.6194 14.8625L16.9944 11.1125C17.0563 10.4937 16.6044 9.9425 15.9866 9.88062ZM15.9866 9.88062C15.3678 9.81969 14.8175 10.2706 14.7556 10.8884L14.3806 14.6384C14.3188 15.2562 14.7697 15.8075 15.3875 15.8694C15.426 15.8731 15.4635 15.875 15.501 15.875C16.0719 15.875 16.5613 15.4428 16.6194 14.8625L16.9944 11.1125C17.0563 10.4937 16.6044 9.9425 15.9866 9.88062ZM6.61158 15.8694C6.57314 15.8731 6.53564 15.875 6.49814 15.875C5.92721 15.875 5.43783 15.4428 5.38064 14.8625L5.00564 11.1125C4.94377 10.4937 5.39471 9.9425 6.01252 9.88062C6.63127 9.81875 7.18252 10.2697 7.24439 10.8884L7.61939 14.6384C7.68127 15.2562 7.22939 15.8075 6.61158 15.8694Z" fill="#556065"/>
</svg>
