<svg width="22" height="22" viewBox="0 0 22 22" fill="none" xmlns="http://www.w3.org/2000/svg">
<path d="M8.75012 12.4999C9.57855 12.4999 10.2501 11.8283 10.2501 10.9999C10.2501 10.1714 9.57855 9.49988 8.75012 9.49988C7.9217 9.49988 7.25012 10.1714 7.25012 10.9999C7.25012 11.8283 7.9217 12.4999 8.75012 12.4999Z" fill="#539461"/>
<path d="M13.2501 12.4999C14.0785 12.4999 14.7501 11.8283 14.7501 10.9999C14.7501 10.1714 14.0785 9.49988 13.2501 9.49988C12.4217 9.49988 11.7501 10.1714 11.7501 10.9999C11.7501 11.8283 12.4217 12.4999 13.2501 12.4999Z" fill="#539461"/>
<path fill-rule="evenodd" clip-rule="evenodd" d="M4.83384 2.97252C6.78258 1.47556 9.20922 0.7384 11.6613 0.89847C14.1134 1.05854 16.4236 2.10492 18.1612 3.84251C19.8988 5.5801 20.9452 7.89032 21.1053 10.3424C21.2654 12.7945 20.5282 15.2212 19.0312 17.1699C17.5343 19.1187 15.3797 20.4565 12.9692 20.934C10.7287 21.3778 8.40933 21.0502 6.38551 20.0134L3.34418 21.0277C3.0138 21.1379 2.65926 21.1539 2.32032 21.0739C1.98138 20.9939 1.67141 20.8211 1.42515 20.5748C1.1789 20.3286 1.00609 20.0186 0.926105 19.6797C0.846116 19.3407 0.862105 18.9862 0.972279 18.6558L1.98996 15.6175C0.953468 13.5938 0.626018 11.2747 1.06977 9.03454C1.54727 6.62405 2.8851 4.46947 4.83384 2.97252ZM11.5148 3.14369C9.60756 3.01919 7.72018 3.59254 6.20449 4.75684C4.68881 5.92114 3.64827 7.59692 3.27689 9.47174C2.9055 11.3466 3.22862 13.2925 4.18599 14.9467C4.34769 15.226 4.38158 15.5614 4.27906 15.8675L3.34524 18.6555L6.13763 17.7242C6.44337 17.6223 6.77815 17.6563 7.05709 17.8178C8.71127 18.7751 10.6572 19.0982 12.532 18.7269C14.4068 18.3555 16.0826 17.3149 17.2469 15.7993C18.4112 14.2836 18.9846 12.3962 18.8601 10.489C18.7356 8.58179 17.9217 6.78496 16.5702 5.4335C15.2188 4.08204 13.422 3.26819 11.5148 3.14369Z" fill="#539461"/>
</svg>
