<svg width="21" height="22" viewBox="0 0 21 22" fill="none" xmlns="http://www.w3.org/2000/svg">
<path d="M8.24915 12.5001C9.07757 12.5001 9.74915 11.8285 9.74915 11.0001C9.74915 10.1717 9.07757 9.50012 8.24915 9.50012C7.42072 9.50012 6.74915 10.1717 6.74915 11.0001C6.74915 11.8285 7.42072 12.5001 8.24915 12.5001Z" fill="#556065"/>
<path d="M12.7491 12.5001C13.5776 12.5001 14.2491 11.8285 14.2491 11.0001C14.2491 10.1717 13.5776 9.50012 12.7491 9.50012C11.9207 9.50012 11.2491 10.1717 11.2491 11.0001C11.2491 11.8285 11.9207 12.5001 12.7491 12.5001Z" fill="#556065"/>
<path fill-rule="evenodd" clip-rule="evenodd" d="M4.33286 2.97276C6.2816 1.47581 8.70824 0.738644 11.1603 0.898714C13.6125 1.05878 15.9227 2.10516 17.6603 3.84275C19.3979 5.58035 20.4442 7.89056 20.6043 10.3427C20.7644 12.7948 20.0272 15.2214 18.5303 17.1702C17.0333 19.1189 14.8787 20.4567 12.4682 20.9342C10.2278 21.378 7.90835 21.0504 5.88453 20.0136L2.8432 21.028C2.51283 21.1381 2.15828 21.1541 1.81934 21.0741C1.4804 20.9942 1.17043 20.8214 0.924175 20.5751C0.677922 20.3288 0.505117 20.0189 0.425128 19.6799C0.345139 19.341 0.361128 18.9865 0.471302 18.6561L1.48898 15.6177C0.452492 13.5941 0.125041 11.275 0.568797 9.03478C1.04629 6.62429 2.38412 4.46972 4.33286 2.97276ZM11.0138 3.14393C9.10659 3.01944 7.2192 3.59278 5.70352 4.75708C4.18783 5.92138 3.14729 7.59716 2.77591 9.47199C2.40453 11.3468 2.72764 13.2927 3.68502 14.9469C3.84671 15.2263 3.88061 15.5617 3.77809 15.8677L2.84426 18.6558L5.63666 17.7245C5.94239 17.6225 6.27717 17.6566 6.55611 17.818C8.2103 18.7754 10.1562 19.0985 12.031 18.7271C13.9059 18.3557 15.5816 17.3152 16.7459 15.7995C17.9102 14.2838 18.4836 12.3964 18.3591 10.4892C18.2346 8.58204 17.4207 6.78521 16.0693 5.43374C14.7178 4.08228 12.921 3.26843 11.0138 3.14393Z" fill="#556065"/>
</svg>
