<svg width="24" height="24" viewBox="0 0 24 24" fill="none" xmlns="http://www.w3.org/2000/svg">
<g clip-path="url(#clip0_507_10138)">
<path fill-rule="evenodd" clip-rule="evenodd" d="M18 18.25V5.75C18 5.35218 17.842 4.97064 17.5607 4.68934C17.2794 4.40804 16.8978 4.25 16.5 4.25H2C1.60218 4.25 1.22064 4.40804 0.93934 4.68934C0.658035 4.97064 0.5 5.35218 0.5 5.75V18.25C0.5 18.6478 0.658035 19.0294 0.93934 19.3107C1.22064 19.592 1.60218 19.75 2 19.75H16.5C16.8978 19.75 17.2794 19.592 17.5607 19.3107C17.842 19.0294 18 18.6478 18 18.25ZM2.90794 9V15.48H5.82794V14.512H4.33994V9H2.90794ZM6.46281 9V15.48H7.89481V9H6.46281ZM9.72506 15.48L8.55706 9H9.78106L10.4771 13.4L11.1251 9H12.4211L11.2371 15.48H9.72506ZM13.072 9V15.48H16V14.512H14.504V12.576H15.632V11.584H14.504V9.976H15.984V9H13.072Z" fill="#539461"/>
<path d="M23.1145 6.76406C23.2216 6.74435 23.3317 6.74755 23.4375 6.77344C23.5986 6.81502 23.7412 6.90897 23.843 7.04049C23.9449 7.17202 24.0001 7.33366 24 7.5V16.47C24.0022 16.6036 23.9702 16.7356 23.9068 16.8533C23.8434 16.971 23.7509 17.0705 23.6381 17.1422C23.5162 17.2159 23.3758 17.2534 23.2333 17.2503C23.0909 17.2471 22.9523 17.2034 22.8337 17.1244L19.6669 15.0131C19.6155 14.9789 19.5734 14.9324 19.5443 14.878C19.5152 14.8235 19.5 14.7627 19.5 14.7009V9.29906C19.5 9.23731 19.5152 9.1765 19.5443 9.12204C19.5734 9.06758 19.6155 9.02115 19.6669 8.98688L22.8159 6.88781C22.9056 6.82595 23.0073 6.78378 23.1145 6.76406Z" fill="#539461"/>
</g>
<defs>
<clipPath id="clip0_507_10138">
<rect width="24" height="24" fill="white"/>
</clipPath>
</defs>
</svg>
