<svg width="24" height="16" viewBox="0 0 24 16" fill="none" xmlns="http://www.w3.org/2000/svg">
<path fill-rule="evenodd" clip-rule="evenodd" d="M2.875 3.125V12.875H17.125V9.51247C17.1249 9.50354 17.1249 9.49462 17.125 9.48569V6.51431C17.1249 6.50538 17.1249 6.49646 17.125 6.48753V3.125H2.875ZM19.375 4.29076V2.75C19.375 1.71447 18.5355 0.875 17.5 0.875H2.5C1.46447 0.875 0.625 1.71447 0.625 2.75V13.25C0.625 14.2855 1.46447 15.125 2.5 15.125H17.5C18.5355 15.125 19.375 14.2855 19.375 13.25V11.7092L21.7133 13.4098C22.0555 13.6587 22.5084 13.6945 22.8855 13.5025C23.2626 13.3105 23.5 12.9231 23.5 12.5V3.5C23.5 3.07686 23.2626 2.68951 22.8855 2.4975C22.5084 2.30548 22.0555 2.34129 21.7133 2.59017L19.375 4.29076ZM19.375 7.07288V8.92712L21.25 10.2908V5.70924L19.375 7.07288Z" fill="#556065"/>
</svg>
