<svg xmlns="http://www.w3.org/2000/svg" viewBox="0 0 576 512" fill="white">
<path d="M547.6 103.8L490.3 13.1C485.2 5 476.1 0 466.4 0H109.6C99.9 0 90.8 5 85.7 13.1L28.4 103.8C10.7 123.4 0 149.9 0 177.8V480c0 17.7 14.3 32 32 32h448c17.7 0 32-14.3 32-32V416h32c17.7 0 32-14.3 32-32V177.8c0-27.9-10.7-54.4-28.4-74zM121 32h334l41.4 72H79.6L121 32zM32 177.8c0-12.8 4.9-24.7 13.4-33.6L79.6 112h416.8l34.2 32.2c8.5 8.9 13.4 20.8 13.4 33.6V384h-32v32H32V177.8zM288 256c-35.3 0-64 28.7-64 64s28.7 64 64 64s64-28.7 64-64s-28.7-64-64-64z"/>
</svg>