<svg width="48" height="48" viewBox="0 0 48 48" fill="none" xmlns="http://www.w3.org/2000/svg">
<g clip-path="url(#clip0_3735_36510)">
<path d="M10.0647 30.275H4.98C3.69732 30.275 2.32275 29.5725 2.32275 27.097C2.32275 25.8143 3.36263 24.7744 4.64532 24.7744H10.0646L10.0647 30.275Z" fill="#FB4455"/>
<path d="M44.1294 0H12.3875C11.9599 0 11.6133 0.346594 11.6133 0.774188V44.1107H44.9036V0.774188L44.1294 0Z" fill="#FF5F7A"/>
<path d="M44.9032 0H44.129V38.7097C44.129 41.2751 42.0494 43.3548 39.4839 43.3548V44.9032H44.9032C45.3308 44.9032 45.6774 44.5565 45.6774 44.129V0.774188C45.6774 0.346594 45.3308 0 44.9032 0Z" fill="#FB4455"/>
<path d="M34.0645 3.09766H9.2903C8.86271 3.09766 8.51611 3.44425 8.51611 3.87184V41.8819L9.2558 43.3582L8.51611 44.9042V47.2267C8.51611 47.6543 8.86271 48.0009 9.2903 48.0009H10.0645L11.6075 47.2987H41.8756V11.481L34.0645 3.09766Z" fill="#ECEAEC"/>
<path d="M16.3032 17.9722C15.9149 17.9722 15.6001 17.6574 15.6001 17.269V14.8098C15.6001 13.9223 16.4012 13.2002 17.3858 13.2002H19.8201C20.2084 13.2002 20.5232 13.515 20.5232 13.9033C20.5232 14.2916 20.2084 14.6064 19.8201 14.6064H17.3858C17.1504 14.6064 17.0063 14.7381 17.0063 14.8098V17.269C17.0063 17.6574 16.6915 17.9722 16.3032 17.9722Z" fill="#FB4455"/>
<path d="M32.8967 17.9722C32.5084 17.9722 32.1936 17.6574 32.1936 17.269V14.8098C32.1936 14.7381 32.0495 14.6064 31.8141 14.6064H29.3799C28.9916 14.6064 28.6768 14.2916 28.6768 13.9033C28.6768 13.515 28.9916 13.2002 29.3799 13.2002H31.8141C32.7988 13.2002 33.5999 13.9223 33.5999 14.8098V17.269C33.5999 17.6574 33.285 17.9722 32.8967 17.9722Z" fill="#FB4455"/>
<path d="M31.8141 31.1997H29.3799C28.9916 31.1997 28.6768 30.8849 28.6768 30.4966C28.6768 30.1083 28.9916 29.7935 29.3799 29.7935H31.8141C32.0495 29.7935 32.1936 29.6618 32.1936 29.5901V27.1309C32.1936 26.7425 32.5084 26.4277 32.8967 26.4277C33.285 26.4277 33.5999 26.7425 33.5999 27.1309V29.5901C33.5999 30.4776 32.7988 31.1997 31.8141 31.1997Z" fill="#FB4455"/>
<path d="M19.8201 31.1997H17.3858C16.4012 31.1997 15.6001 30.4776 15.6001 29.5901V27.1309C15.6001 26.7425 15.9149 26.4277 16.3032 26.4277C16.6915 26.4277 17.0063 26.7425 17.0063 27.1309V29.5901C17.0063 29.6618 17.1504 29.7935 17.3858 29.7935H19.8201C20.2084 29.7935 20.5232 30.1083 20.5232 30.4966C20.5232 30.8849 20.2084 31.1997 19.8201 31.1997Z" fill="#FB4455"/>
<path d="M28.1567 24.2012V25.6074H26.7505V24.2012H28.1567Z" fill="#FB4455"/>
<path d="M25.3442 24.2012V25.6074H23.938V24.2012H25.3442Z" fill="#FB4455"/>
<path d="M19.7349 21.6045V23.0107H18.3286V21.6045H19.7349Z" fill="#FB4455"/>
<path d="M25.3032 17.3857V18.792H23.897V17.3857H25.3032Z" fill="#FB4455"/>
<path d="M30.1676 23.0107H21.8442C21.4559 23.0107 21.1411 22.6959 21.1411 22.3076C21.1411 21.9193 21.4559 21.6045 21.8442 21.6045H30.1676C30.556 21.6045 30.8708 21.9193 30.8708 22.3076C30.8708 22.6959 30.556 23.0107 30.1676 23.0107Z" fill="#FB4455"/>
<path d="M27.3558 28.4199H24.6416C24.2533 28.4199 23.9385 28.1051 23.9385 27.7168C23.9385 27.3285 24.2533 27.0137 24.6416 27.0137H27.3558C27.7441 27.0137 28.0589 27.3285 28.0589 27.7168C28.0589 28.1051 27.7441 28.4199 27.3558 28.4199Z" fill="#FB4455"/>
<path d="M30.168 28.4199C29.7797 28.4199 29.4648 28.1051 29.4648 27.7168V24.9043C29.4648 24.516 29.7797 24.2012 30.168 24.2012C30.5563 24.2012 30.8711 24.516 30.8711 24.9043V27.7168C30.8711 28.1051 30.5563 28.4199 30.168 28.4199Z" fill="#FB4455"/>
<path d="M21.4692 19.4951H19.4067C19.1996 19.4951 19.0317 19.3272 19.0317 19.1201V17.0576C19.0317 16.8505 19.1996 16.6826 19.4067 16.6826H21.4692C21.6763 16.6826 21.8442 16.8505 21.8442 17.0576V19.1201C21.8442 19.3273 21.6764 19.4951 21.4692 19.4951Z" fill="#FB4455"/>
<path d="M21.4692 27.7168H19.4067C19.1996 27.7168 19.0317 27.5489 19.0317 27.3418V25.2793C19.0317 25.0722 19.1996 24.9043 19.4067 24.9043H21.4692C21.6763 24.9043 21.8442 25.0722 21.8442 25.2793V27.3418C21.8442 27.5489 21.6764 27.7168 21.4692 27.7168Z" fill="#FB4455"/>
<path d="M29.793 19.4951H27.7305C27.5234 19.4951 27.3555 19.3272 27.3555 19.1201V17.0576C27.3555 16.8505 27.5234 16.6826 27.7305 16.6826H29.793C30.0001 16.6826 30.168 16.8505 30.168 17.0576V19.1201C30.168 19.3273 30.0001 19.4951 29.793 19.4951Z" fill="#FB4455"/>
<path d="M34.8387 44.9032H8.51611V30.9678H34.8387C35.6939 30.9678 36.3871 31.6611 36.3871 32.5161V43.3549C36.3871 44.21 35.6938 44.9032 34.8387 44.9032Z" fill="#DBD8DB"/>
<path d="M33.2905 29.4202H4.64532C3.36263 29.4202 2.32275 28.3803 2.32275 27.0977V41.0331C2.32275 42.3158 3.36263 43.3557 4.64532 43.3557L6.32382 42.5751H34.1179V30.3164L33.2905 29.4202Z" fill="#FF5F7A"/>
<path d="M42.127 10.386L35.2922 3.55112C35.0018 3.26078 34.608 3.09766 34.1973 3.09766H34.0645V10.0654C34.0645 10.9206 34.7577 11.6138 35.6128 11.6138H40.258C40.6855 11.6138 41.0321 11.9604 41.0321 12.388V41.8073C41.0321 44.3728 38.9524 46.4524 36.387 46.4524H11.6128C10.7576 46.4524 10.0645 47.1457 10.0645 48.0008H41.8064C42.234 48.0008 42.5806 47.6542 42.5806 47.2266V11.4809C42.5806 11.0702 42.4174 10.6763 42.127 10.386Z" fill="#DBD8DB"/>
<path d="M33.2906 29.4189V38.7093C33.2906 40.4196 31.9042 41.806 30.1939 41.806H6.19388C5.3387 41.806 4.64551 42.4993 4.64551 43.3544H33.2906C34.1458 43.3544 34.839 42.6611 34.839 41.806V30.9674C34.839 30.1122 34.1457 29.4189 33.2906 29.4189Z" fill="#FB4455"/>
<path d="M7.99141 38.709H7.98307C7.5551 38.709 7.21338 39.0557 7.21338 39.4832C7.21338 39.9107 7.56344 40.2574 7.99132 40.2574C8.41919 40.2574 8.7655 39.9107 8.7655 39.4832C8.7655 39.0557 8.41928 38.709 7.99141 38.709Z" fill="white"/>
<path d="M12.9209 32.502H11.1926C10.7647 32.502 10.4185 32.8486 10.4185 33.2761V39.4837C10.4185 39.9112 10.7648 40.2579 11.1926 40.2579C11.6206 40.2579 11.9668 39.9112 11.9668 39.4837V37.5574C12.3154 37.5555 12.699 37.5539 12.9209 37.5539C14.3333 37.5539 15.4817 36.4205 15.4817 35.0279C15.4816 33.6352 14.3332 32.502 12.9209 32.502ZM12.9209 36.0054C12.7609 36.0054 12.326 36.0062 11.9668 36.0074V34.0502H12.9209C13.4698 34.0502 13.9332 34.4978 13.9332 35.0278C13.9332 35.5577 13.4697 36.0054 12.9209 36.0054Z" fill="white"/>
<path d="M19.3145 32.5068H17.5574C17.3517 32.5068 17.1545 32.5885 17.0092 32.734C16.8641 32.8795 16.7825 33.0768 16.7832 33.2825L16.7961 39.4862C16.7968 39.6916 16.8792 39.8881 17.0252 40.0329C17.1696 40.1765 17.3661 40.2574 17.5703 40.2574H17.5733C17.5733 40.2574 18.8752 40.2526 19.3795 40.2438C21.2417 40.2109 22.5935 38.587 22.5935 36.3819C22.5935 34.0643 21.2756 32.5068 19.3145 32.5068ZM19.3522 38.6955C19.1179 38.6996 18.7088 38.7031 18.3414 38.7053C18.3392 37.9723 18.3331 34.0552 18.3331 34.0552H19.3145C20.5907 34.0552 21.0451 35.257 21.0451 36.382C21.0451 37.5187 20.5219 38.675 19.3522 38.6955Z" fill="white"/>
<path d="M27.1671 35.556H25.6187V34.0503H27.3674C27.7954 34.0503 28.1416 33.7036 28.1416 33.2761C28.1416 32.8486 27.7953 32.502 27.3674 32.502H24.8445C24.4165 32.502 24.0703 32.8486 24.0703 33.2761V39.5025C24.0703 39.93 24.4166 40.2767 24.8445 40.2767C25.2724 40.2767 25.6187 39.93 25.6187 39.5025V37.1043H27.1671C27.595 37.1043 27.9413 36.7576 27.9413 36.3301C27.9413 35.9026 27.595 35.556 27.1671 35.556Z" fill="white"/>
</g>
<defs>
<clipPath id="clip0_3735_36510">
<rect width="48" height="48" fill="white"/>
</clipPath>
</defs>
</svg>
