<svg width="48" height="48" viewBox="0 0 48 48" fill="none" xmlns="http://www.w3.org/2000/svg">
<g clip-path="url(#clip0_3735_36515)">
<path d="M10.0647 30.275H4.98C3.69732 30.275 2.32275 29.5725 2.32275 27.097C2.32275 25.8143 3.36263 24.7744 4.64532 24.7744H10.0646L10.0647 30.275Z" fill="#77CC7D"/>
<path d="M44.1294 0H12.3875C11.9599 0 11.6133 0.346594 11.6133 0.774188V44.1107H44.9036V0.774188L44.1294 0Z" fill="#98DB7C"/>
<path d="M44.9032 0H44.129V38.7097C44.129 41.2751 42.0494 43.3548 39.4839 43.3548V44.9032H44.9032C45.3308 44.9032 45.6774 44.5565 45.6774 44.129V0.774188C45.6774 0.346594 45.3308 0 44.9032 0Z" fill="#77CC7D"/>
<path d="M34.0645 3.09766H9.2903C8.86271 3.09766 8.51611 3.44425 8.51611 3.87184V41.8819L9.2558 43.3582L8.51611 44.9042V47.2267C8.51611 47.6543 8.86271 48.0009 9.2903 48.0009H10.0645L11.6075 47.2987H41.8756V11.481L34.0645 3.09766Z" fill="#ECEAEC"/>
<path d="M14.3999 13.2002V34.58H34.8422C35.36 34.58 35.7797 34.1603 35.7797 33.6425V13.2002H14.3999Z" fill="#77CC7D"/>
<path d="M35.7797 29.6008H29.3562V26.7311H35.7797V25.3249H29.3562V22.4552H35.7797V21.0489H29.3562V18.1793H35.7797V16.773H29.3562V13.2002H27.95V16.773H22.2296V13.2002H20.8234V16.773H14.3999V18.1793H20.8234V21.0489H14.3999V22.4552H20.8234V25.3249H14.3999V26.7311H20.8234V29.6008H14.3999V31.0071H20.8234V34.5799H22.2296V31.0071H27.95V34.5799H29.3562V31.0071H35.7797V29.6008ZM27.95 29.6008H22.2296V26.7311H27.95V29.6008ZM27.95 25.3249H22.2296V22.4552H27.95V25.3249ZM27.95 21.0489H22.2296V18.1792H27.95V21.0489Z" fill="#ECEAEC"/>
<path d="M34.8387 44.9032H8.51611V30.9678H34.8387C35.6939 30.9678 36.3871 31.6611 36.3871 32.5161V43.3549C36.3871 44.21 35.6938 44.9032 34.8387 44.9032Z" fill="#DBD8DB"/>
<path d="M33.2905 29.4202H4.64532C3.36263 29.4202 2.32275 28.3803 2.32275 27.0977V41.0331C2.32275 42.3158 3.36263 43.3557 4.64532 43.3557L6.32382 42.5751H34.1179V30.3164L33.2905 29.4202Z" fill="#98DB7C"/>
<path d="M42.127 10.386L35.2922 3.55112C35.0018 3.26078 34.608 3.09766 34.1973 3.09766H34.0645V10.0654C34.0645 10.9206 34.7577 11.6138 35.6128 11.6138H40.258C40.6855 11.6138 41.0321 11.9604 41.0321 12.388V41.8073C41.0321 44.3728 38.9524 46.4524 36.387 46.4524H11.6128C10.7576 46.4524 10.0645 47.1457 10.0645 48.0008H41.8064C42.234 48.0008 42.5806 47.6542 42.5806 47.2266V11.4809C42.5806 11.0702 42.4174 10.6763 42.127 10.386Z" fill="#DBD8DB"/>
<path d="M33.2906 29.4189V38.7093C33.2906 40.4196 31.9042 41.806 30.1939 41.806H6.19388C5.3387 41.806 4.64551 42.4993 4.64551 43.3544H33.2906C34.1458 43.3544 34.839 42.6611 34.839 41.806V30.9674C34.839 30.1122 34.1457 29.4189 33.2906 29.4189Z" fill="#77CC7D"/>
<path d="M7.99141 38.709H7.98307C7.5551 38.709 7.21338 39.0557 7.21338 39.4832C7.21338 39.9107 7.56344 40.2574 7.99132 40.2574C8.41919 40.2574 8.7655 39.9107 8.7655 39.4832C8.7655 39.0557 8.41928 38.709 7.99141 38.709Z" fill="white"/>
<path d="M24.7296 40.4095C24.4815 40.4095 24.2258 40.3756 23.9626 40.308C23.7069 40.2403 23.4775 40.1576 23.2745 40.0598C23.1166 39.9846 22.9812 39.9019 22.8684 39.8116C22.7556 39.7139 22.6992 39.6086 22.6992 39.4958C22.6992 39.4206 22.7143 39.3078 22.7443 39.1574C22.7744 38.9995 22.8233 38.8528 22.891 38.7175C22.9662 38.5821 23.0564 38.5144 23.1617 38.5144C23.2294 38.5144 23.3384 38.552 23.4888 38.6272C23.6467 38.7024 23.8272 38.7776 24.0303 38.8528C24.2408 38.928 24.4627 38.9656 24.6958 38.9656C24.8988 38.9656 25.0868 38.9168 25.2598 38.819C25.4403 38.7137 25.5305 38.4994 25.5305 38.176C25.5305 37.9655 25.4779 37.7925 25.3726 37.6572C25.2748 37.5218 25.1395 37.4015 24.9665 37.2962C24.8011 37.1909 24.6206 37.0856 24.4251 36.9804C24.0791 36.7848 23.7859 36.5818 23.5452 36.3712C23.3046 36.1607 23.1203 35.9163 22.9925 35.638C22.8647 35.3523 22.8007 35.0064 22.8007 34.6003C22.8007 34.1265 22.9023 33.7204 23.1053 33.382C23.3159 33.0436 23.5979 32.7842 23.9513 32.6037C24.3123 32.4232 24.7183 32.333 25.1695 32.333C25.4252 32.333 25.6884 32.3631 25.9591 32.4232C26.2299 32.4834 26.4592 32.5736 26.6472 32.694C26.7149 32.7391 26.7863 32.7955 26.8615 32.8632C26.9367 32.9308 26.9743 33.0136 26.9743 33.1113C26.9743 33.2166 26.9593 33.3482 26.9292 33.5061C26.8991 33.6565 26.854 33.7919 26.7939 33.9122C26.7337 34.0325 26.6585 34.0927 26.5683 34.0927C26.5081 34.0927 26.4103 34.0664 26.275 34.0137C26.1396 33.9611 25.9855 33.9084 25.8125 33.8558C25.6395 33.8032 25.4703 33.7768 25.3049 33.7768C25.0643 33.7768 24.88 33.8182 24.7522 33.9009C24.6319 33.9836 24.5491 34.0814 24.504 34.1942C24.4664 34.2995 24.4476 34.401 24.4476 34.4988C24.4476 34.7244 24.5078 34.9048 24.6281 35.0402C24.7559 35.1756 24.9176 35.2921 25.1131 35.3899C25.3087 35.4876 25.5117 35.5967 25.7223 35.717C26.0531 35.905 26.3239 36.1043 26.5344 36.3148C26.7525 36.5254 26.9142 36.7698 27.0195 37.048C27.1323 37.3188 27.1887 37.6534 27.1887 38.052C27.1887 38.458 27.1022 38.8416 26.9292 39.2025C26.7563 39.556 26.4893 39.8455 26.1283 40.0711C25.7674 40.2967 25.3011 40.4095 24.7296 40.4095Z" fill="white"/>
<path d="M18.0663 40.3199C17.788 40.3199 17.6489 40.1695 17.6489 39.8687V32.7736C17.6489 32.5254 17.8745 32.4014 18.3257 32.4014H18.7205C19.1717 32.4014 19.3973 32.5254 19.3973 32.7736V38.8422H21.0442C21.2698 38.8422 21.3826 39.0302 21.3826 39.4062V39.7559C21.3826 40.1319 21.2698 40.3199 21.0442 40.3199H18.0663Z" fill="white"/>
<path d="M11.3412 40.3425C10.9803 40.3425 10.7998 40.2673 10.7998 40.1169C10.7998 40.0793 10.8073 40.0379 10.8224 39.9928C10.8374 39.9477 10.8562 39.8988 10.8788 39.8462L12.4016 36.2027L11.0931 32.8977C11.0555 32.7999 11.0367 32.7247 11.0367 32.6721C11.0367 32.5894 11.0743 32.5254 11.1495 32.4803C11.2322 32.4277 11.3676 32.4014 11.5556 32.4014H12.1083C12.2587 32.4014 12.3903 32.4202 12.5031 32.4578C12.6159 32.4878 12.6948 32.5743 12.74 32.7172L13.507 35.1988L14.3643 32.627C14.4019 32.5217 14.4733 32.4578 14.5786 32.4352C14.6914 32.4126 14.8305 32.4014 14.996 32.4014H15.5036C15.8344 32.4014 15.9999 32.4728 15.9999 32.6157C15.9999 32.6683 15.9698 32.7623 15.9096 32.8977L14.5448 36.2253L15.9773 39.8462C16.0224 39.959 16.045 40.0492 16.045 40.1169C16.045 40.2673 15.8683 40.3425 15.5148 40.3425H15.0072C14.7816 40.3425 14.6275 40.3237 14.5448 40.2861C14.462 40.241 14.3981 40.1545 14.353 40.0266L13.4619 37.3307L12.4805 40.0154C12.4279 40.1507 12.3602 40.241 12.2775 40.2861C12.1948 40.3237 12.0444 40.3425 11.8263 40.3425H11.3412Z" fill="white"/>
</g>
<defs>
<clipPath id="clip0_3735_36515">
<rect width="48" height="48" fill="white"/>
</clipPath>
</defs>
</svg>
